<svg xmlns="http://www.w3.org/2000/svg" xmlns:xlink="http://www.w3.org/1999/xlink" width="700" zoomAndPan="magnify" viewBox="0 0 525 299.999988" height="400" preserveAspectRatio="xMidYMid meet" version="1.2"><defs><clipPath id="6a4022fa97"><path d="M 30 72.71875 L 101.25 72.71875 L 101.25 143.96875 L 30 143.96875 Z M 30 72.71875 "/></clipPath><clipPath id="d279bf4fe3"><path d="M 143.050781 124.140625 L 214.300781 124.140625 L 214.300781 195.390625 L 143.050781 195.390625 Z M 143.050781 124.140625 "/></clipPath><clipPath id="213fd2a162"><path d="M 256.097656 169.964844 L 327.347656 169.964844 L 327.347656 241.214844 L 256.097656 241.214844 Z M 256.097656 169.964844 "/></clipPath><clipPath id="808997a15e"><path d="M 407.597656 150 L 478.847656 150 L 478.847656 221.25 L 407.597656 221.25 Z M 407.597656 150 "/></clipPath><clipPath id="e40de46ec8"><path d="M 310.933594 57.097656 L 382.183594 57.097656 L 382.183594 128.347656 L 310.933594 128.347656 Z M 310.933594 57.097656 "/></clipPath></defs><g id="f5b6072673"><rect x="0" width="525" y="0" height="299.999988" style="fill:#ffffff;fill-opacity:1;stroke:none;"/><rect x="0" width="525" y="0" height="299.999988" style="fill:#7dd8ac;fill-opacity:1;stroke:none;"/><g clip-rule="nonzero" clip-path="url(#6a4022fa97)"><path style=" stroke:none;fill-rule:nonzero;fill:#05a53f;fill-opacity:1;" d="M 101.121094 108.28125 C 101.121094 109.445312 101.0625 110.605469 100.949219 111.765625 C 100.835938 112.925781 100.664062 114.074219 100.4375 115.21875 C 100.210938 116.359375 99.929688 117.488281 99.589844 118.601562 C 99.25 119.714844 98.859375 120.8125 98.414062 121.886719 C 97.96875 122.964844 97.472656 124.015625 96.921875 125.042969 C 96.375 126.070312 95.773438 127.066406 95.128906 128.035156 C 94.480469 129.003906 93.789062 129.9375 93.050781 130.839844 C 92.308594 131.738281 91.527344 132.601562 90.707031 133.425781 C 89.882812 134.25 89.019531 135.03125 88.121094 135.769531 C 87.21875 136.507812 86.285156 137.199219 85.316406 137.847656 C 84.347656 138.496094 83.351562 139.09375 82.324219 139.640625 C 81.296875 140.191406 80.246094 140.6875 79.167969 141.132812 C 78.09375 141.578125 76.996094 141.972656 75.882812 142.308594 C 74.769531 142.648438 73.640625 142.929688 72.5 143.15625 C 71.355469 143.382812 70.207031 143.554688 69.046875 143.667969 C 67.886719 143.78125 66.726562 143.839844 65.5625 143.839844 C 64.394531 143.839844 63.234375 143.78125 62.074219 143.667969 C 60.914062 143.554688 59.765625 143.382812 58.621094 143.15625 C 57.480469 142.929688 56.351562 142.648438 55.238281 142.308594 C 54.125 141.972656 53.027344 141.578125 51.953125 141.132812 C 50.875 140.6875 49.824219 140.191406 48.796875 139.640625 C 47.769531 139.09375 46.773438 138.496094 45.804688 137.847656 C 44.835938 137.199219 43.902344 136.507812 43 135.769531 C 42.101562 135.03125 41.238281 134.25 40.414062 133.425781 C 39.59375 132.601562 38.8125 131.738281 38.070312 130.839844 C 37.332031 129.9375 36.640625 129.003906 35.992188 128.035156 C 35.347656 127.066406 34.746094 126.070312 34.199219 125.042969 C 33.648438 124.015625 33.152344 122.964844 32.707031 121.886719 C 32.261719 120.8125 31.871094 119.714844 31.53125 118.601562 C 31.191406 117.488281 30.910156 116.359375 30.683594 115.21875 C 30.457031 114.074219 30.285156 112.925781 30.171875 111.765625 C 30.058594 110.605469 30 109.445312 30 108.28125 C 30 107.113281 30.058594 105.953125 30.171875 104.792969 C 30.285156 103.636719 30.457031 102.484375 30.683594 101.34375 C 30.910156 100.199219 31.191406 99.070312 31.53125 97.957031 C 31.871094 96.84375 32.261719 95.746094 32.707031 94.671875 C 33.152344 93.59375 33.648438 92.542969 34.199219 91.515625 C 34.746094 90.488281 35.347656 89.492188 35.992188 88.523438 C 36.640625 87.554688 37.332031 86.621094 38.070312 85.71875 C 38.8125 84.820312 39.59375 83.957031 40.414062 83.132812 C 41.238281 82.3125 42.101562 81.53125 43 80.789062 C 43.902344 80.050781 44.835938 79.359375 45.804688 78.710938 C 46.773438 78.066406 47.769531 77.46875 48.796875 76.917969 C 49.824219 76.367188 50.875 75.871094 51.953125 75.425781 C 53.027344 74.980469 54.125 74.589844 55.238281 74.25 C 56.351562 73.914062 57.480469 73.628906 58.621094 73.402344 C 59.765625 73.175781 60.914062 73.003906 62.074219 72.890625 C 63.234375 72.777344 64.394531 72.71875 65.5625 72.71875 C 66.726562 72.71875 67.886719 72.777344 69.046875 72.890625 C 70.207031 73.003906 71.355469 73.175781 72.5 73.402344 C 73.640625 73.628906 74.769531 73.914062 75.882812 74.25 C 76.996094 74.589844 78.09375 74.980469 79.167969 75.425781 C 80.246094 75.871094 81.296875 76.367188 82.324219 76.917969 C 83.351562 77.46875 84.347656 78.066406 85.316406 78.710938 C 86.285156 79.359375 87.21875 80.050781 88.121094 80.789062 C 89.019531 81.53125 89.882812 82.3125 90.707031 83.132812 C 91.527344 83.957031 92.308594 84.820312 93.050781 85.71875 C 93.789062 86.621094 94.480469 87.554688 95.128906 88.523438 C 95.773438 89.492188 96.375 90.488281 96.921875 91.515625 C 97.472656 92.542969 97.96875 93.59375 98.414062 94.671875 C 98.859375 95.746094 99.25 96.84375 99.589844 97.957031 C 99.929688 99.070312 100.210938 100.199219 100.4375 101.34375 C 100.664062 102.484375 100.835938 103.636719 100.949219 104.792969 C 101.0625 105.953125 101.121094 107.113281 101.121094 108.28125 Z M 101.121094 108.28125 "/></g><g clip-rule="nonzero" clip-path="url(#d279bf4fe3)"><path style=" stroke:none;fill-rule:nonzero;fill:#f7339a;fill-opacity:1;" d="M 214.171875 159.703125 C 214.171875 160.867188 214.113281 162.027344 214 163.1875 C 213.882812 164.347656 213.714844 165.496094 213.488281 166.640625 C 213.257812 167.78125 212.976562 168.910156 212.640625 170.023438 C 212.300781 171.140625 211.910156 172.234375 211.464844 173.308594 C 211.015625 174.386719 210.519531 175.4375 209.972656 176.464844 C 209.421875 177.492188 208.824219 178.488281 208.175781 179.457031 C 207.53125 180.425781 206.835938 181.359375 206.097656 182.261719 C 205.359375 183.160156 204.578125 184.023438 203.753906 184.847656 C 202.929688 185.671875 202.070312 186.453125 201.167969 187.191406 C 200.269531 187.929688 199.335938 188.621094 198.367188 189.269531 C 197.398438 189.917969 196.398438 190.515625 195.371094 191.0625 C 194.34375 191.613281 193.292969 192.109375 192.21875 192.554688 C 191.140625 193 190.046875 193.394531 188.933594 193.730469 C 187.816406 194.070312 186.6875 194.351562 185.546875 194.578125 C 184.40625 194.804688 183.253906 194.976562 182.09375 195.089844 C 180.9375 195.207031 179.773438 195.261719 178.609375 195.261719 C 177.445312 195.261719 176.28125 195.207031 175.125 195.089844 C 173.964844 194.976562 172.8125 194.804688 171.671875 194.578125 C 170.53125 194.351562 169.402344 194.070312 168.285156 193.730469 C 167.171875 193.394531 166.078125 193 165 192.554688 C 163.925781 192.109375 162.875 191.613281 161.847656 191.0625 C 160.820312 190.515625 159.820312 189.917969 158.851562 189.269531 C 157.882812 188.621094 156.949219 187.929688 156.050781 187.191406 C 155.148438 186.453125 154.289062 185.671875 153.464844 184.847656 C 152.640625 184.023438 151.859375 183.160156 151.121094 182.261719 C 150.382812 181.359375 149.6875 180.425781 149.042969 179.457031 C 148.394531 178.488281 147.796875 177.492188 147.246094 176.464844 C 146.699219 175.4375 146.203125 174.386719 145.753906 173.308594 C 145.308594 172.234375 144.917969 171.140625 144.582031 170.023438 C 144.242188 168.910156 143.960938 167.78125 143.730469 166.640625 C 143.503906 165.496094 143.335938 164.347656 143.21875 163.1875 C 143.105469 162.027344 143.050781 160.867188 143.050781 159.703125 C 143.050781 158.535156 143.105469 157.375 143.21875 156.214844 C 143.335938 155.058594 143.503906 153.90625 143.730469 152.765625 C 143.960938 151.621094 144.242188 150.492188 144.582031 149.378906 C 144.917969 148.265625 145.308594 147.167969 145.753906 146.09375 C 146.203125 145.015625 146.699219 143.964844 147.246094 142.9375 C 147.796875 141.910156 148.394531 140.914062 149.042969 139.945312 C 149.6875 138.976562 150.382812 138.042969 151.121094 137.140625 C 151.859375 136.242188 152.640625 135.378906 153.464844 134.554688 C 154.289062 133.734375 155.148438 132.953125 156.050781 132.214844 C 156.949219 131.472656 157.882812 130.78125 158.851562 130.132812 C 159.820312 129.488281 160.820312 128.890625 161.847656 128.339844 C 162.875 127.792969 163.925781 127.292969 165 126.847656 C 166.078125 126.402344 167.171875 126.011719 168.285156 125.671875 C 169.402344 125.335938 170.53125 125.050781 171.671875 124.824219 C 172.8125 124.597656 173.964844 124.425781 175.125 124.3125 C 176.28125 124.199219 177.445312 124.140625 178.609375 124.140625 C 179.773438 124.140625 180.9375 124.199219 182.09375 124.3125 C 183.253906 124.425781 184.40625 124.597656 185.546875 124.824219 C 186.6875 125.050781 187.816406 125.335938 188.933594 125.671875 C 190.046875 126.011719 191.140625 126.402344 192.21875 126.847656 C 193.292969 127.292969 194.34375 127.792969 195.371094 128.339844 C 196.398438 128.890625 197.398438 129.488281 198.367188 130.132812 C 199.335938 130.78125 200.269531 131.472656 201.167969 132.214844 C 202.070312 132.953125 202.929688 133.734375 203.753906 134.554688 C 204.578125 135.378906 205.359375 136.242188 206.097656 137.140625 C 206.835938 138.042969 207.53125 138.976562 208.175781 139.945312 C 208.824219 140.914062 209.421875 141.910156 209.972656 142.9375 C 210.519531 143.964844 211.015625 145.015625 211.464844 146.09375 C 211.910156 147.167969 212.300781 148.265625 212.640625 149.378906 C 212.976562 150.492188 213.257812 151.621094 213.488281 152.765625 C 213.714844 153.90625 213.882812 155.058594 214 156.214844 C 214.113281 157.375 214.171875 158.535156 214.171875 159.703125 Z M 214.171875 159.703125 "/></g><g clip-rule="nonzero" clip-path="url(#213fd2a162)"><path style=" stroke:none;fill-rule:nonzero;fill:#a3b4ff;fill-opacity:1;" d="M 327.21875 205.527344 C 327.21875 206.691406 327.160156 207.851562 327.046875 209.011719 C 326.933594 210.171875 326.761719 211.320312 326.535156 212.464844 C 326.308594 213.605469 326.027344 214.734375 325.6875 215.847656 C 325.351562 216.964844 324.957031 218.058594 324.511719 219.132812 C 324.066406 220.210938 323.570312 221.261719 323.019531 222.289062 C 322.472656 223.316406 321.871094 224.3125 321.226562 225.28125 C 320.578125 226.25 319.886719 227.183594 319.148438 228.085938 C 318.410156 228.984375 317.628906 229.847656 316.804688 230.671875 C 315.980469 231.496094 315.117188 232.277344 314.21875 233.015625 C 313.316406 233.753906 312.382812 234.445312 311.414062 235.09375 C 310.445312 235.742188 309.449219 236.339844 308.421875 236.886719 C 307.394531 237.4375 306.34375 237.933594 305.265625 238.378906 C 304.191406 238.824219 303.09375 239.21875 301.980469 239.554688 C 300.867188 239.894531 299.738281 240.175781 298.597656 240.402344 C 297.453125 240.628906 296.304688 240.800781 295.144531 240.914062 C 293.984375 241.03125 292.824219 241.085938 291.660156 241.085938 C 290.492188 241.085938 289.332031 241.03125 288.171875 240.914062 C 287.015625 240.800781 285.863281 240.628906 284.722656 240.402344 C 283.578125 240.175781 282.449219 239.894531 281.335938 239.554688 C 280.222656 239.21875 279.125 238.824219 278.050781 238.378906 C 276.972656 237.933594 275.921875 237.4375 274.894531 236.886719 C 273.867188 236.339844 272.871094 235.742188 271.902344 235.09375 C 270.933594 234.445312 270 233.753906 269.097656 233.015625 C 268.199219 232.277344 267.335938 231.496094 266.511719 230.671875 C 265.691406 229.847656 264.910156 228.984375 264.167969 228.085938 C 263.429688 227.183594 262.738281 226.25 262.089844 225.28125 C 261.445312 224.3125 260.847656 223.316406 260.296875 222.289062 C 259.746094 221.261719 259.25 220.210938 258.804688 219.132812 C 258.359375 218.058594 257.96875 216.964844 257.628906 215.847656 C 257.289062 214.734375 257.007812 213.605469 256.78125 212.464844 C 256.554688 211.320312 256.382812 210.171875 256.269531 209.011719 C 256.15625 207.851562 256.097656 206.691406 256.097656 205.527344 C 256.097656 204.359375 256.15625 203.199219 256.269531 202.039062 C 256.382812 200.882812 256.554688 199.730469 256.78125 198.589844 C 257.007812 197.445312 257.289062 196.316406 257.628906 195.203125 C 257.96875 194.089844 258.359375 192.992188 258.804688 191.917969 C 259.25 190.839844 259.746094 189.789062 260.296875 188.761719 C 260.847656 187.734375 261.445312 186.738281 262.089844 185.769531 C 262.738281 184.800781 263.429688 183.867188 264.167969 182.964844 C 264.910156 182.066406 265.691406 181.203125 266.511719 180.378906 C 267.335938 179.558594 268.199219 178.777344 269.097656 178.039062 C 270 177.296875 270.933594 176.605469 271.902344 175.957031 C 272.871094 175.3125 273.867188 174.714844 274.894531 174.164062 C 275.921875 173.617188 276.972656 173.117188 278.050781 172.671875 C 279.125 172.226562 280.222656 171.835938 281.335938 171.496094 C 282.449219 171.160156 283.578125 170.875 284.722656 170.648438 C 285.863281 170.421875 287.015625 170.25 288.171875 170.136719 C 289.332031 170.023438 290.492188 169.964844 291.660156 169.964844 C 292.824219 169.964844 293.984375 170.023438 295.144531 170.136719 C 296.304688 170.25 297.453125 170.421875 298.597656 170.648438 C 299.738281 170.875 300.867188 171.160156 301.980469 171.496094 C 303.09375 171.835938 304.191406 172.226562 305.265625 172.671875 C 306.34375 173.117188 307.394531 173.617188 308.421875 174.164062 C 309.449219 174.714844 310.445312 175.3125 311.414062 175.957031 C 312.382812 176.605469 313.316406 177.296875 314.21875 178.039062 C 315.117188 178.777344 315.980469 179.558594 316.804688 180.378906 C 317.628906 181.203125 318.410156 182.066406 319.148438 182.964844 C 319.886719 183.867188 320.578125 184.800781 321.226562 185.769531 C 321.871094 186.738281 322.472656 187.734375 323.019531 188.761719 C 323.570312 189.789062 324.066406 190.839844 324.511719 191.917969 C 324.957031 192.992188 325.351562 194.089844 325.6875 195.203125 C 326.027344 196.316406 326.308594 197.445312 326.535156 198.589844 C 326.761719 199.730469 326.933594 200.882812 327.046875 202.039062 C 327.160156 203.199219 327.21875 204.359375 327.21875 205.527344 Z M 327.21875 205.527344 "/></g><g clip-rule="nonzero" clip-path="url(#808997a15e)"><path style=" stroke:none;fill-rule:nonzero;fill:#61ebfd;fill-opacity:1;" d="M 478.71875 185.558594 C 478.71875 186.726562 478.664062 187.886719 478.550781 189.046875 C 478.433594 190.207031 478.265625 191.355469 478.039062 192.496094 C 477.808594 193.640625 477.527344 194.769531 477.1875 195.882812 C 476.851562 196.996094 476.460938 198.09375 476.015625 199.167969 C 475.566406 200.246094 475.070312 201.296875 474.523438 202.324219 C 473.972656 203.351562 473.375 204.347656 472.726562 205.316406 C 472.082031 206.285156 471.386719 207.21875 470.648438 208.121094 C 469.910156 209.019531 469.128906 209.882812 468.304688 210.707031 C 467.480469 211.527344 466.621094 212.308594 465.71875 213.050781 C 464.820312 213.789062 463.886719 214.480469 462.917969 215.128906 C 461.949219 215.773438 460.949219 216.375 459.921875 216.921875 C 458.894531 217.472656 457.84375 217.96875 456.769531 218.414062 C 455.691406 218.859375 454.597656 219.25 453.484375 219.589844 C 452.367188 219.929688 451.238281 220.210938 450.097656 220.4375 C 448.957031 220.664062 447.804688 220.835938 446.644531 220.949219 C 445.488281 221.0625 444.324219 221.121094 443.160156 221.121094 C 441.996094 221.121094 440.832031 221.0625 439.675781 220.949219 C 438.515625 220.835938 437.363281 220.664062 436.222656 220.4375 C 435.082031 220.210938 433.953125 219.929688 432.835938 219.589844 C 431.722656 219.25 430.628906 218.859375 429.550781 218.414062 C 428.476562 217.96875 427.425781 217.472656 426.398438 216.921875 C 425.371094 216.375 424.371094 215.773438 423.402344 215.128906 C 422.433594 214.480469 421.5 213.789062 420.601562 213.050781 C 419.699219 212.308594 418.839844 211.527344 418.015625 210.707031 C 417.191406 209.882812 416.410156 209.019531 415.671875 208.121094 C 414.933594 207.21875 414.238281 206.285156 413.59375 205.316406 C 412.945312 204.347656 412.347656 203.351562 411.796875 202.324219 C 411.25 201.296875 410.753906 200.246094 410.304688 199.167969 C 409.859375 198.09375 409.46875 196.996094 409.128906 195.882812 C 408.792969 194.769531 408.511719 193.640625 408.28125 192.496094 C 408.054688 191.355469 407.886719 190.207031 407.769531 189.046875 C 407.65625 187.886719 407.597656 186.726562 407.597656 185.558594 C 407.597656 184.394531 407.65625 183.234375 407.769531 182.074219 C 407.886719 180.914062 408.054688 179.765625 408.28125 178.621094 C 408.511719 177.480469 408.792969 176.351562 409.128906 175.238281 C 409.46875 174.125 409.859375 173.027344 410.304688 171.953125 C 410.753906 170.875 411.25 169.824219 411.796875 168.796875 C 412.347656 167.769531 412.945312 166.773438 413.59375 165.804688 C 414.238281 164.835938 414.933594 163.902344 415.671875 163 C 416.410156 162.101562 417.191406 161.238281 418.015625 160.414062 C 418.839844 159.59375 419.699219 158.8125 420.601562 158.070312 C 421.5 157.332031 422.433594 156.640625 423.402344 155.992188 C 424.371094 155.347656 425.371094 154.746094 426.398438 154.199219 C 427.425781 153.648438 428.476562 153.152344 429.550781 152.707031 C 430.628906 152.261719 431.722656 151.871094 432.835938 151.53125 C 433.953125 151.191406 435.082031 150.910156 436.222656 150.683594 C 437.363281 150.457031 438.515625 150.285156 439.675781 150.171875 C 440.832031 150.058594 441.996094 150 443.160156 150 C 444.324219 150 445.488281 150.058594 446.644531 150.171875 C 447.804688 150.285156 448.957031 150.457031 450.097656 150.683594 C 451.238281 150.910156 452.367188 151.191406 453.484375 151.53125 C 454.597656 151.871094 455.691406 152.261719 456.769531 152.707031 C 457.84375 153.152344 458.894531 153.648438 459.921875 154.199219 C 460.949219 154.746094 461.949219 155.347656 462.917969 155.992188 C 463.886719 156.640625 464.820312 157.332031 465.71875 158.070312 C 466.621094 158.8125 467.480469 159.59375 468.304688 160.414062 C 469.128906 161.238281 469.910156 162.101562 470.648438 163 C 471.386719 163.902344 472.082031 164.835938 472.726562 165.804688 C 473.375 166.773438 473.972656 167.769531 474.523438 168.796875 C 475.070312 169.824219 475.566406 170.875 476.015625 171.953125 C 476.460938 173.027344 476.851562 174.125 477.1875 175.238281 C 477.527344 176.351562 477.808594 177.480469 478.039062 178.621094 C 478.265625 179.765625 478.433594 180.914062 478.550781 182.074219 C 478.664062 183.234375 478.71875 184.394531 478.71875 185.558594 Z M 478.71875 185.558594 "/></g><g clip-rule="nonzero" clip-path="url(#e40de46ec8)"><path style=" stroke:none;fill-rule:nonzero;fill:#fdcb58;fill-opacity:1;" d="M 382.183594 92.722656 C 382.183594 93.890625 382.128906 95.054688 382.011719 96.214844 C 381.898438 97.378906 381.726562 98.53125 381.5 99.675781 C 381.273438 100.820312 380.988281 101.949219 380.648438 103.066406 C 380.3125 104.183594 379.917969 105.28125 379.472656 106.359375 C 379.027344 107.433594 378.527344 108.488281 377.976562 109.519531 C 377.429688 110.546875 376.828125 111.546875 376.179688 112.515625 C 375.53125 113.488281 374.839844 114.421875 374.097656 115.324219 C 373.359375 116.226562 372.574219 117.089844 371.75 117.914062 C 370.925781 118.738281 370.0625 119.523438 369.160156 120.261719 C 368.257812 121.003906 367.320312 121.695312 366.351562 122.34375 C 365.382812 122.992188 364.382812 123.59375 363.351562 124.144531 C 362.324219 124.691406 361.269531 125.191406 360.191406 125.636719 C 359.113281 126.085938 358.015625 126.476562 356.902344 126.816406 C 355.785156 127.152344 354.652344 127.4375 353.507812 127.664062 C 352.363281 127.890625 351.210938 128.0625 350.050781 128.179688 C 348.890625 128.292969 347.726562 128.347656 346.558594 128.347656 C 345.394531 128.347656 344.230469 128.292969 343.066406 128.179688 C 341.90625 128.0625 340.753906 127.890625 339.609375 127.664062 C 338.464844 127.4375 337.335938 127.152344 336.21875 126.816406 C 335.101562 126.476562 334.003906 126.085938 332.925781 125.636719 C 331.847656 125.191406 330.792969 124.691406 329.765625 124.144531 C 328.738281 123.59375 327.738281 122.992188 326.765625 122.34375 C 325.796875 121.695312 324.859375 121.003906 323.960938 120.261719 C 323.058594 119.523438 322.195312 118.738281 321.367188 117.914062 C 320.542969 117.089844 319.761719 116.226562 319.019531 115.324219 C 318.28125 114.421875 317.585938 113.488281 316.9375 112.515625 C 316.289062 111.546875 315.691406 110.546875 315.140625 109.519531 C 314.589844 108.488281 314.09375 107.433594 313.644531 106.359375 C 313.199219 105.28125 312.808594 104.183594 312.46875 103.066406 C 312.128906 101.949219 311.847656 100.820312 311.617188 99.675781 C 311.390625 98.53125 311.21875 97.378906 311.105469 96.214844 C 310.992188 95.054688 310.933594 93.890625 310.933594 92.722656 C 310.933594 91.558594 310.992188 90.394531 311.105469 89.234375 C 311.21875 88.070312 311.390625 86.917969 311.617188 85.773438 C 311.847656 84.628906 312.128906 83.5 312.46875 82.382812 C 312.808594 81.265625 313.199219 80.167969 313.644531 79.089844 C 314.09375 78.011719 314.589844 76.960938 315.140625 75.929688 C 315.691406 74.902344 316.289062 73.902344 316.9375 72.933594 C 317.585938 71.960938 318.28125 71.027344 319.019531 70.125 C 319.761719 69.222656 320.542969 68.359375 321.367188 67.535156 C 322.195312 66.707031 323.058594 65.925781 323.960938 65.1875 C 324.859375 64.445312 325.796875 63.75 326.765625 63.101562 C 327.738281 62.453125 328.738281 61.855469 329.765625 61.304688 C 330.792969 60.757812 331.847656 60.257812 332.925781 59.8125 C 334.003906 59.363281 335.101562 58.972656 336.21875 58.632812 C 337.335938 58.292969 338.464844 58.011719 339.609375 57.785156 C 340.753906 57.554688 341.90625 57.386719 343.066406 57.269531 C 344.230469 57.15625 345.394531 57.097656 346.558594 57.097656 C 347.726562 57.097656 348.890625 57.15625 350.050781 57.269531 C 351.210938 57.386719 352.363281 57.554688 353.507812 57.785156 C 354.652344 58.011719 355.785156 58.292969 356.902344 58.632812 C 358.015625 58.972656 359.113281 59.363281 360.191406 59.8125 C 361.269531 60.257812 362.324219 60.757812 363.351562 61.304688 C 364.382812 61.855469 365.382812 62.453125 366.351562 63.101562 C 367.320312 63.75 368.257812 64.445312 369.160156 65.1875 C 370.0625 65.925781 370.925781 66.707031 371.75 67.535156 C 372.574219 68.359375 373.359375 69.222656 374.097656 70.125 C 374.839844 71.027344 375.53125 71.960938 376.179688 72.933594 C 376.828125 73.902344 377.429688 74.902344 377.976562 75.929688 C 378.527344 76.960938 379.027344 78.011719 379.472656 79.089844 C 379.917969 80.167969 380.3125 81.265625 380.648438 82.382812 C 380.988281 83.5 381.273438 84.628906 381.5 85.773438 C 381.726562 86.917969 381.898438 88.070312 382.011719 89.234375 C 382.128906 90.394531 382.183594 91.558594 382.183594 92.722656 Z M 382.183594 92.722656 "/></g></g></svg>