<svg width="3135" height="1341" viewBox="0 0 3135 1341" fill="none" xmlns="http://www.w3.org/2000/svg">
<path d="M158.867 735.871C154.806 731.991 154.759 725.512 158.762 721.541L670 214.379C676.291 208.138 686.962 212.507 687.027 221.351L694.395 1223.96C694.46 1232.8 683.855 1237.41 677.473 1231.32L158.867 735.871Z" fill="#0D6EFD"/>
<path d="M254.182 285H240.874V245.727H254.45C258.349 245.727 261.699 246.513 264.499 248.086C267.311 249.646 269.472 251.889 270.98 254.817C272.489 257.744 273.243 261.247 273.243 265.325C273.243 269.416 272.482 272.932 270.961 275.872C269.452 278.812 267.273 281.069 264.422 282.641C261.584 284.214 258.17 285 254.182 285ZM247.988 278.844H253.837C256.572 278.844 258.854 278.346 260.683 277.349C262.511 276.339 263.885 274.837 264.805 272.842C265.726 270.835 266.186 268.33 266.186 265.325C266.186 262.321 265.726 259.828 264.805 257.847C263.885 255.852 262.523 254.363 260.721 253.379C258.931 252.381 256.707 251.883 254.048 251.883H247.988V278.844ZM278.196 285V255.545H285.137V285H278.196ZM281.686 251.365C280.586 251.365 279.64 251.001 278.848 250.272C278.055 249.531 277.659 248.642 277.659 247.607C277.659 246.558 278.055 245.67 278.848 244.941C279.64 244.2 280.586 243.829 281.686 243.829C282.798 243.829 283.744 244.2 284.524 244.941C285.316 245.67 285.713 246.558 285.713 247.607C285.713 248.642 285.316 249.531 284.524 250.272C283.744 251.001 282.798 251.365 281.686 251.365ZM314.056 263.331L307.727 264.021C307.548 263.382 307.235 262.781 306.788 262.219C306.353 261.656 305.765 261.202 305.024 260.857C304.282 260.512 303.374 260.339 302.301 260.339C300.856 260.339 299.642 260.653 298.657 261.279C297.686 261.906 297.206 262.717 297.219 263.714C297.206 264.571 297.519 265.268 298.159 265.805C298.811 266.342 299.884 266.783 301.38 267.128L306.404 268.202C309.191 268.803 311.262 269.755 312.617 271.059C313.985 272.363 314.676 274.07 314.688 276.179C314.676 278.033 314.132 279.669 313.058 281.088C311.997 282.494 310.521 283.594 308.629 284.386C306.737 285.179 304.563 285.575 302.109 285.575C298.504 285.575 295.602 284.821 293.403 283.312C291.204 281.791 289.894 279.675 289.472 276.965L296.241 276.313C296.548 277.643 297.2 278.646 298.197 279.324C299.194 280.001 300.492 280.34 302.09 280.34C303.739 280.34 305.062 280.001 306.059 279.324C307.069 278.646 307.574 277.809 307.574 276.812C307.574 275.968 307.248 275.271 306.596 274.722C305.957 274.172 304.96 273.75 303.605 273.456L298.58 272.401C295.755 271.813 293.665 270.822 292.31 269.429C290.955 268.023 290.284 266.246 290.296 264.098C290.284 262.283 290.776 260.71 291.773 259.381C292.783 258.038 294.183 257.003 295.972 256.274C297.775 255.533 299.852 255.162 302.205 255.162C305.656 255.162 308.373 255.897 310.355 257.367C312.349 258.837 313.583 260.825 314.056 263.331ZM331.76 285.575C328.82 285.575 326.295 284.93 324.186 283.638C322.089 282.347 320.472 280.564 319.334 278.288C318.209 276 317.647 273.366 317.647 270.388C317.647 267.396 318.222 264.756 319.373 262.468C320.523 260.167 322.147 258.377 324.243 257.099C326.353 255.808 328.846 255.162 331.722 255.162C334.113 255.162 336.229 255.603 338.069 256.485C339.923 257.354 341.4 258.588 342.499 260.186C343.599 261.771 344.225 263.625 344.378 265.747H337.743C337.475 264.328 336.836 263.146 335.826 262.2C334.829 261.241 333.493 260.761 331.818 260.761C330.399 260.761 329.153 261.145 328.079 261.912C327.005 262.666 326.167 263.753 325.567 265.172C324.979 266.591 324.684 268.291 324.684 270.273C324.684 272.28 324.979 274.006 325.567 275.45C326.155 276.882 326.979 277.988 328.04 278.768C329.114 279.535 330.373 279.918 331.818 279.918C332.841 279.918 333.755 279.727 334.56 279.343C335.378 278.947 336.062 278.378 336.612 277.636C337.162 276.895 337.539 275.994 337.743 274.933H344.378C344.212 277.016 343.599 278.864 342.537 280.474C341.476 282.072 340.032 283.325 338.204 284.233C336.376 285.128 334.228 285.575 331.76 285.575ZM361.426 285.575C358.55 285.575 356.057 284.942 353.948 283.677C351.838 282.411 350.202 280.641 349.039 278.365C347.888 276.089 347.313 273.43 347.313 270.388C347.313 267.345 347.888 264.68 349.039 262.391C350.202 260.103 351.838 258.326 353.948 257.06C356.057 255.795 358.55 255.162 361.426 255.162C364.303 255.162 366.796 255.795 368.905 257.06C371.015 258.326 372.645 260.103 373.795 262.391C374.958 264.68 375.54 267.345 375.54 270.388C375.54 273.43 374.958 276.089 373.795 278.365C372.645 280.641 371.015 282.411 368.905 283.677C366.796 284.942 364.303 285.575 361.426 285.575ZM361.465 280.014C363.025 280.014 364.328 279.586 365.377 278.729C366.425 277.86 367.205 276.697 367.716 275.239C368.24 273.782 368.502 272.158 368.502 270.369C368.502 268.566 368.24 266.936 367.716 265.479C367.205 264.009 366.425 262.839 365.377 261.969C364.328 261.1 363.025 260.665 361.465 260.665C359.867 260.665 358.537 261.1 357.476 261.969C356.428 262.839 355.642 264.009 355.118 265.479C354.606 266.936 354.35 268.566 354.35 270.369C354.35 272.158 354.606 273.782 355.118 275.239C355.642 276.697 356.428 277.86 357.476 278.729C358.537 279.586 359.867 280.014 361.465 280.014ZM405.24 255.545L394.75 285H387.08L376.591 255.545H383.993L390.762 277.425H391.069L397.857 255.545H405.24ZM420.581 285.575C417.628 285.575 415.078 284.962 412.93 283.734C410.795 282.494 409.152 280.743 408.002 278.48C406.851 276.205 406.276 273.526 406.276 270.445C406.276 267.415 406.851 264.756 408.002 262.468C409.165 260.167 410.789 258.377 412.872 257.099C414.956 255.808 417.404 255.162 420.217 255.162C422.032 255.162 423.745 255.456 425.356 256.044C426.98 256.619 428.411 257.514 429.651 258.729C430.904 259.943 431.889 261.49 432.605 263.369C433.32 265.236 433.678 267.46 433.678 270.043V272.171H409.536V267.492H427.024C427.012 266.163 426.724 264.98 426.161 263.945C425.599 262.896 424.813 262.072 423.803 261.471C422.806 260.87 421.642 260.57 420.313 260.57C418.894 260.57 417.647 260.915 416.573 261.605C415.499 262.283 414.662 263.178 414.061 264.29C413.473 265.389 413.173 266.597 413.16 267.914V271.999C413.16 273.712 413.473 275.182 414.1 276.409C414.726 277.624 415.602 278.557 416.727 279.209C417.852 279.848 419.169 280.168 420.677 280.168C421.687 280.168 422.601 280.027 423.419 279.746C424.237 279.452 424.947 279.023 425.548 278.461C426.149 277.898 426.602 277.202 426.909 276.371L433.391 277.099C432.982 278.812 432.202 280.308 431.051 281.587C429.914 282.852 428.456 283.837 426.679 284.54C424.902 285.23 422.869 285.575 420.581 285.575ZM438.051 285V255.545H444.782V260.455H445.089C445.626 258.754 446.546 257.444 447.85 256.523C449.167 255.59 450.669 255.124 452.357 255.124C452.74 255.124 453.168 255.143 453.641 255.181C454.127 255.207 454.53 255.251 454.849 255.315V261.701C454.555 261.599 454.089 261.509 453.45 261.433C452.823 261.343 452.216 261.298 451.628 261.298C450.362 261.298 449.224 261.573 448.214 262.123C447.217 262.66 446.431 263.408 445.856 264.366C445.281 265.325 444.993 266.431 444.993 267.684V285H438.051Z" fill="#282828"/>
<path d="M883.182 285H869.874V245.727H883.45C887.349 245.727 890.699 246.513 893.499 248.086C896.311 249.646 898.472 251.889 899.98 254.817C901.489 257.744 902.243 261.247 902.243 265.325C902.243 269.416 901.482 272.932 899.961 275.872C898.452 278.812 896.273 281.069 893.422 282.641C890.584 284.214 887.17 285 883.182 285ZM876.988 278.844H882.837C885.572 278.844 887.854 278.346 889.683 277.349C891.511 276.339 892.885 274.837 893.805 272.842C894.726 270.835 895.186 268.33 895.186 265.325C895.186 262.321 894.726 259.828 893.805 257.847C892.885 255.852 891.523 254.363 889.721 253.379C887.931 252.381 885.707 251.883 883.048 251.883H876.988V278.844ZM920.235 285.575C917.282 285.575 914.732 284.962 912.584 283.734C910.449 282.494 908.806 280.743 907.656 278.48C906.505 276.205 905.93 273.526 905.93 270.445C905.93 267.415 906.505 264.756 907.656 262.468C908.819 260.167 910.443 258.377 912.527 257.099C914.61 255.808 917.059 255.162 919.871 255.162C921.686 255.162 923.4 255.456 925.01 256.044C926.634 256.619 928.066 257.514 929.306 258.729C930.559 259.943 931.543 261.49 932.259 263.369C932.975 265.236 933.333 267.46 933.333 270.043V272.171H909.19V267.492H926.679C926.666 266.163 926.378 264.98 925.816 263.945C925.253 262.896 924.467 262.072 923.457 261.471C922.46 260.87 921.297 260.57 919.967 260.57C918.548 260.57 917.301 260.915 916.228 261.605C915.154 262.283 914.316 263.178 913.716 264.29C913.127 265.389 912.827 266.597 912.814 267.914V271.999C912.814 273.712 913.127 275.182 913.754 276.409C914.38 277.624 915.256 278.557 916.381 279.209C917.506 279.848 918.823 280.168 920.331 280.168C921.341 280.168 922.255 280.027 923.074 279.746C923.892 279.452 924.601 279.023 925.202 278.461C925.803 277.898 926.257 277.202 926.564 276.371L933.045 277.099C932.636 278.812 931.856 280.308 930.706 281.587C929.568 282.852 928.11 283.837 926.333 284.54C924.556 285.23 922.524 285.575 920.235 285.575ZM952.624 255.545V260.915H935.213V255.545H952.624ZM939.566 285V252.765C939.566 250.783 939.975 249.134 940.793 247.817C941.624 246.501 942.736 245.516 944.129 244.864C945.523 244.212 947.07 243.886 948.77 243.886C949.972 243.886 951.039 243.982 951.972 244.174C952.906 244.366 953.596 244.538 954.044 244.692L952.663 250.061C952.369 249.972 951.998 249.882 951.551 249.793C951.103 249.69 950.605 249.639 950.055 249.639C948.764 249.639 947.85 249.952 947.313 250.579C946.789 251.192 946.526 252.075 946.526 253.225V285H939.566ZM956.561 285V255.545H963.503V285H956.561ZM960.051 251.365C958.952 251.365 958.006 251.001 957.213 250.272C956.42 249.531 956.024 248.642 956.024 247.607C956.024 246.558 956.42 245.67 957.213 244.941C958.006 244.2 958.952 243.829 960.051 243.829C961.163 243.829 962.109 244.2 962.889 244.941C963.682 245.67 964.078 246.558 964.078 247.607C964.078 248.642 963.682 249.531 962.889 250.272C962.109 251.001 961.163 251.365 960.051 251.365ZM976.083 267.741V285H969.141V255.545H975.776V260.55H976.121C976.799 258.901 977.879 257.591 979.362 256.619C980.858 255.648 982.705 255.162 984.904 255.162C986.936 255.162 988.707 255.597 990.216 256.466C991.737 257.335 992.913 258.594 993.744 260.244C994.588 261.893 995.003 263.893 994.99 266.246V285H988.049V267.32C988.049 265.351 987.537 263.81 986.515 262.698C985.505 261.586 984.105 261.03 982.315 261.03C981.1 261.03 980.02 261.298 979.074 261.835C978.141 262.359 977.406 263.12 976.869 264.117C976.345 265.114 976.083 266.322 976.083 267.741ZM1013.59 285.575C1010.63 285.575 1008.08 284.962 1005.94 283.734C1003.8 282.494 1002.16 280.743 1001.01 278.48C999.857 276.205 999.282 273.526 999.282 270.445C999.282 267.415 999.857 264.756 1001.01 262.468C1002.17 260.167 1003.79 258.377 1005.88 257.099C1007.96 255.808 1010.41 255.162 1013.22 255.162C1015.04 255.162 1016.75 255.456 1018.36 256.044C1019.99 256.619 1021.42 257.514 1022.66 258.729C1023.91 259.943 1024.89 261.49 1025.61 263.369C1026.33 265.236 1026.68 267.46 1026.68 270.043V272.171H1002.54V267.492H1020.03C1020.02 266.163 1019.73 264.98 1019.17 263.945C1018.6 262.896 1017.82 262.072 1016.81 261.471C1015.81 260.87 1014.65 260.57 1013.32 260.57C1011.9 260.57 1010.65 260.915 1009.58 261.605C1008.51 262.283 1007.67 263.178 1007.07 264.29C1006.48 265.389 1006.18 266.597 1006.17 267.914V271.999C1006.17 273.712 1006.48 275.182 1007.11 276.409C1007.73 277.624 1008.61 278.557 1009.73 279.209C1010.86 279.848 1012.17 280.168 1013.68 280.168C1014.69 280.168 1015.61 280.027 1016.43 279.746C1017.24 279.452 1017.95 279.023 1018.55 278.461C1019.15 277.898 1019.61 277.202 1019.92 276.371L1026.4 277.099C1025.99 278.812 1025.21 280.308 1024.06 281.587C1022.92 282.852 1021.46 283.837 1019.69 284.54C1017.91 285.23 1015.88 285.575 1013.59 285.575Z" fill="#282828"/>
<path d="M1456.18 285H1442.87V245.727H1456.45C1460.35 245.727 1463.7 246.513 1466.5 248.086C1469.31 249.646 1471.47 251.889 1472.98 254.817C1474.49 257.744 1475.24 261.247 1475.24 265.325C1475.24 269.416 1474.48 272.932 1472.96 275.872C1471.45 278.812 1469.27 281.069 1466.42 282.641C1463.58 284.214 1460.17 285 1456.18 285ZM1449.99 278.844H1455.84C1458.57 278.844 1460.85 278.346 1462.68 277.349C1464.51 276.339 1465.88 274.837 1466.81 272.842C1467.73 270.835 1468.19 268.33 1468.19 265.325C1468.19 262.321 1467.73 259.828 1466.81 257.847C1465.88 255.852 1464.52 254.363 1462.72 253.379C1460.93 252.381 1458.71 251.883 1456.05 251.883H1449.99V278.844ZM1493.24 285.575C1490.28 285.575 1487.73 284.962 1485.58 283.734C1483.45 282.494 1481.81 280.743 1480.66 278.48C1479.51 276.205 1478.93 273.526 1478.93 270.445C1478.93 267.415 1479.51 264.756 1480.66 262.468C1481.82 260.167 1483.44 258.377 1485.53 257.099C1487.61 255.808 1490.06 255.162 1492.87 255.162C1494.69 255.162 1496.4 255.456 1498.01 256.044C1499.63 256.619 1501.07 257.514 1502.31 258.729C1503.56 259.943 1504.54 261.49 1505.26 263.369C1505.97 265.236 1506.33 267.46 1506.33 270.043V272.171H1482.19V267.492H1499.68C1499.67 266.163 1499.38 264.98 1498.82 263.945C1498.25 262.896 1497.47 262.072 1496.46 261.471C1495.46 260.87 1494.3 260.57 1492.97 260.57C1491.55 260.57 1490.3 260.915 1489.23 261.605C1488.15 262.283 1487.32 263.178 1486.72 264.29C1486.13 265.389 1485.83 266.597 1485.81 267.914V271.999C1485.81 273.712 1486.13 275.182 1486.75 276.409C1487.38 277.624 1488.26 278.557 1489.38 279.209C1490.51 279.848 1491.82 280.168 1493.33 280.168C1494.34 280.168 1495.26 280.027 1496.07 279.746C1496.89 279.452 1497.6 279.023 1498.2 278.461C1498.8 277.898 1499.26 277.202 1499.56 276.371L1506.05 277.099C1505.64 278.812 1504.86 280.308 1503.71 281.587C1502.57 282.852 1501.11 283.837 1499.33 284.54C1497.56 285.23 1495.52 285.575 1493.24 285.575ZM1536.17 255.545L1525.68 285H1518.01L1507.52 255.545H1514.92L1521.69 277.425H1522L1528.79 255.545H1536.17ZM1551.51 285.575C1548.56 285.575 1546.01 284.962 1543.86 283.734C1541.73 282.494 1540.08 280.743 1538.93 278.48C1537.78 276.205 1537.21 273.526 1537.21 270.445C1537.21 267.415 1537.78 264.756 1538.93 262.468C1540.1 260.167 1541.72 258.377 1543.8 257.099C1545.89 255.808 1548.34 255.162 1551.15 255.162C1552.96 255.162 1554.68 255.456 1556.29 256.044C1557.91 256.619 1559.34 257.514 1560.58 258.729C1561.84 259.943 1562.82 261.49 1563.54 263.369C1564.25 265.236 1564.61 267.46 1564.61 270.043V272.171H1540.47V267.492H1557.96C1557.94 266.163 1557.66 264.98 1557.09 263.945C1556.53 262.896 1555.74 262.072 1554.73 261.471C1553.74 260.87 1552.57 260.57 1551.24 260.57C1549.83 260.57 1548.58 260.915 1547.5 261.605C1546.43 262.283 1545.59 263.178 1544.99 264.29C1544.4 265.389 1544.1 266.597 1544.09 267.914V271.999C1544.09 273.712 1544.4 275.182 1545.03 276.409C1545.66 277.624 1546.53 278.557 1547.66 279.209C1548.78 279.848 1550.1 280.168 1551.61 280.168C1552.62 280.168 1553.53 280.027 1554.35 279.746C1555.17 279.452 1555.88 279.023 1556.48 278.461C1557.08 277.898 1557.53 277.202 1557.84 276.371L1564.32 277.099C1563.91 278.812 1563.13 280.308 1561.98 281.587C1560.85 282.852 1559.39 283.837 1557.61 284.54C1555.83 285.23 1553.8 285.575 1551.51 285.575ZM1575.92 245.727V285H1568.98V245.727H1575.92ZM1594.41 285.575C1591.53 285.575 1589.04 284.942 1586.93 283.677C1584.82 282.411 1583.19 280.641 1582.02 278.365C1580.87 276.089 1580.3 273.43 1580.3 270.388C1580.3 267.345 1580.87 264.68 1582.02 262.391C1583.19 260.103 1584.82 258.326 1586.93 257.06C1589.04 255.795 1591.53 255.162 1594.41 255.162C1597.29 255.162 1599.78 255.795 1601.89 257.06C1604 258.326 1605.63 260.103 1606.78 262.391C1607.94 264.68 1608.52 267.345 1608.52 270.388C1608.52 273.43 1607.94 276.089 1606.78 278.365C1605.63 280.641 1604 282.411 1601.89 283.677C1599.78 284.942 1597.29 285.575 1594.41 285.575ZM1594.45 280.014C1596.01 280.014 1597.31 279.586 1598.36 278.729C1599.41 277.86 1600.19 276.697 1600.7 275.239C1601.22 273.782 1601.49 272.158 1601.49 270.369C1601.49 268.566 1601.22 266.936 1600.7 265.479C1600.19 264.009 1599.41 262.839 1598.36 261.969C1597.31 261.1 1596.01 260.665 1594.45 260.665C1592.85 260.665 1591.52 261.1 1590.46 261.969C1589.41 262.839 1588.63 264.009 1588.1 265.479C1587.59 266.936 1587.33 268.566 1587.33 270.369C1587.33 272.158 1587.59 273.782 1588.1 275.239C1588.63 276.697 1589.41 277.86 1590.46 278.729C1591.52 279.586 1592.85 280.014 1594.45 280.014ZM1612.92 296.045V255.545H1619.74V260.416H1620.15C1620.5 259.7 1621.01 258.94 1621.66 258.134C1622.31 257.316 1623.19 256.619 1624.31 256.044C1625.42 255.456 1626.84 255.162 1628.56 255.162C1630.84 255.162 1632.89 255.744 1634.72 256.907C1636.56 258.058 1638.02 259.764 1639.09 262.027C1640.18 264.277 1640.72 267.038 1640.72 270.311C1640.72 273.545 1640.19 276.294 1639.13 278.557C1638.07 280.82 1636.62 282.545 1634.8 283.734C1632.97 284.923 1630.9 285.518 1628.58 285.518C1626.9 285.518 1625.5 285.237 1624.38 284.674C1623.27 284.112 1622.38 283.434 1621.7 282.641C1621.03 281.836 1620.52 281.075 1620.15 280.359H1619.86V296.045H1612.92ZM1619.72 270.273C1619.72 272.178 1619.99 273.846 1620.53 275.278C1621.08 276.71 1621.87 277.828 1622.89 278.634C1623.92 279.426 1625.18 279.822 1626.65 279.822C1628.18 279.822 1629.47 279.413 1630.5 278.595C1631.54 277.764 1632.32 276.633 1632.84 275.201C1633.38 273.756 1633.65 272.114 1633.65 270.273C1633.65 268.445 1633.38 266.821 1632.86 265.402C1632.34 263.983 1631.56 262.871 1630.52 262.065C1629.48 261.26 1628.19 260.857 1626.65 260.857C1625.16 260.857 1623.9 261.247 1622.87 262.027C1621.83 262.807 1621.05 263.9 1620.51 265.306C1619.99 266.712 1619.72 268.368 1619.72 270.273Z" fill="#282828"/>
<path d="M2071.18 285H2057.87V245.727H2071.45C2075.35 245.727 2078.7 246.513 2081.5 248.086C2084.31 249.646 2086.47 251.889 2087.98 254.817C2089.49 257.744 2090.24 261.247 2090.24 265.325C2090.24 269.416 2089.48 272.932 2087.96 275.872C2086.45 278.812 2084.27 281.069 2081.42 282.641C2078.58 284.214 2075.17 285 2071.18 285ZM2064.99 278.844H2070.84C2073.57 278.844 2075.85 278.346 2077.68 277.349C2079.51 276.339 2080.88 274.837 2081.81 272.842C2082.73 270.835 2083.19 268.33 2083.19 265.325C2083.19 262.321 2082.73 259.828 2081.81 257.847C2080.88 255.852 2079.52 254.363 2077.72 253.379C2075.93 252.381 2073.71 251.883 2071.05 251.883H2064.99V278.844ZM2108.24 285.575C2105.28 285.575 2102.73 284.962 2100.58 283.734C2098.45 282.494 2096.81 280.743 2095.66 278.48C2094.51 276.205 2093.93 273.526 2093.93 270.445C2093.93 267.415 2094.51 264.756 2095.66 262.468C2096.82 260.167 2098.44 258.377 2100.53 257.099C2102.61 255.808 2105.06 255.162 2107.87 255.162C2109.69 255.162 2111.4 255.456 2113.01 256.044C2114.63 256.619 2116.07 257.514 2117.31 258.729C2118.56 259.943 2119.54 261.49 2120.26 263.369C2120.97 265.236 2121.33 267.46 2121.33 270.043V272.171H2097.19V267.492H2114.68C2114.67 266.163 2114.38 264.98 2113.82 263.945C2113.25 262.896 2112.47 262.072 2111.46 261.471C2110.46 260.87 2109.3 260.57 2107.97 260.57C2106.55 260.57 2105.3 260.915 2104.23 261.605C2103.15 262.283 2102.32 263.178 2101.72 264.29C2101.13 265.389 2100.83 266.597 2100.81 267.914V271.999C2100.81 273.712 2101.13 275.182 2101.75 276.409C2102.38 277.624 2103.26 278.557 2104.38 279.209C2105.51 279.848 2106.82 280.168 2108.33 280.168C2109.34 280.168 2110.26 280.027 2111.07 279.746C2111.89 279.452 2112.6 279.023 2113.2 278.461C2113.8 277.898 2114.26 277.202 2114.56 276.371L2121.05 277.099C2120.64 278.812 2119.86 280.308 2118.71 281.587C2117.57 282.852 2116.11 283.837 2114.33 284.54C2112.56 285.23 2110.52 285.575 2108.24 285.575ZM2132.65 245.727V285H2125.71V245.727H2132.65ZM2138.29 285V255.545H2145.23V285H2138.29ZM2141.78 251.365C2140.68 251.365 2139.73 251.001 2138.94 250.272C2138.14 249.531 2137.75 248.642 2137.75 247.607C2137.75 246.558 2138.14 245.67 2138.94 244.941C2139.73 244.2 2140.68 243.829 2141.78 243.829C2142.89 243.829 2143.83 244.2 2144.61 244.941C2145.41 245.67 2145.8 246.558 2145.8 247.607C2145.8 248.642 2145.41 249.531 2144.61 250.272C2143.83 251.001 2142.89 251.365 2141.78 251.365ZM2177.18 255.545L2166.69 285H2159.02L2148.53 255.545H2155.93L2162.7 277.425H2163L2169.79 255.545H2177.18ZM2192.52 285.575C2189.56 285.575 2187.01 284.962 2184.87 283.734C2182.73 282.494 2181.09 280.743 2179.94 278.48C2178.79 276.205 2178.21 273.526 2178.21 270.445C2178.21 267.415 2178.79 264.756 2179.94 262.468C2181.1 260.167 2182.72 258.377 2184.81 257.099C2186.89 255.808 2189.34 255.162 2192.15 255.162C2193.97 255.162 2195.68 255.456 2197.29 256.044C2198.92 256.619 2200.35 257.514 2201.59 258.729C2202.84 259.943 2203.82 261.49 2204.54 263.369C2205.26 265.236 2205.61 267.46 2205.61 270.043V272.171H2181.47V267.492H2198.96C2198.95 266.163 2198.66 264.98 2198.1 263.945C2197.53 262.896 2196.75 262.072 2195.74 261.471C2194.74 260.87 2193.58 260.57 2192.25 260.57C2190.83 260.57 2189.58 260.915 2188.51 261.605C2187.44 262.283 2186.6 263.178 2186 264.29C2185.41 265.389 2185.11 266.597 2185.1 267.914V271.999C2185.1 273.712 2185.41 275.182 2186.04 276.409C2186.66 277.624 2187.54 278.557 2188.66 279.209C2189.79 279.848 2191.1 280.168 2192.61 280.168C2193.62 280.168 2194.54 280.027 2195.35 279.746C2196.17 279.452 2196.88 279.023 2197.48 278.461C2198.08 277.898 2198.54 277.202 2198.84 276.371L2205.33 277.099C2204.92 278.812 2204.14 280.308 2202.99 281.587C2201.85 282.852 2200.39 283.837 2198.61 284.54C2196.84 285.23 2194.81 285.575 2192.52 285.575ZM2209.99 285V255.545H2216.72V260.455H2217.02C2217.56 258.754 2218.48 257.444 2219.79 256.523C2221.1 255.59 2222.6 255.124 2224.29 255.124C2224.68 255.124 2225.1 255.143 2225.58 255.181C2226.06 255.207 2226.47 255.251 2226.78 255.315V261.701C2226.49 261.599 2226.02 261.509 2225.39 261.433C2224.76 261.343 2224.15 261.298 2223.56 261.298C2222.3 261.298 2221.16 261.573 2220.15 262.123C2219.15 262.66 2218.37 263.408 2217.79 264.366C2217.22 265.325 2216.93 266.431 2216.93 267.684V285H2209.99Z" fill="#282828"/>
<path d="M2795.92 22.5234C2795.74 20.8487 2794.99 19.5447 2793.66 18.6115C2792.34 17.6783 2790.63 17.2116 2788.52 17.2116C2787.03 17.2116 2785.76 17.4354 2784.7 17.8828C2783.64 18.3303 2782.83 18.9375 2782.27 19.7045C2781.7 20.4716 2781.42 21.3473 2781.4 22.3317C2781.4 23.1499 2781.59 23.8594 2781.96 24.4602C2782.34 25.0611 2782.86 25.5724 2783.51 25.9943C2784.16 26.4034 2784.89 26.7486 2785.68 27.0298C2786.47 27.3111 2787.27 27.5476 2788.08 27.7393L2791.76 28.6598C2793.24 29.005 2794.67 29.4716 2796.03 30.0597C2797.42 30.6477 2798.65 31.3892 2799.74 32.2841C2800.84 33.179 2801.7 34.2592 2802.34 35.5249C2802.98 36.7905 2803.3 38.2734 2803.3 39.9737C2803.3 42.2749 2802.71 44.3011 2801.54 46.0526C2800.36 47.7912 2798.66 49.1527 2796.44 50.1371C2794.23 51.1087 2791.55 51.5945 2788.4 51.5945C2785.35 51.5945 2782.69 51.1214 2780.44 50.1754C2778.21 49.2294 2776.46 47.8487 2775.19 46.0334C2773.94 44.218 2773.26 42.0064 2773.16 39.3984H2780.16C2780.26 40.7663 2780.68 41.9041 2781.42 42.8118C2782.16 43.7195 2783.13 44.397 2784.32 44.8445C2785.52 45.2919 2786.86 45.5156 2788.35 45.5156C2789.89 45.5156 2791.25 45.2855 2792.41 44.8253C2793.59 44.3523 2794.51 43.7003 2795.17 42.8693C2795.84 42.0256 2796.18 41.0412 2796.19 39.9162C2796.18 38.8935 2795.88 38.0497 2795.29 37.3849C2794.7 36.7074 2793.87 36.1449 2792.81 35.6974C2791.76 35.2372 2790.54 34.8281 2789.13 34.4702L2784.66 33.3196C2781.43 32.4886 2778.87 31.2294 2776.99 29.5419C2775.13 27.8416 2774.19 25.5852 2774.19 22.7727C2774.19 20.4588 2774.82 18.4325 2776.07 16.6939C2777.34 14.9553 2779.06 13.6065 2781.23 12.6477C2783.4 11.6761 2785.87 11.1903 2788.61 11.1903C2791.4 11.1903 2793.84 11.6761 2795.94 12.6477C2798.05 13.6065 2799.7 14.9425 2800.91 16.6555C2802.11 18.3558 2802.73 20.3118 2802.77 22.5234H2795.92ZM2820.69 51.5753C2817.81 51.5753 2815.32 50.9425 2813.21 49.6768C2811.1 48.4112 2809.46 46.6406 2808.3 44.3651C2807.15 42.0895 2806.57 39.4304 2806.57 36.3878C2806.57 33.3452 2807.15 30.6797 2808.3 28.3913C2809.46 26.103 2811.1 24.326 2813.21 23.0604C2815.32 21.7947 2817.81 21.1619 2820.69 21.1619C2823.56 21.1619 2826.06 21.7947 2828.16 23.0604C2830.27 24.326 2831.9 26.103 2833.05 28.3913C2834.22 30.6797 2834.8 33.3452 2834.8 36.3878C2834.8 39.4304 2834.22 42.0895 2833.05 44.3651C2831.9 46.6406 2830.27 48.4112 2828.16 49.6768C2826.06 50.9425 2823.56 51.5753 2820.69 51.5753ZM2820.72 46.0142C2822.28 46.0142 2823.59 45.5859 2824.64 44.7294C2825.68 43.8601 2826.46 42.6967 2826.98 41.2393C2827.5 39.782 2827.76 38.1584 2827.76 36.3686C2827.76 34.5661 2827.5 32.9361 2826.98 31.4787C2826.46 30.0085 2825.68 28.8388 2824.64 27.9695C2823.59 27.1001 2822.28 26.6655 2820.72 26.6655C2819.13 26.6655 2817.8 27.1001 2816.74 27.9695C2815.69 28.8388 2814.9 30.0085 2814.38 31.4787C2813.87 32.9361 2813.61 34.5661 2813.61 36.3686C2813.61 38.1584 2813.87 39.782 2814.38 41.2393C2814.9 42.6967 2815.69 43.8601 2816.74 44.7294C2817.8 45.5859 2819.13 46.0142 2820.72 46.0142ZM2854.11 21.5455V26.9148H2836.7V21.5455H2854.11ZM2841.05 51V18.7649C2841.05 16.7834 2841.46 15.1342 2842.28 13.8175C2843.11 12.5007 2844.22 11.5163 2845.62 10.8643C2847.01 10.2124 2848.56 9.88636 2850.26 9.88636C2851.46 9.88636 2852.53 9.98224 2853.46 10.174C2854.39 10.3658 2855.08 10.5384 2855.53 10.6918L2854.15 16.0611C2853.86 15.9716 2853.48 15.8821 2853.04 15.7926C2852.59 15.6903 2852.09 15.6392 2851.54 15.6392C2850.25 15.6392 2849.34 15.9524 2848.8 16.5788C2848.27 17.1925 2848.01 18.0746 2848.01 19.2251V51H2841.05ZM2872.76 21.5455V26.9148H2855.82V21.5455H2872.76ZM2860 14.4886H2866.94V42.1406C2866.94 43.0739 2867.09 43.7898 2867.37 44.2884C2867.66 44.7741 2868.04 45.1065 2868.52 45.2855C2868.99 45.4645 2869.51 45.554 2870.09 45.554C2870.52 45.554 2870.92 45.522 2871.28 45.4581C2871.65 45.3942 2871.93 45.3366 2872.12 45.2855L2873.29 50.7124C2872.92 50.8402 2872.39 50.9808 2871.7 51.1342C2871.02 51.2876 2870.19 51.3771 2869.21 51.4027C2867.47 51.4538 2865.9 51.1918 2864.51 50.6165C2863.12 50.0284 2862.01 49.1207 2861.19 47.8935C2860.39 46.6662 2859.99 45.1321 2860 43.2912V14.4886ZM2883.14 51L2874.82 21.5455H2881.89L2887.07 42.2557H2887.34L2892.63 21.5455H2899.63L2904.92 42.1406H2905.21L2910.31 21.5455H2917.41L2909.07 51H2901.84L2896.31 31.0952H2895.91L2890.39 51H2883.14ZM2929.23 51.5945C2927.36 51.5945 2925.68 51.2621 2924.19 50.5973C2922.7 49.9197 2921.53 48.9226 2920.66 47.6058C2919.8 46.2891 2919.37 44.6655 2919.37 42.7351C2919.37 41.0732 2919.68 39.6989 2920.29 38.6122C2920.91 37.5256 2921.75 36.6562 2922.81 36.0043C2923.87 35.3523 2925.06 34.8601 2926.39 34.5277C2927.73 34.1825 2929.12 33.9332 2930.55 33.7798C2932.28 33.6009 2933.68 33.4411 2934.75 33.3004C2935.83 33.147 2936.61 32.9169 2937.09 32.6101C2937.59 32.2905 2937.84 31.7983 2937.84 31.1335V31.0185C2937.84 29.5739 2937.41 28.4553 2936.56 27.6626C2935.7 26.87 2934.47 26.4737 2932.85 26.4737C2931.15 26.4737 2929.81 26.8445 2928.81 27.5859C2927.82 28.3274 2927.16 29.2031 2926.81 30.2131L2920.33 29.2926C2920.84 27.5028 2921.69 26.0071 2922.86 24.8054C2924.04 23.5909 2925.48 22.6832 2927.18 22.0824C2928.88 21.4688 2930.76 21.1619 2932.82 21.1619C2934.24 21.1619 2935.65 21.3281 2937.05 21.6605C2938.46 21.9929 2939.75 22.5426 2940.91 23.3097C2942.07 24.0639 2943 25.093 2943.71 26.397C2944.42 27.701 2944.78 29.331 2944.78 31.2869V51H2938.11V46.9538H2937.88C2937.46 47.772 2936.86 48.5391 2936.1 49.255C2935.34 49.9581 2934.39 50.527 2933.24 50.9616C2932.1 51.3835 2930.76 51.5945 2929.23 51.5945ZM2931.03 46.4936C2932.43 46.4936 2933.63 46.2187 2934.66 45.669C2935.68 45.1065 2936.47 44.3651 2937.02 43.4446C2937.58 42.5241 2937.86 41.5206 2937.86 40.4339V36.9631C2937.64 37.142 2937.27 37.3082 2936.75 37.4616C2936.24 37.6151 2935.66 37.7493 2935.02 37.8643C2934.38 37.9794 2933.75 38.0817 2933.12 38.1712C2932.5 38.2607 2931.95 38.3374 2931.49 38.4013C2930.46 38.5419 2929.53 38.772 2928.71 39.0916C2927.89 39.4112 2927.25 39.8587 2926.78 40.4339C2926.3 40.9964 2926.07 41.7251 2926.07 42.62C2926.07 43.8984 2926.53 44.8636 2927.47 45.5156C2928.4 46.1676 2929.59 46.4936 2931.03 46.4936ZM2950.26 51V21.5455H2956.99V26.4545H2957.3C2957.84 24.7543 2958.76 23.4439 2960.06 22.5234C2961.38 21.5902 2962.88 21.1236 2964.57 21.1236C2964.95 21.1236 2965.38 21.1428 2965.85 21.1811C2966.34 21.2067 2966.74 21.2514 2967.06 21.3153V27.701C2966.77 27.5987 2966.3 27.5092 2965.66 27.4325C2965.03 27.343 2964.43 27.2983 2963.84 27.2983C2962.57 27.2983 2961.44 27.5732 2960.43 28.1229C2959.43 28.6598 2958.64 29.4077 2958.07 30.3665C2957.49 31.3253 2957.2 32.4311 2957.2 33.6839V51H2950.26ZM2982 51.5753C2979.05 51.5753 2976.5 50.9616 2974.35 49.7344C2972.21 48.4943 2970.57 46.7429 2969.42 44.4801C2968.27 42.2045 2967.69 39.5263 2967.69 36.4453C2967.69 33.4155 2968.27 30.7564 2969.42 28.468C2970.58 26.1669 2972.21 24.3771 2974.29 23.0987C2976.37 21.8075 2978.82 21.1619 2981.63 21.1619C2983.45 21.1619 2985.16 21.456 2986.77 22.044C2988.4 22.6193 2989.83 23.5142 2991.07 24.7287C2992.32 25.9432 2993.31 27.4901 2994.02 29.3693C2994.74 31.2358 2995.1 33.4602 2995.1 36.0426V38.1712H2970.95V33.4922H2988.44C2988.43 32.1626 2988.14 30.9801 2987.58 29.9446C2987.02 28.8963 2986.23 28.0717 2985.22 27.4709C2984.22 26.87 2983.06 26.5696 2981.73 26.5696C2980.31 26.5696 2979.07 26.9148 2977.99 27.6051C2976.92 28.2827 2976.08 29.1776 2975.48 30.2898C2974.89 31.3892 2974.59 32.5973 2974.58 33.9141V37.9986C2974.58 39.7116 2974.89 41.1818 2975.52 42.4091C2976.14 43.6236 2977.02 44.5568 2978.14 45.2088C2979.27 45.848 2980.59 46.1676 2982.09 46.1676C2983.1 46.1676 2984.02 46.027 2984.84 45.7457C2985.66 45.4517 2986.36 45.0234 2986.97 44.4609C2987.57 43.8984 2988.02 43.2017 2988.33 42.3707L2994.81 43.0994C2994.4 44.8125 2993.62 46.3082 2992.47 47.5866C2991.33 48.8523 2989.87 49.8366 2988.1 50.5398C2986.32 51.2301 2984.29 51.5753 2982 51.5753ZM2741.19 114H2727.88V74.7273H2741.45C2745.35 74.7273 2748.7 75.5135 2751.5 77.0859C2754.31 78.6456 2756.48 80.8892 2757.98 83.8168C2759.49 86.7443 2760.25 90.2472 2760.25 94.3253C2760.25 98.4162 2759.49 101.932 2757.96 104.872C2756.46 107.812 2754.28 110.069 2751.43 111.641C2748.59 113.214 2745.17 114 2741.19 114ZM2734.99 107.844H2740.84C2743.58 107.844 2745.86 107.346 2747.69 106.349C2749.51 105.339 2750.89 103.837 2751.81 101.842C2752.73 99.8352 2753.19 97.3295 2753.19 94.3253C2753.19 91.321 2752.73 88.8281 2751.81 86.8466C2750.89 84.8523 2749.53 83.3629 2747.72 82.3786C2745.94 81.3814 2743.71 80.8828 2741.05 80.8828H2734.99V107.844ZM2778.24 114.575C2775.29 114.575 2772.74 113.962 2770.59 112.734C2768.45 111.494 2766.81 109.743 2765.66 107.48C2764.51 105.205 2763.93 102.526 2763.93 99.4453C2763.93 96.4155 2764.51 93.7564 2765.66 91.468C2766.82 89.1669 2768.45 87.3771 2770.53 86.0987C2772.61 84.8075 2775.06 84.1619 2777.88 84.1619C2779.69 84.1619 2781.4 84.456 2783.01 85.044C2784.64 85.6193 2786.07 86.5142 2787.31 87.7287C2788.56 88.9432 2789.55 90.4901 2790.26 92.3693C2790.98 94.2358 2791.34 96.4602 2791.34 99.0426V101.171H2767.19V96.4922H2784.68C2784.67 95.1626 2784.38 93.9801 2783.82 92.9446C2783.26 91.8963 2782.47 91.0717 2781.46 90.4709C2780.46 89.87 2779.3 89.5696 2777.97 89.5696C2776.55 89.5696 2775.31 89.9148 2774.23 90.6051C2773.16 91.2827 2772.32 92.1776 2771.72 93.2898C2771.13 94.3892 2770.83 95.5973 2770.82 96.9141V100.999C2770.82 102.712 2771.13 104.182 2771.76 105.409C2772.38 106.624 2773.26 107.557 2774.38 108.209C2775.51 108.848 2776.83 109.168 2778.34 109.168C2779.35 109.168 2780.26 109.027 2781.08 108.746C2781.9 108.452 2782.61 108.023 2783.21 107.461C2783.81 106.898 2784.26 106.202 2784.57 105.371L2791.05 106.099C2790.64 107.812 2789.86 109.308 2788.71 110.587C2787.57 111.852 2786.11 112.837 2784.34 113.54C2782.56 114.23 2780.53 114.575 2778.24 114.575ZM2821.18 84.5455L2810.69 114H2803.02L2792.53 84.5455H2799.93L2806.7 106.425H2807L2813.79 84.5455H2821.18ZM2836.52 114.575C2833.56 114.575 2831.01 113.962 2828.87 112.734C2826.73 111.494 2825.09 109.743 2823.94 107.48C2822.79 105.205 2822.21 102.526 2822.21 99.4453C2822.21 96.4155 2822.79 93.7564 2823.94 91.468C2825.1 89.1669 2826.72 87.3771 2828.81 86.0987C2830.89 84.8075 2833.34 84.1619 2836.15 84.1619C2837.97 84.1619 2839.68 84.456 2841.29 85.044C2842.92 85.6193 2844.35 86.5142 2845.59 87.7287C2846.84 88.9432 2847.82 90.4901 2848.54 92.3693C2849.26 94.2358 2849.61 96.4602 2849.61 99.0426V101.171H2825.47V96.4922H2842.96C2842.95 95.1626 2842.66 93.9801 2842.1 92.9446C2841.53 91.8963 2840.75 91.0717 2839.74 90.4709C2838.74 89.87 2837.58 89.5696 2836.25 89.5696C2834.83 89.5696 2833.58 89.9148 2832.51 90.6051C2831.44 91.2827 2830.6 92.1776 2830 93.2898C2829.41 94.3892 2829.11 95.5973 2829.1 96.9141V100.999C2829.1 102.712 2829.41 104.182 2830.04 105.409C2830.66 106.624 2831.54 107.557 2832.66 108.209C2833.79 108.848 2835.1 109.168 2836.61 109.168C2837.62 109.168 2838.54 109.027 2839.35 108.746C2840.17 108.452 2840.88 108.023 2841.48 107.461C2842.08 106.898 2842.54 106.202 2842.84 105.371L2849.33 106.099C2848.92 107.812 2848.14 109.308 2846.99 110.587C2845.85 111.852 2844.39 112.837 2842.61 113.54C2840.84 114.23 2838.81 114.575 2836.52 114.575ZM2860.93 74.7273V114H2853.99V74.7273H2860.93ZM2879.41 114.575C2876.54 114.575 2874.05 113.942 2871.94 112.677C2869.83 111.411 2868.19 109.641 2867.03 107.365C2865.88 105.089 2865.3 102.43 2865.3 99.3878C2865.3 96.3452 2865.88 93.6797 2867.03 91.3913C2868.19 89.103 2869.83 87.326 2871.94 86.0604C2874.05 84.7947 2876.54 84.1619 2879.41 84.1619C2882.29 84.1619 2884.78 84.7947 2886.89 86.0604C2889 87.326 2890.63 89.103 2891.78 91.3913C2892.95 93.6797 2893.53 96.3452 2893.53 99.3878C2893.53 102.43 2892.95 105.089 2891.78 107.365C2890.63 109.641 2889 111.411 2886.89 112.677C2884.78 113.942 2882.29 114.575 2879.41 114.575ZM2879.45 109.014C2881.01 109.014 2882.32 108.586 2883.37 107.729C2884.41 106.86 2885.19 105.697 2885.7 104.239C2886.23 102.782 2886.49 101.158 2886.49 99.3686C2886.49 97.5661 2886.23 95.9361 2885.7 94.4787C2885.19 93.0085 2884.41 91.8388 2883.37 90.9695C2882.32 90.1001 2881.01 89.6655 2879.45 89.6655C2877.86 89.6655 2876.53 90.1001 2875.46 90.9695C2874.42 91.8388 2873.63 93.0085 2873.11 94.4787C2872.59 95.9361 2872.34 97.5661 2872.34 99.3686C2872.34 101.158 2872.59 102.782 2873.11 104.239C2873.63 105.697 2874.42 106.86 2875.46 107.729C2876.53 108.586 2877.86 109.014 2879.45 109.014ZM2897.92 125.045V84.5455H2904.75V89.4162H2905.15C2905.51 88.7003 2906.01 87.9396 2906.66 87.1342C2907.32 86.3161 2908.2 85.6193 2909.31 85.044C2910.42 84.456 2911.84 84.1619 2913.57 84.1619C2915.84 84.1619 2917.9 84.7436 2919.72 85.907C2921.56 87.0575 2923.02 88.7642 2924.1 91.027C2925.18 93.277 2925.73 96.0384 2925.73 99.3111C2925.73 102.545 2925.2 105.294 2924.13 107.557C2923.07 109.82 2921.63 111.545 2919.8 112.734C2917.97 113.923 2915.9 114.518 2913.59 114.518C2911.9 114.518 2910.5 114.237 2909.39 113.674C2908.28 113.112 2907.38 112.434 2906.7 111.641C2906.04 110.836 2905.52 110.075 2905.15 109.359H2904.86V125.045H2897.92ZM2904.73 99.2727C2904.73 101.178 2905 102.846 2905.53 104.278C2906.08 105.71 2906.87 106.828 2907.89 107.634C2908.93 108.426 2910.18 108.822 2911.65 108.822C2913.18 108.822 2914.47 108.413 2915.5 107.595C2916.54 106.764 2917.32 105.633 2917.84 104.201C2918.38 102.756 2918.65 101.114 2918.65 99.2727C2918.65 97.4446 2918.39 95.821 2917.86 94.402C2917.34 92.983 2916.56 91.8707 2915.52 91.0653C2914.49 90.2599 2913.2 89.8572 2911.65 89.8572C2910.17 89.8572 2908.91 90.2472 2907.87 91.027C2906.84 91.8068 2906.05 92.8999 2905.51 94.3061C2904.99 95.7124 2904.73 97.3679 2904.73 99.2727ZM2930.17 114V84.5455H2936.81V89.5504H2937.15C2937.76 87.8629 2938.78 86.5462 2940.2 85.6001C2941.62 84.6413 2943.31 84.1619 2945.28 84.1619C2947.28 84.1619 2948.96 84.6477 2950.32 85.6193C2951.71 86.5781 2952.68 87.8885 2953.24 89.5504H2953.55C2954.2 87.9141 2955.3 86.6101 2956.84 85.6385C2958.4 84.6541 2960.25 84.1619 2962.39 84.1619C2965.1 84.1619 2967.31 85.0185 2969.02 86.7315C2970.73 88.4446 2971.59 90.9439 2971.59 94.2294V114H2964.63V95.3033C2964.63 93.4751 2964.14 92.1392 2963.17 91.2955C2962.2 90.4389 2961.01 90.0107 2959.61 90.0107C2957.93 90.0107 2956.62 90.5348 2955.67 91.5831C2954.74 92.6186 2954.27 93.9673 2954.27 95.6293V114H2947.47V95.0156C2947.47 93.4943 2947.01 92.2798 2946.09 91.3722C2945.18 90.4645 2943.99 90.0107 2942.52 90.0107C2941.52 90.0107 2940.61 90.2663 2939.8 90.7777C2938.98 91.2763 2938.33 91.9858 2937.84 92.9062C2937.35 93.8139 2937.11 94.875 2937.11 96.0895V114H2930.17ZM2990.17 114.575C2987.22 114.575 2984.67 113.962 2982.52 112.734C2980.39 111.494 2978.74 109.743 2977.59 107.48C2976.44 105.205 2975.87 102.526 2975.87 99.4453C2975.87 96.4155 2976.44 93.7564 2977.59 91.468C2978.76 89.1669 2980.38 87.3771 2982.46 86.0987C2984.55 84.8075 2987 84.1619 2989.81 84.1619C2991.62 84.1619 2993.34 84.456 2994.95 85.044C2996.57 85.6193 2998 86.5142 2999.24 87.7287C3000.5 88.9432 3001.48 90.4901 3002.2 92.3693C3002.91 94.2358 3003.27 96.4602 3003.27 99.0426V101.171H2979.13V96.4922H2996.62C2996.6 95.1626 2996.32 93.9801 2995.75 92.9446C2995.19 91.8963 2994.4 91.0717 2993.39 90.4709C2992.4 89.87 2991.23 89.5696 2989.9 89.5696C2988.49 89.5696 2987.24 89.9148 2986.17 90.6051C2985.09 91.2827 2984.25 92.1776 2983.65 93.2898C2983.06 94.3892 2982.76 95.5973 2982.75 96.9141V100.999C2982.75 102.712 2983.06 104.182 2983.69 105.409C2984.32 106.624 2985.19 107.557 2986.32 108.209C2987.44 108.848 2988.76 109.168 2990.27 109.168C2991.28 109.168 2992.19 109.027 2993.01 108.746C2993.83 108.452 2994.54 108.023 2995.14 107.461C2995.74 106.898 2996.19 106.202 2996.5 105.371L3002.98 106.099C3002.57 107.812 3001.79 109.308 3000.64 110.587C2999.51 111.852 2998.05 112.837 2996.27 113.54C2994.49 114.23 2992.46 114.575 2990.17 114.575ZM3014.58 96.7415V114H3007.64V84.5455H3014.28V89.5504H3014.62C3015.3 87.9013 3016.38 86.5909 3017.86 85.6193C3019.36 84.6477 3021.21 84.1619 3023.41 84.1619C3025.44 84.1619 3027.21 84.5966 3028.72 85.4659C3030.24 86.3352 3031.41 87.5945 3032.25 89.2436C3033.09 90.8928 3033.51 92.8935 3033.49 95.2457V114H3026.55V96.3196C3026.55 94.3509 3026.04 92.8104 3025.02 91.6982C3024.01 90.5859 3022.61 90.0298 3020.82 90.0298C3019.6 90.0298 3018.52 90.2983 3017.58 90.8352C3016.64 91.3594 3015.91 92.12 3015.37 93.1172C3014.85 94.1143 3014.58 95.3224 3014.58 96.7415ZM3053.76 84.5455V89.9148H3036.82V84.5455H3053.76ZM3041.01 77.4886H3047.95V105.141C3047.95 106.074 3048.09 106.79 3048.37 107.288C3048.66 107.774 3049.05 108.107 3049.52 108.286C3049.99 108.464 3050.52 108.554 3051.09 108.554C3051.53 108.554 3051.92 108.522 3052.28 108.458C3052.65 108.394 3052.93 108.337 3053.12 108.286L3054.29 113.712C3053.92 113.84 3053.39 113.981 3052.7 114.134C3052.03 114.288 3051.19 114.377 3050.21 114.403C3048.47 114.454 3046.91 114.192 3045.51 113.616C3044.12 113.028 3043.01 112.121 3042.19 110.893C3041.39 109.666 3040.99 108.132 3041.01 106.291V77.4886Z" fill="#282828"/>
<path d="M1238.47 713.14C1242.55 716.983 1242.64 723.462 1238.66 727.47L730.382 1239.22C724.127 1245.52 713.432 1241.25 713.316 1232.4L700.116 229.888C700 221.045 710.576 216.338 716.994 222.377L1238.47 713.14Z" fill="url(#paint0_linear_2812_5782)"/>
<path d="M1288.87 735.871C1284.81 731.991 1284.76 725.512 1288.76 721.541L1800 214.379C1806.29 208.138 1816.96 212.507 1817.03 221.351L1824.39 1223.96C1824.46 1232.8 1813.86 1237.41 1807.47 1231.32L1288.87 735.871Z" fill="url(#paint1_linear_2812_5782)"/>
<path d="M2418.87 735.871C2414.81 731.991 2414.76 725.512 2418.76 721.541L2930 214.379C2936.29 208.138 2946.96 212.507 2947.03 221.351L2954.39 1223.96C2954.46 1232.8 2943.86 1237.41 2937.47 1231.32L2418.87 735.871Z" fill="#D9D9D9" fill-opacity="0.45"/>
<path d="M2368.47 713.14C2372.55 716.983 2372.64 723.462 2368.66 727.47L1860.38 1239.22C1854.13 1245.52 1843.43 1241.25 1843.32 1232.4L1830.12 229.888C1830 221.045 1840.58 216.338 1846.99 222.377L2368.47 713.14Z" fill="#0D6EFD"/>
<rect y="673" width="312" height="109" rx="39" fill="#FFCB2F"/>
<path d="M100.779 723.116H96.2636C96.1348 722.375 95.8973 721.719 95.5512 721.148C95.2051 720.568 94.7745 720.077 94.2593 719.675C93.7442 719.272 93.1566 718.97 92.4965 718.769C91.8445 718.56 91.1402 718.455 90.3836 718.455C89.0394 718.455 87.8481 718.793 86.8097 719.469C85.7714 720.138 84.9584 721.12 84.3708 722.415C83.7832 723.703 83.4894 725.277 83.4894 727.136C83.4894 729.028 83.7832 730.622 84.3708 731.918C84.9665 733.205 85.7794 734.179 86.8097 734.839C87.8481 735.491 89.0354 735.817 90.3715 735.817C91.1121 735.817 91.8043 735.721 92.4482 735.528C93.1002 735.326 93.6838 735.033 94.199 734.646C94.7222 734.26 95.1608 733.785 95.515 733.222C95.8772 732.658 96.1267 732.014 96.2636 731.29L100.779 731.314C100.61 732.489 100.244 733.592 99.6805 734.622C99.1251 735.652 98.3966 736.562 97.4951 737.351C96.5936 738.132 95.5392 738.743 94.3318 739.186C93.1244 739.621 91.7842 739.838 90.3112 739.838C88.1379 739.838 86.198 739.335 84.4916 738.329C82.7851 737.323 81.4409 735.87 80.4589 733.97C79.4769 732.071 78.9859 729.793 78.9859 727.136C78.9859 724.472 79.4809 722.194 80.471 720.303C81.461 718.403 82.8093 716.95 84.5157 715.944C86.2222 714.938 88.154 714.435 90.3112 714.435C91.6876 714.435 92.9674 714.628 94.1507 715.014C95.3339 715.401 96.3883 715.968 97.314 716.717C98.2397 717.457 99.0003 718.367 99.596 719.445C100.2 720.516 100.594 721.739 100.779 723.116ZM108.059 728.634V739.5H103.688V714.773H107.962V724.106H108.18C108.614 723.059 109.286 722.234 110.196 721.631C111.114 721.019 112.281 720.713 113.697 720.713C114.985 720.713 116.108 720.983 117.066 721.522C118.024 722.061 118.764 722.85 119.288 723.888C119.819 724.927 120.084 726.195 120.084 727.692V739.5H115.714V728.368C115.714 727.12 115.392 726.15 114.748 725.458C114.112 724.758 113.218 724.408 112.067 724.408C111.295 724.408 110.602 724.577 109.991 724.915C109.387 725.245 108.912 725.724 108.566 726.352C108.228 726.979 108.059 727.74 108.059 728.634ZM128.876 739.874C127.701 739.874 126.643 739.665 125.701 739.246C124.767 738.82 124.027 738.192 123.479 737.363C122.94 736.534 122.67 735.512 122.67 734.296C122.67 733.25 122.864 732.384 123.25 731.7C123.636 731.016 124.164 730.469 124.832 730.058C125.5 729.648 126.252 729.338 127.089 729.129C127.935 728.911 128.808 728.754 129.709 728.658C130.796 728.545 131.677 728.444 132.354 728.356C133.03 728.259 133.521 728.114 133.827 727.921C134.141 727.72 134.297 727.41 134.297 726.991V726.919C134.297 726.009 134.028 725.305 133.489 724.806C132.949 724.307 132.172 724.058 131.158 724.058C130.088 724.058 129.239 724.291 128.611 724.758C127.991 725.225 127.572 725.776 127.355 726.412L123.274 725.832C123.596 724.705 124.127 723.764 124.868 723.007C125.608 722.242 126.514 721.671 127.584 721.293C128.655 720.906 129.838 720.713 131.134 720.713C132.028 720.713 132.917 720.818 133.802 721.027C134.688 721.236 135.497 721.582 136.229 722.065C136.962 722.54 137.549 723.188 137.992 724.009C138.443 724.83 138.668 725.857 138.668 727.088V739.5H134.467V736.952H134.322C134.056 737.468 133.682 737.951 133.199 738.401C132.724 738.844 132.124 739.202 131.4 739.476C130.683 739.741 129.842 739.874 128.876 739.874ZM130.011 736.663C130.889 736.663 131.649 736.49 132.293 736.143C132.937 735.789 133.432 735.322 133.778 734.743C134.132 734.163 134.31 733.531 134.31 732.847V730.662C134.173 730.775 133.939 730.879 133.609 730.976C133.287 731.072 132.925 731.157 132.523 731.229C132.12 731.302 131.722 731.366 131.327 731.423C130.933 731.479 130.591 731.527 130.301 731.567C129.649 731.656 129.065 731.801 128.55 732.002C128.035 732.203 127.629 732.485 127.331 732.847C127.033 733.201 126.884 733.66 126.884 734.224C126.884 735.029 127.178 735.636 127.766 736.047C128.353 736.457 129.102 736.663 130.011 736.663ZM146.434 714.773V739.5H142.063V714.773H146.434ZM154.299 714.773V739.5H149.928V714.773H154.299ZM166.004 739.862C164.144 739.862 162.539 739.476 161.186 738.703C159.842 737.922 158.808 736.82 158.083 735.395C157.359 733.962 156.997 732.276 156.997 730.336C156.997 728.428 157.359 726.754 158.083 725.313C158.816 723.864 159.838 722.737 161.15 721.933C162.462 721.12 164.004 720.713 165.774 720.713C166.917 720.713 167.996 720.898 169.01 721.268C170.032 721.631 170.934 722.194 171.715 722.959C172.504 723.723 173.123 724.697 173.574 725.881C174.025 727.056 174.25 728.456 174.25 730.082V731.423H159.049V728.477H170.061C170.053 727.639 169.871 726.895 169.517 726.243C169.163 725.583 168.668 725.064 168.032 724.685C167.404 724.307 166.672 724.118 165.835 724.118C164.941 724.118 164.157 724.335 163.48 724.77C162.804 725.196 162.277 725.76 161.899 726.46C161.528 727.152 161.339 727.913 161.331 728.742V731.314C161.331 732.393 161.528 733.318 161.923 734.091C162.317 734.856 162.869 735.443 163.577 735.854C164.285 736.256 165.114 736.457 166.064 736.457C166.7 736.457 167.276 736.369 167.791 736.192C168.306 736.007 168.753 735.737 169.131 735.383C169.509 735.029 169.795 734.59 169.988 734.067L174.069 734.526C173.812 735.604 173.321 736.546 172.596 737.351C171.88 738.148 170.962 738.768 169.843 739.21C168.724 739.645 167.445 739.862 166.004 739.862ZM181.319 728.634V739.5H176.948V720.955H181.125V724.106H181.343C181.769 723.067 182.45 722.242 183.383 721.631C184.325 721.019 185.488 720.713 186.873 720.713C188.152 720.713 189.267 720.987 190.217 721.534C191.175 722.081 191.915 722.874 192.439 723.913C192.97 724.951 193.232 726.211 193.223 727.692V739.5H188.853V728.368C188.853 727.128 188.531 726.158 187.887 725.458C187.251 724.758 186.37 724.408 185.243 724.408C184.478 724.408 183.798 724.577 183.202 724.915C182.615 725.245 182.152 725.724 181.814 726.352C181.484 726.979 181.319 727.74 181.319 728.634ZM204.732 746.841C203.162 746.841 201.814 746.628 200.687 746.201C199.56 745.782 198.655 745.219 197.971 744.511C197.286 743.802 196.812 743.018 196.546 742.156L200.482 741.202C200.659 741.565 200.917 741.923 201.255 742.277C201.593 742.639 202.048 742.937 202.619 743.17C203.199 743.412 203.927 743.533 204.804 743.533C206.044 743.533 207.07 743.231 207.883 742.627C208.696 742.031 209.103 741.049 209.103 739.681V736.168H208.885C208.66 736.618 208.33 737.081 207.895 737.556C207.469 738.031 206.901 738.429 206.193 738.751C205.493 739.073 204.611 739.234 203.549 739.234C202.124 739.234 200.832 738.9 199.673 738.232C198.522 737.556 197.604 736.55 196.92 735.214C196.244 733.87 195.906 732.187 195.906 730.167C195.906 728.13 196.244 726.412 196.92 725.011C197.604 723.603 198.526 722.536 199.685 721.812C200.844 721.079 202.136 720.713 203.561 720.713C204.647 720.713 205.541 720.898 206.241 721.268C206.95 721.631 207.513 722.069 207.932 722.585C208.35 723.092 208.668 723.571 208.885 724.021H209.127V720.955H213.437V739.802C213.437 741.388 213.059 742.7 212.302 743.738C211.546 744.776 210.511 745.553 209.199 746.068C207.887 746.583 206.398 746.841 204.732 746.841ZM204.768 735.805C205.694 735.805 206.483 735.58 207.135 735.129C207.787 734.679 208.282 734.031 208.62 733.185C208.958 732.34 209.127 731.326 209.127 730.143C209.127 728.976 208.958 727.953 208.62 727.076C208.29 726.199 207.799 725.518 207.147 725.036C206.503 724.545 205.71 724.299 204.768 724.299C203.794 724.299 202.981 724.553 202.329 725.06C201.677 725.567 201.186 726.263 200.856 727.148C200.526 728.026 200.361 729.024 200.361 730.143C200.361 731.278 200.526 732.272 200.856 733.125C201.194 733.97 201.689 734.63 202.341 735.105C203.001 735.572 203.81 735.805 204.768 735.805ZM225.127 739.862C223.267 739.862 221.662 739.476 220.309 738.703C218.965 737.922 217.931 736.82 217.206 735.395C216.482 733.962 216.12 732.276 216.12 730.336C216.12 728.428 216.482 726.754 217.206 725.313C217.939 723.864 218.961 722.737 220.273 721.933C221.585 721.12 223.127 720.713 224.897 720.713C226.04 720.713 227.119 720.898 228.133 721.268C229.156 721.631 230.057 722.194 230.838 722.959C231.627 723.723 232.246 724.697 232.697 725.881C233.148 727.056 233.373 728.456 233.373 730.082V731.423H218.172V728.477H229.184C229.176 727.639 228.995 726.895 228.64 726.243C228.286 725.583 227.791 725.064 227.155 724.685C226.527 724.307 225.795 724.118 224.958 724.118C224.064 724.118 223.28 724.335 222.603 724.77C221.927 725.196 221.4 725.76 221.022 726.46C220.651 727.152 220.462 727.913 220.454 728.742V731.314C220.454 732.393 220.651 733.318 221.046 734.091C221.44 734.856 221.992 735.443 222.7 735.854C223.408 736.256 224.237 736.457 225.187 736.457C225.823 736.457 226.399 736.369 226.914 736.192C227.429 736.007 227.876 735.737 228.254 735.383C228.632 735.029 228.918 734.59 229.111 734.067L233.192 734.526C232.935 735.604 232.444 736.546 231.719 737.351C231.003 738.148 230.085 738.768 228.966 739.21C227.848 739.645 226.568 739.862 225.127 739.862Z" fill="#282828"/>
<rect x="1113" y="673" width="312" height="109" rx="39" fill="#FFCB2F"/>
<path d="M1204.7 739.5H1196.32V714.773H1204.87C1207.32 714.773 1209.43 715.268 1211.19 716.258C1212.96 717.24 1214.32 718.652 1215.27 720.496C1216.22 722.339 1216.7 724.545 1216.7 727.112C1216.7 729.688 1216.22 731.902 1215.26 733.753C1214.31 735.604 1212.94 737.025 1211.14 738.015C1209.36 739.005 1207.21 739.5 1204.7 739.5ZM1200.8 735.624H1204.48C1206.2 735.624 1207.64 735.31 1208.79 734.683C1209.94 734.047 1210.81 733.101 1211.39 731.845C1211.97 730.581 1212.26 729.004 1212.26 727.112C1212.26 725.221 1211.97 723.651 1211.39 722.403C1210.81 721.148 1209.95 720.21 1208.81 719.59C1207.69 718.962 1206.29 718.648 1204.61 718.648H1200.8V735.624ZM1227.97 739.862C1226.11 739.862 1224.51 739.476 1223.15 738.703C1221.81 737.922 1220.78 736.82 1220.05 735.395C1219.33 733.962 1218.96 732.276 1218.96 730.336C1218.96 728.428 1219.33 726.754 1220.05 725.313C1220.78 723.864 1221.81 722.737 1223.12 721.933C1224.43 721.12 1225.97 720.713 1227.74 720.713C1228.89 720.713 1229.96 720.898 1230.98 721.268C1232 721.631 1232.9 722.194 1233.68 722.959C1234.47 723.723 1235.09 724.697 1235.54 725.881C1235.99 727.056 1236.22 728.456 1236.22 730.082V731.423H1221.02V728.477H1232.03C1232.02 727.639 1231.84 726.895 1231.49 726.243C1231.13 725.583 1230.64 725.064 1230 724.685C1229.37 724.307 1228.64 724.118 1227.8 724.118C1226.91 724.118 1226.12 724.335 1225.45 724.77C1224.77 725.196 1224.24 725.76 1223.87 726.46C1223.5 727.152 1223.31 727.913 1223.3 728.742V731.314C1223.3 732.393 1223.5 733.318 1223.89 734.091C1224.29 734.856 1224.84 735.443 1225.54 735.854C1226.25 736.256 1227.08 736.457 1228.03 736.457C1228.67 736.457 1229.24 736.369 1229.76 736.192C1230.27 736.007 1230.72 735.737 1231.1 735.383C1231.48 735.029 1231.76 734.59 1231.96 734.067L1236.04 734.526C1235.78 735.604 1235.29 736.546 1234.56 737.351C1233.85 738.148 1232.93 738.768 1231.81 739.21C1230.69 739.645 1229.41 739.862 1227.97 739.862ZM1248.31 720.955V724.335H1237.35V720.955H1248.31ZM1240.09 739.5V719.204C1240.09 717.956 1240.34 716.918 1240.86 716.089C1241.38 715.26 1242.08 714.64 1242.96 714.229C1243.84 713.819 1244.81 713.614 1245.88 713.614C1246.64 713.614 1247.31 713.674 1247.9 713.795C1248.49 713.915 1248.92 714.024 1249.2 714.121L1248.33 717.501C1248.15 717.445 1247.91 717.389 1247.63 717.332C1247.35 717.268 1247.04 717.236 1246.69 717.236C1245.88 717.236 1245.3 717.433 1244.96 717.827C1244.63 718.214 1244.47 718.769 1244.47 719.494V739.5H1240.09ZM1250.73 739.5V720.955H1255.1V739.5H1250.73ZM1252.93 718.322C1252.24 718.322 1251.64 718.093 1251.14 717.634C1250.64 717.167 1250.39 716.608 1250.39 715.956C1250.39 715.296 1250.64 714.737 1251.14 714.278C1251.64 713.811 1252.24 713.577 1252.93 713.577C1253.63 713.577 1254.23 713.811 1254.72 714.278C1255.22 714.737 1255.47 715.296 1255.47 715.956C1255.47 716.608 1255.22 717.167 1254.72 717.634C1254.23 718.093 1253.63 718.322 1252.93 718.322ZM1262.97 728.634V739.5H1258.6V720.955H1262.77V724.106H1262.99C1263.42 723.067 1264.1 722.242 1265.03 721.631C1265.97 721.019 1267.14 720.713 1268.52 720.713C1269.8 720.713 1270.92 720.987 1271.87 721.534C1272.82 722.081 1273.56 722.874 1274.09 723.913C1274.62 724.951 1274.88 726.211 1274.87 727.692V739.5H1270.5V728.368C1270.5 727.128 1270.18 726.158 1269.54 725.458C1268.9 724.758 1268.02 724.408 1266.89 724.408C1266.13 724.408 1265.45 724.577 1264.85 724.915C1264.26 725.245 1263.8 725.724 1263.46 726.352C1263.13 726.979 1262.97 727.74 1262.97 728.634ZM1278.32 739.5V720.955H1282.69V739.5H1278.32ZM1280.51 718.322C1279.82 718.322 1279.23 718.093 1278.73 717.634C1278.23 717.167 1277.98 716.608 1277.98 715.956C1277.98 715.296 1278.23 714.737 1278.73 714.278C1279.23 713.811 1279.82 713.577 1280.51 713.577C1281.21 713.577 1281.81 713.811 1282.3 714.278C1282.8 714.737 1283.05 715.296 1283.05 715.956C1283.05 716.608 1282.8 717.167 1282.3 717.634C1281.81 718.093 1281.21 718.322 1280.51 718.322ZM1295.44 720.955V724.335H1284.78V720.955H1295.44ZM1287.41 716.511H1291.78V733.922C1291.78 734.509 1291.87 734.96 1292.05 735.274C1292.23 735.58 1292.48 735.789 1292.77 735.902C1293.07 736.015 1293.4 736.071 1293.76 736.071C1294.04 736.071 1294.29 736.051 1294.51 736.011C1294.75 735.97 1294.92 735.934 1295.04 735.902L1295.78 739.319C1295.55 739.399 1295.21 739.488 1294.78 739.585C1294.35 739.681 1293.83 739.737 1293.21 739.754C1292.11 739.786 1291.13 739.621 1290.25 739.259C1289.37 738.888 1288.68 738.317 1288.16 737.544C1287.65 736.771 1287.4 735.805 1287.41 734.646V716.511ZM1298.1 739.5V720.955H1302.47V739.5H1298.1ZM1300.29 718.322C1299.6 718.322 1299.01 718.093 1298.51 717.634C1298.01 717.167 1297.76 716.608 1297.76 715.956C1297.76 715.296 1298.01 714.737 1298.51 714.278C1299.01 713.811 1299.6 713.577 1300.29 713.577C1301 713.577 1301.59 713.811 1302.08 714.278C1302.58 714.737 1302.83 715.296 1302.83 715.956C1302.83 716.608 1302.58 717.167 1302.08 717.634C1301.59 718.093 1301 718.322 1300.29 718.322ZM1314.05 739.862C1312.24 739.862 1310.67 739.464 1309.34 738.667C1308.02 737.87 1306.98 736.755 1306.25 735.322C1305.53 733.89 1305.17 732.215 1305.17 730.3C1305.17 728.384 1305.53 726.706 1306.25 725.265C1306.98 723.824 1308.02 722.705 1309.34 721.908C1310.67 721.112 1312.24 720.713 1314.05 720.713C1315.86 720.713 1317.43 721.112 1318.76 721.908C1320.09 722.705 1321.12 723.824 1321.84 725.265C1322.57 726.706 1322.94 728.384 1322.94 730.3C1322.94 732.215 1322.57 733.89 1321.84 735.322C1321.12 736.755 1320.09 737.87 1318.76 738.667C1317.43 739.464 1315.86 739.862 1314.05 739.862ZM1314.08 736.361C1315.06 736.361 1315.88 736.091 1316.54 735.552C1317.2 735.004 1317.69 734.272 1318.01 733.354C1318.34 732.437 1318.51 731.415 1318.51 730.288C1318.51 729.153 1318.34 728.126 1318.01 727.209C1317.69 726.283 1317.2 725.547 1316.54 724.999C1315.88 724.452 1315.06 724.178 1314.08 724.178C1313.07 724.178 1312.23 724.452 1311.56 724.999C1310.9 725.547 1310.41 726.283 1310.08 727.209C1309.76 728.126 1309.6 729.153 1309.6 730.288C1309.6 731.415 1309.76 732.437 1310.08 733.354C1310.41 734.272 1310.9 735.004 1311.56 735.552C1312.23 736.091 1313.07 736.361 1314.08 736.361ZM1330.02 728.634V739.5H1325.65V720.955H1329.83V724.106H1330.04C1330.47 723.067 1331.15 722.242 1332.08 721.631C1333.03 721.019 1334.19 720.713 1335.57 720.713C1336.85 720.713 1337.97 720.987 1338.92 721.534C1339.88 722.081 1340.62 722.874 1341.14 723.913C1341.67 724.951 1341.93 726.211 1341.92 727.692V739.5H1337.55V728.368C1337.55 727.128 1337.23 726.158 1336.59 725.458C1335.95 724.758 1335.07 724.408 1333.94 724.408C1333.18 724.408 1332.5 724.577 1331.9 724.915C1331.31 725.245 1330.85 725.724 1330.51 726.352C1330.18 726.979 1330.02 727.74 1330.02 728.634Z" fill="#282828"/>
<rect x="2228" y="673" width="312" height="109" rx="39" fill="#FFCB2F"/>
<path d="M2335.63 721.57C2335.51 720.516 2335.04 719.695 2334.2 719.107C2333.37 718.52 2332.29 718.226 2330.97 718.226C2330.03 718.226 2329.23 718.367 2328.56 718.648C2327.89 718.93 2327.38 719.312 2327.03 719.795C2326.68 720.278 2326.49 720.83 2326.49 721.45C2326.49 721.965 2326.6 722.411 2326.84 722.79C2327.08 723.168 2327.4 723.49 2327.81 723.756C2328.22 724.013 2328.68 724.231 2329.18 724.408C2329.68 724.585 2330.18 724.734 2330.69 724.854L2333.01 725.434C2333.94 725.651 2334.84 725.945 2335.7 726.315C2336.57 726.686 2337.34 727.152 2338.03 727.716C2338.72 728.279 2339.27 728.96 2339.67 729.756C2340.07 730.553 2340.27 731.487 2340.27 732.558C2340.27 734.006 2339.9 735.282 2339.16 736.385C2338.42 737.48 2337.35 738.337 2335.95 738.957C2334.56 739.568 2332.87 739.874 2330.89 739.874C2328.97 739.874 2327.3 739.576 2325.88 738.981C2324.47 738.385 2323.37 737.516 2322.57 736.373C2321.79 735.23 2321.36 733.837 2321.29 732.195H2325.7C2325.77 733.057 2326.03 733.773 2326.5 734.344C2326.97 734.916 2327.57 735.343 2328.32 735.624C2329.08 735.906 2329.92 736.047 2330.86 736.047C2331.83 736.047 2332.68 735.902 2333.42 735.612C2334.16 735.314 2334.74 734.904 2335.16 734.381C2335.57 733.849 2335.79 733.23 2335.8 732.521C2335.79 731.877 2335.6 731.346 2335.23 730.928C2334.86 730.501 2334.34 730.147 2333.67 729.865C2333.01 729.575 2332.24 729.318 2331.35 729.092L2328.54 728.368C2326.5 727.845 2324.89 727.052 2323.71 725.989C2322.53 724.919 2321.95 723.498 2321.95 721.727C2321.95 720.27 2322.34 718.995 2323.13 717.9C2323.93 716.805 2325.01 715.956 2326.38 715.352C2327.75 714.741 2329.3 714.435 2331.03 714.435C2332.78 714.435 2334.32 714.741 2335.64 715.352C2336.97 715.956 2338.01 716.797 2338.77 717.876C2339.52 718.946 2339.91 720.178 2339.94 721.57H2335.63ZM2351.16 739.862C2349.35 739.862 2347.78 739.464 2346.46 738.667C2345.13 737.87 2344.1 736.755 2343.36 735.322C2342.64 733.89 2342.28 732.215 2342.28 730.3C2342.28 728.384 2342.64 726.706 2343.36 725.265C2344.1 723.824 2345.13 722.705 2346.46 721.908C2347.78 721.112 2349.35 720.713 2351.16 720.713C2352.98 720.713 2354.55 721.112 2355.87 721.908C2357.2 722.705 2358.23 723.824 2358.95 725.265C2359.68 726.706 2360.05 728.384 2360.05 730.3C2360.05 732.215 2359.68 733.89 2358.95 735.322C2358.23 736.755 2357.2 737.87 2355.87 738.667C2354.55 739.464 2352.98 739.862 2351.16 739.862ZM2351.19 736.361C2352.17 736.361 2352.99 736.091 2353.65 735.552C2354.31 735.004 2354.8 734.272 2355.12 733.354C2355.45 732.437 2355.62 731.415 2355.62 730.288C2355.62 729.153 2355.45 728.126 2355.12 727.209C2354.8 726.283 2354.31 725.547 2353.65 724.999C2352.99 724.452 2352.17 724.178 2351.19 724.178C2350.18 724.178 2349.35 724.452 2348.68 724.999C2348.02 725.547 2347.52 726.283 2347.19 727.209C2346.87 728.126 2346.71 729.153 2346.71 730.288C2346.71 731.415 2346.87 732.437 2347.19 733.354C2347.52 734.272 2348.02 735.004 2348.68 735.552C2349.35 736.091 2350.18 736.361 2351.19 736.361ZM2367.13 714.773V739.5H2362.76V714.773H2367.13ZM2382.45 731.7V720.955H2386.82V739.5H2382.58V736.204H2382.39C2381.97 737.242 2381.28 738.091 2380.32 738.751C2379.37 739.411 2378.2 739.741 2376.81 739.741C2375.59 739.741 2374.52 739.472 2373.58 738.933C2372.66 738.385 2371.93 737.592 2371.41 736.554C2370.89 735.508 2370.63 734.244 2370.63 732.763V720.955H2375V732.087C2375 733.262 2375.32 734.196 2375.96 734.888C2376.61 735.58 2377.45 735.926 2378.5 735.926C2379.14 735.926 2379.77 735.769 2380.37 735.455C2380.97 735.141 2381.47 734.674 2381.85 734.055C2382.25 733.427 2382.45 732.642 2382.45 731.7ZM2399.57 720.955V724.335H2388.91V720.955H2399.57ZM2391.54 716.511H2395.91V733.922C2395.91 734.509 2396 734.96 2396.18 735.274C2396.36 735.58 2396.61 735.789 2396.9 735.902C2397.2 736.015 2397.53 736.071 2397.89 736.071C2398.17 736.071 2398.42 736.051 2398.64 736.011C2398.88 735.97 2399.05 735.934 2399.17 735.902L2399.91 739.319C2399.68 739.399 2399.34 739.488 2398.91 739.585C2398.48 739.681 2397.96 739.737 2397.34 739.754C2396.24 739.786 2395.26 739.621 2394.38 739.259C2393.5 738.888 2392.81 738.317 2392.29 737.544C2391.78 736.771 2391.53 735.805 2391.54 734.646V716.511ZM2402.23 739.5V720.955H2406.6V739.5H2402.23ZM2404.42 718.322C2403.73 718.322 2403.14 718.093 2402.64 717.634C2402.14 717.167 2401.89 716.608 2401.89 715.956C2401.89 715.296 2402.14 714.737 2402.64 714.278C2403.14 713.811 2403.73 713.577 2404.42 713.577C2405.12 713.577 2405.72 713.811 2406.21 714.278C2406.71 714.737 2406.96 715.296 2406.96 715.956C2406.96 716.608 2406.71 717.167 2406.21 717.634C2405.72 718.093 2405.12 718.322 2404.42 718.322ZM2418.18 739.862C2416.37 739.862 2414.8 739.464 2413.47 738.667C2412.14 737.87 2411.11 736.755 2410.38 735.322C2409.66 733.89 2409.3 732.215 2409.3 730.3C2409.3 728.384 2409.66 726.706 2410.38 725.265C2411.11 723.824 2412.14 722.705 2413.47 721.908C2414.8 721.112 2416.37 720.713 2418.18 720.713C2419.99 720.713 2421.56 721.112 2422.89 721.908C2424.22 722.705 2425.25 723.824 2425.97 725.265C2426.7 726.706 2427.07 728.384 2427.07 730.3C2427.07 732.215 2426.7 733.89 2425.97 735.322C2425.25 736.755 2424.22 737.87 2422.89 738.667C2421.56 739.464 2419.99 739.862 2418.18 739.862ZM2418.21 736.361C2419.19 736.361 2420.01 736.091 2420.67 735.552C2421.33 735.004 2421.82 734.272 2422.14 733.354C2422.47 732.437 2422.64 731.415 2422.64 730.288C2422.64 729.153 2422.47 728.126 2422.14 727.209C2421.82 726.283 2421.33 725.547 2420.67 724.999C2420.01 724.452 2419.19 724.178 2418.21 724.178C2417.2 724.178 2416.36 724.452 2415.69 724.999C2415.03 725.547 2414.54 726.283 2414.21 727.209C2413.89 728.126 2413.73 729.153 2413.73 730.288C2413.73 731.415 2413.89 732.437 2414.21 733.354C2414.54 734.272 2415.03 735.004 2415.69 735.552C2416.36 736.091 2417.2 736.361 2418.21 736.361ZM2434.15 728.634V739.5H2429.78V720.955H2433.96V724.106H2434.17C2434.6 723.067 2435.28 722.242 2436.21 721.631C2437.16 721.019 2438.32 720.713 2439.7 720.713C2440.98 720.713 2442.1 720.987 2443.05 721.534C2444.01 722.081 2444.75 722.874 2445.27 723.913C2445.8 724.951 2446.06 726.211 2446.05 727.692V739.5H2441.68V728.368C2441.68 727.128 2441.36 726.158 2440.72 725.458C2440.08 724.758 2439.2 724.408 2438.07 724.408C2437.31 724.408 2436.63 724.577 2436.03 724.915C2435.44 725.245 2434.98 725.724 2434.64 726.352C2434.31 726.979 2434.15 727.74 2434.15 728.634Z" fill="#282828"/>
<defs>
<linearGradient id="paint0_linear_2812_5782" x1="526.971" y1="734.809" x2="1246" y2="725.341" gradientUnits="userSpaceOnUse">
<stop offset="0.230766" stop-color="#0D6EFD"/>
<stop offset="0.783658" stop-color="#F79AFF"/>
</linearGradient>
<linearGradient id="paint1_linear_2812_5782" x1="2000.47" y1="720.609" x2="1281.42" y2="725.894" gradientUnits="userSpaceOnUse">
<stop offset="0.195874" stop-color="#0D6EFD"/>
<stop offset="0.737886" stop-color="#F79AFF"/>
</linearGradient>
</defs>
</svg>
