<svg xmlns="http://www.w3.org/2000/svg" xmlns:xlink="http://www.w3.org/1999/xlink" width="700" zoomAndPan="magnify" viewBox="0 0 525 299.999988" height="400" preserveAspectRatio="xMidYMid meet" version="1.2"><defs><clipPath id="5c1558f929"><path d="M 0 0 L 346.5 0 L 346.5 285 L 0 285 Z M 0 0 "/></clipPath></defs><g id="37d04f3ec8"><rect x="0" width="525" y="0" height="299.999988" style="fill:#ffffff;fill-opacity:1;stroke:none;"/><rect x="0" width="525" y="0" height="299.999988" style="fill:#7dd8ac;fill-opacity:1;stroke:none;"/><g clip-rule="nonzero" clip-path="url(#5c1558f929)"><path style=" stroke:none;fill-rule:nonzero;fill:#fdcb58;fill-opacity:1;" d="M 326.511719 -4.089844 C 308.085938 -4.089844 306.65625 -4.019531 306.398438 -3.132812 C 304.511719 3.460938 302.445312 9.699219 301.609375 11.351562 C 300.378906 13.769531 295.660156 18.617188 292.25 20.960938 C 290.921875 21.875 286.410156 24.320312 282.226562 26.390625 C 258.746094 38.015625 234.414062 45.105469 192.632812 52.496094 C 149.71875 60.089844 138.394531 64.457031 124.03125 78.949219 C 118.304688 84.726562 115.242188 88.71875 111.3125 95.523438 C 106.3125 104.175781 104.152344 111.644531 103.207031 123.542969 C 102.585938 131.386719 102.863281 136.316406 104.769531 151.148438 C 107.414062 171.734375 106.585938 183.21875 101.644531 194.488281 C 96.804688 205.523438 90.066406 213.257812 81.820312 217.246094 C 75.390625 220.351562 71.089844 221.234375 61.992188 221.308594 C 55.128906 221.367188 53.777344 221.210938 48.875 219.824219 C 31.945312 215.023438 19.269531 208.261719 5.417969 196.644531 L 0.226562 192.289062 L 0.0859375 231.40625 C 0.0078125 252.917969 0.128906 270.699219 0.359375 270.914062 C 1.519531 272.023438 17.9375 276.855469 28.101562 279.085938 C 38.753906 281.421875 55.652344 283.75 65 284.171875 C 82.136719 284.945312 101.78125 282.4375 116.378906 277.605469 C 152.613281 265.621094 172.679688 239.96875 172.679688 205.652344 C 172.679688 193.742188 170.375 180.699219 165.65625 165.90625 C 160.246094 148.949219 158.847656 141.847656 158.875 131.46875 C 158.910156 119.074219 160.90625 112.625 167.410156 103.933594 C 175.472656 93.15625 191.402344 86.59375 221.328125 81.726562 C 275.828125 72.867188 289.851562 68.875 307.457031 57.21875 C 315.253906 52.058594 325.332031 43.472656 329.75 38.238281 C 333.386719 33.921875 338.296875 25.875 340.335938 20.882812 C 342.566406 15.417969 344.34375 8.195312 346.105469 -2.585938 L 346.351562 -4.089844 Z M 326.511719 -4.089844 "/></g></g></svg>