<svg xmlns="http://www.w3.org/2000/svg" xmlns:xlink="http://www.w3.org/1999/xlink" width="700" zoomAndPan="magnify" viewBox="0 0 525 299.999988" height="400" preserveAspectRatio="xMidYMid meet" version="1.2"><defs><clipPath id="f6defd87d5"><path d="M 212.371094 99.871094 L 312.871094 99.871094 L 312.871094 200.371094 L 212.371094 200.371094 Z M 212.371094 99.871094 "/></clipPath><clipPath id="8858f430b2"><path d="M 230.230469 117.730469 L 294.730469 117.730469 L 294.730469 182.230469 L 230.230469 182.230469 Z M 230.230469 117.730469 "/></clipPath></defs><g id="a9e2f48463"><rect x="0" width="525" y="0" height="299.999988" style="fill:#ffffff;fill-opacity:1;stroke:none;"/><rect x="0" width="525" y="0" height="299.999988" style="fill:#e0e7ff;fill-opacity:1;stroke:none;"/><g clip-rule="nonzero" clip-path="url(#f6defd87d5)"><path style=" stroke:none;fill-rule:nonzero;fill:#ad47ff;fill-opacity:1;" d="M 312.625 150 C 312.625 151.640625 312.546875 153.28125 312.386719 154.914062 C 312.222656 156.546875 311.984375 158.167969 311.664062 159.777344 C 311.34375 161.390625 310.945312 162.980469 310.46875 164.550781 C 309.992188 166.121094 309.441406 167.664062 308.8125 169.183594 C 308.183594 170.699219 307.480469 172.183594 306.707031 173.628906 C 305.933594 175.078125 305.089844 176.484375 304.179688 177.847656 C 303.265625 179.214844 302.289062 180.53125 301.25 181.800781 C 300.207031 183.070312 299.105469 184.285156 297.945312 185.445312 C 296.785156 186.605469 295.570312 187.707031 294.300781 188.75 C 293.03125 189.789062 291.714844 190.765625 290.347656 191.679688 C 288.984375 192.589844 287.578125 193.433594 286.128906 194.207031 C 284.683594 194.980469 283.199219 195.683594 281.683594 196.3125 C 280.164062 196.941406 278.621094 197.492188 277.050781 197.96875 C 275.480469 198.445312 273.890625 198.84375 272.277344 199.164062 C 270.667969 199.484375 269.046875 199.726562 267.414062 199.886719 C 265.78125 200.046875 264.140625 200.125 262.5 200.125 C 260.859375 200.125 259.21875 200.046875 257.585938 199.886719 C 255.953125 199.726562 254.332031 199.484375 252.71875 199.164062 C 251.109375 198.84375 249.519531 198.445312 247.949219 197.96875 C 246.378906 197.492188 244.832031 196.941406 243.316406 196.3125 C 241.800781 195.683594 240.316406 194.980469 238.871094 194.207031 C 237.421875 193.433594 236.015625 192.589844 234.652344 191.679688 C 233.285156 190.765625 231.96875 189.789062 230.699219 188.75 C 229.429688 187.707031 228.214844 186.605469 227.054688 185.445312 C 225.894531 184.285156 224.792969 183.070312 223.75 181.800781 C 222.710938 180.53125 221.734375 179.214844 220.820312 177.847656 C 219.910156 176.484375 219.066406 175.078125 218.292969 173.628906 C 217.519531 172.183594 216.816406 170.699219 216.1875 169.183594 C 215.558594 167.664062 215.007812 166.121094 214.53125 164.550781 C 214.054688 162.980469 213.65625 161.390625 213.335938 159.777344 C 213.015625 158.167969 212.773438 156.546875 212.613281 154.914062 C 212.453125 153.28125 212.371094 151.640625 212.371094 150 C 212.371094 148.359375 212.453125 146.71875 212.613281 145.085938 C 212.773438 143.453125 213.015625 141.832031 213.335938 140.21875 C 213.65625 138.609375 214.054688 137.019531 214.53125 135.449219 C 215.007812 133.878906 215.558594 132.332031 216.1875 130.816406 C 216.816406 129.300781 217.519531 127.816406 218.292969 126.371094 C 219.066406 124.921875 219.910156 123.515625 220.820312 122.152344 C 221.734375 120.785156 222.710938 119.46875 223.75 118.199219 C 224.792969 116.929688 225.894531 115.714844 227.054688 114.554688 C 228.214844 113.394531 229.429688 112.292969 230.699219 111.25 C 231.96875 110.210938 233.285156 109.234375 234.652344 108.320312 C 236.015625 107.410156 237.421875 106.566406 238.871094 105.792969 C 240.316406 105.019531 241.800781 104.316406 243.316406 103.6875 C 244.832031 103.058594 246.378906 102.507812 247.949219 102.03125 C 249.519531 101.554688 251.109375 101.15625 252.71875 100.835938 C 254.332031 100.515625 255.953125 100.273438 257.585938 100.113281 C 259.21875 99.953125 260.859375 99.871094 262.5 99.871094 C 264.140625 99.871094 265.78125 99.953125 267.414062 100.113281 C 269.046875 100.273438 270.667969 100.515625 272.277344 100.835938 C 273.890625 101.15625 275.480469 101.554688 277.050781 102.03125 C 278.621094 102.507812 280.164062 103.058594 281.683594 103.6875 C 283.199219 104.316406 284.683594 105.019531 286.128906 105.792969 C 287.578125 106.566406 288.984375 107.410156 290.347656 108.320312 C 291.714844 109.234375 293.03125 110.210938 294.300781 111.25 C 295.570312 112.292969 296.785156 113.394531 297.945312 114.554688 C 299.105469 115.714844 300.207031 116.929688 301.25 118.199219 C 302.289062 119.46875 303.265625 120.785156 304.179688 122.152344 C 305.089844 123.515625 305.933594 124.921875 306.707031 126.371094 C 307.480469 127.816406 308.183594 129.300781 308.8125 130.816406 C 309.441406 132.332031 309.992188 133.878906 310.46875 135.449219 C 310.945312 137.019531 311.34375 138.609375 311.664062 140.21875 C 311.984375 141.832031 312.222656 143.453125 312.386719 145.085938 C 312.546875 146.71875 312.625 148.359375 312.625 150 Z M 312.625 150 "/></g><path style="fill:none;stroke-width:2;stroke-linecap:butt;stroke-linejoin:miter;stroke:#000000;stroke-opacity:1;stroke-miterlimit:4;" d="M 0.00258411 1.000016 L 214.16406 1.000016 " transform="matrix(0.75,0,0,0.75,312.626968,149.249988)"/><path style="fill:none;stroke-width:2;stroke-linecap:butt;stroke-linejoin:miter;stroke:#000000;stroke-opacity:1;stroke-miterlimit:4;" d="M -0.000837165 1.000016 L 214.160639 1.000016 " transform="matrix(0.75,0,0,0.75,51.750628,149.999988)"/><path style="fill:none;stroke-width:2;stroke-linecap:butt;stroke-linejoin:miter;stroke:#000000;stroke-opacity:1;stroke-miterlimit:4;" d="M -0.000768884 0.998187 L 79.473196 0.998187 " transform="matrix(0.000000001309,0.75,-0.75,0.000000001309,263.24864,40.270108)"/><path style="fill:none;stroke-width:2;stroke-linecap:butt;stroke-linejoin:miter;stroke:#000000;stroke-opacity:1;stroke-miterlimit:4;" d="M 0.000790657 0.998187 L 79.474755 0.998187 " transform="matrix(0.000000001309,0.75,-0.75,0.000000001309,263.24864,200.128313)"/><g clip-rule="nonzero" clip-path="url(#8858f430b2)"><path style=" stroke:none;fill-rule:nonzero;fill:#ffffff;fill-opacity:1;" d="M 294.765625 150 C 294.765625 151.054688 294.714844 152.109375 294.613281 153.164062 C 294.507812 154.214844 294.351562 155.257812 294.148438 156.292969 C 293.941406 157.332031 293.683594 158.355469 293.378906 159.367188 C 293.070312 160.378906 292.714844 161.371094 292.3125 162.347656 C 291.90625 163.324219 291.457031 164.277344 290.957031 165.210938 C 290.457031 166.140625 289.917969 167.046875 289.328125 167.925781 C 288.742188 168.804688 288.113281 169.652344 287.441406 170.46875 C 286.773438 171.285156 286.0625 172.070312 285.316406 172.816406 C 284.570312 173.5625 283.785156 174.273438 282.96875 174.941406 C 282.152344 175.613281 281.304688 176.242188 280.425781 176.828125 C 279.546875 177.417969 278.640625 177.957031 277.710938 178.457031 C 276.777344 178.957031 275.824219 179.40625 274.847656 179.8125 C 273.871094 180.214844 272.878906 180.570312 271.867188 180.878906 C 270.855469 181.183594 269.832031 181.441406 268.792969 181.648438 C 267.757812 181.851562 266.714844 182.007812 265.664062 182.113281 C 264.609375 182.214844 263.554688 182.265625 262.5 182.265625 C 261.441406 182.265625 260.386719 182.214844 259.335938 182.113281 C 258.285156 182.007812 257.242188 181.851562 256.203125 181.648438 C 255.167969 181.441406 254.144531 181.183594 253.132812 180.878906 C 252.121094 180.570312 251.128906 180.214844 250.152344 179.8125 C 249.175781 179.40625 248.222656 178.957031 247.289062 178.457031 C 246.355469 177.957031 245.453125 177.417969 244.574219 176.828125 C 243.695312 176.242188 242.847656 175.613281 242.03125 174.941406 C 241.210938 174.273438 240.429688 173.5625 239.683594 172.816406 C 238.9375 172.070312 238.226562 171.285156 237.554688 170.46875 C 236.886719 169.652344 236.257812 168.804688 235.671875 167.925781 C 235.082031 167.046875 234.539062 166.140625 234.042969 165.210938 C 233.542969 164.277344 233.09375 163.324219 232.6875 162.347656 C 232.285156 161.371094 231.929688 160.378906 231.621094 159.367188 C 231.316406 158.355469 231.058594 157.332031 230.851562 156.292969 C 230.644531 155.257812 230.492188 154.214844 230.386719 153.164062 C 230.285156 152.109375 230.230469 151.054688 230.230469 150 C 230.230469 148.941406 230.285156 147.886719 230.386719 146.835938 C 230.492188 145.785156 230.644531 144.742188 230.851562 143.703125 C 231.058594 142.667969 231.316406 141.644531 231.621094 140.632812 C 231.929688 139.621094 232.285156 138.628906 232.6875 137.652344 C 233.09375 136.675781 233.542969 135.722656 234.042969 134.789062 C 234.539062 133.855469 235.082031 132.953125 235.671875 132.074219 C 236.257812 131.195312 236.886719 130.347656 237.554688 129.53125 C 238.226562 128.710938 238.9375 127.929688 239.683594 127.183594 C 240.429688 126.4375 241.210938 125.726562 242.03125 125.054688 C 242.847656 124.386719 243.695312 123.757812 244.574219 123.171875 C 245.453125 122.582031 246.355469 122.039062 247.289062 121.542969 C 248.222656 121.042969 249.175781 120.59375 250.152344 120.1875 C 251.128906 119.785156 252.121094 119.429688 253.132812 119.121094 C 254.144531 118.816406 255.167969 118.558594 256.203125 118.351562 C 257.242188 118.144531 258.285156 117.992188 259.335938 117.886719 C 260.386719 117.785156 261.441406 117.730469 262.5 117.730469 C 263.554688 117.730469 264.609375 117.785156 265.664062 117.886719 C 266.714844 117.992188 267.757812 118.144531 268.792969 118.351562 C 269.832031 118.558594 270.855469 118.816406 271.867188 119.121094 C 272.878906 119.429688 273.871094 119.785156 274.847656 120.1875 C 275.824219 120.59375 276.777344 121.042969 277.710938 121.542969 C 278.640625 122.039062 279.546875 122.582031 280.425781 123.171875 C 281.304688 123.757812 282.152344 124.386719 282.96875 125.054688 C 283.785156 125.726562 284.570312 126.4375 285.316406 127.183594 C 286.0625 127.929688 286.773438 128.710938 287.441406 129.53125 C 288.113281 130.347656 288.742188 131.195312 289.328125 132.074219 C 289.917969 132.953125 290.457031 133.855469 290.957031 134.789062 C 291.457031 135.722656 291.90625 136.675781 292.3125 137.652344 C 292.714844 138.628906 293.070312 139.621094 293.378906 140.632812 C 293.683594 141.644531 293.941406 142.667969 294.148438 143.703125 C 294.351562 144.742188 294.507812 145.785156 294.613281 146.835938 C 294.714844 147.886719 294.765625 148.941406 294.765625 150 Z M 294.765625 150 "/></g><g style="fill:#000000;fill-opacity:1;"><g transform="translate(56.919903, 54.41875)"><path style="stroke:none" d="M 7.625 -8.578125 C 7.5625 -9.117188 7.3125 -9.535156 6.875 -9.828125 C 6.4375 -10.128906 5.882812 -10.28125 5.21875 -10.28125 C 4.738281 -10.28125 4.320312 -10.203125 3.96875 -10.046875 C 3.625 -9.898438 3.351562 -9.695312 3.15625 -9.4375 C 2.96875 -9.175781 2.875 -8.882812 2.875 -8.5625 C 2.875 -8.28125 2.9375 -8.039062 3.0625 -7.84375 C 3.195312 -7.644531 3.375 -7.476562 3.59375 -7.34375 C 3.8125 -7.207031 4.039062 -7.09375 4.28125 -7 C 4.53125 -6.914062 4.769531 -6.84375 5 -6.78125 L 6.125 -6.484375 C 6.5 -6.398438 6.878906 -6.28125 7.265625 -6.125 C 7.660156 -5.96875 8.023438 -5.757812 8.359375 -5.5 C 8.691406 -5.25 8.960938 -4.9375 9.171875 -4.5625 C 9.378906 -4.1875 9.484375 -3.738281 9.484375 -3.21875 C 9.484375 -2.5625 9.3125 -1.972656 8.96875 -1.453125 C 8.625 -0.941406 8.128906 -0.539062 7.484375 -0.25 C 6.847656 0.0390625 6.078125 0.1875 5.171875 0.1875 C 4.296875 0.1875 3.539062 0.0507812 2.90625 -0.21875 C 2.269531 -0.5 1.769531 -0.894531 1.40625 -1.40625 C 1.050781 -1.914062 0.851562 -2.519531 0.8125 -3.21875 L 2.578125 -3.21875 C 2.609375 -2.789062 2.742188 -2.4375 2.984375 -2.15625 C 3.234375 -1.882812 3.546875 -1.679688 3.921875 -1.546875 C 4.296875 -1.410156 4.707031 -1.34375 5.15625 -1.34375 C 5.65625 -1.34375 6.097656 -1.421875 6.484375 -1.578125 C 6.867188 -1.734375 7.171875 -1.953125 7.390625 -2.234375 C 7.617188 -2.523438 7.734375 -2.859375 7.734375 -3.234375 C 7.734375 -3.578125 7.632812 -3.859375 7.4375 -4.078125 C 7.25 -4.296875 6.988281 -4.476562 6.65625 -4.625 C 6.320312 -4.769531 5.945312 -4.894531 5.53125 -5 L 4.15625 -5.375 C 3.226562 -5.632812 2.488281 -6.007812 1.9375 -6.5 C 1.394531 -6.988281 1.125 -7.640625 1.125 -8.453125 C 1.125 -9.117188 1.304688 -9.703125 1.671875 -10.203125 C 2.035156 -10.703125 2.523438 -11.09375 3.140625 -11.375 C 3.765625 -11.65625 4.46875 -11.796875 5.25 -11.796875 C 6.039062 -11.796875 6.738281 -11.65625 7.34375 -11.375 C 7.945312 -11.101562 8.421875 -10.722656 8.765625 -10.234375 C 9.117188 -9.753906 9.300781 -9.203125 9.3125 -8.578125 Z M 7.625 -8.578125 "/></g></g><g style="fill:#000000;fill-opacity:1;"><g transform="translate(67.212753, 54.41875)"><path style="stroke:none" d="M 6.671875 -3.625 L 6.671875 -8.734375 L 8.375 -8.734375 L 8.375 0 L 6.703125 0 L 6.703125 -1.515625 L 6.609375 -1.515625 C 6.410156 -1.046875 6.085938 -0.65625 5.640625 -0.34375 C 5.203125 -0.0390625 4.65625 0.109375 4 0.109375 C 3.445312 0.109375 2.953125 -0.0078125 2.515625 -0.25 C 2.085938 -0.5 1.75 -0.867188 1.5 -1.359375 C 1.257812 -1.847656 1.140625 -2.453125 1.140625 -3.171875 L 1.140625 -8.734375 L 2.84375 -8.734375 L 2.84375 -3.375 C 2.84375 -2.78125 3.003906 -2.304688 3.328125 -1.953125 C 3.660156 -1.609375 4.09375 -1.4375 4.625 -1.4375 C 4.9375 -1.4375 5.25 -1.515625 5.5625 -1.671875 C 5.882812 -1.828125 6.148438 -2.066406 6.359375 -2.390625 C 6.566406 -2.710938 6.671875 -3.125 6.671875 -3.625 Z M 6.671875 -3.625 "/></g></g><g style="fill:#000000;fill-opacity:1;"><g transform="translate(76.721717, 54.41875)"><path style="stroke:none" d="M 7.6875 -6.59375 L 6.140625 -6.328125 C 6.078125 -6.523438 5.972656 -6.710938 5.828125 -6.890625 C 5.691406 -7.066406 5.503906 -7.210938 5.265625 -7.328125 C 5.035156 -7.441406 4.742188 -7.5 4.390625 -7.5 C 3.910156 -7.5 3.507812 -7.390625 3.1875 -7.171875 C 2.863281 -6.960938 2.703125 -6.6875 2.703125 -6.34375 C 2.703125 -6.050781 2.8125 -5.816406 3.03125 -5.640625 C 3.25 -5.460938 3.597656 -5.316406 4.078125 -5.203125 L 5.46875 -4.890625 C 6.269531 -4.703125 6.867188 -4.414062 7.265625 -4.03125 C 7.660156 -3.644531 7.859375 -3.140625 7.859375 -2.515625 C 7.859375 -1.992188 7.707031 -1.53125 7.40625 -1.125 C 7.101562 -0.71875 6.679688 -0.398438 6.140625 -0.171875 C 5.609375 0.0546875 4.988281 0.171875 4.28125 0.171875 C 3.300781 0.171875 2.503906 -0.0351562 1.890625 -0.453125 C 1.273438 -0.867188 0.894531 -1.460938 0.75 -2.234375 L 2.390625 -2.484375 C 2.492188 -2.054688 2.703125 -1.734375 3.015625 -1.515625 C 3.335938 -1.296875 3.753906 -1.1875 4.265625 -1.1875 C 4.828125 -1.1875 5.273438 -1.300781 5.609375 -1.53125 C 5.941406 -1.769531 6.109375 -2.054688 6.109375 -2.390625 C 6.109375 -2.671875 6.003906 -2.898438 5.796875 -3.078125 C 5.597656 -3.265625 5.289062 -3.40625 4.875 -3.5 L 3.390625 -3.828125 C 2.578125 -4.015625 1.976562 -4.3125 1.59375 -4.71875 C 1.207031 -5.125 1.015625 -5.632812 1.015625 -6.25 C 1.015625 -6.769531 1.15625 -7.222656 1.4375 -7.609375 C 1.726562 -7.992188 2.125 -8.296875 2.625 -8.515625 C 3.132812 -8.734375 3.71875 -8.84375 4.375 -8.84375 C 5.320312 -8.84375 6.066406 -8.640625 6.609375 -8.234375 C 7.148438 -7.828125 7.507812 -7.28125 7.6875 -6.59375 Z M 7.6875 -6.59375 "/></g></g><g style="fill:#000000;fill-opacity:1;"><g transform="translate(85.29341, 54.41875)"><path style="stroke:none" d="M 5.21875 -8.734375 L 5.21875 -7.359375 L 0.453125 -7.359375 L 0.453125 -8.734375 Z M 1.734375 -10.8125 L 3.421875 -10.8125 L 3.421875 -2.5625 C 3.421875 -2.226562 3.46875 -1.976562 3.5625 -1.8125 C 3.664062 -1.65625 3.796875 -1.546875 3.953125 -1.484375 C 4.109375 -1.421875 4.28125 -1.390625 4.46875 -1.390625 C 4.601562 -1.390625 4.722656 -1.398438 4.828125 -1.421875 C 4.929688 -1.441406 5.007812 -1.457031 5.0625 -1.46875 L 5.375 -0.0625 C 5.28125 -0.03125 5.140625 0.00390625 4.953125 0.046875 C 4.773438 0.0859375 4.546875 0.109375 4.265625 0.109375 C 3.828125 0.117188 3.410156 0.0390625 3.015625 -0.125 C 2.628906 -0.289062 2.316406 -0.546875 2.078125 -0.890625 C 1.847656 -1.242188 1.734375 -1.679688 1.734375 -2.203125 Z M 1.734375 -10.8125 "/></g></g><g style="fill:#000000;fill-opacity:1;"><g transform="translate(91.240766, 54.41875)"><path style="stroke:none" d="M 3.6875 0.1875 C 3.132812 0.1875 2.632812 0.0859375 2.1875 -0.109375 C 1.738281 -0.316406 1.382812 -0.617188 1.125 -1.015625 C 0.863281 -1.410156 0.734375 -1.894531 0.734375 -2.46875 C 0.734375 -2.957031 0.828125 -3.359375 1.015625 -3.671875 C 1.203125 -3.992188 1.457031 -4.25 1.78125 -4.4375 C 2.101562 -4.625 2.460938 -4.765625 2.859375 -4.859375 C 3.253906 -4.953125 3.660156 -5.023438 4.078125 -5.078125 C 4.597656 -5.140625 5.019531 -5.1875 5.34375 -5.21875 C 5.675781 -5.257812 5.914062 -5.328125 6.0625 -5.421875 C 6.207031 -5.515625 6.28125 -5.660156 6.28125 -5.859375 L 6.28125 -5.90625 C 6.28125 -6.394531 6.140625 -6.773438 5.859375 -7.046875 C 5.585938 -7.328125 5.175781 -7.46875 4.625 -7.46875 C 4.050781 -7.46875 3.597656 -7.335938 3.265625 -7.078125 C 2.941406 -6.828125 2.71875 -6.550781 2.59375 -6.25 L 1 -6.609375 C 1.1875 -7.140625 1.460938 -7.566406 1.828125 -7.890625 C 2.191406 -8.222656 2.613281 -8.460938 3.09375 -8.609375 C 3.570312 -8.765625 4.078125 -8.84375 4.609375 -8.84375 C 4.953125 -8.84375 5.316406 -8.800781 5.703125 -8.71875 C 6.097656 -8.632812 6.46875 -8.484375 6.8125 -8.265625 C 7.15625 -8.054688 7.4375 -7.75 7.65625 -7.34375 C 7.875 -6.945312 7.984375 -6.429688 7.984375 -5.796875 L 7.984375 0 L 6.328125 0 L 6.328125 -1.1875 L 6.265625 -1.1875 C 6.148438 -0.96875 5.984375 -0.753906 5.765625 -0.546875 C 5.546875 -0.335938 5.265625 -0.160156 4.921875 -0.015625 C 4.578125 0.117188 4.164062 0.1875 3.6875 0.1875 Z M 4.046875 -1.171875 C 4.515625 -1.171875 4.914062 -1.265625 5.25 -1.453125 C 5.59375 -1.640625 5.851562 -1.878906 6.03125 -2.171875 C 6.207031 -2.472656 6.296875 -2.796875 6.296875 -3.140625 L 6.296875 -4.265625 C 6.234375 -4.210938 6.113281 -4.160156 5.9375 -4.109375 C 5.769531 -4.054688 5.570312 -4.007812 5.34375 -3.96875 C 5.125 -3.9375 4.910156 -3.90625 4.703125 -3.875 C 4.492188 -3.84375 4.320312 -3.820312 4.1875 -3.8125 C 3.851562 -3.769531 3.550781 -3.695312 3.28125 -3.59375 C 3.007812 -3.5 2.789062 -3.359375 2.625 -3.171875 C 2.46875 -2.984375 2.390625 -2.738281 2.390625 -2.4375 C 2.390625 -2.019531 2.546875 -1.703125 2.859375 -1.484375 C 3.171875 -1.273438 3.566406 -1.171875 4.046875 -1.171875 Z M 4.046875 -1.171875 "/></g></g><g style="fill:#000000;fill-opacity:1;"><g transform="translate(100.346417, 54.41875)"><path style="stroke:none" d="M 1.140625 0 L 1.140625 -8.734375 L 2.84375 -8.734375 L 2.84375 0 Z M 2 -10.078125 C 1.707031 -10.078125 1.453125 -10.175781 1.234375 -10.375 C 1.023438 -10.570312 0.921875 -10.804688 0.921875 -11.078125 C 0.921875 -11.359375 1.023438 -11.597656 1.234375 -11.796875 C 1.453125 -12.003906 1.707031 -12.109375 2 -12.109375 C 2.289062 -12.109375 2.539062 -12.003906 2.75 -11.796875 C 2.96875 -11.597656 3.078125 -11.359375 3.078125 -11.078125 C 3.078125 -10.804688 2.96875 -10.570312 2.75 -10.375 C 2.539062 -10.175781 2.289062 -10.078125 2 -10.078125 Z M 2 -10.078125 "/></g></g><g style="fill:#000000;fill-opacity:1;"><g transform="translate(104.328366, 54.41875)"><path style="stroke:none" d="M 2.84375 -5.1875 L 2.84375 0 L 1.140625 0 L 1.140625 -8.734375 L 2.765625 -8.734375 L 2.765625 -7.3125 L 2.875 -7.3125 C 3.082031 -7.769531 3.398438 -8.140625 3.828125 -8.421875 C 4.253906 -8.703125 4.796875 -8.84375 5.453125 -8.84375 C 6.046875 -8.84375 6.566406 -8.71875 7.015625 -8.46875 C 7.460938 -8.21875 7.804688 -7.847656 8.046875 -7.359375 C 8.296875 -6.867188 8.421875 -6.265625 8.421875 -5.546875 L 8.421875 0 L 6.734375 0 L 6.734375 -5.34375 C 6.734375 -5.976562 6.566406 -6.472656 6.234375 -6.828125 C 5.898438 -7.191406 5.445312 -7.375 4.875 -7.375 C 4.476562 -7.375 4.128906 -7.285156 3.828125 -7.109375 C 3.523438 -6.941406 3.285156 -6.691406 3.109375 -6.359375 C 2.929688 -6.035156 2.84375 -5.644531 2.84375 -5.1875 Z M 2.84375 -5.1875 "/></g></g><g style="fill:#000000;fill-opacity:1;"><g transform="translate(113.882763, 54.41875)"><path style="stroke:none" d="M 3.6875 0.1875 C 3.132812 0.1875 2.632812 0.0859375 2.1875 -0.109375 C 1.738281 -0.316406 1.382812 -0.617188 1.125 -1.015625 C 0.863281 -1.410156 0.734375 -1.894531 0.734375 -2.46875 C 0.734375 -2.957031 0.828125 -3.359375 1.015625 -3.671875 C 1.203125 -3.992188 1.457031 -4.25 1.78125 -4.4375 C 2.101562 -4.625 2.460938 -4.765625 2.859375 -4.859375 C 3.253906 -4.953125 3.660156 -5.023438 4.078125 -5.078125 C 4.597656 -5.140625 5.019531 -5.1875 5.34375 -5.21875 C 5.675781 -5.257812 5.914062 -5.328125 6.0625 -5.421875 C 6.207031 -5.515625 6.28125 -5.660156 6.28125 -5.859375 L 6.28125 -5.90625 C 6.28125 -6.394531 6.140625 -6.773438 5.859375 -7.046875 C 5.585938 -7.328125 5.175781 -7.46875 4.625 -7.46875 C 4.050781 -7.46875 3.597656 -7.335938 3.265625 -7.078125 C 2.941406 -6.828125 2.71875 -6.550781 2.59375 -6.25 L 1 -6.609375 C 1.1875 -7.140625 1.460938 -7.566406 1.828125 -7.890625 C 2.191406 -8.222656 2.613281 -8.460938 3.09375 -8.609375 C 3.570312 -8.765625 4.078125 -8.84375 4.609375 -8.84375 C 4.953125 -8.84375 5.316406 -8.800781 5.703125 -8.71875 C 6.097656 -8.632812 6.46875 -8.484375 6.8125 -8.265625 C 7.15625 -8.054688 7.4375 -7.75 7.65625 -7.34375 C 7.875 -6.945312 7.984375 -6.429688 7.984375 -5.796875 L 7.984375 0 L 6.328125 0 L 6.328125 -1.1875 L 6.265625 -1.1875 C 6.148438 -0.96875 5.984375 -0.753906 5.765625 -0.546875 C 5.546875 -0.335938 5.265625 -0.160156 4.921875 -0.015625 C 4.578125 0.117188 4.164062 0.1875 3.6875 0.1875 Z M 4.046875 -1.171875 C 4.515625 -1.171875 4.914062 -1.265625 5.25 -1.453125 C 5.59375 -1.640625 5.851562 -1.878906 6.03125 -2.171875 C 6.207031 -2.472656 6.296875 -2.796875 6.296875 -3.140625 L 6.296875 -4.265625 C 6.234375 -4.210938 6.113281 -4.160156 5.9375 -4.109375 C 5.769531 -4.054688 5.570312 -4.007812 5.34375 -3.96875 C 5.125 -3.9375 4.910156 -3.90625 4.703125 -3.875 C 4.492188 -3.84375 4.320312 -3.820312 4.1875 -3.8125 C 3.851562 -3.769531 3.550781 -3.695312 3.28125 -3.59375 C 3.007812 -3.5 2.789062 -3.359375 2.625 -3.171875 C 2.46875 -2.984375 2.390625 -2.738281 2.390625 -2.4375 C 2.390625 -2.019531 2.546875 -1.703125 2.859375 -1.484375 C 3.171875 -1.273438 3.566406 -1.171875 4.046875 -1.171875 Z M 4.046875 -1.171875 "/></g></g><g style="fill:#000000;fill-opacity:1;"><g transform="translate(122.988414, 54.41875)"><path style="stroke:none" d="M 1.28125 0 L 1.28125 -11.640625 L 2.984375 -11.640625 L 2.984375 -7.3125 L 3.078125 -7.3125 C 3.179688 -7.488281 3.320312 -7.695312 3.5 -7.9375 C 3.6875 -8.175781 3.941406 -8.382812 4.265625 -8.5625 C 4.597656 -8.75 5.035156 -8.84375 5.578125 -8.84375 C 6.285156 -8.84375 6.914062 -8.660156 7.46875 -8.296875 C 8.019531 -7.941406 8.453125 -7.429688 8.765625 -6.765625 C 9.085938 -6.097656 9.25 -5.289062 9.25 -4.34375 C 9.25 -3.40625 9.09375 -2.597656 8.78125 -1.921875 C 8.46875 -1.253906 8.035156 -0.738281 7.484375 -0.375 C 6.929688 -0.0078125 6.304688 0.171875 5.609375 0.171875 C 5.078125 0.171875 4.640625 0.0820312 4.296875 -0.09375 C 3.960938 -0.269531 3.703125 -0.476562 3.515625 -0.71875 C 3.328125 -0.957031 3.179688 -1.171875 3.078125 -1.359375 L 2.9375 -1.359375 L 2.9375 0 Z M 2.9375 -4.359375 C 2.9375 -3.742188 3.023438 -3.207031 3.203125 -2.75 C 3.390625 -2.289062 3.648438 -1.929688 3.984375 -1.671875 C 4.316406 -1.410156 4.726562 -1.28125 5.21875 -1.28125 C 5.726562 -1.28125 6.148438 -1.414062 6.484375 -1.6875 C 6.828125 -1.957031 7.085938 -2.320312 7.265625 -2.78125 C 7.441406 -3.25 7.53125 -3.773438 7.53125 -4.359375 C 7.53125 -4.941406 7.441406 -5.460938 7.265625 -5.921875 C 7.097656 -6.378906 6.84375 -6.738281 6.5 -7 C 6.15625 -7.257812 5.726562 -7.390625 5.21875 -7.390625 C 4.726562 -7.390625 4.3125 -7.265625 3.96875 -7.015625 C 3.632812 -6.765625 3.378906 -6.410156 3.203125 -5.953125 C 3.023438 -5.492188 2.9375 -4.960938 2.9375 -4.359375 Z M 2.9375 -4.359375 "/></g></g><g style="fill:#000000;fill-opacity:1;"><g transform="translate(132.997244, 54.41875)"><path style="stroke:none" d="M 1.140625 0 L 1.140625 -8.734375 L 2.84375 -8.734375 L 2.84375 0 Z M 2 -10.078125 C 1.707031 -10.078125 1.453125 -10.175781 1.234375 -10.375 C 1.023438 -10.570312 0.921875 -10.804688 0.921875 -11.078125 C 0.921875 -11.359375 1.023438 -11.597656 1.234375 -11.796875 C 1.453125 -12.003906 1.707031 -12.109375 2 -12.109375 C 2.289062 -12.109375 2.539062 -12.003906 2.75 -11.796875 C 2.96875 -11.597656 3.078125 -11.359375 3.078125 -11.078125 C 3.078125 -10.804688 2.96875 -10.570312 2.75 -10.375 C 2.539062 -10.175781 2.289062 -10.078125 2 -10.078125 Z M 2 -10.078125 "/></g></g><g style="fill:#000000;fill-opacity:1;"><g transform="translate(136.979193, 54.41875)"><path style="stroke:none" d="M 2.84375 -11.640625 L 2.84375 0 L 1.140625 0 L 1.140625 -11.640625 Z M 2.84375 -11.640625 "/></g></g><g style="fill:#000000;fill-opacity:1;"><g transform="translate(140.961141, 54.41875)"><path style="stroke:none" d="M 1.140625 0 L 1.140625 -8.734375 L 2.84375 -8.734375 L 2.84375 0 Z M 2 -10.078125 C 1.707031 -10.078125 1.453125 -10.175781 1.234375 -10.375 C 1.023438 -10.570312 0.921875 -10.804688 0.921875 -11.078125 C 0.921875 -11.359375 1.023438 -11.597656 1.234375 -11.796875 C 1.453125 -12.003906 1.707031 -12.109375 2 -12.109375 C 2.289062 -12.109375 2.539062 -12.003906 2.75 -11.796875 C 2.96875 -11.597656 3.078125 -11.359375 3.078125 -11.078125 C 3.078125 -10.804688 2.96875 -10.570312 2.75 -10.375 C 2.539062 -10.175781 2.289062 -10.078125 2 -10.078125 Z M 2 -10.078125 "/></g></g><g style="fill:#000000;fill-opacity:1;"><g transform="translate(144.94309, 54.41875)"><path style="stroke:none" d="M 5.21875 -8.734375 L 5.21875 -7.359375 L 0.453125 -7.359375 L 0.453125 -8.734375 Z M 1.734375 -10.8125 L 3.421875 -10.8125 L 3.421875 -2.5625 C 3.421875 -2.226562 3.46875 -1.976562 3.5625 -1.8125 C 3.664062 -1.65625 3.796875 -1.546875 3.953125 -1.484375 C 4.109375 -1.421875 4.28125 -1.390625 4.46875 -1.390625 C 4.601562 -1.390625 4.722656 -1.398438 4.828125 -1.421875 C 4.929688 -1.441406 5.007812 -1.457031 5.0625 -1.46875 L 5.375 -0.0625 C 5.28125 -0.03125 5.140625 0.00390625 4.953125 0.046875 C 4.773438 0.0859375 4.546875 0.109375 4.265625 0.109375 C 3.828125 0.117188 3.410156 0.0390625 3.015625 -0.125 C 2.628906 -0.289062 2.316406 -0.546875 2.078125 -0.890625 C 1.847656 -1.242188 1.734375 -1.679688 1.734375 -2.203125 Z M 1.734375 -10.8125 "/></g></g><g style="fill:#000000;fill-opacity:1;"><g transform="translate(150.890446, 54.41875)"><path style="stroke:none" d="M 2.21875 3.265625 C 1.957031 3.265625 1.722656 3.242188 1.515625 3.203125 C 1.304688 3.171875 1.15625 3.128906 1.0625 3.078125 L 1.46875 1.6875 C 1.78125 1.769531 2.054688 1.804688 2.296875 1.796875 C 2.535156 1.785156 2.75 1.691406 2.9375 1.515625 C 3.125 1.347656 3.289062 1.070312 3.4375 0.6875 L 3.640625 0.109375 L 0.453125 -8.734375 L 2.265625 -8.734375 L 4.484375 -1.953125 L 4.578125 -1.953125 L 6.78125 -8.734375 L 8.609375 -8.734375 L 5.015625 1.171875 C 4.847656 1.617188 4.632812 2 4.375 2.3125 C 4.113281 2.632812 3.804688 2.875 3.453125 3.03125 C 3.097656 3.1875 2.6875 3.265625 2.21875 3.265625 Z M 2.21875 3.265625 "/></g></g><g style="fill:#000000;fill-opacity:1;"><g transform="translate(396.491522, 54.41875)"><path style="stroke:none" d="M 1.28125 0 L 1.28125 -11.640625 L 8.5 -11.640625 L 8.5 -10.125 L 3.03125 -10.125 L 3.03125 -6.578125 L 7.984375 -6.578125 L 7.984375 -5.078125 L 3.03125 -5.078125 L 3.03125 0 Z M 1.28125 0 "/></g></g><g style="fill:#000000;fill-opacity:1;"><g transform="translate(405.227884, 54.41875)"><path style="stroke:none" d="M 4.90625 0.171875 C 4.039062 0.171875 3.296875 -0.0078125 2.671875 -0.375 C 2.054688 -0.75 1.582031 -1.269531 1.25 -1.9375 C 0.914062 -2.613281 0.75 -3.40625 0.75 -4.3125 C 0.75 -5.195312 0.914062 -5.976562 1.25 -6.65625 C 1.582031 -7.34375 2.050781 -7.878906 2.65625 -8.265625 C 3.257812 -8.648438 3.96875 -8.84375 4.78125 -8.84375 C 5.269531 -8.84375 5.742188 -8.757812 6.203125 -8.59375 C 6.671875 -8.4375 7.085938 -8.179688 7.453125 -7.828125 C 7.828125 -7.484375 8.117188 -7.03125 8.328125 -6.46875 C 8.535156 -5.914062 8.640625 -5.242188 8.640625 -4.453125 L 8.640625 -3.859375 L 1.703125 -3.859375 L 1.703125 -5.125 L 6.984375 -5.125 C 6.984375 -5.570312 6.890625 -5.96875 6.703125 -6.3125 C 6.523438 -6.65625 6.269531 -6.925781 5.9375 -7.125 C 5.613281 -7.332031 5.234375 -7.4375 4.796875 -7.4375 C 4.316406 -7.4375 3.898438 -7.316406 3.546875 -7.078125 C 3.191406 -6.847656 2.914062 -6.546875 2.71875 -6.171875 C 2.53125 -5.804688 2.4375 -5.40625 2.4375 -4.96875 L 2.4375 -3.96875 C 2.4375 -3.382812 2.539062 -2.890625 2.75 -2.484375 C 2.957031 -2.078125 3.242188 -1.765625 3.609375 -1.546875 C 3.984375 -1.335938 4.421875 -1.234375 4.921875 -1.234375 C 5.242188 -1.234375 5.535156 -1.273438 5.796875 -1.359375 C 6.066406 -1.453125 6.296875 -1.59375 6.484375 -1.78125 C 6.679688 -1.96875 6.832031 -2.195312 6.9375 -2.46875 L 8.546875 -2.1875 C 8.410156 -1.707031 8.175781 -1.289062 7.84375 -0.9375 C 7.519531 -0.582031 7.109375 -0.304688 6.609375 -0.109375 C 6.109375 0.078125 5.539062 0.171875 4.90625 0.171875 Z M 4.90625 0.171875 "/></g></g><g style="fill:#000000;fill-opacity:1;"><g transform="translate(414.623231, 54.41875)"><path style="stroke:none" d="M 3.6875 0.1875 C 3.132812 0.1875 2.632812 0.0859375 2.1875 -0.109375 C 1.738281 -0.316406 1.382812 -0.617188 1.125 -1.015625 C 0.863281 -1.410156 0.734375 -1.894531 0.734375 -2.46875 C 0.734375 -2.957031 0.828125 -3.359375 1.015625 -3.671875 C 1.203125 -3.992188 1.457031 -4.25 1.78125 -4.4375 C 2.101562 -4.625 2.460938 -4.765625 2.859375 -4.859375 C 3.253906 -4.953125 3.660156 -5.023438 4.078125 -5.078125 C 4.597656 -5.140625 5.019531 -5.1875 5.34375 -5.21875 C 5.675781 -5.257812 5.914062 -5.328125 6.0625 -5.421875 C 6.207031 -5.515625 6.28125 -5.660156 6.28125 -5.859375 L 6.28125 -5.90625 C 6.28125 -6.394531 6.140625 -6.773438 5.859375 -7.046875 C 5.585938 -7.328125 5.175781 -7.46875 4.625 -7.46875 C 4.050781 -7.46875 3.597656 -7.335938 3.265625 -7.078125 C 2.941406 -6.828125 2.71875 -6.550781 2.59375 -6.25 L 1 -6.609375 C 1.1875 -7.140625 1.460938 -7.566406 1.828125 -7.890625 C 2.191406 -8.222656 2.613281 -8.460938 3.09375 -8.609375 C 3.570312 -8.765625 4.078125 -8.84375 4.609375 -8.84375 C 4.953125 -8.84375 5.316406 -8.800781 5.703125 -8.71875 C 6.097656 -8.632812 6.46875 -8.484375 6.8125 -8.265625 C 7.15625 -8.054688 7.4375 -7.75 7.65625 -7.34375 C 7.875 -6.945312 7.984375 -6.429688 7.984375 -5.796875 L 7.984375 0 L 6.328125 0 L 6.328125 -1.1875 L 6.265625 -1.1875 C 6.148438 -0.96875 5.984375 -0.753906 5.765625 -0.546875 C 5.546875 -0.335938 5.265625 -0.160156 4.921875 -0.015625 C 4.578125 0.117188 4.164062 0.1875 3.6875 0.1875 Z M 4.046875 -1.171875 C 4.515625 -1.171875 4.914062 -1.265625 5.25 -1.453125 C 5.59375 -1.640625 5.851562 -1.878906 6.03125 -2.171875 C 6.207031 -2.472656 6.296875 -2.796875 6.296875 -3.140625 L 6.296875 -4.265625 C 6.234375 -4.210938 6.113281 -4.160156 5.9375 -4.109375 C 5.769531 -4.054688 5.570312 -4.007812 5.34375 -3.96875 C 5.125 -3.9375 4.910156 -3.90625 4.703125 -3.875 C 4.492188 -3.84375 4.320312 -3.820312 4.1875 -3.8125 C 3.851562 -3.769531 3.550781 -3.695312 3.28125 -3.59375 C 3.007812 -3.5 2.789062 -3.359375 2.625 -3.171875 C 2.46875 -2.984375 2.390625 -2.738281 2.390625 -2.4375 C 2.390625 -2.019531 2.546875 -1.703125 2.859375 -1.484375 C 3.171875 -1.273438 3.566406 -1.171875 4.046875 -1.171875 Z M 4.046875 -1.171875 "/></g></g><g style="fill:#000000;fill-opacity:1;"><g transform="translate(423.728882, 54.41875)"><path style="stroke:none" d="M 7.6875 -6.59375 L 6.140625 -6.328125 C 6.078125 -6.523438 5.972656 -6.710938 5.828125 -6.890625 C 5.691406 -7.066406 5.503906 -7.210938 5.265625 -7.328125 C 5.035156 -7.441406 4.742188 -7.5 4.390625 -7.5 C 3.910156 -7.5 3.507812 -7.390625 3.1875 -7.171875 C 2.863281 -6.960938 2.703125 -6.6875 2.703125 -6.34375 C 2.703125 -6.050781 2.8125 -5.816406 3.03125 -5.640625 C 3.25 -5.460938 3.597656 -5.316406 4.078125 -5.203125 L 5.46875 -4.890625 C 6.269531 -4.703125 6.867188 -4.414062 7.265625 -4.03125 C 7.660156 -3.644531 7.859375 -3.140625 7.859375 -2.515625 C 7.859375 -1.992188 7.707031 -1.53125 7.40625 -1.125 C 7.101562 -0.71875 6.679688 -0.398438 6.140625 -0.171875 C 5.609375 0.0546875 4.988281 0.171875 4.28125 0.171875 C 3.300781 0.171875 2.503906 -0.0351562 1.890625 -0.453125 C 1.273438 -0.867188 0.894531 -1.460938 0.75 -2.234375 L 2.390625 -2.484375 C 2.492188 -2.054688 2.703125 -1.734375 3.015625 -1.515625 C 3.335938 -1.296875 3.753906 -1.1875 4.265625 -1.1875 C 4.828125 -1.1875 5.273438 -1.300781 5.609375 -1.53125 C 5.941406 -1.769531 6.109375 -2.054688 6.109375 -2.390625 C 6.109375 -2.671875 6.003906 -2.898438 5.796875 -3.078125 C 5.597656 -3.265625 5.289062 -3.40625 4.875 -3.5 L 3.390625 -3.828125 C 2.578125 -4.015625 1.976562 -4.3125 1.59375 -4.71875 C 1.207031 -5.125 1.015625 -5.632812 1.015625 -6.25 C 1.015625 -6.769531 1.15625 -7.222656 1.4375 -7.609375 C 1.726562 -7.992188 2.125 -8.296875 2.625 -8.515625 C 3.132812 -8.734375 3.71875 -8.84375 4.375 -8.84375 C 5.320312 -8.84375 6.066406 -8.640625 6.609375 -8.234375 C 7.148438 -7.828125 7.507812 -7.28125 7.6875 -6.59375 Z M 7.6875 -6.59375 "/></g></g><g style="fill:#000000;fill-opacity:1;"><g transform="translate(432.300575, 54.41875)"><path style="stroke:none" d="M 1.140625 0 L 1.140625 -8.734375 L 2.84375 -8.734375 L 2.84375 0 Z M 2 -10.078125 C 1.707031 -10.078125 1.453125 -10.175781 1.234375 -10.375 C 1.023438 -10.570312 0.921875 -10.804688 0.921875 -11.078125 C 0.921875 -11.359375 1.023438 -11.597656 1.234375 -11.796875 C 1.453125 -12.003906 1.707031 -12.109375 2 -12.109375 C 2.289062 -12.109375 2.539062 -12.003906 2.75 -11.796875 C 2.96875 -11.597656 3.078125 -11.359375 3.078125 -11.078125 C 3.078125 -10.804688 2.96875 -10.570312 2.75 -10.375 C 2.539062 -10.175781 2.289062 -10.078125 2 -10.078125 Z M 2 -10.078125 "/></g></g><g style="fill:#000000;fill-opacity:1;"><g transform="translate(436.282523, 54.41875)"><path style="stroke:none" d="M 1.28125 0 L 1.28125 -11.640625 L 2.984375 -11.640625 L 2.984375 -7.3125 L 3.078125 -7.3125 C 3.179688 -7.488281 3.320312 -7.695312 3.5 -7.9375 C 3.6875 -8.175781 3.941406 -8.382812 4.265625 -8.5625 C 4.597656 -8.75 5.035156 -8.84375 5.578125 -8.84375 C 6.285156 -8.84375 6.914062 -8.660156 7.46875 -8.296875 C 8.019531 -7.941406 8.453125 -7.429688 8.765625 -6.765625 C 9.085938 -6.097656 9.25 -5.289062 9.25 -4.34375 C 9.25 -3.40625 9.09375 -2.597656 8.78125 -1.921875 C 8.46875 -1.253906 8.035156 -0.738281 7.484375 -0.375 C 6.929688 -0.0078125 6.304688 0.171875 5.609375 0.171875 C 5.078125 0.171875 4.640625 0.0820312 4.296875 -0.09375 C 3.960938 -0.269531 3.703125 -0.476562 3.515625 -0.71875 C 3.328125 -0.957031 3.179688 -1.171875 3.078125 -1.359375 L 2.9375 -1.359375 L 2.9375 0 Z M 2.9375 -4.359375 C 2.9375 -3.742188 3.023438 -3.207031 3.203125 -2.75 C 3.390625 -2.289062 3.648438 -1.929688 3.984375 -1.671875 C 4.316406 -1.410156 4.726562 -1.28125 5.21875 -1.28125 C 5.726562 -1.28125 6.148438 -1.414062 6.484375 -1.6875 C 6.828125 -1.957031 7.085938 -2.320312 7.265625 -2.78125 C 7.441406 -3.25 7.53125 -3.773438 7.53125 -4.359375 C 7.53125 -4.941406 7.441406 -5.460938 7.265625 -5.921875 C 7.097656 -6.378906 6.84375 -6.738281 6.5 -7 C 6.15625 -7.257812 5.726562 -7.390625 5.21875 -7.390625 C 4.726562 -7.390625 4.3125 -7.265625 3.96875 -7.015625 C 3.632812 -6.765625 3.378906 -6.410156 3.203125 -5.953125 C 3.023438 -5.492188 2.9375 -4.960938 2.9375 -4.359375 Z M 2.9375 -4.359375 "/></g></g><g style="fill:#000000;fill-opacity:1;"><g transform="translate(446.291353, 54.41875)"><path style="stroke:none" d="M 1.140625 0 L 1.140625 -8.734375 L 2.84375 -8.734375 L 2.84375 0 Z M 2 -10.078125 C 1.707031 -10.078125 1.453125 -10.175781 1.234375 -10.375 C 1.023438 -10.570312 0.921875 -10.804688 0.921875 -11.078125 C 0.921875 -11.359375 1.023438 -11.597656 1.234375 -11.796875 C 1.453125 -12.003906 1.707031 -12.109375 2 -12.109375 C 2.289062 -12.109375 2.539062 -12.003906 2.75 -11.796875 C 2.96875 -11.597656 3.078125 -11.359375 3.078125 -11.078125 C 3.078125 -10.804688 2.96875 -10.570312 2.75 -10.375 C 2.539062 -10.175781 2.289062 -10.078125 2 -10.078125 Z M 2 -10.078125 "/></g></g><g style="fill:#000000;fill-opacity:1;"><g transform="translate(450.273302, 54.41875)"><path style="stroke:none" d="M 2.84375 -11.640625 L 2.84375 0 L 1.140625 0 L 1.140625 -11.640625 Z M 2.84375 -11.640625 "/></g></g><g style="fill:#000000;fill-opacity:1;"><g transform="translate(454.25525, 54.41875)"><path style="stroke:none" d="M 1.140625 0 L 1.140625 -8.734375 L 2.84375 -8.734375 L 2.84375 0 Z M 2 -10.078125 C 1.707031 -10.078125 1.453125 -10.175781 1.234375 -10.375 C 1.023438 -10.570312 0.921875 -10.804688 0.921875 -11.078125 C 0.921875 -11.359375 1.023438 -11.597656 1.234375 -11.796875 C 1.453125 -12.003906 1.707031 -12.109375 2 -12.109375 C 2.289062 -12.109375 2.539062 -12.003906 2.75 -11.796875 C 2.96875 -11.597656 3.078125 -11.359375 3.078125 -11.078125 C 3.078125 -10.804688 2.96875 -10.570312 2.75 -10.375 C 2.539062 -10.175781 2.289062 -10.078125 2 -10.078125 Z M 2 -10.078125 "/></g></g><g style="fill:#000000;fill-opacity:1;"><g transform="translate(458.237199, 54.41875)"><path style="stroke:none" d="M 5.21875 -8.734375 L 5.21875 -7.359375 L 0.453125 -7.359375 L 0.453125 -8.734375 Z M 1.734375 -10.8125 L 3.421875 -10.8125 L 3.421875 -2.5625 C 3.421875 -2.226562 3.46875 -1.976562 3.5625 -1.8125 C 3.664062 -1.65625 3.796875 -1.546875 3.953125 -1.484375 C 4.109375 -1.421875 4.28125 -1.390625 4.46875 -1.390625 C 4.601562 -1.390625 4.722656 -1.398438 4.828125 -1.421875 C 4.929688 -1.441406 5.007812 -1.457031 5.0625 -1.46875 L 5.375 -0.0625 C 5.28125 -0.03125 5.140625 0.00390625 4.953125 0.046875 C 4.773438 0.0859375 4.546875 0.109375 4.265625 0.109375 C 3.828125 0.117188 3.410156 0.0390625 3.015625 -0.125 C 2.628906 -0.289062 2.316406 -0.546875 2.078125 -0.890625 C 1.847656 -1.242188 1.734375 -1.679688 1.734375 -2.203125 Z M 1.734375 -10.8125 "/></g></g><g style="fill:#000000;fill-opacity:1;"><g transform="translate(464.184555, 54.41875)"><path style="stroke:none" d="M 2.21875 3.265625 C 1.957031 3.265625 1.722656 3.242188 1.515625 3.203125 C 1.304688 3.171875 1.15625 3.128906 1.0625 3.078125 L 1.46875 1.6875 C 1.78125 1.769531 2.054688 1.804688 2.296875 1.796875 C 2.535156 1.785156 2.75 1.691406 2.9375 1.515625 C 3.125 1.347656 3.289062 1.070312 3.4375 0.6875 L 3.640625 0.109375 L 0.453125 -8.734375 L 2.265625 -8.734375 L 4.484375 -1.953125 L 4.578125 -1.953125 L 6.78125 -8.734375 L 8.609375 -8.734375 L 5.015625 1.171875 C 4.847656 1.617188 4.632812 2 4.375 2.3125 C 4.113281 2.632812 3.804688 2.875 3.453125 3.03125 C 3.097656 3.1875 2.6875 3.265625 2.21875 3.265625 Z M 2.21875 3.265625 "/></g></g><g style="fill:#000000;fill-opacity:1;"><g transform="translate(56.919903, 250.133843)"><path style="stroke:none" d="M 5.046875 0 L 1.28125 0 L 1.28125 -11.640625 L 5.171875 -11.640625 C 6.304688 -11.640625 7.28125 -11.40625 8.09375 -10.9375 C 8.914062 -10.476562 9.546875 -9.8125 9.984375 -8.9375 C 10.421875 -8.070312 10.640625 -7.035156 10.640625 -5.828125 C 10.640625 -4.617188 10.414062 -3.578125 9.96875 -2.703125 C 9.53125 -1.835938 8.894531 -1.171875 8.0625 -0.703125 C 7.226562 -0.234375 6.222656 0 5.046875 0 Z M 3.03125 -1.53125 L 4.953125 -1.53125 C 5.835938 -1.53125 6.570312 -1.695312 7.15625 -2.03125 C 7.75 -2.375 8.191406 -2.863281 8.484375 -3.5 C 8.773438 -4.132812 8.921875 -4.910156 8.921875 -5.828125 C 8.921875 -6.742188 8.773438 -7.519531 8.484375 -8.15625 C 8.191406 -8.789062 7.757812 -9.273438 7.1875 -9.609375 C 6.613281 -9.941406 5.90625 -10.109375 5.0625 -10.109375 L 3.03125 -10.109375 Z M 3.03125 -1.53125 "/></g></g><g style="fill:#000000;fill-opacity:1;"><g transform="translate(68.462436, 250.133843)"><path style="stroke:none" d="M 4.90625 0.171875 C 4.039062 0.171875 3.296875 -0.0078125 2.671875 -0.375 C 2.054688 -0.75 1.582031 -1.269531 1.25 -1.9375 C 0.914062 -2.613281 0.75 -3.40625 0.75 -4.3125 C 0.75 -5.195312 0.914062 -5.976562 1.25 -6.65625 C 1.582031 -7.34375 2.050781 -7.878906 2.65625 -8.265625 C 3.257812 -8.648438 3.96875 -8.84375 4.78125 -8.84375 C 5.269531 -8.84375 5.742188 -8.757812 6.203125 -8.59375 C 6.671875 -8.4375 7.085938 -8.179688 7.453125 -7.828125 C 7.828125 -7.484375 8.117188 -7.03125 8.328125 -6.46875 C 8.535156 -5.914062 8.640625 -5.242188 8.640625 -4.453125 L 8.640625 -3.859375 L 1.703125 -3.859375 L 1.703125 -5.125 L 6.984375 -5.125 C 6.984375 -5.570312 6.890625 -5.96875 6.703125 -6.3125 C 6.523438 -6.65625 6.269531 -6.925781 5.9375 -7.125 C 5.613281 -7.332031 5.234375 -7.4375 4.796875 -7.4375 C 4.316406 -7.4375 3.898438 -7.316406 3.546875 -7.078125 C 3.191406 -6.847656 2.914062 -6.546875 2.71875 -6.171875 C 2.53125 -5.804688 2.4375 -5.40625 2.4375 -4.96875 L 2.4375 -3.96875 C 2.4375 -3.382812 2.539062 -2.890625 2.75 -2.484375 C 2.957031 -2.078125 3.242188 -1.765625 3.609375 -1.546875 C 3.984375 -1.335938 4.421875 -1.234375 4.921875 -1.234375 C 5.242188 -1.234375 5.535156 -1.273438 5.796875 -1.359375 C 6.066406 -1.453125 6.296875 -1.59375 6.484375 -1.78125 C 6.679688 -1.96875 6.832031 -2.195312 6.9375 -2.46875 L 8.546875 -2.1875 C 8.410156 -1.707031 8.175781 -1.289062 7.84375 -0.9375 C 7.519531 -0.582031 7.109375 -0.304688 6.609375 -0.109375 C 6.109375 0.078125 5.539062 0.171875 4.90625 0.171875 Z M 4.90625 0.171875 "/></g></g><g style="fill:#000000;fill-opacity:1;"><g transform="translate(77.857783, 250.133843)"><path style="stroke:none" d="M 7.6875 -6.59375 L 6.140625 -6.328125 C 6.078125 -6.523438 5.972656 -6.710938 5.828125 -6.890625 C 5.691406 -7.066406 5.503906 -7.210938 5.265625 -7.328125 C 5.035156 -7.441406 4.742188 -7.5 4.390625 -7.5 C 3.910156 -7.5 3.507812 -7.390625 3.1875 -7.171875 C 2.863281 -6.960938 2.703125 -6.6875 2.703125 -6.34375 C 2.703125 -6.050781 2.8125 -5.816406 3.03125 -5.640625 C 3.25 -5.460938 3.597656 -5.316406 4.078125 -5.203125 L 5.46875 -4.890625 C 6.269531 -4.703125 6.867188 -4.414062 7.265625 -4.03125 C 7.660156 -3.644531 7.859375 -3.140625 7.859375 -2.515625 C 7.859375 -1.992188 7.707031 -1.53125 7.40625 -1.125 C 7.101562 -0.71875 6.679688 -0.398438 6.140625 -0.171875 C 5.609375 0.0546875 4.988281 0.171875 4.28125 0.171875 C 3.300781 0.171875 2.503906 -0.0351562 1.890625 -0.453125 C 1.273438 -0.867188 0.894531 -1.460938 0.75 -2.234375 L 2.390625 -2.484375 C 2.492188 -2.054688 2.703125 -1.734375 3.015625 -1.515625 C 3.335938 -1.296875 3.753906 -1.1875 4.265625 -1.1875 C 4.828125 -1.1875 5.273438 -1.300781 5.609375 -1.53125 C 5.941406 -1.769531 6.109375 -2.054688 6.109375 -2.390625 C 6.109375 -2.671875 6.003906 -2.898438 5.796875 -3.078125 C 5.597656 -3.265625 5.289062 -3.40625 4.875 -3.5 L 3.390625 -3.828125 C 2.578125 -4.015625 1.976562 -4.3125 1.59375 -4.71875 C 1.207031 -5.125 1.015625 -5.632812 1.015625 -6.25 C 1.015625 -6.769531 1.15625 -7.222656 1.4375 -7.609375 C 1.726562 -7.992188 2.125 -8.296875 2.625 -8.515625 C 3.132812 -8.734375 3.71875 -8.84375 4.375 -8.84375 C 5.320312 -8.84375 6.066406 -8.640625 6.609375 -8.234375 C 7.148438 -7.828125 7.507812 -7.28125 7.6875 -6.59375 Z M 7.6875 -6.59375 "/></g></g><g style="fill:#000000;fill-opacity:1;"><g transform="translate(86.429476, 250.133843)"><path style="stroke:none" d="M 1.140625 0 L 1.140625 -8.734375 L 2.84375 -8.734375 L 2.84375 0 Z M 2 -10.078125 C 1.707031 -10.078125 1.453125 -10.175781 1.234375 -10.375 C 1.023438 -10.570312 0.921875 -10.804688 0.921875 -11.078125 C 0.921875 -11.359375 1.023438 -11.597656 1.234375 -11.796875 C 1.453125 -12.003906 1.707031 -12.109375 2 -12.109375 C 2.289062 -12.109375 2.539062 -12.003906 2.75 -11.796875 C 2.96875 -11.597656 3.078125 -11.359375 3.078125 -11.078125 C 3.078125 -10.804688 2.96875 -10.570312 2.75 -10.375 C 2.539062 -10.175781 2.289062 -10.078125 2 -10.078125 Z M 2 -10.078125 "/></g></g><g style="fill:#000000;fill-opacity:1;"><g transform="translate(90.411424, 250.133843)"><path style="stroke:none" d="M 1.140625 0 L 1.140625 -8.734375 L 2.78125 -8.734375 L 2.78125 -7.34375 L 2.875 -7.34375 C 3.03125 -7.8125 3.3125 -8.179688 3.71875 -8.453125 C 4.125 -8.722656 4.582031 -8.859375 5.09375 -8.859375 C 5.195312 -8.859375 5.320312 -8.851562 5.46875 -8.84375 C 5.613281 -8.832031 5.726562 -8.820312 5.8125 -8.8125 L 5.8125 -7.1875 C 5.738281 -7.207031 5.613281 -7.226562 5.4375 -7.25 C 5.269531 -7.28125 5.097656 -7.296875 4.921875 -7.296875 C 4.523438 -7.296875 4.171875 -7.210938 3.859375 -7.046875 C 3.546875 -6.878906 3.296875 -6.644531 3.109375 -6.34375 C 2.929688 -6.039062 2.84375 -5.703125 2.84375 -5.328125 L 2.84375 0 Z M 1.140625 0 "/></g></g><g style="fill:#000000;fill-opacity:1;"><g transform="translate(96.478063, 250.133843)"><path style="stroke:none" d="M 3.6875 0.1875 C 3.132812 0.1875 2.632812 0.0859375 2.1875 -0.109375 C 1.738281 -0.316406 1.382812 -0.617188 1.125 -1.015625 C 0.863281 -1.410156 0.734375 -1.894531 0.734375 -2.46875 C 0.734375 -2.957031 0.828125 -3.359375 1.015625 -3.671875 C 1.203125 -3.992188 1.457031 -4.25 1.78125 -4.4375 C 2.101562 -4.625 2.460938 -4.765625 2.859375 -4.859375 C 3.253906 -4.953125 3.660156 -5.023438 4.078125 -5.078125 C 4.597656 -5.140625 5.019531 -5.1875 5.34375 -5.21875 C 5.675781 -5.257812 5.914062 -5.328125 6.0625 -5.421875 C 6.207031 -5.515625 6.28125 -5.660156 6.28125 -5.859375 L 6.28125 -5.90625 C 6.28125 -6.394531 6.140625 -6.773438 5.859375 -7.046875 C 5.585938 -7.328125 5.175781 -7.46875 4.625 -7.46875 C 4.050781 -7.46875 3.597656 -7.335938 3.265625 -7.078125 C 2.941406 -6.828125 2.71875 -6.550781 2.59375 -6.25 L 1 -6.609375 C 1.1875 -7.140625 1.460938 -7.566406 1.828125 -7.890625 C 2.191406 -8.222656 2.613281 -8.460938 3.09375 -8.609375 C 3.570312 -8.765625 4.078125 -8.84375 4.609375 -8.84375 C 4.953125 -8.84375 5.316406 -8.800781 5.703125 -8.71875 C 6.097656 -8.632812 6.46875 -8.484375 6.8125 -8.265625 C 7.15625 -8.054688 7.4375 -7.75 7.65625 -7.34375 C 7.875 -6.945312 7.984375 -6.429688 7.984375 -5.796875 L 7.984375 0 L 6.328125 0 L 6.328125 -1.1875 L 6.265625 -1.1875 C 6.148438 -0.96875 5.984375 -0.753906 5.765625 -0.546875 C 5.546875 -0.335938 5.265625 -0.160156 4.921875 -0.015625 C 4.578125 0.117188 4.164062 0.1875 3.6875 0.1875 Z M 4.046875 -1.171875 C 4.515625 -1.171875 4.914062 -1.265625 5.25 -1.453125 C 5.59375 -1.640625 5.851562 -1.878906 6.03125 -2.171875 C 6.207031 -2.472656 6.296875 -2.796875 6.296875 -3.140625 L 6.296875 -4.265625 C 6.234375 -4.210938 6.113281 -4.160156 5.9375 -4.109375 C 5.769531 -4.054688 5.570312 -4.007812 5.34375 -3.96875 C 5.125 -3.9375 4.910156 -3.90625 4.703125 -3.875 C 4.492188 -3.84375 4.320312 -3.820312 4.1875 -3.8125 C 3.851562 -3.769531 3.550781 -3.695312 3.28125 -3.59375 C 3.007812 -3.5 2.789062 -3.359375 2.625 -3.171875 C 2.46875 -2.984375 2.390625 -2.738281 2.390625 -2.4375 C 2.390625 -2.019531 2.546875 -1.703125 2.859375 -1.484375 C 3.171875 -1.273438 3.566406 -1.171875 4.046875 -1.171875 Z M 4.046875 -1.171875 "/></g></g><g style="fill:#000000;fill-opacity:1;"><g transform="translate(105.583714, 250.133843)"><path style="stroke:none" d="M 1.28125 0 L 1.28125 -11.640625 L 2.984375 -11.640625 L 2.984375 -7.3125 L 3.078125 -7.3125 C 3.179688 -7.488281 3.320312 -7.695312 3.5 -7.9375 C 3.6875 -8.175781 3.941406 -8.382812 4.265625 -8.5625 C 4.597656 -8.75 5.035156 -8.84375 5.578125 -8.84375 C 6.285156 -8.84375 6.914062 -8.660156 7.46875 -8.296875 C 8.019531 -7.941406 8.453125 -7.429688 8.765625 -6.765625 C 9.085938 -6.097656 9.25 -5.289062 9.25 -4.34375 C 9.25 -3.40625 9.09375 -2.597656 8.78125 -1.921875 C 8.46875 -1.253906 8.035156 -0.738281 7.484375 -0.375 C 6.929688 -0.0078125 6.304688 0.171875 5.609375 0.171875 C 5.078125 0.171875 4.640625 0.0820312 4.296875 -0.09375 C 3.960938 -0.269531 3.703125 -0.476562 3.515625 -0.71875 C 3.328125 -0.957031 3.179688 -1.171875 3.078125 -1.359375 L 2.9375 -1.359375 L 2.9375 0 Z M 2.9375 -4.359375 C 2.9375 -3.742188 3.023438 -3.207031 3.203125 -2.75 C 3.390625 -2.289062 3.648438 -1.929688 3.984375 -1.671875 C 4.316406 -1.410156 4.726562 -1.28125 5.21875 -1.28125 C 5.726562 -1.28125 6.148438 -1.414062 6.484375 -1.6875 C 6.828125 -1.957031 7.085938 -2.320312 7.265625 -2.78125 C 7.441406 -3.25 7.53125 -3.773438 7.53125 -4.359375 C 7.53125 -4.941406 7.441406 -5.460938 7.265625 -5.921875 C 7.097656 -6.378906 6.84375 -6.738281 6.5 -7 C 6.15625 -7.257812 5.726562 -7.390625 5.21875 -7.390625 C 4.726562 -7.390625 4.3125 -7.265625 3.96875 -7.015625 C 3.632812 -6.765625 3.378906 -6.410156 3.203125 -5.953125 C 3.023438 -5.492188 2.9375 -4.960938 2.9375 -4.359375 Z M 2.9375 -4.359375 "/></g></g><g style="fill:#000000;fill-opacity:1;"><g transform="translate(115.592544, 250.133843)"><path style="stroke:none" d="M 1.140625 0 L 1.140625 -8.734375 L 2.84375 -8.734375 L 2.84375 0 Z M 2 -10.078125 C 1.707031 -10.078125 1.453125 -10.175781 1.234375 -10.375 C 1.023438 -10.570312 0.921875 -10.804688 0.921875 -11.078125 C 0.921875 -11.359375 1.023438 -11.597656 1.234375 -11.796875 C 1.453125 -12.003906 1.707031 -12.109375 2 -12.109375 C 2.289062 -12.109375 2.539062 -12.003906 2.75 -11.796875 C 2.96875 -11.597656 3.078125 -11.359375 3.078125 -11.078125 C 3.078125 -10.804688 2.96875 -10.570312 2.75 -10.375 C 2.539062 -10.175781 2.289062 -10.078125 2 -10.078125 Z M 2 -10.078125 "/></g></g><g style="fill:#000000;fill-opacity:1;"><g transform="translate(119.574493, 250.133843)"><path style="stroke:none" d="M 2.84375 -11.640625 L 2.84375 0 L 1.140625 0 L 1.140625 -11.640625 Z M 2.84375 -11.640625 "/></g></g><g style="fill:#000000;fill-opacity:1;"><g transform="translate(123.556441, 250.133843)"><path style="stroke:none" d="M 1.140625 0 L 1.140625 -8.734375 L 2.84375 -8.734375 L 2.84375 0 Z M 2 -10.078125 C 1.707031 -10.078125 1.453125 -10.175781 1.234375 -10.375 C 1.023438 -10.570312 0.921875 -10.804688 0.921875 -11.078125 C 0.921875 -11.359375 1.023438 -11.597656 1.234375 -11.796875 C 1.453125 -12.003906 1.707031 -12.109375 2 -12.109375 C 2.289062 -12.109375 2.539062 -12.003906 2.75 -11.796875 C 2.96875 -11.597656 3.078125 -11.359375 3.078125 -11.078125 C 3.078125 -10.804688 2.96875 -10.570312 2.75 -10.375 C 2.539062 -10.175781 2.289062 -10.078125 2 -10.078125 Z M 2 -10.078125 "/></g></g><g style="fill:#000000;fill-opacity:1;"><g transform="translate(127.53839, 250.133843)"><path style="stroke:none" d="M 5.21875 -8.734375 L 5.21875 -7.359375 L 0.453125 -7.359375 L 0.453125 -8.734375 Z M 1.734375 -10.8125 L 3.421875 -10.8125 L 3.421875 -2.5625 C 3.421875 -2.226562 3.46875 -1.976562 3.5625 -1.8125 C 3.664062 -1.65625 3.796875 -1.546875 3.953125 -1.484375 C 4.109375 -1.421875 4.28125 -1.390625 4.46875 -1.390625 C 4.601562 -1.390625 4.722656 -1.398438 4.828125 -1.421875 C 4.929688 -1.441406 5.007812 -1.457031 5.0625 -1.46875 L 5.375 -0.0625 C 5.28125 -0.03125 5.140625 0.00390625 4.953125 0.046875 C 4.773438 0.0859375 4.546875 0.109375 4.265625 0.109375 C 3.828125 0.117188 3.410156 0.0390625 3.015625 -0.125 C 2.628906 -0.289062 2.316406 -0.546875 2.078125 -0.890625 C 1.847656 -1.242188 1.734375 -1.679688 1.734375 -2.203125 Z M 1.734375 -10.8125 "/></g></g><g style="fill:#000000;fill-opacity:1;"><g transform="translate(133.485746, 250.133843)"><path style="stroke:none" d="M 2.21875 3.265625 C 1.957031 3.265625 1.722656 3.242188 1.515625 3.203125 C 1.304688 3.171875 1.15625 3.128906 1.0625 3.078125 L 1.46875 1.6875 C 1.78125 1.769531 2.054688 1.804688 2.296875 1.796875 C 2.535156 1.785156 2.75 1.691406 2.9375 1.515625 C 3.125 1.347656 3.289062 1.070312 3.4375 0.6875 L 3.640625 0.109375 L 0.453125 -8.734375 L 2.265625 -8.734375 L 4.484375 -1.953125 L 4.578125 -1.953125 L 6.78125 -8.734375 L 8.609375 -8.734375 L 5.015625 1.171875 C 4.847656 1.617188 4.632812 2 4.375 2.3125 C 4.113281 2.632812 3.804688 2.875 3.453125 3.03125 C 3.097656 3.1875 2.6875 3.265625 2.21875 3.265625 Z M 2.21875 3.265625 "/></g></g><g style="fill:#000000;fill-opacity:1;"><g transform="translate(411.999361, 250.133843)"><path style="stroke:none" d="M 2.296875 -11.640625 L 5.53125 -2.15625 L 5.671875 -2.15625 L 8.90625 -11.640625 L 10.796875 -11.640625 L 6.609375 0 L 4.578125 0 L 0.390625 -11.640625 Z M 2.296875 -11.640625 "/></g></g><g style="fill:#000000;fill-opacity:1;"><g transform="translate(423.19539, 250.133843)"><path style="stroke:none" d="M 1.140625 0 L 1.140625 -8.734375 L 2.84375 -8.734375 L 2.84375 0 Z M 2 -10.078125 C 1.707031 -10.078125 1.453125 -10.175781 1.234375 -10.375 C 1.023438 -10.570312 0.921875 -10.804688 0.921875 -11.078125 C 0.921875 -11.359375 1.023438 -11.597656 1.234375 -11.796875 C 1.453125 -12.003906 1.707031 -12.109375 2 -12.109375 C 2.289062 -12.109375 2.539062 -12.003906 2.75 -11.796875 C 2.96875 -11.597656 3.078125 -11.359375 3.078125 -11.078125 C 3.078125 -10.804688 2.96875 -10.570312 2.75 -10.375 C 2.539062 -10.175781 2.289062 -10.078125 2 -10.078125 Z M 2 -10.078125 "/></g></g><g style="fill:#000000;fill-opacity:1;"><g transform="translate(427.177338, 250.133843)"><path style="stroke:none" d="M 3.6875 0.1875 C 3.132812 0.1875 2.632812 0.0859375 2.1875 -0.109375 C 1.738281 -0.316406 1.382812 -0.617188 1.125 -1.015625 C 0.863281 -1.410156 0.734375 -1.894531 0.734375 -2.46875 C 0.734375 -2.957031 0.828125 -3.359375 1.015625 -3.671875 C 1.203125 -3.992188 1.457031 -4.25 1.78125 -4.4375 C 2.101562 -4.625 2.460938 -4.765625 2.859375 -4.859375 C 3.253906 -4.953125 3.660156 -5.023438 4.078125 -5.078125 C 4.597656 -5.140625 5.019531 -5.1875 5.34375 -5.21875 C 5.675781 -5.257812 5.914062 -5.328125 6.0625 -5.421875 C 6.207031 -5.515625 6.28125 -5.660156 6.28125 -5.859375 L 6.28125 -5.90625 C 6.28125 -6.394531 6.140625 -6.773438 5.859375 -7.046875 C 5.585938 -7.328125 5.175781 -7.46875 4.625 -7.46875 C 4.050781 -7.46875 3.597656 -7.335938 3.265625 -7.078125 C 2.941406 -6.828125 2.71875 -6.550781 2.59375 -6.25 L 1 -6.609375 C 1.1875 -7.140625 1.460938 -7.566406 1.828125 -7.890625 C 2.191406 -8.222656 2.613281 -8.460938 3.09375 -8.609375 C 3.570312 -8.765625 4.078125 -8.84375 4.609375 -8.84375 C 4.953125 -8.84375 5.316406 -8.800781 5.703125 -8.71875 C 6.097656 -8.632812 6.46875 -8.484375 6.8125 -8.265625 C 7.15625 -8.054688 7.4375 -7.75 7.65625 -7.34375 C 7.875 -6.945312 7.984375 -6.429688 7.984375 -5.796875 L 7.984375 0 L 6.328125 0 L 6.328125 -1.1875 L 6.265625 -1.1875 C 6.148438 -0.96875 5.984375 -0.753906 5.765625 -0.546875 C 5.546875 -0.335938 5.265625 -0.160156 4.921875 -0.015625 C 4.578125 0.117188 4.164062 0.1875 3.6875 0.1875 Z M 4.046875 -1.171875 C 4.515625 -1.171875 4.914062 -1.265625 5.25 -1.453125 C 5.59375 -1.640625 5.851562 -1.878906 6.03125 -2.171875 C 6.207031 -2.472656 6.296875 -2.796875 6.296875 -3.140625 L 6.296875 -4.265625 C 6.234375 -4.210938 6.113281 -4.160156 5.9375 -4.109375 C 5.769531 -4.054688 5.570312 -4.007812 5.34375 -3.96875 C 5.125 -3.9375 4.910156 -3.90625 4.703125 -3.875 C 4.492188 -3.84375 4.320312 -3.820312 4.1875 -3.8125 C 3.851562 -3.769531 3.550781 -3.695312 3.28125 -3.59375 C 3.007812 -3.5 2.789062 -3.359375 2.625 -3.171875 C 2.46875 -2.984375 2.390625 -2.738281 2.390625 -2.4375 C 2.390625 -2.019531 2.546875 -1.703125 2.859375 -1.484375 C 3.171875 -1.273438 3.566406 -1.171875 4.046875 -1.171875 Z M 4.046875 -1.171875 "/></g></g><g style="fill:#000000;fill-opacity:1;"><g transform="translate(436.282989, 250.133843)"><path style="stroke:none" d="M 1.28125 0 L 1.28125 -11.640625 L 2.984375 -11.640625 L 2.984375 -7.3125 L 3.078125 -7.3125 C 3.179688 -7.488281 3.320312 -7.695312 3.5 -7.9375 C 3.6875 -8.175781 3.941406 -8.382812 4.265625 -8.5625 C 4.597656 -8.75 5.035156 -8.84375 5.578125 -8.84375 C 6.285156 -8.84375 6.914062 -8.660156 7.46875 -8.296875 C 8.019531 -7.941406 8.453125 -7.429688 8.765625 -6.765625 C 9.085938 -6.097656 9.25 -5.289062 9.25 -4.34375 C 9.25 -3.40625 9.09375 -2.597656 8.78125 -1.921875 C 8.46875 -1.253906 8.035156 -0.738281 7.484375 -0.375 C 6.929688 -0.0078125 6.304688 0.171875 5.609375 0.171875 C 5.078125 0.171875 4.640625 0.0820312 4.296875 -0.09375 C 3.960938 -0.269531 3.703125 -0.476562 3.515625 -0.71875 C 3.328125 -0.957031 3.179688 -1.171875 3.078125 -1.359375 L 2.9375 -1.359375 L 2.9375 0 Z M 2.9375 -4.359375 C 2.9375 -3.742188 3.023438 -3.207031 3.203125 -2.75 C 3.390625 -2.289062 3.648438 -1.929688 3.984375 -1.671875 C 4.316406 -1.410156 4.726562 -1.28125 5.21875 -1.28125 C 5.726562 -1.28125 6.148438 -1.414062 6.484375 -1.6875 C 6.828125 -1.957031 7.085938 -2.320312 7.265625 -2.78125 C 7.441406 -3.25 7.53125 -3.773438 7.53125 -4.359375 C 7.53125 -4.941406 7.441406 -5.460938 7.265625 -5.921875 C 7.097656 -6.378906 6.84375 -6.738281 6.5 -7 C 6.15625 -7.257812 5.726562 -7.390625 5.21875 -7.390625 C 4.726562 -7.390625 4.3125 -7.265625 3.96875 -7.015625 C 3.632812 -6.765625 3.378906 -6.410156 3.203125 -5.953125 C 3.023438 -5.492188 2.9375 -4.960938 2.9375 -4.359375 Z M 2.9375 -4.359375 "/></g></g><g style="fill:#000000;fill-opacity:1;"><g transform="translate(446.291819, 250.133843)"><path style="stroke:none" d="M 1.140625 0 L 1.140625 -8.734375 L 2.84375 -8.734375 L 2.84375 0 Z M 2 -10.078125 C 1.707031 -10.078125 1.453125 -10.175781 1.234375 -10.375 C 1.023438 -10.570312 0.921875 -10.804688 0.921875 -11.078125 C 0.921875 -11.359375 1.023438 -11.597656 1.234375 -11.796875 C 1.453125 -12.003906 1.707031 -12.109375 2 -12.109375 C 2.289062 -12.109375 2.539062 -12.003906 2.75 -11.796875 C 2.96875 -11.597656 3.078125 -11.359375 3.078125 -11.078125 C 3.078125 -10.804688 2.96875 -10.570312 2.75 -10.375 C 2.539062 -10.175781 2.289062 -10.078125 2 -10.078125 Z M 2 -10.078125 "/></g></g><g style="fill:#000000;fill-opacity:1;"><g transform="translate(450.273768, 250.133843)"><path style="stroke:none" d="M 2.84375 -11.640625 L 2.84375 0 L 1.140625 0 L 1.140625 -11.640625 Z M 2.84375 -11.640625 "/></g></g><g style="fill:#000000;fill-opacity:1;"><g transform="translate(454.255716, 250.133843)"><path style="stroke:none" d="M 1.140625 0 L 1.140625 -8.734375 L 2.84375 -8.734375 L 2.84375 0 Z M 2 -10.078125 C 1.707031 -10.078125 1.453125 -10.175781 1.234375 -10.375 C 1.023438 -10.570312 0.921875 -10.804688 0.921875 -11.078125 C 0.921875 -11.359375 1.023438 -11.597656 1.234375 -11.796875 C 1.453125 -12.003906 1.707031 -12.109375 2 -12.109375 C 2.289062 -12.109375 2.539062 -12.003906 2.75 -11.796875 C 2.96875 -11.597656 3.078125 -11.359375 3.078125 -11.078125 C 3.078125 -10.804688 2.96875 -10.570312 2.75 -10.375 C 2.539062 -10.175781 2.289062 -10.078125 2 -10.078125 Z M 2 -10.078125 "/></g></g><g style="fill:#000000;fill-opacity:1;"><g transform="translate(458.237665, 250.133843)"><path style="stroke:none" d="M 5.21875 -8.734375 L 5.21875 -7.359375 L 0.453125 -7.359375 L 0.453125 -8.734375 Z M 1.734375 -10.8125 L 3.421875 -10.8125 L 3.421875 -2.5625 C 3.421875 -2.226562 3.46875 -1.976562 3.5625 -1.8125 C 3.664062 -1.65625 3.796875 -1.546875 3.953125 -1.484375 C 4.109375 -1.421875 4.28125 -1.390625 4.46875 -1.390625 C 4.601562 -1.390625 4.722656 -1.398438 4.828125 -1.421875 C 4.929688 -1.441406 5.007812 -1.457031 5.0625 -1.46875 L 5.375 -0.0625 C 5.28125 -0.03125 5.140625 0.00390625 4.953125 0.046875 C 4.773438 0.0859375 4.546875 0.109375 4.265625 0.109375 C 3.828125 0.117188 3.410156 0.0390625 3.015625 -0.125 C 2.628906 -0.289062 2.316406 -0.546875 2.078125 -0.890625 C 1.847656 -1.242188 1.734375 -1.679688 1.734375 -2.203125 Z M 1.734375 -10.8125 "/></g></g><g style="fill:#000000;fill-opacity:1;"><g transform="translate(464.185022, 250.133843)"><path style="stroke:none" d="M 2.21875 3.265625 C 1.957031 3.265625 1.722656 3.242188 1.515625 3.203125 C 1.304688 3.171875 1.15625 3.128906 1.0625 3.078125 L 1.46875 1.6875 C 1.78125 1.769531 2.054688 1.804688 2.296875 1.796875 C 2.535156 1.785156 2.75 1.691406 2.9375 1.515625 C 3.125 1.347656 3.289062 1.070312 3.4375 0.6875 L 3.640625 0.109375 L 0.453125 -8.734375 L 2.265625 -8.734375 L 4.484375 -1.953125 L 4.578125 -1.953125 L 6.78125 -8.734375 L 8.609375 -8.734375 L 5.015625 1.171875 C 4.847656 1.617188 4.632812 2 4.375 2.3125 C 4.113281 2.632812 3.804688 2.875 3.453125 3.03125 C 3.097656 3.1875 2.6875 3.265625 2.21875 3.265625 Z M 2.21875 3.265625 "/></g></g></g></svg>