<?xml version="1.0" encoding="UTF-8"?>
<svg id="Ebene_1" xmlns="http://www.w3.org/2000/svg" xmlns:xlink="http://www.w3.org/1999/xlink" viewBox="0 0 184.25 184.25">
  <defs>
    <style>
      .cls-1 {
        fill: none;
      }

      .cls-2 {
        mask: url(#mask);
      }

      .cls-3 {
        mask: url(#mask-2);
      }

      .cls-4 {
        mask: url(#mask-3);
      }

      .cls-5 {
        mask: url(#mask-4);
      }

      .cls-6 {
        mask: url(#mask-5);
      }

      .cls-7 {
        mask: url(#mask-7);
      }

      .cls-8 {
        mask: url(#mask-6);
      }

      .cls-9 {
        mask: url(#mask-1);
      }

      .cls-10 {
        mask: url(#mask-9);
      }

      .cls-11 {
        mask: url(#mask-8);
      }

      .cls-12 {
        clip-path: url(#clippath-17);
      }

      .cls-13 {
        clip-path: url(#clippath-19);
      }

      .cls-14 {
        clip-path: url(#clippath-11);
      }

      .cls-15 {
        clip-path: url(#clippath-16);
      }

      .cls-16 {
        clip-path: url(#clippath-18);
      }

      .cls-17 {
        clip-path: url(#clippath-10);
      }

      .cls-18 {
        clip-path: url(#clippath-15);
      }

      .cls-19 {
        clip-path: url(#clippath-13);
      }

      .cls-20 {
        clip-path: url(#clippath-14);
      }

      .cls-21 {
        clip-path: url(#clippath-12);
      }

      .cls-22 {
        clip-path: url(#clippath-31);
      }

      .cls-23 {
        clip-path: url(#clippath-32);
      }

      .cls-24 {
        clip-path: url(#clippath-30);
      }

      .cls-25 {
        clip-path: url(#clippath-27);
      }

      .cls-26 {
        clip-path: url(#clippath-29);
      }

      .cls-27 {
        clip-path: url(#clippath-26);
      }

      .cls-28 {
        clip-path: url(#clippath-28);
      }

      .cls-29 {
        clip-path: url(#clippath-20);
      }

      .cls-30 {
        clip-path: url(#clippath-21);
      }

      .cls-31 {
        clip-path: url(#clippath-22);
      }

      .cls-32 {
        clip-path: url(#clippath-23);
      }

      .cls-33 {
        clip-path: url(#clippath-24);
      }

      .cls-34 {
        clip-path: url(#clippath-25);
      }

      .cls-35 {
        clip-path: url(#clippath-1);
      }

      .cls-36 {
        clip-path: url(#clippath-3);
      }

      .cls-37 {
        clip-path: url(#clippath-4);
      }

      .cls-38 {
        clip-path: url(#clippath-2);
      }

      .cls-39 {
        clip-path: url(#clippath-7);
      }

      .cls-40 {
        clip-path: url(#clippath-6);
      }

      .cls-41 {
        clip-path: url(#clippath-9);
      }

      .cls-42 {
        clip-path: url(#clippath-8);
      }

      .cls-43 {
        clip-path: url(#clippath-5);
      }

      .cls-44 {
        fill: #fff;
      }

      .cls-45 {
        fill: url(#Unbenannter_Verlauf_53-7);
      }

      .cls-46 {
        fill: url(#Unbenannter_Verlauf_53-8);
      }

      .cls-47 {
        fill: url(#Unbenannter_Verlauf_53-3);
      }

      .cls-48 {
        fill: url(#Unbenannter_Verlauf_53-6);
      }

      .cls-49 {
        fill: url(#Unbenannter_Verlauf_53-5);
      }

      .cls-50 {
        fill: url(#Unbenannter_Verlauf_53-9);
      }

      .cls-51 {
        fill: url(#Unbenannter_Verlauf_53-4);
      }

      .cls-52 {
        fill: url(#Unbenannter_Verlauf_53-2);
      }

      .cls-53 {
        fill: url(#Unbenannter_Verlauf_54-8);
      }

      .cls-54 {
        fill: url(#Unbenannter_Verlauf_54-7);
      }

      .cls-55 {
        fill: url(#Unbenannter_Verlauf_54-9);
      }

      .cls-56 {
        fill: url(#Unbenannter_Verlauf_54-4);
      }

      .cls-57 {
        fill: url(#Unbenannter_Verlauf_54-3);
      }

      .cls-58 {
        fill: url(#Unbenannter_Verlauf_54-6);
      }

      .cls-59 {
        fill: url(#Unbenannter_Verlauf_54-5);
      }

      .cls-60 {
        fill: url(#Unbenannter_Verlauf_54-2);
      }

      .cls-61 {
        fill: url(#Unbenannter_Verlauf_35-9);
      }

      .cls-62 {
        fill: url(#Unbenannter_Verlauf_35-8);
      }

      .cls-63 {
        fill: url(#Unbenannter_Verlauf_35-7);
      }

      .cls-64 {
        fill: url(#Unbenannter_Verlauf_35-2);
      }

      .cls-65 {
        fill: url(#Unbenannter_Verlauf_35-5);
      }

      .cls-66 {
        fill: url(#Unbenannter_Verlauf_35-6);
      }

      .cls-67 {
        fill: url(#Unbenannter_Verlauf_35-3);
      }

      .cls-68 {
        fill: url(#Unbenannter_Verlauf_35-4);
      }

      .cls-69 {
        fill: url(#Unbenannter_Verlauf_36-3);
      }

      .cls-70 {
        fill: url(#Unbenannter_Verlauf_36-4);
      }

      .cls-71 {
        fill: url(#Unbenannter_Verlauf_36-2);
      }

      .cls-72 {
        fill: url(#Unbenannter_Verlauf_36-5);
      }

      .cls-73 {
        fill: url(#Unbenannter_Verlauf_36-6);
      }

      .cls-74 {
        fill: url(#Unbenannter_Verlauf_36-8);
      }

      .cls-75 {
        fill: url(#Unbenannter_Verlauf_36-9);
      }

      .cls-76 {
        fill: url(#Unbenannter_Verlauf_36-7);
      }

      .cls-77 {
        fill: url(#Unbenannter_Verlauf_17-4);
      }

      .cls-78 {
        fill: url(#Unbenannter_Verlauf_17-2);
      }

      .cls-79 {
        fill: url(#Unbenannter_Verlauf_17-3);
      }

      .cls-80 {
        fill: url(#Unbenannter_Verlauf_17-9);
      }

      .cls-81 {
        fill: url(#Unbenannter_Verlauf_17-7);
      }

      .cls-82 {
        fill: url(#Unbenannter_Verlauf_17-8);
      }

      .cls-83 {
        fill: url(#Unbenannter_Verlauf_17-5);
      }

      .cls-84 {
        fill: url(#Unbenannter_Verlauf_17-6);
      }

      .cls-85 {
        fill: url(#Unbenannter_Verlauf_18-8);
      }

      .cls-86 {
        fill: url(#Unbenannter_Verlauf_18-9);
      }

      .cls-87 {
        fill: url(#Unbenannter_Verlauf_18-6);
      }

      .cls-88 {
        fill: url(#Unbenannter_Verlauf_18-7);
      }

      .cls-89 {
        fill: url(#Unbenannter_Verlauf_18-2);
      }

      .cls-90 {
        fill: url(#Unbenannter_Verlauf_18-3);
      }

      .cls-91 {
        fill: url(#Unbenannter_Verlauf_18-4);
      }

      .cls-92 {
        fill: url(#Unbenannter_Verlauf_18-5);
      }

      .cls-93 {
        fill: url(#Unbenannter_Verlauf_54);
      }

      .cls-94 {
        fill: url(#Unbenannter_Verlauf_53);
      }

      .cls-95 {
        fill: url(#Unbenannter_Verlauf_18);
      }

      .cls-96 {
        fill: url(#Unbenannter_Verlauf_17);
      }

      .cls-97 {
        fill: url(#Unbenannter_Verlauf_36);
      }

      .cls-98 {
        fill: url(#Unbenannter_Verlauf_35);
      }

      .cls-99 {
        fill: #8fa225;
      }

      .cls-100 {
        mask: url(#mask-10);
      }

      .cls-101 {
        mask: url(#mask-14);
      }

      .cls-102 {
        mask: url(#mask-18);
      }

      .cls-103 {
        mask: url(#mask-11);
      }

      .cls-104 {
        mask: url(#mask-16);
      }

      .cls-105 {
        mask: url(#mask-13);
      }

      .cls-106 {
        mask: url(#mask-19);
      }

      .cls-107 {
        mask: url(#mask-12);
      }

      .cls-108 {
        mask: url(#mask-17);
      }

      .cls-109 {
        mask: url(#mask-15);
      }

      .cls-110 {
        mask: url(#mask-22);
      }

      .cls-111 {
        mask: url(#mask-21);
      }

      .cls-112 {
        mask: url(#mask-20);
      }

      .cls-113 {
        mask: url(#mask-25);
      }

      .cls-114 {
        mask: url(#mask-24);
      }

      .cls-115 {
        mask: url(#mask-23);
      }

      .cls-116 {
        mask: url(#mask-26);
      }

      .cls-117 {
        fill: #d49bae;
      }

      .cls-118 {
        clip-path: url(#clippath);
      }
    </style>
    <clipPath id="clippath">
      <rect class="cls-1" width="184.25" height="184.25"/>
    </clipPath>
    <clipPath id="clippath-1">
      <rect class="cls-1" width="184.25" height="184.25"/>
    </clipPath>
    <clipPath id="clippath-2">
      <rect class="cls-1" width="184.25" height="184.25"/>
    </clipPath>
    <clipPath id="clippath-3">
      <rect class="cls-1" x="-32768" y="-32582.75" width="65535" height="65535"/>
    </clipPath>
    <clipPath id="clippath-4">
      <rect class="cls-1" x="-32768" y="-32582.75" width="65535" height="65535"/>
    </clipPath>
    <clipPath id="clippath-5">
      <path class="cls-1" d="M84.67,138.14c2.61-5.89,11.03-5.77,13.51.17,1.69,4.06,3.06,7.95,3.08,10.01.05,5.5-4.38,10.01-9.89,10.05-5.5.05-10.01-4.38-10.05-9.89-.02-2.11,1.48-6.16,3.35-10.35Z"/>
    </clipPath>
    <linearGradient id="Unbenannter_Verlauf_18" x1="613.44" y1="159.35" x2="614.44" y2="159.35" gradientTransform="translate(15188.58 -3773.33) rotate(-180) scale(24.59 -24.59)" gradientUnits="userSpaceOnUse">
      <stop offset="0" stop-color="#fff"/>
      <stop offset=".15" stop-color="#fafafa"/>
      <stop offset=".29" stop-color="#ededed"/>
      <stop offset=".43" stop-color="#d4d4d4"/>
      <stop offset=".57" stop-color="#b3b3b3"/>
      <stop offset=".7" stop-color="#878787"/>
      <stop offset=".84" stop-color="#525252"/>
      <stop offset=".97" stop-color="#121212"/>
      <stop offset="1" stop-color="#000"/>
    </linearGradient>
    <mask id="mask" x="80.59" y="131.71" width="21.43" height="27.27" maskUnits="userSpaceOnUse">
      <rect class="cls-95" x="77.95" y="134.99" width="26.71" height="20.71" transform="translate(-56.47 232.64) rotate(-88.44)"/>
    </mask>
    <linearGradient id="Unbenannter_Verlauf_17" x1="613.44" y1="159.35" x2="614.44" y2="159.35" gradientTransform="translate(15188.58 -3773.33) rotate(-180) scale(24.59 -24.59)" gradientUnits="userSpaceOnUse">
      <stop offset="0" stop-color="#c8c65f"/>
      <stop offset=".15" stop-color="#c8c45f"/>
      <stop offset=".29" stop-color="#c8c463"/>
      <stop offset=".43" stop-color="#cac46b"/>
      <stop offset=".57" stop-color="#cbc474"/>
      <stop offset=".7" stop-color="#cdc481"/>
      <stop offset=".84" stop-color="#d1c490"/>
      <stop offset=".97" stop-color="#d3c3a3"/>
      <stop offset="1" stop-color="#d4c3a8"/>
    </linearGradient>
    <clipPath id="clippath-6">
      <path class="cls-1" d="M55.49,122.14c5.79-2.83,12.16,2.67,10.24,8.82-1.31,4.2-2.77,8.05-4.08,9.64-3.51,4.24-9.78,4.85-14.03,1.35-4.24-3.51-4.85-9.78-1.35-14.03,1.34-1.63,5.09-3.76,9.21-5.78h0Z"/>
    </clipPath>
    <linearGradient id="Unbenannter_Verlauf_18-2" x1="629.29" y1="165.6" x2="630.29" y2="165.6" gradientTransform="translate(15543.13 -3940.11) rotate(-180) scale(24.59 -24.59)" xlink:href="#Unbenannter_Verlauf_18"/>
    <mask id="mask-1" x="29.8" y="106.96" width="50.82" height="50.83" maskUnits="userSpaceOnUse">
      <rect class="cls-89" x="37.18" y="114.4" width="36.06" height="35.95" transform="translate(-80.47 85.86) rotate(-48.44)"/>
    </mask>
    <linearGradient id="Unbenannter_Verlauf_17-2" x1="629.29" y1="165.6" x2="630.29" y2="165.6" gradientTransform="translate(15543.13 -3940.11) rotate(-180) scale(24.59 -24.59)" xlink:href="#Unbenannter_Verlauf_17"/>
    <clipPath id="clippath-7">
      <path class="cls-1" d="M43.42,91.13c6.25,1.55,7.6,9.86,2.18,13.34-3.7,2.38-7.3,4.39-9.32,4.76-5.41,1-10.61-2.58-11.62-7.99-1-5.41,2.58-10.61,7.99-11.61,2.07-.38,6.32.39,10.77,1.49h0Z"/>
    </clipPath>
    <linearGradient id="Unbenannter_Verlauf_18-3" x1="637.4" y1="180.63" x2="638.4" y2="180.63" gradientTransform="translate(15724.28 -4342.37) rotate(-180) scale(24.59 -24.59)" xlink:href="#Unbenannter_Verlauf_18"/>
    <mask id="mask-2" x="20.62" y="85.27" width="33.45" height="28.93" maskUnits="userSpaceOnUse">
      <rect class="cls-90" x="22.27" y="87.35" width="30.14" height="24.78" transform="translate(-14.23 6.56) rotate(-8.44)"/>
    </mask>
    <linearGradient id="Unbenannter_Verlauf_17-3" x1="637.4" y1="180.63" x2="638.4" y2="180.63" gradientTransform="translate(15724.28 -4342.37) rotate(-180) scale(24.59 -24.59)" xlink:href="#Unbenannter_Verlauf_17"/>
    <clipPath id="clippath-8">
      <path class="cls-1" d="M54.12,59.61c3.79,5.21-.51,12.44-6.91,11.62-4.37-.56-8.41-1.33-10.21-2.34-4.79-2.71-6.47-8.79-3.76-13.58,2.71-4.79,8.79-6.48,13.58-3.76,1.84,1.04,4.59,4.36,7.29,8.07h0Z"/>
    </clipPath>
    <linearGradient id="Unbenannter_Verlauf_18-4" x1="633.99" y1="197.26" x2="634.99" y2="197.26" gradientTransform="translate(4895.24 15664.06) rotate(-90) scale(24.59 -24.59)" xlink:href="#Unbenannter_Verlauf_18"/>
    <mask id="mask-3" x="20.18" y="36.62" width="48.1" height="47.65" maskUnits="userSpaceOnUse">
      <rect class="cls-91" x="27.17" y="42.7" width="34.12" height="35.49" transform="translate(-30.42 66.48) rotate(-58.44)"/>
    </mask>
    <linearGradient id="Unbenannter_Verlauf_17-4" x1="633.99" y1="197.26" x2="634.99" y2="197.26" gradientTransform="translate(4895.24 15664.06) rotate(-90) scale(24.59 -24.59)" xlink:href="#Unbenannter_Verlauf_17"/>
    <clipPath id="clippath-9">
      <path class="cls-1" d="M82.57,42.35c-.44,6.43-8.39,9.2-12.76,4.46-2.98-3.23-5.59-6.42-6.31-8.35-1.92-5.16.69-10.9,5.85-12.82,5.16-1.93,10.9.69,12.82,5.85.74,1.98.71,6.3.39,10.87h0Z"/>
    </clipPath>
    <linearGradient id="Unbenannter_Verlauf_18-5" x1="620.64" y1="207.95" x2="621.64" y2="207.95" gradientTransform="translate(5186.23 15312.67) rotate(-90) scale(24.59 -24.59)" xlink:href="#Unbenannter_Verlauf_18"/>
    <mask id="mask-4" x="53.22" y="17.3" width="38.04" height="40.64" maskUnits="userSpaceOnUse">
      <rect class="cls-92" x="57.72" y="21.05" width="29.05" height="33.16" transform="translate(-8.19 24.78) rotate(-18.44)"/>
    </mask>
    <linearGradient id="Unbenannter_Verlauf_17-5" x1="620.64" y1="207.95" x2="621.64" y2="207.95" gradientTransform="translate(5186.23 15312.67) rotate(-90) scale(24.59 -24.59)" xlink:href="#Unbenannter_Verlauf_17"/>
    <clipPath id="clippath-10">
      <path class="cls-1" d="M115.46,47.4c-4.47,4.64-12.34,1.65-12.64-4.78-.21-4.39-.16-8.52.54-10.46,1.84-5.19,7.54-7.9,12.72-6.07,5.19,1.84,7.9,7.54,6.06,12.72-.7,1.99-3.5,5.28-6.68,8.58Z"/>
    </clipPath>
    <linearGradient id="Unbenannter_Verlauf_18-6" x1="603.6" y1="207.37" x2="604.6" y2="207.37" gradientTransform="translate(-14742.81 5137.8) scale(24.59 -24.59)" xlink:href="#Unbenannter_Verlauf_18"/>
    <mask id="mask-5" x="93.12" y="16.96" width="40.36" height="42.39" maskUnits="userSpaceOnUse">
      <rect class="cls-87" x="96.45" y="23.11" width="33.69" height="30.08" transform="translate(36.17 129.5) rotate(-68.44)"/>
    </mask>
    <linearGradient id="Unbenannter_Verlauf_17-6" x1="603.6" y1="207.37" x2="604.6" y2="207.37" gradientTransform="translate(-14742.81 5137.8) scale(24.59 -24.59)" xlink:href="#Unbenannter_Verlauf_17"/>
    <clipPath id="clippath-11">
      <path class="cls-1" d="M137.41,72.42c-6.41.68-10.51-6.66-6.61-11.79,2.67-3.5,5.35-6.62,7.13-7.67,4.74-2.79,10.85-1.21,13.65,3.54,2.79,4.74,1.21,10.86-3.54,13.65-1.82,1.07-6.07,1.79-10.63,2.28h0Z"/>
    </clipPath>
    <linearGradient id="Unbenannter_Verlauf_18-7" x1="590.85" y1="196.16" x2="591.85" y2="196.16" gradientTransform="translate(-14402.03 4885.73) scale(24.59 -24.59)" xlink:href="#Unbenannter_Verlauf_18"/>
    <mask id="mask-6" x="117.29" y="38.67" width="46.68" height="45.94" maskUnits="userSpaceOnUse">
      <rect class="cls-88" x="123.09" y="45.02" width="35.08" height="33.24" transform="translate(-12.39 74.4) rotate(-28.44)"/>
    </mask>
    <linearGradient id="Unbenannter_Verlauf_17-7" x1="590.85" y1="196.16" x2="591.85" y2="196.16" gradientTransform="translate(-14402.03 4885.73) scale(24.59 -24.59)" xlink:href="#Unbenannter_Verlauf_17"/>
    <clipPath id="clippath-12">
      <path class="cls-1" d="M138.14,105.69c-5.35-3.6-3.77-11.86,2.52-13.28,4.29-.97,8.36-1.63,10.39-1.29,5.43.91,9.09,6.05,8.18,11.48-.91,5.43-6.05,9.09-11.48,8.18-2.08-.35-5.81-2.53-9.61-5.09h0Z"/>
    </clipPath>
    <linearGradient id="Unbenannter_Verlauf_18-8" x1="588.35" y1="179.23" x2="589.35" y2="179.23" gradientTransform="translate(-4261.1 -14379.23) rotate(90) scale(24.59 -24.59)" xlink:href="#Unbenannter_Verlauf_18"/>
    <mask id="mask-7" x="128.68" y="85.41" width="35.56" height="31.65" maskUnits="userSpaceOnUse">
      <rect class="cls-85" x="133.48" y="85.75" width="25.97" height="30.98" transform="translate(17.92 224.43) rotate(-78.44)"/>
    </mask>
    <linearGradient id="Unbenannter_Verlauf_17-8" x1="588.35" y1="179.23" x2="589.35" y2="179.23" gradientTransform="translate(-4261.1 -14379.23) rotate(90) scale(24.59 -24.59)" xlink:href="#Unbenannter_Verlauf_17"/>
    <clipPath id="clippath-13">
      <path class="cls-1" d="M117.31,131.65c-1.78-6.19,4.74-11.51,10.46-8.55,3.91,2.02,7.45,4.12,8.79,5.69,3.57,4.19,3.07,10.48-1.11,14.05-4.19,3.57-10.48,3.07-14.05-1.11-1.37-1.6-2.82-5.67-4.09-10.08Z"/>
    </clipPath>
    <linearGradient id="Unbenannter_Verlauf_18-9" x1="597.27" y1="164.75" x2="598.27" y2="164.75" gradientTransform="translate(-3923.79 -14567.16) rotate(90) scale(24.59 -24.59)" xlink:href="#Unbenannter_Verlauf_18"/>
    <mask id="mask-8" x="102.73" y="108.16" width="50.19" height="50.24" maskUnits="userSpaceOnUse">
      <rect class="cls-86" x="110.02" y="115.34" width="35.61" height="35.88" transform="translate(-55.15 108.34) rotate(-38.44)"/>
    </mask>
    <linearGradient id="Unbenannter_Verlauf_17-9" x1="597.27" y1="164.75" x2="598.27" y2="164.75" gradientTransform="translate(-3923.79 -14567.16) rotate(90) scale(24.59 -24.59)" xlink:href="#Unbenannter_Verlauf_17"/>
    <clipPath id="clippath-14">
      <path class="cls-1" d="M107.57,148.72c.33-3.77,4.84-5.53,7.63-2.98,6.64,6.07,16.05,15.18,17.88,19.61,2.88,6.97-.44,14.95-7.41,17.83-6.97,2.88-14.95-.44-17.83-7.41-1.84-4.45-1.07-17.91-.27-27.05"/>
    </clipPath>
    <linearGradient id="Unbenannter_Verlauf_36" x1="607.77" y1="170.39" x2="608.77" y2="170.39" gradientTransform="translate(-6919.06 -24971.09) rotate(90) scale(41.32 -41.32)" gradientUnits="userSpaceOnUse">
      <stop offset="0" stop-color="#fff"/>
      <stop offset=".18" stop-color="#d9d9d9"/>
      <stop offset=".56" stop-color="#787878"/>
      <stop offset="1" stop-color="#000"/>
    </linearGradient>
    <mask id="mask-9" x="92.42" y="133.7" width="57.11" height="61.84" maskUnits="userSpaceOnUse">
      <rect class="cls-97" x="99.67" y="139.4" width="42.62" height="50.44" transform="translate(-48.34 50.32) rotate(-19.67)"/>
    </mask>
    <linearGradient id="Unbenannter_Verlauf_35" x1="607.77" y1="170.39" x2="608.77" y2="170.39" gradientTransform="translate(-6919.06 -24971.1) rotate(90) scale(41.32 -41.32)" gradientUnits="userSpaceOnUse">
      <stop offset="0" stop-color="#c8c65f"/>
      <stop offset=".18" stop-color="#c9c469"/>
      <stop offset=".56" stop-color="#cfc385"/>
      <stop offset="1" stop-color="#d4c3a8"/>
    </linearGradient>
    <clipPath id="clippath-15">
      <path class="cls-1" d="M67.55,145.44c2.68-2.68,7.26-1.12,7.76,2.62,1.19,8.91,2.54,21.95,1.1,26.52-2.28,7.19-9.95,11.17-17.14,8.89-7.19-2.28-11.17-9.95-8.89-17.13,1.45-4.59,10.7-14.41,17.18-20.9h0Z"/>
    </clipPath>
    <linearGradient id="Unbenannter_Verlauf_36-2" x1="617.91" y1="170.32" x2="618.91" y2="170.32" gradientTransform="translate(25617.58 -6873.19) rotate(-180) scale(41.32 -41.32)" xlink:href="#Unbenannter_Verlauf_36"/>
    <mask id="mask-10" x="34.09" y="133.07" width="57.76" height="62.37" maskUnits="userSpaceOnUse">
      <rect class="cls-71" x="37.65" y="142.84" width="50.64" height="42.83" transform="translate(-112.93 166.22) rotate(-69.67)"/>
    </mask>
    <linearGradient id="Unbenannter_Verlauf_35-2" x1="617.91" y1="170.32" x2="618.91" y2="170.32" gradientTransform="translate(25617.58 -6873.19) rotate(-180) scale(41.32 -41.32)" xlink:href="#Unbenannter_Verlauf_35"/>
    <clipPath id="clippath-16">
      <path class="cls-1" d="M39,117.19c3.77-.33,6.28,3.8,4.25,6.99-4.83,7.59-12.17,18.45-16.21,21.02-6.36,4.05-14.8,2.16-18.85-4.2-4.05-6.36-2.16-14.8,4.2-18.85,4.07-2.58,17.45-4.16,26.6-4.96Z"/>
    </clipPath>
    <linearGradient id="Unbenannter_Verlauf_36-3" x1="625.64" y1="177" x2="626.64" y2="177" gradientTransform="translate(25899.86 -7180.15) rotate(-180) scale(41.32 -41.32)" xlink:href="#Unbenannter_Verlauf_36"/>
    <mask id="mask-11" x="-9.77" y="99.18" width="68.98" height="67.76" maskUnits="userSpaceOnUse">
      <rect class="cls-69" x="-1.17" y="108.81" width="51.76" height="48.5" transform="translate(-62.62 29.67) rotate(-29.67)"/>
    </mask>
    <linearGradient id="Unbenannter_Verlauf_35-3" x1="625.64" y1="177" x2="626.64" y2="177" gradientTransform="translate(25899.86 -7180.14) rotate(-180) scale(41.32 -41.32)" xlink:href="#Unbenannter_Verlauf_35"/>
    <clipPath id="clippath-17">
      <path class="cls-1" d="M35.28,77.21c3.1,2.17,2.37,6.95-1.24,8.1-8.57,2.71-21.18,6.31-25.92,5.68-7.48-.99-12.73-7.86-11.74-15.33.99-7.48,7.86-12.73,15.33-11.74,4.78.63,16.04,8.03,23.56,13.29h0Z"/>
    </clipPath>
    <linearGradient id="Unbenannter_Verlauf_36-4" x1="627.35" y1="186.92" x2="628.35" y2="186.92" gradientTransform="translate(7739.94 26020.63) rotate(-90) scale(41.32 -41.32)" xlink:href="#Unbenannter_Verlauf_36"/>
    <mask id="mask-12" x="-9.67" y="55.35" width="53.12" height="43.86" maskUnits="userSpaceOnUse">
      <rect class="cls-70" x="-1.08" y="53.56" width="35.93" height="47.44" transform="translate(-62.17 80.03) rotate(-79.67)"/>
    </mask>
    <linearGradient id="Unbenannter_Verlauf_35-4" x1="627.35" y1="186.92" x2="628.35" y2="186.92" gradientTransform="translate(7739.94 26020.63) rotate(-90) scale(41.32 -41.32)" xlink:href="#Unbenannter_Verlauf_35"/>
    <clipPath id="clippath-18">
      <path class="cls-1" d="M58.14,44.19c.98,3.65-2.66,6.85-6.15,5.4-8.32-3.43-20.28-8.78-23.51-12.31-5.09-5.57-4.7-14.2.87-19.29,5.57-5.09,14.2-4.7,19.29.86,3.25,3.56,7.13,16.47,9.51,25.33h0Z"/>
    </clipPath>
    <linearGradient id="Unbenannter_Verlauf_36-5" x1="622.22" y1="195.72" x2="623.22" y2="195.72" gradientTransform="translate(8127.91 25765.74) rotate(-90) scale(41.32 -41.32)" xlink:href="#Unbenannter_Verlauf_36"/>
    <mask id="mask-13" x="4.65" y="-4.64" width="73.2" height="73.24" maskUnits="userSpaceOnUse">
      <rect class="cls-72" x="15.33" y="5.9" width="51.84" height="52.16" transform="translate(-10.91 33.69) rotate(-39.67)"/>
    </mask>
    <linearGradient id="Unbenannter_Verlauf_35-5" x1="622.22" y1="195.72" x2="623.22" y2="195.72" gradientTransform="translate(8127.91 25765.74) rotate(-90) scale(41.32 -41.32)" xlink:href="#Unbenannter_Verlauf_35"/>
    <clipPath id="clippath-19">
      <path class="cls-1" d="M96.87,33.59c-1.59,3.43-6.44,3.54-8.18.18-4.16-7.98-9.89-19.76-10.1-24.54-.32-7.53,5.53-13.9,13.06-14.22,7.53-.32,13.9,5.53,14.22,13.06.21,4.81-5.13,17.2-9,25.51Z"/>
    </clipPath>
    <linearGradient id="Unbenannter_Verlauf_36-6" x1="612.67" y1="199.12" x2="613.67" y2="199.12" gradientTransform="translate(-25244.36 8243.23) scale(41.32 -41.32)" xlink:href="#Unbenannter_Verlauf_36"/>
    <mask id="mask-14" x="78.01" y="-5.47" width="28.3" height="42.76" maskUnits="userSpaceOnUse">
      <rect class="cls-73" x="70.87" y="1.88" width="42.6" height="28.05" transform="translate(75.72 107.98) rotate(-89.67)"/>
    </mask>
    <linearGradient id="Unbenannter_Verlauf_35-6" x1="612.67" y1="199.12" x2="613.67" y2="199.12" gradientTransform="translate(-25244.37 8243.23) scale(41.32 -41.32)" xlink:href="#Unbenannter_Verlauf_35"/>
    <clipPath id="clippath-20">
      <path class="cls-1" d="M133.35,50.36c-3.43,1.6-7.2-1.43-6.39-5.12,1.94-8.78,5.12-21.49,8.04-25.29,4.6-5.97,13.17-7.09,19.15-2.5,5.98,4.6,7.09,13.17,2.5,19.15-2.94,3.82-14.98,9.88-23.29,13.76h0Z"/>
    </clipPath>
    <linearGradient id="Unbenannter_Verlauf_36-7" x1="603.16" y1="195.57" x2="604.16" y2="195.57" gradientTransform="translate(-24802.54 8113.01) scale(41.32 -41.32)" xlink:href="#Unbenannter_Verlauf_36"/>
    <mask id="mask-15" x="106.85" y="-4.45" width="73.67" height="73.73" maskUnits="userSpaceOnUse">
      <rect class="cls-76" x="117.43" y="6.38" width="52.52" height="52.06" transform="translate(25.98 120.97) rotate(-49.67)"/>
    </mask>
    <linearGradient id="Unbenannter_Verlauf_35-7" x1="603.16" y1="195.57" x2="604.16" y2="195.57" gradientTransform="translate(-24802.53 8113.01) scale(41.32 -41.32)" xlink:href="#Unbenannter_Verlauf_35"/>
    <clipPath id="clippath-21">
      <path class="cls-1" d="M150.52,86.67c-3.65-.98-4.6-5.72-1.61-8.03,7.13-5.48,17.74-13.17,22.41-14.21,7.37-1.62,14.65,3.03,16.27,10.39,1.62,7.37-3.03,14.65-10.39,16.27-4.71,1.04-17.83-2.06-26.69-4.43h0Z"/>
    </clipPath>
    <linearGradient id="Unbenannter_Verlauf_36-8" x1="598.14" y1="186.82" x2="599.14" y2="186.82" gradientTransform="translate(-24569.18 7796.33) scale(41.32 -41.32)" xlink:href="#Unbenannter_Verlauf_36"/>
    <mask id="mask-16" x="141.06" y="55.64" width="53.01" height="43.66" maskUnits="userSpaceOnUse">
      <rect class="cls-74" x="143.76" y="59.38" width="47.61" height="36.18" transform="translate(-10.63 29.24) rotate(-9.67)"/>
    </mask>
    <linearGradient id="Unbenannter_Verlauf_35-8" x1="598.14" y1="186.82" x2="599.14" y2="186.82" gradientTransform="translate(-24569.18 7796.33) scale(41.32 -41.32)" xlink:href="#Unbenannter_Verlauf_35"/>
    <clipPath id="clippath-22">
      <path class="cls-1" d="M140.33,125.51c-2.17-3.1.15-7.34,3.93-7.18,8.99.38,22.06,1.31,26.3,3.53,6.68,3.49,9.28,11.74,5.78,18.42-3.49,6.68-11.74,9.28-18.42,5.78-4.27-2.23-12.33-13.04-17.6-20.55h0Z"/>
    </clipPath>
    <linearGradient id="Unbenannter_Verlauf_36-9" x1="599.96" y1="176.74" x2="600.96" y2="176.74" gradientTransform="translate(-7143.52 -24680.05) rotate(90) scale(41.32 -41.32)" xlink:href="#Unbenannter_Verlauf_36"/>
    <mask id="mask-17" x="124.48" y="100" width="69.04" height="67.72" maskUnits="userSpaceOnUse">
      <rect class="cls-75" x="134.93" y="107.95" width="48.14" height="51.82" transform="translate(-36.83 203.49) rotate(-59.67)"/>
    </mask>
    <linearGradient id="Unbenannter_Verlauf_35-9" x1="599.96" y1="176.74" x2="600.96" y2="176.74" gradientTransform="translate(-7143.53 -24680.05) rotate(90) scale(41.32 -41.32)" xlink:href="#Unbenannter_Verlauf_35"/>
    <clipPath id="clippath-23">
      <path class="cls-1" d="M21.46,107.1S-.54,124.04-7.73,125.4c-7.19,1.35-14.12-3.38-15.47-10.58-1.35-7.19,3.38-14.12,10.58-15.47,7.19-1.35,34.08,7.75,34.08,7.75h0Z"/>
    </clipPath>
    <linearGradient id="Unbenannter_Verlauf_54" x1="626.16" y1="182.32" x2="627.16" y2="182.32" gradientTransform="translate(28359.6 -8138.17) rotate(-180) scale(45.25 -45.25)" gradientUnits="userSpaceOnUse">
      <stop offset="0" stop-color="#fff"/>
      <stop offset=".09" stop-color="#dedede"/>
      <stop offset=".33" stop-color="#919191"/>
      <stop offset=".55" stop-color="#525252"/>
      <stop offset=".74" stop-color="#262626"/>
      <stop offset=".9" stop-color="#0a0a0a"/>
      <stop offset="1" stop-color="#000"/>
    </linearGradient>
    <mask id="mask-18" x="-28.63" y="91.48" width="54.16" height="41.79" maskUnits="userSpaceOnUse">
      <rect class="cls-93" x="-26.38" y="94.85" width="49.66" height="35.04" transform="translate(-16.09 .93) rotate(-8.22)"/>
    </mask>
    <linearGradient id="Unbenannter_Verlauf_53" x1="626.16" y1="182.32" x2="627.16" y2="182.32" gradientTransform="translate(28359.6 -8138.17) rotate(-180) scale(45.25 -45.25)" gradientUnits="userSpaceOnUse">
      <stop offset="0" stop-color="#c8c65f"/>
      <stop offset=".09" stop-color="#c9c468"/>
      <stop offset=".33" stop-color="#cdc47d"/>
      <stop offset=".55" stop-color="#d1c490"/>
      <stop offset=".74" stop-color="#d2c39d"/>
      <stop offset=".9" stop-color="#d3c3a5"/>
      <stop offset="1" stop-color="#d4c3a8"/>
    </linearGradient>
    <clipPath id="clippath-24">
      <path class="cls-1" d="M28.34,58.2s-27.74-1.15-34.12-4.74c-6.38-3.59-8.64-11.67-5.05-18.05,3.59-6.38,11.67-8.64,18.05-5.05,6.38,3.59,21.13,27.84,21.13,27.84"/>
    </clipPath>
    <linearGradient id="Unbenannter_Verlauf_54-2" x1="624.27" y1="191.29" x2="625.27" y2="191.29" gradientTransform="translate(8663.81 28321.02) rotate(-90) scale(45.25 -45.25)" xlink:href="#Unbenannter_Verlauf_54"/>
    <mask id="mask-19" x="-28.5" y="7.63" width="70.91" height="69.72" maskUnits="userSpaceOnUse">
      <rect class="cls-60" x="-17.66" y="16.03" width="49.24" height="52.91" transform="translate(-32.82 26.03) rotate(-58.22)"/>
    </mask>
    <linearGradient id="Unbenannter_Verlauf_53-2" x1="624.27" y1="191.29" x2="625.27" y2="191.29" gradientTransform="translate(8663.8 28321.02) rotate(-90) scale(45.25 -45.25)" xlink:href="#Unbenannter_Verlauf_53"/>
    <clipPath id="clippath-25">
      <path class="cls-1" d="M65.04,25.17S44.53,6.45,41.94-.4c-2.58-6.85.88-14.49,7.73-17.07,6.85-2.58,14.49.88,17.07,7.73,2.58,6.85-1.71,34.91-1.71,34.91h0Z"/>
    </clipPath>
    <linearGradient id="Unbenannter_Verlauf_54-3" x1="616.99" y1="197.14" x2="617.99" y2="197.14" gradientTransform="translate(8975.72 27950.18) rotate(-90) scale(45.25 -45.25)" xlink:href="#Unbenannter_Verlauf_54"/>
    <mask id="mask-20" x="25.93" y="-28.96" width="56.83" height="63.03" maskUnits="userSpaceOnUse">
      <rect class="cls-57" x="33.04" y="-23.61" width="42.6" height="52.33" transform="translate(1.93 17.12) rotate(-18.22)"/>
    </mask>
    <linearGradient id="Unbenannter_Verlauf_53-3" x1="616.99" y1="197.14" x2="617.99" y2="197.14" gradientTransform="translate(8975.72 27950.18) rotate(-90) scale(45.25 -45.25)" xlink:href="#Unbenannter_Verlauf_53"/>
    <clipPath id="clippath-26">
      <path class="cls-1" d="M114.38,23.45s-3.68-27.52-1.25-34.43c2.42-6.9,9.99-10.54,16.89-8.11,6.9,2.42,10.54,9.99,8.11,16.89-2.42,6.9-23.75,25.64-23.75,25.64"/>
    </clipPath>
    <linearGradient id="Unbenannter_Verlauf_54-4" x1="607.73" y1="196.74" x2="608.73" y2="196.74" gradientTransform="translate(-27403.27 8904.17) scale(45.25 -45.25)" xlink:href="#Unbenannter_Verlauf_54"/>
    <mask id="mask-21" x="95.21" y="-31.79" width="60.83" height="65.53" maskUnits="userSpaceOnUse">
      <rect class="cls-56" x="99.21" y="-21.23" width="52.83" height="44.4" transform="translate(78.12 117.27) rotate(-68.22)"/>
    </mask>
    <linearGradient id="Unbenannter_Verlauf_53-4" x1="607.73" y1="196.74" x2="608.73" y2="196.74" gradientTransform="translate(-27403.27 8904.17) scale(45.25 -45.25)" xlink:href="#Unbenannter_Verlauf_53"/>
    <clipPath id="clippath-27">
      <path class="cls-1" d="M153.28,53.86s14.87-23.45,21.17-27.18c6.29-3.73,14.43-1.65,18.15,4.65,3.73,6.3,1.65,14.43-4.65,18.15-6.3,3.73-34.68,4.38-34.68,4.38h0Z"/>
    </clipPath>
    <linearGradient id="Unbenannter_Verlauf_54-5" x1="600.83" y1="190.69" x2="601.83" y2="190.69" gradientTransform="translate(-27042.73 8667.9) scale(45.25 -45.25)" xlink:href="#Unbenannter_Verlauf_54"/>
    <mask id="mask-22" x="140.4" y="5" width="68.82" height="66.8" maskUnits="userSpaceOnUse">
      <rect class="cls-59" x="148.53" y="14.6" width="52.56" height="47.6" transform="translate(2.62 87.24) rotate(-28.22)"/>
    </mask>
    <linearGradient id="Unbenannter_Verlauf_53-5" x1="600.83" y1="190.69" x2="601.83" y2="190.69" gradientTransform="translate(-27042.73 8667.9) scale(45.25 -45.25)" xlink:href="#Unbenannter_Verlauf_53"/>
    <clipPath id="clippath-28">
      <path class="cls-1" d="M163.54,102.16s26.47-8.4,33.69-7.21c7.22,1.19,12.11,8.01,10.92,15.23-1.19,7.22-8.01,12.11-15.23,10.92-7.22-1.19-29.38-18.94-29.38-18.94h0Z"/>
    </clipPath>
    <linearGradient id="Unbenannter_Verlauf_54-6" x1="599.5" y1="181.42" x2="600.5" y2="181.42" gradientTransform="translate(-8023.71 -27046.9) rotate(90) scale(45.25 -45.25)" xlink:href="#Unbenannter_Verlauf_54"/>
    <mask id="mask-23" x="157.83" y="84.6" width="57.2" height="46.83" maskUnits="userSpaceOnUse">
      <rect class="cls-58" x="167.8" y="82.69" width="37.28" height="50.66" transform="translate(42.64 268.48) rotate(-78.22)"/>
    </mask>
    <linearGradient id="Unbenannter_Verlauf_53-6" x1="599.5" y1="181.42" x2="600.5" y2="181.42" gradientTransform="translate(-8023.71 -27046.9) rotate(90) scale(45.25 -45.25)" xlink:href="#Unbenannter_Verlauf_53"/>
    <clipPath id="clippath-29">
      <path class="cls-1" d="M140.35,145.75s25.68,10.58,30.45,16.13c4.77,5.56,4.13,13.92-1.43,18.69-5.56,4.77-13.92,4.13-18.69-1.43-4.77-5.56-10.33-33.39-10.33-33.39h0Z"/>
    </clipPath>
    <linearGradient id="Unbenannter_Verlauf_54-7" x1="604.38" y1="173.61" x2="605.38" y2="173.61" gradientTransform="translate(-7698.51 -27212.95) rotate(90) scale(45.25 -45.25)" xlink:href="#Unbenannter_Verlauf_54"/>
    <mask id="mask-24" x="121.11" y="128.62" width="73.7" height="73.82" maskUnits="userSpaceOnUse">
      <rect class="cls-54" x="131.88" y="139.09" width="52.16" height="52.89" transform="translate(-68.56 133.23) rotate(-38.22)"/>
    </mask>
    <linearGradient id="Unbenannter_Verlauf_53-7" x1="604.38" y1="173.61" x2="605.38" y2="173.61" gradientTransform="translate(-7698.51 -27212.94) rotate(90) scale(45.25 -45.25)" xlink:href="#Unbenannter_Verlauf_53"/>
    <clipPath id="clippath-30">
      <path class="cls-1" d="M94.57,164.23s12.87,24.61,12.95,31.93c.08,7.32-5.79,13.32-13.11,13.4s-13.31-5.79-13.4-13.11c-.08-7.32,13.55-32.22,13.55-32.22h0Z"/>
    </clipPath>
    <linearGradient id="Unbenannter_Verlauf_54-8" x1="613.18" y1="170.68" x2="614.18" y2="170.68" gradientTransform="translate(27867.14 -7537.27) rotate(-180) scale(45.25 -45.25)" xlink:href="#Unbenannter_Verlauf_54"/>
    <mask id="mask-25" x="79.53" y="163.41" width="29.49" height="47.06" maskUnits="userSpaceOnUse">
      <rect class="cls-53" x="71.17" y="172.91" width="46.21" height="28.07" transform="translate(-95.5 275.38) rotate(-88.22)"/>
    </mask>
    <linearGradient id="Unbenannter_Verlauf_53-8" x1="613.18" y1="170.68" x2="614.18" y2="170.68" gradientTransform="translate(27867.14 -7537.27) rotate(-180) scale(45.25 -45.25)" xlink:href="#Unbenannter_Verlauf_53"/>
    <clipPath id="clippath-31">
      <path class="cls-1" d="M47.62,148.97s-5.96,27.12-10.6,32.78c-4.64,5.66-12.99,6.49-18.65,1.84-5.66-4.64-6.49-12.99-1.84-18.65,4.64-5.66,31.09-15.97,31.09-15.97Z"/>
    </clipPath>
    <linearGradient id="Unbenannter_Verlauf_54-9" x1="621.78" y1="174.11" x2="622.78" y2="174.11" gradientTransform="translate(28195.7 -7710.45) rotate(-180) scale(45.25 -45.25)" xlink:href="#Unbenannter_Verlauf_54"/>
    <mask id="mask-26" x="-7.63" y="131.22" width="74.75" height="74.77" maskUnits="userSpaceOnUse">
      <rect class="cls-55" x="3.2" y="142.2" width="53.09" height="52.81" transform="translate(-115.81 78.46) rotate(-48.22)"/>
    </mask>
    <linearGradient id="Unbenannter_Verlauf_53-9" x1="621.78" y1="174.11" x2="622.78" y2="174.11" gradientTransform="translate(28195.7 -7710.45) rotate(-180) scale(45.25 -45.25)" xlink:href="#Unbenannter_Verlauf_53"/>
    <clipPath id="clippath-32">
      <rect class="cls-1" width="184.25" height="184.25"/>
    </clipPath>
  </defs>
  <g class="cls-118">
    <g class="cls-35">
      <rect class="cls-99" width="184.25" height="184.25"/>
      <g class="cls-38">
        <g class="cls-36">
          <g class="cls-37">
            <path class="cls-117" d="M81.24,91.37c2.88,0,5.21,2.33,5.21,5.21s-2.33,5.21-5.21,5.21-5.21-2.33-5.21-5.21,2.33-5.21,5.21-5.21"/>
            <path class="cls-117" d="M84.46,77.98c2.88,0,5.21,2.33,5.21,5.21s-2.33,5.21-5.21,5.21-5.21-2.33-5.21-5.21,2.33-5.21,5.21-5.21"/>
            <path class="cls-117" d="M98.19,76.91c2.88,0,5.21,2.33,5.21,5.21s-2.33,5.21-5.21,5.21-5.21-2.33-5.21-5.21,2.33-5.21,5.21-5.21"/>
            <path class="cls-117" d="M103.46,89.63c2.88,0,5.21,2.33,5.21,5.21s-2.33,5.21-5.21,5.21-5.21-2.33-5.21-5.21,2.33-5.21,5.21-5.21"/>
            <path class="cls-117" d="M92.98,98.57c2.88,0,5.21,2.33,5.21,5.21s-2.33,5.21-5.21,5.21-5.21-2.33-5.21-5.21,2.33-5.21,5.21-5.21"/>
            <path class="cls-117" d="M72.4,90.61c1.75,2.54,1.79,5.87.16,8.48-1.89,3.03-8.01,7.15-11.38,7.23-5.92.14-10.83-4.55-10.97-10.47-.14-5.92,4.55-10.83,10.47-10.96,3.38-.08,9.68,2.77,11.71,5.73Z"/>
            <path class="cls-117" d="M80.97,75.8c-.9,2.95-3.47,5.06-6.53,5.41-3.56.41-10.59-1.8-12.74-4.39-3.8-4.54-3.19-11.31,1.35-15.1,4.54-3.8,11.31-3.19,15.1,1.35,2.17,2.6,3.86,9.29,2.82,12.72h0Z"/>
            <path class="cls-117" d="M97.89,73.26c-2.86,1.14-6.12.45-8.3-1.73-2.53-2.52-5.19-9.4-4.52-12.7,1.18-5.8,6.85-9.54,12.65-8.36s9.54,6.85,8.36,12.65c-.68,3.32-4.86,8.81-8.19,10.14Z"/>
            <path class="cls-117" d="M110.42,84.91c-2.68-1.53-4.16-4.51-3.82-7.57.39-3.56,4.11-9.92,7.11-11.45,5.27-2.69,11.73-.6,14.42,4.68,2.69,5.27.6,11.73-4.68,14.42-3.02,1.54-9.92,1.7-13.03-.08Z"/>
            <path class="cls-117" d="M109.14,101.97c-.47-3.04.93-6.07,3.54-7.71,3.03-1.91,10.32-2.97,13.38-1.58,5.39,2.44,7.78,8.8,5.34,14.19-2.44,5.39-8.8,7.78-14.19,5.33-3.08-1.4-7.51-6.69-8.06-10.24Z"/>
            <path class="cls-117" d="M94.99,111.6c2.09-2.27,5.32-3.05,8.23-2.05,3.38,1.17,8.76,6.22,9.58,9.48,1.45,5.74-2.03,11.57-7.77,13.02-5.74,1.45-11.57-2.03-13.02-7.77-.83-3.28.55-10.05,2.98-12.69Z"/>
            <path class="cls-117" d="M78.64,106.54c3.07.21,5.7,2.26,6.73,5.16,1.19,3.37.6,10.72-1.44,13.4-3.58,4.71-10.31,5.63-15.03,2.04-4.71-3.58-5.63-10.31-2.04-15.03,2.05-2.7,8.2-5.83,11.78-5.58h0Z"/>
            <g class="cls-43">
              <g class="cls-2">
                <rect class="cls-96" x="77.95" y="134.99" width="26.71" height="20.71" transform="translate(-56.47 232.64) rotate(-88.44)"/>
              </g>
            </g>
            <g class="cls-40">
              <g class="cls-9">
                <rect class="cls-78" x="37.18" y="114.4" width="36.06" height="35.95" transform="translate(-80.47 85.86) rotate(-48.44)"/>
              </g>
            </g>
            <g class="cls-39">
              <g class="cls-3">
                <rect class="cls-79" x="22.27" y="87.35" width="30.14" height="24.78" transform="translate(-14.23 6.56) rotate(-8.44)"/>
              </g>
            </g>
            <g class="cls-42">
              <g class="cls-4">
                <rect class="cls-77" x="27.17" y="42.7" width="34.12" height="35.49" transform="translate(-30.42 66.48) rotate(-58.44)"/>
              </g>
            </g>
            <g class="cls-41">
              <g class="cls-5">
                <rect class="cls-83" x="57.72" y="21.05" width="29.05" height="33.16" transform="translate(-8.19 24.78) rotate(-18.44)"/>
              </g>
            </g>
            <g class="cls-17">
              <g class="cls-6">
                <rect class="cls-84" x="96.45" y="23.11" width="33.69" height="30.08" transform="translate(36.17 129.5) rotate(-68.44)"/>
              </g>
            </g>
            <g class="cls-14">
              <g class="cls-8">
                <rect class="cls-81" x="123.09" y="45.02" width="35.08" height="33.24" transform="translate(-12.39 74.4) rotate(-28.44)"/>
              </g>
            </g>
            <g class="cls-21">
              <g class="cls-7">
                <rect class="cls-82" x="133.48" y="85.75" width="25.97" height="30.98" transform="translate(17.92 224.43) rotate(-78.44)"/>
              </g>
            </g>
            <g class="cls-19">
              <g class="cls-11">
                <rect class="cls-80" x="110.02" y="115.34" width="35.61" height="35.88" transform="translate(-55.15 108.34) rotate(-38.44)"/>
              </g>
            </g>
            <g class="cls-20">
              <g class="cls-10">
                <rect class="cls-98" x="99.67" y="139.4" width="42.62" height="50.44" transform="translate(-48.34 50.32) rotate(-19.67)"/>
              </g>
            </g>
            <g class="cls-18">
              <g class="cls-100">
                <rect class="cls-64" x="37.65" y="142.84" width="50.64" height="42.83" transform="translate(-112.93 166.22) rotate(-69.67)"/>
              </g>
            </g>
            <g class="cls-15">
              <g class="cls-103">
                <rect class="cls-67" x="-1.17" y="108.81" width="51.76" height="48.5" transform="translate(-62.62 29.67) rotate(-29.67)"/>
              </g>
            </g>
            <g class="cls-12">
              <g class="cls-107">
                <rect class="cls-68" x="-1.08" y="53.56" width="35.93" height="47.44" transform="translate(-62.17 80.03) rotate(-79.67)"/>
              </g>
            </g>
            <g class="cls-16">
              <g class="cls-105">
                <rect class="cls-65" x="15.33" y="5.9" width="51.84" height="52.16" transform="translate(-10.91 33.69) rotate(-39.67)"/>
              </g>
            </g>
            <g class="cls-13">
              <g class="cls-101">
                <rect class="cls-66" x="70.87" y="1.88" width="42.6" height="28.05" transform="translate(75.72 107.98) rotate(-89.67)"/>
              </g>
            </g>
            <g class="cls-29">
              <g class="cls-109">
                <rect class="cls-63" x="117.43" y="6.38" width="52.52" height="52.06" transform="translate(25.98 120.97) rotate(-49.67)"/>
              </g>
            </g>
            <g class="cls-30">
              <g class="cls-104">
                <rect class="cls-62" x="143.76" y="59.38" width="47.61" height="36.18" transform="translate(-10.63 29.24) rotate(-9.67)"/>
              </g>
            </g>
            <g class="cls-31">
              <g class="cls-108">
                <rect class="cls-61" x="134.93" y="107.95" width="48.14" height="51.82" transform="translate(-36.83 203.49) rotate(-59.67)"/>
              </g>
            </g>
            <g class="cls-32">
              <g class="cls-102">
                <rect class="cls-94" x="-26.38" y="94.85" width="49.66" height="35.04" transform="translate(-16.09 .93) rotate(-8.22)"/>
              </g>
            </g>
            <g class="cls-33">
              <g class="cls-106">
                <rect class="cls-52" x="-17.66" y="16.03" width="49.24" height="52.91" transform="translate(-32.82 26.03) rotate(-58.22)"/>
              </g>
            </g>
            <g class="cls-34">
              <g class="cls-112">
                <rect class="cls-47" x="33.04" y="-23.61" width="42.6" height="52.33" transform="translate(1.93 17.12) rotate(-18.22)"/>
              </g>
            </g>
            <g class="cls-27">
              <g class="cls-111">
                <rect class="cls-51" x="99.21" y="-21.23" width="52.83" height="44.4" transform="translate(78.12 117.27) rotate(-68.22)"/>
              </g>
            </g>
            <g class="cls-25">
              <g class="cls-110">
                <rect class="cls-49" x="148.53" y="14.6" width="52.56" height="47.6" transform="translate(2.62 87.24) rotate(-28.22)"/>
              </g>
            </g>
            <g class="cls-28">
              <g class="cls-115">
                <rect class="cls-48" x="167.8" y="82.69" width="37.28" height="50.66" transform="translate(42.64 268.48) rotate(-78.22)"/>
              </g>
            </g>
            <g class="cls-26">
              <g class="cls-114">
                <rect class="cls-45" x="131.88" y="139.09" width="52.16" height="52.89" transform="translate(-68.56 133.23) rotate(-38.22)"/>
              </g>
            </g>
            <g class="cls-24">
              <g class="cls-113">
                <rect class="cls-46" x="71.17" y="172.91" width="46.21" height="28.07" transform="translate(-95.5 275.38) rotate(-88.22)"/>
              </g>
            </g>
            <g class="cls-22">
              <g class="cls-116">
                <rect class="cls-50" x="3.2" y="142.2" width="53.09" height="52.81" transform="translate(-115.81 78.46) rotate(-48.22)"/>
              </g>
            </g>
          </g>
        </g>
      </g>
      <g class="cls-23">
        <path class="cls-44" d="M184.25,164.41c0,10.96-8.88,19.84-19.84,19.84H19.84c-10.96,0-19.84-8.88-19.84-19.84V19.84C0,8.88,8.88,0,19.84,0h144.57c10.96,0,19.84,8.88,19.84,19.84v144.57ZM189.92-5.67H-5.67v195.59h195.59V-5.67Z"/>
      </g>
    </g>
  </g>
</svg>