<svg xmlns="http://www.w3.org/2000/svg" width="700" zoomAndPan="magnify" viewBox="0 0 525 299.999988" height="400" preserveAspectRatio="xMidYMid meet" version="1.2"><defs><clipPath id="d5995c9333"><path d="M 102.066406 0 L 423 0 L 423 300 L 102.066406 300 Z M 102.066406 0 "/></clipPath><clipPath id="5f3855194f"><path d="M 155.417969 42.917969 L 369.917969 42.917969 L 369.917969 257.417969 L 155.417969 257.417969 Z M 155.417969 42.917969 "/></clipPath><clipPath id="6b43145479"><path d="M 194.925781 82.425781 L 329.925781 82.425781 L 329.925781 217.425781 L 194.925781 217.425781 Z M 194.925781 82.425781 "/></clipPath></defs><g id="38b3353c55"><rect x="0" width="525" y="0" height="299.999988" style="fill:#ffffff;fill-opacity:1;stroke:none;"/><rect x="0" width="525" y="0" height="299.999988" style="fill:#fea6d5;fill-opacity:1;stroke:none;"/><g clip-rule="nonzero" clip-path="url(#d5995c9333)"><path style=" stroke:none;fill-rule:nonzero;fill:#ffb869;fill-opacity:1;" d="M 422.925781 149.996094 C 422.925781 152.621094 422.863281 155.246094 422.734375 157.867188 C 422.605469 160.492188 422.410156 163.109375 422.152344 165.722656 C 421.894531 168.335938 421.574219 170.9375 421.191406 173.535156 C 420.804688 176.132812 420.355469 178.71875 419.84375 181.296875 C 419.332031 183.871094 418.757812 186.429688 418.117188 188.976562 C 417.480469 191.523438 416.78125 194.054688 416.019531 196.566406 C 415.257812 199.078125 414.433594 201.570312 413.546875 204.042969 C 412.664062 206.515625 411.71875 208.964844 410.714844 211.390625 C 409.710938 213.816406 408.644531 216.214844 407.523438 218.589844 C 406.402344 220.960938 405.21875 223.308594 403.984375 225.621094 C 402.746094 227.9375 401.453125 230.222656 400.101562 232.472656 C 398.75 234.726562 397.347656 236.945312 395.890625 239.125 C 394.429688 241.308594 392.917969 243.457031 391.355469 245.566406 C 389.789062 247.671875 388.175781 249.742188 386.511719 251.773438 C 384.84375 253.800781 383.128906 255.789062 381.367188 257.734375 C 379.605469 259.679688 377.792969 261.582031 375.9375 263.4375 C 374.082031 265.292969 372.179688 267.105469 370.234375 268.867188 C 368.289062 270.628906 366.300781 272.34375 364.273438 274.011719 C 362.242188 275.675781 360.171875 277.289062 358.066406 278.855469 C 355.957031 280.417969 353.808594 281.929688 351.625 283.390625 C 349.445312 284.847656 347.226562 286.25 344.972656 287.601562 C 342.722656 288.953125 340.4375 290.246094 338.121094 291.484375 C 335.808594 292.71875 333.460938 293.902344 331.089844 295.023438 C 328.714844 296.144531 326.316406 297.210938 323.890625 298.214844 C 321.464844 299.21875 319.015625 300.164062 316.542969 301.046875 C 314.070312 301.933594 311.578125 302.757812 309.066406 303.519531 C 306.554688 304.28125 304.023438 304.980469 301.476562 305.617188 C 298.929688 306.257812 296.371094 306.832031 293.796875 307.34375 C 291.21875 307.855469 288.632812 308.304688 286.035156 308.691406 C 283.4375 309.074219 280.835938 309.394531 278.222656 309.652344 C 275.609375 309.910156 272.992188 310.105469 270.367188 310.234375 C 267.746094 310.363281 265.121094 310.425781 262.496094 310.425781 C 259.871094 310.425781 257.246094 310.363281 254.625 310.234375 C 252.003906 310.105469 249.382812 309.910156 246.773438 309.652344 C 244.160156 309.394531 241.554688 309.074219 238.957031 308.691406 C 236.359375 308.304688 233.773438 307.855469 231.199219 307.34375 C 228.625 306.832031 226.0625 306.257812 223.515625 305.617188 C 220.96875 304.980469 218.4375 304.28125 215.925781 303.519531 C 213.414062 302.757812 210.921875 301.933594 208.449219 301.046875 C 205.976562 300.164062 203.527344 299.21875 201.101562 298.214844 C 198.675781 297.210938 196.277344 296.144531 193.902344 295.023438 C 191.53125 293.902344 189.1875 292.71875 186.871094 291.484375 C 184.554688 290.246094 182.269531 288.953125 180.019531 287.601562 C 177.765625 286.25 175.550781 284.847656 173.367188 283.390625 C 171.183594 281.929688 169.039062 280.417969 166.929688 278.855469 C 164.820312 277.289062 162.75 275.675781 160.722656 274.011719 C 158.691406 272.34375 156.703125 270.628906 154.757812 268.867188 C 152.8125 267.105469 150.914062 265.292969 149.054688 263.4375 C 147.199219 261.582031 145.390625 259.679688 143.625 257.734375 C 141.863281 255.789062 140.148438 253.800781 138.484375 251.773438 C 136.816406 249.742188 135.203125 247.671875 133.636719 245.566406 C 132.074219 243.457031 130.5625 241.308594 129.105469 239.125 C 127.644531 236.945312 126.242188 234.726562 124.890625 232.472656 C 123.542969 230.222656 122.246094 227.9375 121.011719 225.621094 C 119.773438 223.308594 118.59375 220.960938 117.46875 218.589844 C 116.347656 216.214844 115.285156 213.816406 114.277344 211.390625 C 113.273438 208.964844 112.328125 206.515625 111.445312 204.042969 C 110.558594 201.570312 109.738281 199.078125 108.976562 196.566406 C 108.214844 194.054688 107.511719 191.523438 106.875 188.976562 C 106.238281 186.429688 105.660156 183.871094 105.148438 181.296875 C 104.636719 178.71875 104.1875 176.132812 103.804688 173.535156 C 103.417969 170.9375 103.097656 168.335938 102.839844 165.722656 C 102.582031 163.109375 102.390625 160.492188 102.261719 157.867188 C 102.132812 155.246094 102.066406 152.621094 102.066406 149.996094 C 102.066406 147.371094 102.132812 144.746094 102.261719 142.125 C 102.390625 139.503906 102.582031 136.882812 102.839844 134.273438 C 103.097656 131.660156 103.417969 129.054688 103.804688 126.457031 C 104.1875 123.859375 104.636719 121.273438 105.148438 118.699219 C 105.660156 116.125 106.238281 113.5625 106.875 111.015625 C 107.511719 108.46875 108.214844 105.9375 108.976562 103.425781 C 109.738281 100.914062 110.558594 98.421875 111.445312 95.949219 C 112.328125 93.476562 113.273438 91.027344 114.277344 88.601562 C 115.285156 86.175781 116.347656 83.777344 117.46875 81.402344 C 118.59375 79.03125 119.773438 76.6875 121.011719 74.371094 C 122.246094 72.054688 123.542969 69.769531 124.890625 67.519531 C 126.242188 65.265625 127.644531 63.050781 129.105469 60.867188 C 130.5625 58.683594 132.074219 56.539062 133.636719 54.429688 C 135.203125 52.320312 136.816406 50.25 138.484375 48.222656 C 140.148438 46.191406 141.863281 44.203125 143.625 42.257812 C 145.390625 40.3125 147.199219 38.414062 149.054688 36.554688 C 150.914062 34.699219 152.8125 32.890625 154.757812 31.125 C 156.703125 29.363281 158.691406 27.648438 160.722656 25.984375 C 162.75 24.316406 164.820312 22.703125 166.929688 21.136719 C 169.039062 19.574219 171.183594 18.0625 173.367188 16.605469 C 175.550781 15.144531 177.765625 13.742188 180.019531 12.390625 C 182.269531 11.042969 184.554688 9.746094 186.871094 8.511719 C 189.1875 7.273438 191.53125 6.09375 193.902344 4.96875 C 196.277344 3.847656 198.675781 2.785156 201.101562 1.777344 C 203.527344 0.773438 205.976562 -0.171875 208.449219 -1.054688 C 210.921875 -1.9375 213.414062 -2.761719 215.925781 -3.523438 C 218.4375 -4.285156 220.96875 -4.988281 223.515625 -5.625 C 226.0625 -6.261719 228.625 -6.839844 231.199219 -7.351562 C 233.773438 -7.863281 236.359375 -8.3125 238.957031 -8.695312 C 241.554688 -9.082031 244.160156 -9.402344 246.773438 -9.660156 C 249.382812 -9.917969 252.003906 -10.109375 254.625 -10.238281 C 257.246094 -10.367188 259.871094 -10.433594 262.496094 -10.433594 C 265.121094 -10.433594 267.746094 -10.367188 270.367188 -10.238281 C 272.992188 -10.109375 275.609375 -9.917969 278.222656 -9.660156 C 280.835938 -9.402344 283.4375 -9.082031 286.035156 -8.695312 C 288.632812 -8.3125 291.21875 -7.863281 293.796875 -7.351562 C 296.371094 -6.839844 298.929688 -6.261719 301.476562 -5.625 C 304.023438 -4.988281 306.554688 -4.285156 309.066406 -3.523438 C 311.578125 -2.761719 314.070312 -1.9375 316.542969 -1.054688 C 319.015625 -0.171875 321.464844 0.773438 323.890625 1.777344 C 326.316406 2.785156 328.714844 3.847656 331.089844 4.96875 C 333.460938 6.09375 335.808594 7.273438 338.121094 8.511719 C 340.4375 9.746094 342.722656 11.042969 344.972656 12.390625 C 347.226562 13.742188 349.445312 15.144531 351.625 16.605469 C 353.808594 18.0625 355.957031 19.574219 358.066406 21.136719 C 360.171875 22.703125 362.242188 24.316406 364.273438 25.984375 C 366.300781 27.648438 368.289062 29.363281 370.234375 31.125 C 372.179688 32.890625 374.082031 34.699219 375.9375 36.554688 C 377.792969 38.414062 379.605469 40.3125 381.367188 42.257812 C 383.128906 44.203125 384.84375 46.191406 386.511719 48.222656 C 388.175781 50.25 389.789062 52.320312 391.355469 54.429688 C 392.917969 56.539062 394.429688 58.683594 395.890625 60.867188 C 397.347656 63.050781 398.75 65.265625 400.101562 67.519531 C 401.453125 69.769531 402.746094 72.054688 403.984375 74.371094 C 405.21875 76.6875 406.402344 79.03125 407.523438 81.402344 C 408.644531 83.777344 409.710938 86.175781 410.714844 88.601562 C 411.71875 91.027344 412.664062 93.476562 413.546875 95.949219 C 414.433594 98.421875 415.257812 100.914062 416.019531 103.425781 C 416.78125 105.9375 417.480469 108.46875 418.117188 111.015625 C 418.757812 113.5625 419.332031 116.125 419.84375 118.699219 C 420.355469 121.273438 420.804688 123.859375 421.191406 126.457031 C 421.574219 129.054688 421.894531 131.660156 422.152344 134.273438 C 422.410156 136.882812 422.605469 139.503906 422.734375 142.125 C 422.863281 144.746094 422.925781 147.371094 422.925781 149.996094 Z M 422.925781 149.996094 "/></g><g clip-rule="nonzero" clip-path="url(#5f3855194f)"><path style=" stroke:none;fill-rule:nonzero;fill:#a3b4ff;fill-opacity:1;" d="M 369.578125 149.996094 C 369.578125 151.75 369.535156 153.5 369.449219 155.25 C 369.363281 157.003906 369.234375 158.75 369.0625 160.492188 C 368.890625 162.238281 368.675781 163.976562 368.417969 165.710938 C 368.160156 167.441406 367.863281 169.167969 367.519531 170.886719 C 367.179688 172.605469 366.792969 174.316406 366.367188 176.015625 C 365.941406 177.714844 365.476562 179.40625 364.96875 181.082031 C 364.457031 182.757812 363.910156 184.421875 363.316406 186.070312 C 362.726562 187.722656 362.097656 189.355469 361.425781 190.976562 C 360.757812 192.59375 360.046875 194.195312 359.296875 195.78125 C 358.546875 197.363281 357.761719 198.929688 356.933594 200.476562 C 356.109375 202.019531 355.246094 203.542969 354.34375 205.046875 C 353.441406 206.550781 352.503906 208.03125 351.53125 209.488281 C 350.558594 210.945312 349.550781 212.378906 348.503906 213.785156 C 347.460938 215.191406 346.382812 216.574219 345.273438 217.929688 C 344.160156 219.28125 343.015625 220.609375 341.839844 221.910156 C 340.660156 223.207031 339.453125 224.476562 338.214844 225.714844 C 336.976562 226.953125 335.707031 228.160156 334.410156 229.339844 C 333.109375 230.515625 331.785156 231.660156 330.429688 232.773438 C 329.074219 233.882812 327.691406 234.960938 326.285156 236.003906 C 324.878906 237.050781 323.445312 238.058594 321.988281 239.03125 C 320.53125 240.003906 319.050781 240.941406 317.546875 241.84375 C 316.042969 242.746094 314.519531 243.609375 312.976562 244.433594 C 311.429688 245.261719 309.863281 246.046875 308.28125 246.796875 C 306.695312 247.546875 305.09375 248.257812 303.476562 248.925781 C 301.855469 249.597656 300.222656 250.226562 298.570312 250.816406 C 296.921875 251.410156 295.257812 251.957031 293.582031 252.46875 C 291.90625 252.976562 290.214844 253.441406 288.515625 253.867188 C 286.816406 254.292969 285.105469 254.679688 283.386719 255.019531 C 281.667969 255.363281 279.941406 255.660156 278.210938 255.917969 C 276.476562 256.175781 274.738281 256.390625 272.992188 256.5625 C 271.25 256.734375 269.503906 256.863281 267.75 256.949219 C 266 257.035156 264.25 257.078125 262.496094 257.078125 C 260.746094 257.078125 258.992188 257.035156 257.242188 256.949219 C 255.492188 256.863281 253.746094 256.734375 252.003906 256.5625 C 250.257812 256.390625 248.519531 256.175781 246.785156 255.917969 C 245.050781 255.660156 243.328125 255.363281 241.605469 255.019531 C 239.886719 254.679688 238.179688 254.292969 236.480469 253.867188 C 234.78125 253.441406 233.089844 252.976562 231.414062 252.46875 C 229.738281 251.957031 228.074219 251.410156 226.421875 250.816406 C 224.773438 250.226562 223.140625 249.597656 221.519531 248.925781 C 219.902344 248.257812 218.300781 247.546875 216.714844 246.796875 C 215.132812 246.046875 213.566406 245.261719 212.019531 244.433594 C 210.476562 243.609375 208.949219 242.746094 207.449219 241.84375 C 205.945312 240.941406 204.464844 240.003906 203.007812 239.03125 C 201.550781 238.058594 200.117188 237.050781 198.710938 236.003906 C 197.300781 234.960938 195.921875 233.882812 194.566406 232.773438 C 193.210938 231.660156 191.886719 230.515625 190.585938 229.339844 C 189.289062 228.160156 188.019531 226.953125 186.78125 225.714844 C 185.542969 224.476562 184.332031 223.207031 183.15625 221.910156 C 181.980469 220.609375 180.835938 219.28125 179.722656 217.929688 C 178.613281 216.574219 177.535156 215.191406 176.488281 213.785156 C 175.445312 212.378906 174.4375 210.945312 173.464844 209.488281 C 172.492188 208.03125 171.554688 206.550781 170.652344 205.046875 C 169.75 203.542969 168.886719 202.019531 168.0625 200.476562 C 167.234375 198.929688 166.449219 197.363281 165.699219 195.78125 C 164.949219 194.195312 164.238281 192.59375 163.570312 190.976562 C 162.898438 189.355469 162.265625 187.722656 161.675781 186.070312 C 161.085938 184.421875 160.539062 182.757812 160.027344 181.082031 C 159.519531 179.40625 159.050781 177.714844 158.625 176.015625 C 158.199219 174.316406 157.816406 172.605469 157.476562 170.886719 C 157.132812 169.167969 156.832031 167.441406 156.578125 165.710938 C 156.320312 163.976562 156.105469 162.238281 155.933594 160.492188 C 155.761719 158.75 155.632812 157.003906 155.546875 155.25 C 155.460938 153.5 155.417969 151.75 155.417969 149.996094 C 155.417969 148.246094 155.460938 146.492188 155.546875 144.742188 C 155.632812 142.992188 155.761719 141.246094 155.933594 139.503906 C 156.105469 137.757812 156.320312 136.019531 156.578125 134.285156 C 156.832031 132.550781 157.132812 130.828125 157.476562 129.105469 C 157.816406 127.386719 158.199219 125.679688 158.625 123.980469 C 159.050781 122.28125 159.519531 120.589844 160.027344 118.914062 C 160.539062 117.238281 161.085938 115.574219 161.675781 113.921875 C 162.265625 112.273438 162.898438 110.640625 163.570312 109.019531 C 164.238281 107.402344 164.949219 105.800781 165.699219 104.214844 C 166.449219 102.632812 167.234375 101.066406 168.0625 99.519531 C 168.886719 97.976562 169.75 96.449219 170.652344 94.949219 C 171.554688 93.445312 172.492188 91.964844 173.464844 90.507812 C 174.4375 89.050781 175.445312 87.617188 176.488281 86.210938 C 177.535156 84.800781 178.613281 83.421875 179.722656 82.066406 C 180.835938 80.710938 181.980469 79.386719 183.15625 78.085938 C 184.332031 76.789062 185.542969 75.519531 186.78125 74.28125 C 188.019531 73.042969 189.289062 71.832031 190.585938 70.65625 C 191.886719 69.480469 193.210938 68.335938 194.566406 67.222656 C 195.921875 66.113281 197.300781 65.035156 198.710938 63.988281 C 200.117188 62.945312 201.550781 61.9375 203.007812 60.964844 C 204.464844 59.992188 205.945312 59.054688 207.449219 58.152344 C 208.949219 57.25 210.476562 56.386719 212.019531 55.5625 C 213.566406 54.734375 215.132812 53.949219 216.714844 53.199219 C 218.300781 52.449219 219.902344 51.738281 221.519531 51.070312 C 223.140625 50.398438 224.773438 49.765625 226.421875 49.175781 C 228.074219 48.585938 229.738281 48.039062 231.414062 47.527344 C 233.089844 47.019531 234.78125 46.550781 236.480469 46.125 C 238.179688 45.699219 239.886719 45.316406 241.605469 44.976562 C 243.328125 44.632812 245.050781 44.332031 246.785156 44.078125 C 248.519531 43.820312 250.257812 43.605469 252.003906 43.433594 C 253.746094 43.261719 255.492188 43.132812 257.242188 43.046875 C 258.992188 42.960938 260.746094 42.917969 262.496094 42.917969 C 264.25 42.917969 266 42.960938 267.75 43.046875 C 269.503906 43.132812 271.25 43.261719 272.992188 43.433594 C 274.738281 43.605469 276.476562 43.820312 278.210938 44.078125 C 279.941406 44.332031 281.667969 44.632812 283.386719 44.976562 C 285.105469 45.316406 286.816406 45.699219 288.515625 46.125 C 290.214844 46.550781 291.90625 47.019531 293.582031 47.527344 C 295.257812 48.039062 296.921875 48.585938 298.570312 49.175781 C 300.222656 49.765625 301.855469 50.398438 303.476562 51.070312 C 305.09375 51.738281 306.695312 52.449219 308.28125 53.199219 C 309.863281 53.949219 311.429688 54.734375 312.976562 55.5625 C 314.519531 56.386719 316.042969 57.25 317.546875 58.152344 C 319.050781 59.054688 320.53125 59.992188 321.988281 60.964844 C 323.445312 61.9375 324.878906 62.945312 326.285156 63.988281 C 327.691406 65.035156 329.074219 66.113281 330.429688 67.222656 C 331.785156 68.335938 333.109375 69.480469 334.410156 70.65625 C 335.707031 71.832031 336.976562 73.042969 338.214844 74.28125 C 339.453125 75.519531 340.660156 76.789062 341.839844 78.085938 C 343.015625 79.386719 344.160156 80.710938 345.273438 82.066406 C 346.382812 83.421875 347.460938 84.800781 348.503906 86.210938 C 349.550781 87.617188 350.558594 89.050781 351.53125 90.507812 C 352.503906 91.964844 353.441406 93.445312 354.34375 94.949219 C 355.246094 96.449219 356.109375 97.976562 356.933594 99.519531 C 357.761719 101.066406 358.546875 102.632812 359.296875 104.214844 C 360.046875 105.800781 360.757812 107.402344 361.425781 109.019531 C 362.097656 110.640625 362.726562 112.273438 363.316406 113.921875 C 363.910156 115.574219 364.457031 117.238281 364.96875 118.914062 C 365.476562 120.589844 365.941406 122.28125 366.367188 123.980469 C 366.792969 125.679688 367.179688 127.386719 367.519531 129.105469 C 367.863281 130.828125 368.160156 132.550781 368.417969 134.285156 C 368.675781 136.019531 368.890625 137.757812 369.0625 139.503906 C 369.234375 141.246094 369.363281 142.992188 369.449219 144.742188 C 369.535156 146.492188 369.578125 148.246094 369.578125 149.996094 Z M 369.578125 149.996094 "/></g><g clip-rule="nonzero" clip-path="url(#6b43145479)"><path style=" stroke:none;fill-rule:nonzero;fill:#05a53f;fill-opacity:1;" d="M 330.066406 149.996094 C 330.066406 151.101562 330.039062 152.207031 329.984375 153.3125 C 329.929688 154.417969 329.847656 155.519531 329.742188 156.621094 C 329.632812 157.71875 329.496094 158.816406 329.335938 159.910156 C 329.171875 161.003906 328.984375 162.09375 328.769531 163.179688 C 328.550781 164.261719 328.308594 165.339844 328.042969 166.414062 C 327.773438 167.488281 327.476562 168.550781 327.15625 169.609375 C 326.835938 170.667969 326.488281 171.71875 326.117188 172.761719 C 325.742188 173.800781 325.347656 174.832031 324.921875 175.855469 C 324.5 176.875 324.050781 177.886719 323.578125 178.886719 C 323.105469 179.886719 322.609375 180.875 322.089844 181.847656 C 321.566406 182.824219 321.023438 183.785156 320.453125 184.734375 C 319.882812 185.683594 319.292969 186.617188 318.679688 187.535156 C 318.066406 188.457031 317.429688 189.359375 316.769531 190.246094 C 316.109375 191.136719 315.429688 192.007812 314.730469 192.863281 C 314.027344 193.71875 313.304688 194.554688 312.5625 195.375 C 311.820312 196.191406 311.058594 196.992188 310.277344 197.777344 C 309.492188 198.558594 308.691406 199.320312 307.875 200.0625 C 307.054688 200.804688 306.21875 201.527344 305.363281 202.230469 C 304.507812 202.929688 303.636719 203.609375 302.746094 204.269531 C 301.859375 204.929688 300.957031 205.566406 300.035156 206.179688 C 299.117188 206.792969 298.183594 207.382812 297.234375 207.953125 C 296.285156 208.523438 295.324219 209.066406 294.347656 209.589844 C 293.375 210.109375 292.386719 210.605469 291.386719 211.078125 C 290.386719 211.550781 289.375 212 288.355469 212.421875 C 287.332031 212.847656 286.300781 213.242188 285.261719 213.617188 C 284.21875 213.988281 283.167969 214.335938 282.109375 214.65625 C 281.050781 214.976562 279.988281 215.273438 278.914062 215.542969 C 277.839844 215.808594 276.761719 216.050781 275.679688 216.269531 C 274.59375 216.484375 273.503906 216.671875 272.410156 216.835938 C 271.316406 216.996094 270.21875 217.132812 269.121094 217.242188 C 268.019531 217.347656 266.917969 217.429688 265.8125 217.484375 C 264.707031 217.539062 263.601562 217.566406 262.496094 217.566406 C 261.390625 217.566406 260.285156 217.539062 259.179688 217.484375 C 258.078125 217.429688 256.972656 217.347656 255.875 217.242188 C 254.773438 217.132812 253.675781 216.996094 252.582031 216.835938 C 251.488281 216.671875 250.398438 216.484375 249.3125 216.269531 C 248.230469 216.050781 247.152344 215.808594 246.078125 215.542969 C 245.003906 215.273438 243.941406 214.976562 242.882812 214.65625 C 241.824219 214.335938 240.773438 213.988281 239.734375 213.617188 C 238.691406 213.242188 237.660156 212.847656 236.636719 212.421875 C 235.617188 212 234.605469 211.550781 233.605469 211.078125 C 232.605469 210.605469 231.617188 210.109375 230.644531 209.589844 C 229.667969 209.066406 228.707031 208.523438 227.757812 207.953125 C 226.808594 207.382812 225.875 206.792969 224.957031 206.179688 C 224.035156 205.566406 223.132812 204.929688 222.246094 204.269531 C 221.355469 203.609375 220.484375 202.929688 219.628906 202.230469 C 218.773438 201.527344 217.9375 200.804688 217.117188 200.0625 C 216.300781 199.320312 215.5 198.558594 214.71875 197.777344 C 213.933594 196.992188 213.171875 196.191406 212.429688 195.375 C 211.6875 194.554688 210.964844 193.71875 210.265625 192.863281 C 209.5625 192.007812 208.882812 191.136719 208.222656 190.246094 C 207.566406 189.359375 206.929688 188.457031 206.3125 187.535156 C 205.699219 186.617188 205.109375 185.683594 204.539062 184.734375 C 203.972656 183.785156 203.425781 182.824219 202.90625 181.847656 C 202.382812 180.875 201.886719 179.886719 201.414062 178.886719 C 200.941406 177.886719 200.492188 176.875 200.070312 175.855469 C 199.644531 174.832031 199.25 173.800781 198.875 172.761719 C 198.503906 171.71875 198.15625 170.667969 197.835938 169.609375 C 197.515625 168.550781 197.21875 167.488281 196.949219 166.414062 C 196.683594 165.339844 196.441406 164.261719 196.222656 163.179688 C 196.007812 162.09375 195.820312 161.003906 195.65625 159.910156 C 195.496094 158.816406 195.359375 157.71875 195.25 156.621094 C 195.144531 155.519531 195.0625 154.417969 195.007812 153.3125 C 194.953125 152.207031 194.925781 151.101562 194.925781 149.996094 C 194.925781 148.890625 194.953125 147.785156 195.007812 146.679688 C 195.0625 145.578125 195.144531 144.472656 195.25 143.375 C 195.359375 142.273438 195.496094 141.175781 195.65625 140.082031 C 195.820312 138.988281 196.007812 137.898438 196.222656 136.8125 C 196.441406 135.730469 196.683594 134.652344 196.949219 133.578125 C 197.21875 132.503906 197.515625 131.441406 197.835938 130.382812 C 198.15625 129.324219 198.503906 128.273438 198.875 127.234375 C 199.25 126.191406 199.644531 125.160156 200.070312 124.136719 C 200.492188 123.117188 200.941406 122.105469 201.414062 121.105469 C 201.886719 120.105469 202.382812 119.117188 202.90625 118.144531 C 203.425781 117.167969 203.972656 116.207031 204.539062 115.257812 C 205.109375 114.308594 205.699219 113.375 206.3125 112.457031 C 206.929688 111.535156 207.566406 110.632812 208.222656 109.746094 C 208.882812 108.855469 209.5625 107.984375 210.265625 107.128906 C 210.964844 106.273438 211.6875 105.4375 212.429688 104.617188 C 213.171875 103.800781 213.933594 103 214.71875 102.21875 C 215.5 101.433594 216.300781 100.671875 217.117188 99.929688 C 217.9375 99.1875 218.773438 98.464844 219.628906 97.765625 C 220.484375 97.0625 221.355469 96.382812 222.246094 95.722656 C 223.132812 95.066406 224.035156 94.429688 224.957031 93.8125 C 225.875 93.199219 226.808594 92.609375 227.757812 92.039062 C 228.707031 91.472656 229.667969 90.925781 230.644531 90.40625 C 231.617188 89.882812 232.605469 89.386719 233.605469 88.914062 C 234.605469 88.441406 235.617188 87.992188 236.636719 87.570312 C 237.660156 87.144531 238.691406 86.75 239.734375 86.375 C 240.773438 86.003906 241.824219 85.65625 242.882812 85.335938 C 243.941406 85.015625 245.003906 84.71875 246.078125 84.449219 C 247.152344 84.183594 248.230469 83.941406 249.3125 83.722656 C 250.398438 83.507812 251.488281 83.320312 252.582031 83.15625 C 253.675781 82.996094 254.773438 82.859375 255.875 82.75 C 256.972656 82.644531 258.078125 82.5625 259.179688 82.507812 C 260.285156 82.453125 261.390625 82.425781 262.496094 82.425781 C 263.601562 82.425781 264.707031 82.453125 265.8125 82.507812 C 266.917969 82.5625 268.019531 82.644531 269.121094 82.75 C 270.21875 82.859375 271.316406 82.996094 272.410156 83.15625 C 273.503906 83.320312 274.59375 83.507812 275.679688 83.722656 C 276.761719 83.941406 277.839844 84.183594 278.914062 84.449219 C 279.988281 84.71875 281.050781 85.015625 282.109375 85.335938 C 283.167969 85.65625 284.21875 86.003906 285.261719 86.375 C 286.300781 86.75 287.332031 87.144531 288.355469 87.570312 C 289.375 87.992188 290.386719 88.441406 291.386719 88.914062 C 292.386719 89.386719 293.375 89.882812 294.347656 90.40625 C 295.324219 90.925781 296.285156 91.472656 297.234375 92.039062 C 298.183594 92.609375 299.117188 93.199219 300.035156 93.8125 C 300.957031 94.429688 301.859375 95.066406 302.746094 95.722656 C 303.636719 96.382812 304.507812 97.0625 305.363281 97.765625 C 306.21875 98.464844 307.054688 99.1875 307.875 99.929688 C 308.691406 100.671875 309.492188 101.433594 310.277344 102.21875 C 311.058594 103 311.820312 103.800781 312.5625 104.617188 C 313.304688 105.4375 314.027344 106.273438 314.730469 107.128906 C 315.429688 107.984375 316.109375 108.855469 316.769531 109.746094 C 317.429688 110.632812 318.066406 111.535156 318.679688 112.457031 C 319.292969 113.375 319.882812 114.308594 320.453125 115.257812 C 321.023438 116.207031 321.566406 117.167969 322.089844 118.144531 C 322.609375 119.117188 323.105469 120.105469 323.578125 121.105469 C 324.050781 122.105469 324.5 123.117188 324.921875 124.136719 C 325.347656 125.160156 325.742188 126.191406 326.117188 127.234375 C 326.488281 128.273438 326.835938 129.324219 327.15625 130.382812 C 327.476562 131.441406 327.773438 132.503906 328.042969 133.578125 C 328.308594 134.652344 328.550781 135.730469 328.769531 136.8125 C 328.984375 137.898438 329.171875 138.988281 329.335938 140.082031 C 329.496094 141.175781 329.632812 142.273438 329.742188 143.375 C 329.847656 144.472656 329.929688 145.578125 329.984375 146.679688 C 330.039062 147.785156 330.066406 148.890625 330.066406 149.996094 Z M 330.066406 149.996094 "/></g></g></svg>