<?xml version="1.0" encoding="UTF-8"?><svg id="e" xmlns="http://www.w3.org/2000/svg" xmlns:xlink="http://www.w3.org/1999/xlink" viewBox="0 0 510.24 510.24"><defs><clipPath id="f"><rect x="3.92" y="3.76" width="502.39" height="502.71" fill="none"/></clipPath><linearGradient id="l" x1="2447.57" y1="333.53" x2="2432.13" y2="287.21" gradientTransform="translate(2352.48 1438.97) rotate(-160) scale(.96)" gradientUnits="userSpaceOnUse"><stop offset="0" stop-color="#c9c44a"/><stop offset=".15" stop-color="#c9c34b" stop-opacity=".98"/><stop offset=".29" stop-color="#cac350" stop-opacity=".93"/><stop offset=".43" stop-color="#cbc359" stop-opacity=".83"/><stop offset=".57" stop-color="#cdc365" stop-opacity=".7"/><stop offset=".7" stop-color="#cfc374" stop-opacity=".53"/><stop offset=".83" stop-color="#d2c287" stop-opacity=".32"/><stop offset=".96" stop-color="#d5c29e" stop-opacity=".08"/><stop offset="1" stop-color="#d7c2a5" stop-opacity="0"/></linearGradient><linearGradient id="m" x1="2447.57" y1="333.53" x2="2432.13" y2="287.21" gradientTransform="translate(1098.3 2509.33) rotate(-120) scale(.96)" xlink:href="#l"/><linearGradient id="n" x1="2447.57" y1="333.53" x2="2432.13" y2="287.21" gradientTransform="translate(-550.47 2523.1) rotate(-80) scale(.96)" xlink:href="#l"/><linearGradient id="o" x1="2447.57" y1="333.53" x2="2432.13" y2="287.21" gradientTransform="translate(-1822.35 1473.83) rotate(-40) scale(.96)" xlink:href="#l"/><linearGradient id="p" x1="2447.57" y1="333.53" x2="2432.13" y2="287.21" gradientTransform="translate(-2122.22 -147.5) scale(.96)" xlink:href="#l"/><linearGradient id="q" x1="2447.57" y1="333.53" x2="2432.13" y2="287.21" gradientTransform="translate(-1309.76 -1582.26) rotate(40) scale(.96)" xlink:href="#l"/><linearGradient id="r" x1="2447.57" y1="333.53" x2="2432.13" y2="287.21" gradientTransform="translate(234.87 -2159.11) rotate(80) scale(.96)" xlink:href="#l"/><linearGradient id="s" x1="2447.57" y1="333.53" x2="2432.13" y2="287.21" gradientTransform="translate(1788.92 -1608.13) rotate(120) scale(.96)" xlink:href="#l"/><linearGradient id="t" x1="2447.57" y1="333.53" x2="2432.13" y2="287.21" gradientTransform="translate(2625.23 -187.14) rotate(160) scale(.96)" xlink:href="#l"/><linearGradient id="u" x1="2376.04" y1="443.92" x2="2318.26" y2="374.24" gradientTransform="translate(2097.59 1422.61) rotate(-160) scale(.87)" gradientUnits="userSpaceOnUse"><stop offset="0" stop-color="#c9c44a"/><stop offset=".17" stop-color="#cbc357" stop-opacity=".85"/><stop offset=".55" stop-color="#d0c279" stop-opacity=".48"/><stop offset="1" stop-color="#d7c2a5" stop-opacity="0"/></linearGradient><linearGradient id="v" x1="2376.04" x2="2318.26" gradientTransform="translate(916.06 2333.86) rotate(-120) scale(.87)" xlink:href="#u"/><linearGradient id="w" x1="2376.04" y1="443.92" x2="2318.26" y2="374.24" gradientTransform="translate(-574.79 2272.45) rotate(-80) scale(.87)" xlink:href="#u"/><linearGradient id="x" x1="2376.04" y1="443.92" x2="2318.26" y2="374.24" gradientTransform="translate(-1677.37 1267.1) rotate(-40) scale(.87)" xlink:href="#u"/><linearGradient id="y" x1="2376.04" y1="443.92" x2="2318.26" y2="374.24" gradientTransform="translate(-1875.77 -211.76) scale(.87)" xlink:href="#u"/><linearGradient id="z" x1="2376.04" y1="443.92" x2="2318.26" y2="374.24" gradientTransform="translate(-1077.16 -1472.17) rotate(40) scale(.87)" xlink:href="#u"/><linearGradient id="aa" x1="2376.04" y1="443.92" x2="2318.26" y2="374.24" gradientTransform="translate(344.78 -1924.36) rotate(80) scale(.87)" xlink:href="#u"/><linearGradient id="ab" x1="2376.04" y1="443.92" x2="2318.26" y2="374.24" gradientTransform="translate(1724.71 -1356.75) rotate(120) scale(.87)" xlink:href="#u"/><linearGradient id="ac" x1="2376.04" y1="443.92" x2="2318.26" y2="374.24" gradientTransform="translate(2416.95 -34.93) rotate(160) scale(.87)" xlink:href="#u"/><linearGradient id="ad" x1="2681.75" y1="441.9" x2="2764.33" y2="389.1" gradientTransform="translate(2112.77 1614.93) rotate(-155.63) scale(.88)" gradientUnits="userSpaceOnUse"><stop offset="0" stop-color="#c9c44a"/><stop offset=".09" stop-color="#cac355" stop-opacity=".87"/><stop offset=".33" stop-color="#cfc371" stop-opacity=".56"/><stop offset=".55" stop-color="#d2c287" stop-opacity=".32"/><stop offset=".74" stop-color="#d4c297" stop-opacity=".15"/><stop offset=".9" stop-color="#d6c2a1" stop-opacity=".04"/><stop offset="1" stop-color="#d7c2a5" stop-opacity="0"/></linearGradient><linearGradient id="ae" x1="2681.75" y1="441.9" x2="2764.33" y2="389.1" gradientTransform="translate(804.07 2490.94) rotate(-115.63) scale(.88)" xlink:href="#ad"/><linearGradient id="af" x1="2681.75" y1="441.9" x2="2764.33" y2="389.1" gradientTransform="translate(-761.55 2320.79) rotate(-75.63) scale(.88)" xlink:href="#ad"/><linearGradient id="ag" x1="2681.75" y1="441.9" x2="2764.33" y2="389.1" gradientTransform="translate(-1851.51 1184.09) rotate(-35.63) scale(.88)" xlink:href="#ad"/><linearGradient id="ah" x1="2681.75" y1="441.9" x2="2764.33" y2="389.1" gradientTransform="translate(-1955.81 -387.29) rotate(4.37) scale(.88)" xlink:href="#ad"/><linearGradient id="ai" x1="2681.75" y1="441.9" x2="2764.33" y2="389.1" gradientTransform="translate(-1025.65 -1658.08) rotate(44.37) scale(.88)" xlink:href="#ad"/><linearGradient id="aj" x1="2681.75" y1="441.9" x2="2764.33" y2="389.1" gradientTransform="translate(503.75 -2033.66) rotate(84.37) scale(.88)" xlink:href="#ad"/><linearGradient id="ak" x1="2681.75" y1="441.9" x2="2764.33" y2="389.1" gradientTransform="translate(1916.75 -1338.3) rotate(124.37) scale(.88)" xlink:href="#ad"/><linearGradient id="al" x1="2681.75" y1="441.9" x2="2764.33" y2="389.1" gradientTransform="translate(2552.2 102.64) rotate(164.37) scale(.88)" xlink:href="#ad"/></defs><g clip-path="url(#f)"><g id="g"><circle cx="234.37" cy="263.65" r="9.93" fill="#df98af"/></g><g id="h"><circle cx="240.51" cy="238.13" r="9.93" fill="#df98af"/></g><g id="i"><circle cx="266.68" cy="236.09" r="9.93" fill="#df98af"/></g><g id="j"><circle cx="276.71" cy="260.35" r="9.93" fill="#df98af"/></g><g id="k"><circle cx="256.74" cy="277.38" r="9.93" fill="#df98af"/></g><path d="M217.52,252.28c3.33,4.84,3.42,11.18.31,16.16-3.61,5.78-15.27,13.63-21.68,13.78-11.28.26-20.64-8.68-20.9-19.96-.26-11.28,8.68-20.64,19.96-20.9,6.45-.15,18.44,5.28,22.31,10.92Z" fill="#df98af"/><path d="M233.85,224.05c-1.71,5.62-6.61,9.64-12.44,10.32-6.78.78-20.18-3.44-24.29-8.36-7.24-8.66-6.08-21.55,2.58-28.78,8.66-7.24,21.55-6.08,28.78,2.58,4.14,4.95,7.36,17.71,5.37,24.25Z" fill="#df98af"/><path d="M266.1,219.21c-5.46,2.17-11.66.85-15.82-3.3-4.83-4.81-9.89-17.92-8.61-24.2,2.26-11.06,13.05-18.19,24.11-15.93,11.06,2.26,18.19,13.05,15.93,24.11-1.29,6.32-9.26,16.8-15.61,19.32Z" fill="#df98af"/><path d="M289.99,241.41c-5.1-2.92-7.93-8.59-7.29-14.43.75-6.78,7.84-18.91,13.56-21.82,10.05-5.13,22.36-1.14,27.49,8.92,5.13,10.05,1.14,22.36-8.92,27.49-5.75,2.93-18.9,3.24-24.84-.16Z" fill="#df98af"/><path d="M287.54,273.93c-.9-5.8,1.77-11.56,6.74-14.69,5.77-3.64,19.67-5.66,25.51-3.01,10.28,4.66,14.83,16.77,10.17,27.05-4.66,10.28-16.77,14.83-27.05,10.17-5.88-2.67-14.32-12.76-15.37-19.52Z" fill="#df98af"/><path d="M260.58,292.29c3.98-4.32,10.14-5.82,15.69-3.9,6.44,2.24,16.69,11.85,18.26,18.07,2.76,10.94-3.87,22.05-14.81,24.82-10.94,2.76-22.05-3.87-24.82-14.81-1.58-6.26,1.05-19.15,5.68-24.18Z" fill="#df98af"/><path d="M229.42,282.65c5.86.41,10.87,4.3,12.83,9.84,2.27,6.43,1.14,20.44-2.75,25.54-6.83,8.98-19.65,10.73-28.64,3.89-8.98-6.83-10.73-19.65-3.89-28.64,3.91-5.14,15.63-11.12,22.45-10.64Z" fill="#df98af"/><path d="M240.9,342.88c4.98-11.23,21.02-11,25.76.33,3.23,7.74,5.83,15.15,5.86,19.08.09,10.49-8.35,19.07-18.84,19.16-10.49.09-19.07-8.35-19.16-18.84-.03-4.02,2.83-11.74,6.38-19.73Z" fill="url(#l)"/><path d="M185.29,312.38c11.03-5.4,23.17,5.08,19.52,16.81-2.5,8-5.27,15.35-7.77,18.38-6.68,8.09-18.65,9.24-26.74,2.57-8.09-6.68-9.24-18.65-2.57-26.74,2.56-3.1,9.71-7.17,17.56-11.01Z" fill="url(#m)"/><path d="M162.29,253.27c11.92,2.96,14.48,18.79,4.15,25.42-7.06,4.53-13.91,8.37-17.77,9.08-10.32,1.91-20.23-4.91-22.14-15.23-1.91-10.32,4.91-20.23,15.23-22.14,3.95-.73,12.05.75,20.53,2.85Z" fill="url(#n)"/><path d="M182.68,193.2c7.23,9.93-.98,23.71-13.17,22.14-8.32-1.07-16.03-2.53-19.45-4.46-9.13-5.17-12.34-16.76-7.17-25.89,5.17-9.13,16.76-12.34,25.89-7.17,3.5,1.98,8.75,8.32,13.89,15.39Z" fill="url(#o)"/><path d="M236.9,160.29c-.84,12.25-15.99,17.53-24.32,8.5-5.68-6.16-10.66-12.24-12.03-15.92-3.67-9.83,1.32-20.77,11.15-24.44,9.83-3.67,20.77,1.32,24.44,11.15,1.41,3.77,1.35,12,.75,20.72Z" fill="url(#p)"/><path d="M299.59,169.93c-8.52,8.85-23.52,3.15-24.09-9.12-.39-8.37-.3-16.23,1.02-19.93,3.51-9.89,14.37-15.06,24.25-11.56,9.89,3.51,15.06,14.37,11.56,24.25-1.34,3.79-6.67,10.06-12.74,16.36Z" fill="url(#q)"/><path d="M341.42,217.62c-12.21,1.3-20.04-12.7-12.59-22.47,5.08-6.67,10.2-12.62,13.59-14.61,9.04-5.32,20.69-2.31,26.01,6.74,5.32,9.04,2.31,20.69-6.74,26.01-3.47,2.04-11.58,3.42-20.27,4.34Z" fill="url(#r)"/><path d="M342.81,281.03c-10.19-6.86-7.18-22.61,4.8-25.31,8.18-1.84,15.93-3.11,19.8-2.46,10.35,1.74,17.33,11.53,15.59,21.88-1.74,10.35-11.53,17.33-21.88,15.59-3.97-.67-11.07-4.83-18.32-9.71Z" fill="url(#s)"/><path d="M303.11,330.5c-3.4-11.8,9.03-21.94,19.94-16.3,7.45,3.85,14.2,7.86,16.75,10.85,6.81,7.98,5.86,19.97-2.12,26.78-7.98,6.81-19.97,5.86-26.78-2.12-2.61-3.06-5.38-10.81-7.79-19.21Z" fill="url(#t)"/><path d="M284.55,363.03c.63-7.18,9.22-10.53,14.54-5.67,12.65,11.57,30.6,28.94,34.08,37.37,5.48,13.28-.84,28.5-14.12,33.98-13.28,5.48-28.5-.84-33.98-14.12-3.5-8.49-2.03-34.14-.52-51.56Z" fill="url(#u)"/><path d="M208.27,356.78c5.1-5.1,13.83-2.14,14.78,5,2.26,16.99,4.84,41.84,2.09,50.54-4.34,13.7-18.96,21.29-32.66,16.95-13.7-4.34-21.29-18.96-16.95-32.66,2.77-8.75,20.39-27.46,32.75-39.83Z" fill="url(#v)"/><path d="M153.85,302.95c7.18-.63,11.97,7.25,8.11,13.33-9.2,14.47-23.19,35.16-30.89,40.06-12.13,7.71-28.21,4.12-35.92-8.01-7.71-12.13-4.12-28.21,8.01-35.92,7.75-4.92,33.27-7.93,50.69-9.46Z" fill="url(#w)"/><path d="M146.77,226.75c5.91,4.13,4.51,13.25-2.36,15.43-16.34,5.17-40.37,12.03-49.41,10.83-14.25-1.89-24.26-14.98-22.37-29.22,1.89-14.25,14.98-24.26,29.22-22.37,9.1,1.21,30.58,15.31,44.91,25.34Z" fill="url(#x)"/><path d="M190.33,163.81c1.87,6.96-5.06,13.05-11.72,10.3-15.85-6.54-38.66-16.73-44.81-23.46-9.7-10.61-8.96-27.07,1.65-36.76,10.61-9.7,27.07-8.96,36.76,1.65,6.2,6.78,13.59,31.39,18.12,48.28Z" fill="url(#y)"/><path d="M264.15,143.6c-3.04,6.53-12.27,6.74-15.6.35-7.93-15.2-18.86-37.66-19.25-46.78-.61-14.36,10.54-26.49,24.9-27.1,14.36-.61,26.49,10.54,27.1,24.9.39,9.17-9.77,32.78-17.15,48.63Z" fill="url(#z)"/><path d="M333.69,175.57c-6.53,3.05-13.73-2.72-12.18-9.76,3.69-16.74,9.76-40.97,15.32-48.2,8.76-11.39,25.1-13.52,36.49-4.76,11.39,8.76,13.52,25.1,4.76,36.49-5.6,7.28-28.55,18.83-44.4,26.23Z" fill="url(#aa)"/><path d="M366.41,244.76c-6.96-1.86-8.77-10.91-3.06-15.3,13.59-10.45,33.82-25.11,42.72-27.08,14.04-3.09,27.92,5.78,31.01,19.81,3.09,14.04-5.78,27.92-19.81,31.01-8.97,1.98-33.98-3.93-50.87-8.45Z" fill="url(#ab)"/><path d="M347,318.8c-4.14-5.9.29-14,7.49-13.69,17.13.73,42.05,2.5,50.13,6.72,12.74,6.65,17.68,22.37,11.02,35.11-6.65,12.74-22.37,17.68-35.11,11.02-8.14-4.25-23.5-24.85-33.54-39.17Z" fill="url(#ac)"/><path d="M120.43,283.7s-41.93,32.3-55.64,34.88c-13.71,2.58-26.91-6.45-29.49-20.16-2.58-13.71,6.45-26.91,20.16-29.49,13.71-2.58,64.96,14.77,64.96,14.77Z" fill="url(#ad)"/><path d="M133.54,190.51s-52.88-2.2-65.04-9.04c-12.16-6.84-16.47-22.24-9.63-34.4,6.84-12.16,22.24-16.47,34.4-9.63,12.16,6.84,40.27,53.07,40.27,53.07Z" fill="url(#ae)"/><path d="M203.48,127.55s-39.09-35.68-44.01-48.74c-4.92-13.05,1.68-27.62,14.73-32.54,13.05-4.92,27.62,1.68,32.54,14.73,4.92,13.05-3.26,66.54-3.26,66.54Z" fill="url(#af)"/><path d="M297.53,124.28s-7.01-52.46-2.39-65.62c4.62-13.16,19.04-20.08,32.2-15.46,13.16,4.62,20.08,19.04,15.46,32.2-4.62,13.16-45.27,48.88-45.27,48.88Z" fill="url(#ag)"/><path d="M371.68,182.23s28.35-44.7,40.35-51.81c12-7.11,27.5-3.14,34.6,8.86,7.11,12,3.14,27.5-8.86,34.6-12,7.11-66.1,8.34-66.1,8.34Z" fill="url(#ah)"/><path d="M391.23,274.29s50.45-16.02,64.21-13.75c13.76,2.27,23.08,15.27,20.81,29.03-2.27,13.76-15.27,23.08-29.03,20.81-13.76-2.27-56-36.1-56-36.1Z" fill="url(#ai)"/><path d="M347.04,357.37s48.94,20.16,58.03,30.74c9.09,10.59,7.87,26.53-2.72,35.62-10.59,9.09-26.53,7.87-35.62-2.72-9.09-10.59-19.69-63.65-19.69-63.65Z" fill="url(#aj)"/><path d="M259.78,392.61s24.53,46.9,24.69,60.85c.16,13.95-11.03,25.38-24.98,25.54-13.95.16-25.38-11.03-25.54-24.98-.16-13.95,25.83-61.41,25.83-61.41Z" fill="url(#ak)"/><path d="M170.28,363.52s-11.35,51.7-20.2,62.48c-8.85,10.79-24.76,12.36-35.55,3.51-10.79-8.85-12.36-24.76-3.51-35.55,8.85-10.79,59.26-30.44,59.26-30.44Z" fill="url(#al)"/></g></svg>