<svg width="733" height="452" viewBox="0 0 733 452" fill="none" xmlns="http://www.w3.org/2000/svg">
    <path d="M733 -0.000261545L2.00044 -0.000610352L0.000488281 451.216H733V-0.000261545Z" fill="url(#paint0_linear_2819_6973)"/>
    <path opacity="0.3" d="M355.439 138H276.561C256.369 138 240 154.369 240 174.561V278.439C240 298.631 256.369 315 276.561 315H355.439C375.631 315 392 298.631 392 278.439V174.561C392 154.369 375.631 138 355.439 138Z" fill="#FFEAAE"/>
    <path opacity="0.3" d="M381.439 138H303.561C283.369 138 267 154.369 267 174.561V278.439C267 298.631 283.369 315 303.561 315H381.439C401.631 315 418 298.631 418 278.439V174.561C418 154.369 401.631 138 381.439 138Z" fill="#FFE9A7"/>
    <path opacity="0.3" d="M457.439 138H379.561C359.369 138 343 154.369 343 174.561V278.439C343 298.631 359.369 315 379.561 315H457.439C477.631 315 494 298.631 494 278.439V174.561C494 154.369 477.631 138 457.439 138Z" fill="#FFEAAC"/>
    <path opacity="0.3" d="M431.439 138H352.561C332.369 138 316 154.369 316 174.561V278.439C316 298.631 332.369 315 352.561 315H431.439C451.631 315 468 298.631 468 278.439V174.561C468 154.369 451.631 138 431.439 138Z" fill="#FFEBB0"/>
    <defs>
        <linearGradient id="paint0_linear_2819_6973" x1="753" y1="0.000679887" x2="-40.5026" y2="299.282" gradientUnits="userSpaceOnUse">
            <stop stop-color="#FFCF87"/>
            <stop offset="1" stop-color="#FF7A00"/>
        </linearGradient>
    </defs>
</svg>
