<svg width="656" height="477" viewBox="0 0 656 477" fill="none" xmlns="http://www.w3.org/2000/svg">
    <g clip-path="url(#clip0_2818_5831)">
        <rect width="656" height="477" rx="10" fill="#F9FAFB"/>
        <rect x="177" y="133" width="302" height="596" rx="24.04" fill="white"/>
        <path d="M460.513 172.443H403.376V171.671H460.513V172.443ZM460.513 165.494H403.376V164.722H460.513V165.494ZM460.513 158.545H403.376V157.773H460.513V158.545Z" fill="#282828"/>
        <rect x="195" y="202" width="266" height="167" rx="24" fill="url(#paint0_linear_2818_5831)"/>
        <rect opacity="0.2" x="287" y="263" width="82" height="45" rx="22.5" fill="#565655"/>
        <ellipse opacity="0.2" cx="333.508" cy="285.49" rx="16.7368" ry="16.2138" fill="white"/>
        <circle opacity="0.6" cx="339.775" cy="285.49" r="16.2138" fill="white"/>
        <ellipse cx="346.041" cy="285.49" rx="16.7368" ry="16.2138" fill="white"/>
        <rect x="195" y="383" width="266" height="167" rx="24" fill="#67DAB8"/>
        <rect x="38" y="30" width="579" height="47" rx="23.5" fill="white"/>
        <rect x="402" y="36" width="36" height="36" rx="8" fill="#F4F9FF"/>
        <g clip-path="url(#clip1_2818_5831)">
            <path d="M168 51C168 50.7348 168.105 50.4804 168.293 50.2929C168.48 50.1054 168.735 50 169 50H175C175.265 50 175.52 50.1054 175.707 50.2929C175.895 50.4804 176 50.7348 176 51V57C176 57.2652 175.895 57.5196 175.707 57.7071C175.52 57.8946 175.265 58 175 58H169C168.735 58 168.48 57.8946 168.293 57.7071C168.105 57.5196 168 57.2652 168 57V51Z" stroke="#5F6980" stroke-width="1.5" stroke-linecap="round" stroke-linejoin="round"/>
            <path d="M163 50H164" stroke="#5F6980" stroke-width="1.5" stroke-linecap="round" stroke-linejoin="round"/>
            <path d="M163 58H164" stroke="#5F6980" stroke-width="1.5" stroke-linecap="round" stroke-linejoin="round"/>
            <path d="M168 45V46" stroke="#5F6980" stroke-width="1.5" stroke-linecap="round" stroke-linejoin="round"/>
            <path d="M176 45V46" stroke="#5F6980" stroke-width="1.5" stroke-linecap="round" stroke-linejoin="round"/>
            <path d="M180 50H181" stroke="#5F6980" stroke-width="1.5" stroke-linecap="round" stroke-linejoin="round"/>
            <path d="M180 58H181" stroke="#5F6980" stroke-width="1.5" stroke-linecap="round" stroke-linejoin="round"/>
            <path d="M168 62V63" stroke="#5F6980" stroke-width="1.5" stroke-linecap="round" stroke-linejoin="round"/>
            <path d="M176 62V63" stroke="#5F6980" stroke-width="1.5" stroke-linecap="round" stroke-linejoin="round"/>
        </g>
        <g clip-path="url(#clip2_2818_5831)">
            <path d="M225 63V59C225 58.2089 225.235 57.4355 225.674 56.7777C226.114 56.1199 226.738 55.6072 227.469 55.3045C228.2 55.0017 229.004 54.9225 229.78 55.0769C230.556 55.2312 231.269 55.6122 231.828 56.1716C232.388 56.731 232.769 57.4437 232.923 58.2196C233.077 58.9956 232.998 59.7998 232.696 60.5307C232.393 61.2616 231.88 61.8864 231.222 62.3259C230.564 62.7654 229.791 63 229 63H225Z" stroke="#5F6980" stroke-width="1.5" stroke-linecap="round" stroke-linejoin="round"/>
            <path d="M243 45C240.146 45.3904 237.45 46.5441 235.197 48.3394C232.944 50.1347 231.218 52.505 230.2 55.2" stroke="#5F6980" stroke-width="1.5" stroke-linecap="round" stroke-linejoin="round"/>
            <path d="M243 45C242.61 47.8542 241.456 50.55 239.661 52.8029C237.865 55.0559 235.495 56.7823 232.8 57.8" stroke="#5F6980" stroke-width="1.5" stroke-linecap="round" stroke-linejoin="round"/>
            <path d="M232.6 51C234.543 51.8969 236.103 53.4568 237 55.4" stroke="#5F6980" stroke-width="1.5" stroke-linecap="round" stroke-linejoin="round"/>
        </g>
        <g clip-path="url(#clip3_2818_5831)">
            <path d="M287 54L290 57L293 54L290 51L287 54Z" stroke="#5F6980" stroke-width="1.5" stroke-linecap="round" stroke-linejoin="round"/>
            <path d="M299 54L302 57L305 54L302 51L299 54Z" stroke="#5F6980" stroke-width="1.5" stroke-linecap="round" stroke-linejoin="round"/>
            <path d="M293 48L296 51L299 48L296 45L293 48Z" stroke="#5F6980" stroke-width="1.5" stroke-linecap="round" stroke-linejoin="round"/>
            <path d="M293 60L296 63L299 60L296 57L293 60Z" stroke="#5F6980" stroke-width="1.5" stroke-linecap="round" stroke-linejoin="round"/>
        </g>
        <g clip-path="url(#clip4_2818_5831)">
            <path d="M354 48C354 47.4696 354.211 46.9609 354.586 46.5858C354.961 46.2107 355.47 46 356 46H364C364.53 46 365.039 46.2107 365.414 46.5858C365.789 46.9609 366 47.4696 366 48V56C366 56.5304 365.789 57.0391 365.414 57.4142C365.039 57.7893 364.53 58 364 58H356C355.47 58 354.961 57.7893 354.586 57.4142C354.211 57.0391 354 56.5304 354 56V48Z" stroke="#5F6980" stroke-width="1.5" stroke-linecap="round" stroke-linejoin="round"/>
            <path d="M350 52C350 51.4696 350.211 50.9609 350.586 50.5858C350.961 50.2107 351.47 50 352 50H360C360.53 50 361.039 50.2107 361.414 50.5858C361.789 50.9609 362 51.4696 362 52V60C362 60.5304 361.789 61.0391 361.414 61.4142C361.039 61.7893 360.53 62 360 62H352C351.47 62 350.961 61.7893 350.586 61.4142C350.211 61.0391 350 60.5304 350 60V52Z" stroke="#5F6980" stroke-width="1.5" stroke-linecap="round" stroke-linejoin="round"/>
        </g>
        <g clip-path="url(#clip5_2818_5831)">
            <path d="M412 48C412 47.4696 412.211 46.9609 412.586 46.5858C412.961 46.2107 413.47 46 414 46H426C426.53 46 427.039 46.2107 427.414 46.5858C427.789 46.9609 428 47.4696 428 48V60C428 60.5304 427.789 61.0391 427.414 61.4142C427.039 61.7893 426.53 62 426 62H414C413.47 62 412.961 61.7893 412.586 61.4142C412.211 61.0391 412 60.5304 412 60V48Z" stroke="#3485FD" stroke-width="1.5" stroke-linecap="round" stroke-linejoin="round"/>
            <path d="M418 46L422 62" stroke="#3485FD" stroke-width="1.5" stroke-linecap="round" stroke-linejoin="round"/>
            <path d="M420 54L412 56" stroke="#3485FD" stroke-width="1.5" stroke-linecap="round" stroke-linejoin="round"/>
        </g>
        <g clip-path="url(#clip6_2818_5831)">
            <path d="M474 60C474 60.5304 474.211 61.0391 474.586 61.4142C474.961 61.7893 475.47 62 476 62C476.53 62 477.039 61.7893 477.414 61.4142C477.789 61.0391 478 60.5304 478 60C478 59.4696 477.789 58.9609 477.414 58.5858C477.039 58.2107 476.53 58 476 58C475.47 58 474.961 58.2107 474.586 58.5858C474.211 58.9609 474 59.4696 474 60Z" stroke="#5F6980" stroke-width="1.5" stroke-linecap="round" stroke-linejoin="round"/>
            <path d="M486 48C486 48.5304 486.211 49.0391 486.586 49.4142C486.961 49.7893 487.47 50 488 50C488.53 50 489.039 49.7893 489.414 49.4142C489.789 49.0391 490 48.5304 490 48C490 47.4696 489.789 46.9609 489.414 46.5858C489.039 46.2107 488.53 46 488 46C487.47 46 486.961 46.2107 486.586 46.5858C486.211 46.9609 486 47.4696 486 48Z" stroke="#5F6980" stroke-width="1.5" stroke-linecap="round" stroke-linejoin="round"/>
            <path d="M477.5 58.5L486.5 49.5" stroke="#5F6980" stroke-width="1.5" stroke-linecap="round" stroke-linejoin="round"/>
        </g>
        <g filter="url(#filter0_d_2818_5831)">
            <g clip-path="url(#clip7_2818_5831)">
                <rect x="329" y="85" width="188" height="149" rx="12" fill="white" fill-opacity="0.95"/>
                <rect x="329" y="134" width="203" height="46" fill="#3485FD"/>
                <path d="M376.195 154.029C376.146 153.592 375.943 153.254 375.586 153.013C375.229 152.77 374.78 152.649 374.238 152.649C373.85 152.649 373.515 152.71 373.232 152.833C372.948 152.953 372.728 153.12 372.571 153.332C372.417 153.541 372.341 153.78 372.341 154.048C372.341 154.272 372.393 154.466 372.498 154.629C372.605 154.792 372.745 154.929 372.918 155.04C373.093 155.148 373.281 155.239 373.481 155.312C373.681 155.383 373.873 155.442 374.058 155.488L374.981 155.728C375.283 155.802 375.592 155.902 375.909 156.028C376.226 156.154 376.52 156.32 376.791 156.527C377.062 156.733 377.28 156.988 377.446 157.293C377.616 157.598 377.7 157.962 377.7 158.387C377.7 158.923 377.562 159.398 377.285 159.814C377.011 160.229 376.612 160.557 376.089 160.797C375.569 161.037 374.94 161.157 374.201 161.157C373.493 161.157 372.881 161.045 372.364 160.82C371.847 160.595 371.442 160.277 371.15 159.864C370.857 159.449 370.696 158.956 370.665 158.387H372.096C372.124 158.729 372.234 159.013 372.428 159.241C372.625 159.466 372.876 159.634 373.181 159.744C373.489 159.852 373.826 159.906 374.192 159.906C374.595 159.906 374.953 159.843 375.267 159.717C375.584 159.587 375.834 159.409 376.015 159.181C376.197 158.95 376.288 158.681 376.288 158.373C376.288 158.093 376.208 157.864 376.048 157.685C375.891 157.507 375.677 157.359 375.406 157.242C375.138 157.125 374.835 157.022 374.496 156.933L373.379 156.628C372.622 156.422 372.022 156.119 371.579 155.719C371.139 155.319 370.919 154.789 370.919 154.131C370.919 153.586 371.066 153.11 371.362 152.704C371.657 152.298 372.057 151.982 372.562 151.758C373.067 151.53 373.636 151.416 374.27 151.416C374.91 151.416 375.475 151.529 375.964 151.753C376.457 151.978 376.845 152.287 377.128 152.681C377.411 153.072 377.559 153.521 377.571 154.029H376.195ZM383.786 158.059V153.909H385.171V161H383.814V159.772H383.74C383.577 160.151 383.315 160.466 382.955 160.718C382.598 160.968 382.153 161.092 381.621 161.092C381.165 161.092 380.762 160.992 380.411 160.792C380.064 160.589 379.79 160.289 379.59 159.892C379.393 159.495 379.294 159.004 379.294 158.419V153.909H380.674V158.253C380.674 158.736 380.808 159.121 381.076 159.407C381.344 159.694 381.692 159.837 382.119 159.837C382.378 159.837 382.635 159.772 382.89 159.643C383.149 159.513 383.363 159.318 383.532 159.056C383.704 158.795 383.789 158.462 383.786 158.059ZM392.339 155.64L391.088 155.862C391.036 155.702 390.953 155.549 390.839 155.405C390.728 155.26 390.577 155.142 390.386 155.049C390.196 154.957 389.957 154.911 389.671 154.911C389.28 154.911 388.954 154.999 388.692 155.174C388.431 155.346 388.3 155.569 388.3 155.843C388.3 156.08 388.387 156.271 388.563 156.416C388.738 156.56 389.021 156.679 389.412 156.771L390.539 157.03C391.191 157.181 391.677 157.413 391.998 157.727C392.318 158.041 392.478 158.449 392.478 158.95C392.478 159.375 392.355 159.754 392.108 160.086C391.865 160.415 391.525 160.674 391.088 160.862C390.654 161.049 390.151 161.143 389.578 161.143C388.784 161.143 388.137 160.974 387.635 160.635C387.133 160.294 386.826 159.809 386.712 159.181L388.046 158.978C388.129 159.326 388.3 159.589 388.558 159.767C388.817 159.943 389.154 160.031 389.569 160.031C390.022 160.031 390.383 159.937 390.654 159.749C390.925 159.558 391.06 159.326 391.06 159.052C391.06 158.83 390.977 158.644 390.811 158.493C390.648 158.342 390.397 158.229 390.059 158.152L388.858 157.888C388.197 157.738 387.707 157.498 387.39 157.168C387.076 156.839 386.919 156.422 386.919 155.917C386.919 155.499 387.036 155.132 387.27 154.819C387.504 154.505 387.827 154.26 388.24 154.085C388.652 153.906 389.125 153.817 389.657 153.817C390.423 153.817 391.027 153.983 391.467 154.315C391.907 154.645 392.198 155.086 392.339 155.64ZM397.305 153.909V155.017H393.432V153.909H397.305ZM394.471 152.21H395.851V158.918C395.851 159.186 395.891 159.387 395.971 159.523C396.051 159.655 396.154 159.746 396.28 159.795C396.41 159.841 396.55 159.864 396.701 159.864C396.811 159.864 396.908 159.857 396.991 159.841C397.074 159.826 397.139 159.814 397.185 159.804L397.435 160.945C397.355 160.975 397.241 161.006 397.093 161.037C396.945 161.071 396.761 161.089 396.539 161.092C396.176 161.098 395.837 161.034 395.523 160.898C395.209 160.763 394.956 160.554 394.762 160.271C394.568 159.987 394.471 159.632 394.471 159.204V152.21ZM400.896 161.157C400.446 161.157 400.04 161.074 399.677 160.908C399.314 160.738 399.026 160.494 398.814 160.174C398.604 159.854 398.5 159.461 398.5 158.996C398.5 158.596 398.577 158.267 398.731 158.009C398.885 157.75 399.092 157.545 399.354 157.395C399.615 157.244 399.908 157.13 400.231 157.053C400.554 156.976 400.883 156.917 401.219 156.877C401.644 156.828 401.988 156.788 402.253 156.757C402.518 156.724 402.71 156.67 402.83 156.596C402.95 156.522 403.01 156.402 403.01 156.236V156.203C403.01 155.8 402.896 155.488 402.669 155.266C402.444 155.045 402.108 154.934 401.662 154.934C401.197 154.934 400.831 155.037 400.563 155.243C400.299 155.446 400.116 155.673 400.014 155.922L398.717 155.626C398.871 155.196 399.095 154.848 399.391 154.583C399.689 154.315 400.032 154.121 400.42 154.001C400.808 153.878 401.216 153.817 401.644 153.817C401.927 153.817 402.227 153.851 402.544 153.918C402.864 153.983 403.162 154.103 403.439 154.278C403.72 154.454 403.949 154.705 404.127 155.031C404.306 155.354 404.395 155.774 404.395 156.291V161H403.047V160.031H402.992C402.902 160.209 402.769 160.384 402.59 160.557C402.412 160.729 402.182 160.872 401.902 160.986C401.622 161.1 401.287 161.157 400.896 161.157ZM401.196 160.049C401.577 160.049 401.904 159.974 402.175 159.823C402.448 159.672 402.656 159.475 402.798 159.232C402.942 158.986 403.015 158.723 403.015 158.442V157.528C402.965 157.578 402.87 157.624 402.729 157.667C402.59 157.707 402.432 157.742 402.253 157.773C402.075 157.801 401.901 157.827 401.731 157.852C401.562 157.873 401.421 157.892 401.307 157.907C401.039 157.941 400.794 157.998 400.573 158.078C400.354 158.158 400.179 158.273 400.046 158.424C399.917 158.572 399.852 158.769 399.852 159.015C399.852 159.357 399.979 159.615 400.231 159.79C400.483 159.963 400.805 160.049 401.196 160.049ZM406.234 161V153.909H407.614V161H406.234ZM406.931 152.815C406.691 152.815 406.484 152.735 406.312 152.575C406.143 152.412 406.058 152.218 406.058 151.993C406.058 151.766 406.143 151.572 406.312 151.412C406.484 151.248 406.691 151.167 406.931 151.167C407.171 151.167 407.375 151.248 407.545 151.412C407.717 151.572 407.803 151.766 407.803 151.993C407.803 152.218 407.717 152.412 407.545 152.575C407.375 152.735 407.171 152.815 406.931 152.815ZM410.851 156.79V161H409.471V153.909H410.796V155.063H410.884C411.047 154.688 411.302 154.386 411.65 154.158C412.001 153.931 412.442 153.817 412.975 153.817C413.458 153.817 413.881 153.918 414.244 154.121C414.607 154.321 414.889 154.62 415.089 155.017C415.289 155.414 415.389 155.905 415.389 156.49V161H414.009V156.656C414.009 156.142 413.875 155.74 413.607 155.451C413.339 155.159 412.972 155.012 412.504 155.012C412.184 155.012 411.899 155.082 411.65 155.22C411.404 155.359 411.208 155.562 411.064 155.83C410.922 156.094 410.851 156.414 410.851 156.79ZM419.304 161.157C418.855 161.157 418.448 161.074 418.085 160.908C417.722 160.738 417.434 160.494 417.222 160.174C417.013 159.854 416.908 159.461 416.908 158.996C416.908 158.596 416.985 158.267 417.139 158.009C417.293 157.75 417.5 157.545 417.762 157.395C418.024 157.244 418.316 157.13 418.639 157.053C418.962 156.976 419.292 156.917 419.627 156.877C420.052 156.828 420.397 156.788 420.661 156.757C420.926 156.724 421.118 156.67 421.238 156.596C421.358 156.522 421.418 156.402 421.418 156.236V156.203C421.418 155.8 421.304 155.488 421.077 155.266C420.852 155.045 420.517 154.934 420.07 154.934C419.606 154.934 419.239 155.037 418.972 155.243C418.707 155.446 418.524 155.673 418.422 155.922L417.125 155.626C417.279 155.196 417.504 154.848 417.799 154.583C418.098 154.315 418.441 154.121 418.828 154.001C419.216 153.878 419.624 153.817 420.052 153.817C420.335 153.817 420.635 153.851 420.952 153.918C421.272 153.983 421.571 154.103 421.848 154.278C422.128 154.454 422.357 154.705 422.536 155.031C422.714 155.354 422.803 155.774 422.803 156.291V161H421.455V160.031H421.4C421.311 160.209 421.177 160.384 420.998 160.557C420.82 160.729 420.59 160.872 420.31 160.986C420.03 161.1 419.695 161.157 419.304 161.157ZM419.604 160.049C419.986 160.049 420.312 159.974 420.583 159.823C420.857 159.672 421.064 159.475 421.206 159.232C421.351 158.986 421.423 158.723 421.423 158.442V157.528C421.374 157.578 421.278 157.624 421.137 157.667C420.998 157.707 420.84 157.742 420.661 157.773C420.483 157.801 420.309 157.827 420.14 157.852C419.97 157.873 419.829 157.892 419.715 157.907C419.447 157.941 419.202 157.998 418.981 158.078C418.762 158.158 418.587 158.273 418.455 158.424C418.325 158.572 418.261 158.769 418.261 159.015C418.261 159.357 418.387 159.615 418.639 159.79C418.892 159.963 419.213 160.049 419.604 160.049ZM424.753 161V151.545H426.133V155.059H426.216C426.296 154.911 426.411 154.74 426.562 154.546C426.713 154.352 426.922 154.183 427.19 154.038C427.458 153.891 427.812 153.817 428.252 153.817C428.824 153.817 429.335 153.961 429.785 154.251C430.234 154.54 430.586 154.957 430.842 155.502C431.1 156.047 431.229 156.702 431.229 157.468C431.229 158.235 431.102 158.892 430.846 159.44C430.591 159.984 430.24 160.404 429.794 160.7C429.348 160.992 428.838 161.138 428.266 161.138C427.835 161.138 427.482 161.066 427.209 160.922C426.938 160.777 426.725 160.608 426.571 160.414C426.418 160.22 426.299 160.047 426.216 159.897H426.101V161H424.753ZM426.105 157.455C426.105 157.953 426.178 158.39 426.322 158.766C426.467 159.141 426.676 159.435 426.95 159.647C427.224 159.857 427.559 159.961 427.956 159.961C428.369 159.961 428.714 159.852 428.991 159.634C429.267 159.412 429.477 159.112 429.618 158.733C429.763 158.355 429.835 157.929 429.835 157.455C429.835 156.987 429.765 156.567 429.623 156.194C429.484 155.822 429.275 155.528 428.995 155.312C428.718 155.097 428.372 154.989 427.956 154.989C427.556 154.989 427.218 155.092 426.941 155.299C426.667 155.505 426.459 155.793 426.318 156.162C426.176 156.531 426.105 156.962 426.105 157.455ZM432.779 161V153.909H434.16V161H432.779ZM433.477 152.815C433.237 152.815 433.03 152.735 432.858 152.575C432.689 152.412 432.604 152.218 432.604 151.993C432.604 151.766 432.689 151.572 432.858 151.412C433.03 151.248 433.237 151.167 433.477 151.167C433.717 151.167 433.921 151.248 434.091 151.412C434.263 151.572 434.349 151.766 434.349 151.993C434.349 152.218 434.263 152.412 434.091 152.575C433.921 152.735 433.717 152.815 433.477 152.815ZM437.397 151.545V161H436.017V151.545H437.397ZM439.254 161V153.909H440.634V161H439.254ZM439.951 152.815C439.711 152.815 439.505 152.735 439.333 152.575C439.163 152.412 439.079 152.218 439.079 151.993C439.079 151.766 439.163 151.572 439.333 151.412C439.505 151.248 439.711 151.167 439.951 151.167C440.191 151.167 440.396 151.248 440.565 151.412C440.738 151.572 440.824 151.766 440.824 151.993C440.824 152.218 440.738 152.412 440.565 152.575C440.396 152.735 440.191 152.815 439.951 152.815ZM445.801 153.909V155.017H441.928V153.909H445.801ZM442.967 152.21H444.347V158.918C444.347 159.186 444.387 159.387 444.467 159.523C444.547 159.655 444.65 159.746 444.777 159.795C444.906 159.841 445.046 159.864 445.197 159.864C445.307 159.864 445.404 159.857 445.487 159.841C445.571 159.826 445.635 159.814 445.681 159.804L445.931 160.945C445.851 160.975 445.737 161.006 445.589 161.037C445.441 161.071 445.257 161.089 445.035 161.092C444.672 161.098 444.333 161.034 444.019 160.898C443.706 160.763 443.452 160.554 443.258 160.271C443.064 159.987 442.967 159.632 442.967 159.204V152.21ZM448.201 163.659C447.995 163.659 447.807 163.642 447.638 163.608C447.468 163.578 447.342 163.544 447.259 163.507L447.591 162.376C447.844 162.443 448.068 162.473 448.265 162.463C448.462 162.454 448.636 162.38 448.787 162.242C448.941 162.103 449.076 161.877 449.193 161.563L449.364 161.092L446.77 153.909H448.247L450.043 159.412H450.117L451.912 153.909H453.394L450.472 161.946C450.337 162.316 450.164 162.628 449.955 162.884C449.746 163.142 449.497 163.336 449.207 163.465C448.918 163.594 448.582 163.659 448.201 163.659Z" fill="white"/>
                <path d="M374.099 117H371.039V107.545H374.196C375.123 107.545 375.918 107.735 376.583 108.113C377.248 108.489 377.757 109.029 378.111 109.734C378.468 110.435 378.647 111.277 378.647 112.259C378.647 113.244 378.467 114.09 378.107 114.798C377.75 115.506 377.232 116.051 376.555 116.432C375.878 116.811 375.06 117 374.099 117ZM372.465 115.754H374.021C374.741 115.754 375.34 115.618 375.817 115.347C376.294 115.073 376.651 114.678 376.888 114.161C377.125 113.641 377.243 113.007 377.243 112.259C377.243 111.517 377.125 110.888 376.888 110.371C376.654 109.854 376.305 109.461 375.84 109.194C375.375 108.926 374.798 108.792 374.109 108.792H372.465V115.754ZM383.366 117.143C382.667 117.143 382.066 116.994 381.561 116.695C381.059 116.394 380.671 115.971 380.397 115.426C380.127 114.878 379.991 114.236 379.991 113.501C379.991 112.774 380.127 112.134 380.397 111.58C380.671 111.026 381.053 110.594 381.542 110.283C382.035 109.972 382.61 109.817 383.269 109.817C383.669 109.817 384.057 109.883 384.432 110.015C384.808 110.148 385.145 110.355 385.443 110.638C385.742 110.922 385.977 111.289 386.15 111.742C386.322 112.191 386.408 112.737 386.408 113.381V113.87H380.771V112.836H385.055C385.055 112.473 384.982 112.151 384.834 111.871C384.686 111.588 384.478 111.365 384.211 111.202C383.946 111.039 383.635 110.957 383.278 110.957C382.89 110.957 382.552 111.052 382.263 111.243C381.976 111.431 381.755 111.677 381.598 111.982C381.444 112.283 381.367 112.611 381.367 112.965V113.773C381.367 114.247 381.45 114.65 381.616 114.983C381.785 115.315 382.021 115.569 382.323 115.744C382.624 115.917 382.977 116.003 383.38 116.003C383.641 116.003 383.88 115.966 384.095 115.892C384.311 115.815 384.497 115.701 384.654 115.55C384.811 115.4 384.931 115.213 385.014 114.992L386.32 115.227C386.216 115.612 386.028 115.949 385.757 116.238C385.489 116.525 385.152 116.748 384.746 116.908C384.343 117.065 383.883 117.143 383.366 117.143ZM393.253 111.64L392.002 111.862C391.95 111.702 391.867 111.549 391.753 111.405C391.642 111.26 391.491 111.142 391.3 111.049C391.11 110.957 390.871 110.911 390.585 110.911C390.194 110.911 389.868 110.999 389.606 111.174C389.345 111.346 389.214 111.569 389.214 111.843C389.214 112.08 389.301 112.271 389.477 112.416C389.652 112.56 389.935 112.679 390.326 112.771L391.453 113.03C392.105 113.181 392.592 113.413 392.912 113.727C393.232 114.041 393.392 114.449 393.392 114.95C393.392 115.375 393.269 115.754 393.022 116.086C392.779 116.415 392.439 116.674 392.002 116.862C391.568 117.049 391.065 117.143 390.493 117.143C389.699 117.143 389.051 116.974 388.549 116.635C388.047 116.294 387.74 115.809 387.626 115.181L388.96 114.978C389.043 115.326 389.214 115.589 389.472 115.767C389.731 115.943 390.068 116.031 390.483 116.031C390.936 116.031 391.297 115.937 391.568 115.749C391.839 115.558 391.974 115.326 391.974 115.052C391.974 114.83 391.891 114.644 391.725 114.493C391.562 114.342 391.311 114.229 390.973 114.152L389.772 113.888C389.111 113.738 388.621 113.498 388.304 113.168C387.99 112.839 387.833 112.422 387.833 111.917C387.833 111.499 387.95 111.132 388.184 110.819C388.418 110.505 388.741 110.26 389.154 110.085C389.566 109.906 390.039 109.817 390.571 109.817C391.337 109.817 391.941 109.983 392.381 110.315C392.821 110.645 393.112 111.086 393.253 111.64ZM394.909 117V109.909H396.29V117H394.909ZM395.606 108.815C395.366 108.815 395.16 108.735 394.988 108.575C394.819 108.412 394.734 108.218 394.734 107.993C394.734 107.766 394.819 107.572 394.988 107.412C395.16 107.248 395.366 107.167 395.606 107.167C395.847 107.167 396.051 107.248 396.22 107.412C396.393 107.572 396.479 107.766 396.479 107.993C396.479 108.218 396.393 108.412 396.22 108.575C396.051 108.735 395.847 108.815 395.606 108.815ZM401.12 119.807C400.556 119.807 400.072 119.733 399.665 119.585C399.262 119.438 398.933 119.242 398.678 118.999C398.422 118.756 398.231 118.49 398.105 118.2L399.292 117.711C399.375 117.846 399.485 117.989 399.624 118.14C399.766 118.294 399.956 118.425 400.196 118.533C400.44 118.64 400.752 118.694 401.134 118.694C401.657 118.694 402.089 118.567 402.431 118.311C402.772 118.059 402.943 117.656 402.943 117.102V115.707H402.855C402.772 115.858 402.652 116.026 402.495 116.211C402.342 116.395 402.129 116.555 401.858 116.691C401.587 116.826 401.235 116.894 400.801 116.894C400.241 116.894 399.736 116.763 399.287 116.501C398.841 116.237 398.487 115.847 398.225 115.333C397.967 114.816 397.837 114.181 397.837 113.427C397.837 112.673 397.965 112.027 398.221 111.488C398.479 110.949 398.833 110.537 399.282 110.251C399.732 109.961 400.241 109.817 400.81 109.817C401.25 109.817 401.606 109.891 401.877 110.038C402.148 110.183 402.358 110.352 402.509 110.546C402.663 110.74 402.782 110.911 402.865 111.059H402.966V109.909H404.319V117.157C404.319 117.766 404.177 118.266 403.894 118.657C403.611 119.048 403.228 119.337 402.745 119.525C402.265 119.713 401.723 119.807 401.12 119.807ZM401.106 115.749C401.503 115.749 401.838 115.657 402.112 115.472C402.389 115.284 402.598 115.016 402.74 114.669C402.885 114.318 402.957 113.898 402.957 113.408C402.957 112.931 402.886 112.511 402.745 112.148C402.603 111.785 402.395 111.502 402.121 111.299C401.848 111.092 401.509 110.989 401.106 110.989C400.69 110.989 400.344 111.097 400.067 111.312C399.79 111.525 399.581 111.814 399.439 112.18C399.301 112.547 399.232 112.956 399.232 113.408C399.232 113.873 399.302 114.281 399.444 114.632C399.585 114.983 399.795 115.257 400.072 115.453C400.352 115.65 400.696 115.749 401.106 115.749ZM407.55 112.79V117H406.17V109.909H407.495V111.063H407.583C407.746 110.688 408.001 110.386 408.349 110.158C408.7 109.931 409.142 109.817 409.674 109.817C410.157 109.817 410.58 109.918 410.944 110.121C411.307 110.321 411.588 110.62 411.788 111.017C411.988 111.414 412.088 111.905 412.088 112.49V117H410.708V112.656C410.708 112.142 410.574 111.74 410.306 111.451C410.039 111.159 409.671 111.012 409.203 111.012C408.883 111.012 408.598 111.082 408.349 111.22C408.103 111.359 407.907 111.562 407.763 111.83C407.621 112.094 407.55 112.414 407.55 112.79Z" fill="#282828"/>
                <path d="M374.099 210H371.039V200.545H374.196C375.123 200.545 375.918 200.735 376.583 201.113C377.248 201.489 377.757 202.029 378.111 202.734C378.468 203.435 378.647 204.277 378.647 205.259C378.647 206.244 378.467 207.09 378.107 207.798C377.75 208.506 377.232 209.051 376.555 209.432C375.878 209.811 375.06 210 374.099 210ZM372.465 208.754H374.021C374.741 208.754 375.34 208.618 375.817 208.347C376.294 208.073 376.651 207.678 376.888 207.161C377.125 206.641 377.243 206.007 377.243 205.259C377.243 204.517 377.125 203.888 376.888 203.371C376.654 202.854 376.305 202.461 375.84 202.194C375.375 201.926 374.798 201.792 374.109 201.792H372.465V208.754ZM383.366 210.143C382.667 210.143 382.066 209.994 381.561 209.695C381.059 209.394 380.671 208.971 380.397 208.426C380.127 207.878 379.991 207.236 379.991 206.501C379.991 205.774 380.127 205.134 380.397 204.58C380.671 204.026 381.053 203.594 381.542 203.283C382.035 202.972 382.61 202.817 383.269 202.817C383.669 202.817 384.057 202.883 384.432 203.015C384.808 203.148 385.145 203.355 385.443 203.638C385.742 203.922 385.977 204.289 386.15 204.742C386.322 205.191 386.408 205.737 386.408 206.381V206.87H380.771V205.836H385.055C385.055 205.473 384.982 205.151 384.834 204.871C384.686 204.588 384.478 204.365 384.211 204.202C383.946 204.039 383.635 203.957 383.278 203.957C382.89 203.957 382.552 204.052 382.263 204.243C381.976 204.431 381.755 204.677 381.598 204.982C381.444 205.283 381.367 205.611 381.367 205.965V206.773C381.367 207.247 381.45 207.65 381.616 207.983C381.785 208.315 382.021 208.569 382.323 208.744C382.624 208.917 382.977 209.003 383.38 209.003C383.641 209.003 383.88 208.966 384.095 208.892C384.311 208.815 384.497 208.701 384.654 208.55C384.811 208.4 384.931 208.213 385.014 207.992L386.32 208.227C386.216 208.612 386.028 208.949 385.757 209.238C385.489 209.525 385.152 209.748 384.746 209.908C384.343 210.065 383.883 210.143 383.366 210.143ZM393.803 202.909L391.231 210H389.754L387.178 202.909H388.66L390.456 208.366H390.529L392.321 202.909H393.803ZM397.915 210.143C397.216 210.143 396.614 209.994 396.11 209.695C395.608 209.394 395.22 208.971 394.946 208.426C394.675 207.878 394.54 207.236 394.54 206.501C394.54 205.774 394.675 205.134 394.946 204.58C395.22 204.026 395.602 203.594 396.091 203.283C396.584 202.972 397.159 202.817 397.818 202.817C398.218 202.817 398.606 202.883 398.981 203.015C399.357 203.148 399.694 203.355 399.992 203.638C400.291 203.922 400.526 204.289 400.698 204.742C400.871 205.191 400.957 205.737 400.957 206.381V206.87H395.32V205.836H399.604C399.604 205.473 399.53 205.151 399.383 204.871C399.235 204.588 399.027 204.365 398.759 204.202C398.495 204.039 398.184 203.957 397.827 203.957C397.439 203.957 397.101 204.052 396.811 204.243C396.525 204.431 396.304 204.677 396.147 204.982C395.993 205.283 395.916 205.611 395.916 205.965V206.773C395.916 207.247 395.999 207.65 396.165 207.983C396.334 208.315 396.57 208.569 396.871 208.744C397.173 208.917 397.525 209.003 397.929 209.003C398.19 209.003 398.429 208.966 398.644 208.892C398.86 208.815 399.046 208.701 399.203 208.55C399.36 208.4 399.48 208.213 399.563 207.992L400.869 208.227C400.765 208.612 400.577 208.949 400.306 209.238C400.038 209.525 399.701 209.748 399.295 209.908C398.892 210.065 398.432 210.143 397.915 210.143ZM403.869 200.545V210H402.488V200.545H403.869ZM408.713 210.143C408.048 210.143 407.468 209.991 406.972 209.686C406.477 209.381 406.092 208.955 405.818 208.407C405.544 207.859 405.407 207.219 405.407 206.487C405.407 205.751 405.544 205.108 405.818 204.557C406.092 204.006 406.477 203.578 406.972 203.274C407.468 202.969 408.048 202.817 408.713 202.817C409.377 202.817 409.958 202.969 410.453 203.274C410.949 203.578 411.333 204.006 411.607 204.557C411.881 205.108 412.018 205.751 412.018 206.487C412.018 207.219 411.881 207.859 411.607 208.407C411.333 208.955 410.949 209.381 410.453 209.686C409.958 209.991 409.377 210.143 408.713 210.143ZM408.717 208.984C409.148 208.984 409.505 208.871 409.788 208.643C410.071 208.415 410.281 208.112 410.416 207.733C410.555 207.355 410.624 206.938 410.624 206.482C410.624 206.03 410.555 205.614 410.416 205.236C410.281 204.854 410.071 204.548 409.788 204.317C409.505 204.086 409.148 203.971 408.717 203.971C408.283 203.971 407.923 204.086 407.637 204.317C407.354 204.548 407.143 204.854 407.005 205.236C406.869 205.614 406.801 206.03 406.801 206.482C406.801 206.938 406.869 207.355 407.005 207.733C407.143 208.112 407.354 208.415 407.637 208.643C407.923 208.871 408.283 208.984 408.717 208.984ZM413.559 212.659V202.909H414.907V204.059H415.022C415.102 203.911 415.218 203.74 415.368 203.546C415.519 203.352 415.729 203.183 415.996 203.038C416.264 202.891 416.618 202.817 417.058 202.817C417.631 202.817 418.141 202.961 418.591 203.251C419.04 203.54 419.392 203.957 419.648 204.502C419.906 205.047 420.036 205.702 420.036 206.468C420.036 207.235 419.908 207.892 419.653 208.44C419.397 208.984 419.046 209.404 418.6 209.7C418.154 209.992 417.644 210.138 417.072 210.138C416.641 210.138 416.289 210.066 416.015 209.922C415.744 209.777 415.532 209.608 415.378 209.414C415.224 209.22 415.105 209.047 415.022 208.897H414.939V212.659H413.559ZM414.911 206.455C414.911 206.953 414.984 207.39 415.128 207.766C415.273 208.141 415.482 208.435 415.756 208.647C416.03 208.857 416.366 208.961 416.763 208.961C417.175 208.961 417.52 208.852 417.797 208.634C418.074 208.412 418.283 208.112 418.425 207.733C418.569 207.355 418.642 206.929 418.642 206.455C418.642 205.987 418.571 205.567 418.429 205.194C418.291 204.822 418.081 204.528 417.801 204.312C417.524 204.097 417.178 203.989 416.763 203.989C416.363 203.989 416.024 204.092 415.747 204.299C415.473 204.505 415.265 204.793 415.124 205.162C414.982 205.531 414.911 205.962 414.911 206.455Z" fill="#282828"/>
                <path d="M356.312 147.789C356.666 146.831 358.022 146.831 358.376 147.789L359.447 150.684C359.559 150.985 359.796 151.223 360.098 151.334L362.992 152.406C363.951 152.76 363.951 154.115 362.992 154.47L360.098 155.541C359.796 155.653 359.559 155.89 359.447 156.191L358.376 159.086C358.022 160.044 356.666 160.044 356.312 159.086L355.241 156.191C355.129 155.89 354.892 155.653 354.59 155.541L351.696 154.47C350.737 154.115 350.737 152.76 351.696 152.406L354.59 151.334C354.892 151.223 355.129 150.985 355.241 150.684L356.312 147.789Z" fill="white"/>
                <path d="M349.119 157.031C349.25 156.677 349.75 156.677 349.881 157.031L350.651 159.109C350.692 159.221 350.779 159.308 350.891 159.349L352.969 160.119C353.323 160.25 353.323 160.75 352.969 160.881L350.891 161.651C350.779 161.692 350.692 161.779 350.651 161.891L349.881 163.969C349.75 164.323 349.25 164.323 349.119 163.969L348.349 161.891C348.308 161.779 348.221 161.692 348.109 161.651L346.031 160.881C345.677 160.75 345.677 160.25 346.031 160.119L348.109 159.349C348.221 159.308 348.308 159.221 348.349 159.109L349.119 157.031Z" fill="white"/>
            </g>
        </g>
        <g filter="url(#filter1_d_2818_5831)">
            <path d="M533.854 175.005L522.776 178.467L522.177 178.827L517.218 187.837L509 162.65L533.854 175.005Z" fill="white"/>
        </g>
        <path d="M511.86 165.919L517.612 183.549L521.009 177.457L521.61 177.096L529.429 174.652L511.86 165.919Z" fill="#282828"/>
    </g>
    <defs>
        <filter id="filter0_d_2818_5831" x="289" y="61" width="268" height="229" filterUnits="userSpaceOnUse" color-interpolation-filters="sRGB">
            <feFlood flood-opacity="0" result="BackgroundImageFix"/>
            <feColorMatrix in="SourceAlpha" type="matrix" values="0 0 0 0 0 0 0 0 0 0 0 0 0 0 0 0 0 0 127 0" result="hardAlpha"/>
            <feOffset dy="16"/>
            <feGaussianBlur stdDeviation="20"/>
            <feColorMatrix type="matrix" values="0 0 0 0 0 0 0 0 0 0 0 0 0 0 0 0 0 0 0.03 0"/>
            <feBlend mode="normal" in2="BackgroundImageFix" result="effect1_dropShadow_2818_5831"/>
            <feBlend mode="normal" in="SourceGraphic" in2="effect1_dropShadow_2818_5831" result="shape"/>
        </filter>
        <filter id="filter1_d_2818_5831" x="504" y="160.65" width="34.8538" height="35.1864" filterUnits="userSpaceOnUse" color-interpolation-filters="sRGB">
            <feFlood flood-opacity="0" result="BackgroundImageFix"/>
            <feColorMatrix in="SourceAlpha" type="matrix" values="0 0 0 0 0 0 0 0 0 0 0 0 0 0 0 0 0 0 127 0" result="hardAlpha"/>
            <feOffset dy="3"/>
            <feGaussianBlur stdDeviation="2.5"/>
            <feColorMatrix type="matrix" values="0 0 0 0 0 0 0 0 0 0 0 0 0 0 0 0 0 0 0.17 0"/>
            <feBlend mode="normal" in2="BackgroundImageFix" result="effect1_dropShadow_2818_5831"/>
            <feBlend mode="normal" in="SourceGraphic" in2="effect1_dropShadow_2818_5831" result="shape"/>
        </filter>
        <linearGradient id="paint0_linear_2818_5831" x1="328" y1="202" x2="328" y2="369" gradientUnits="userSpaceOnUse">
            <stop stop-color="#7561FF"/>
            <stop offset="1" stop-color="#FEA75F"/>
        </linearGradient>
        <clipPath id="clip0_2818_5831">
            <rect width="656" height="477" rx="10" fill="white"/>
        </clipPath>
        <clipPath id="clip1_2818_5831">
            <rect width="24" height="24" fill="white" transform="translate(160 42)"/>
        </clipPath>
        <clipPath id="clip2_2818_5831">
            <rect width="24" height="24" fill="white" transform="translate(222 42)"/>
        </clipPath>
        <clipPath id="clip3_2818_5831">
            <rect width="24" height="24" fill="white" transform="translate(284 42)"/>
        </clipPath>
        <clipPath id="clip4_2818_5831">
            <rect width="24" height="24" fill="white" transform="translate(346 42)"/>
        </clipPath>
        <clipPath id="clip5_2818_5831">
            <rect width="24" height="24" fill="white" transform="translate(408 42)"/>
        </clipPath>
        <clipPath id="clip6_2818_5831">
            <rect width="24" height="24" fill="white" transform="translate(470 42)"/>
        </clipPath>
        <clipPath id="clip7_2818_5831">
            <rect x="329" y="85" width="188" height="149" rx="12" fill="white"/>
        </clipPath>
    </defs>
</svg>
