<svg width="3135" height="1394" viewBox="0 0 3135 1394" fill="none" xmlns="http://www.w3.org/2000/svg">
    <path d="M158.867 621.871C154.806 617.991 154.759 611.512 158.762 607.541L670 100.379C676.291 94.1376 686.962 98.5067 687.027 107.351L694.395 1109.96C694.46 1118.8 683.855 1123.41 677.473 1117.32L158.867 621.871Z" fill="#3485FD"/>
    <path d="M254.182 171H240.874V131.727H254.45C258.349 131.727 261.699 132.513 264.499 134.086C267.311 135.646 269.472 137.889 270.98 140.817C272.489 143.744 273.243 147.247 273.243 151.325C273.243 155.416 272.482 158.932 270.961 161.872C269.452 164.812 267.273 167.069 264.422 168.641C261.584 170.214 258.17 171 254.182 171ZM247.988 164.844H253.837C256.572 164.844 258.854 164.346 260.683 163.349C262.511 162.339 263.885 160.837 264.805 158.842C265.726 156.835 266.186 154.33 266.186 151.325C266.186 148.321 265.726 145.828 264.805 143.847C263.885 141.852 262.523 140.363 260.721 139.379C258.931 138.381 256.707 137.883 254.048 137.883H247.988V164.844ZM278.196 171V141.545H285.137V171H278.196ZM281.686 137.365C280.586 137.365 279.64 137.001 278.848 136.272C278.055 135.531 277.659 134.642 277.659 133.607C277.659 132.558 278.055 131.67 278.848 130.941C279.64 130.2 280.586 129.829 281.686 129.829C282.798 129.829 283.744 130.2 284.524 130.941C285.316 131.67 285.713 132.558 285.713 133.607C285.713 134.642 285.316 135.531 284.524 136.272C283.744 137.001 282.798 137.365 281.686 137.365ZM314.056 149.331L307.727 150.021C307.548 149.382 307.235 148.781 306.788 148.219C306.353 147.656 305.765 147.202 305.024 146.857C304.282 146.512 303.374 146.339 302.301 146.339C300.856 146.339 299.642 146.653 298.657 147.279C297.686 147.906 297.206 148.717 297.219 149.714C297.206 150.571 297.519 151.268 298.159 151.805C298.811 152.342 299.884 152.783 301.38 153.128L306.404 154.202C309.191 154.803 311.262 155.755 312.617 157.059C313.985 158.363 314.676 160.07 314.688 162.179C314.676 164.033 314.132 165.669 313.058 167.088C311.997 168.494 310.521 169.594 308.629 170.386C306.737 171.179 304.563 171.575 302.109 171.575C298.504 171.575 295.602 170.821 293.403 169.312C291.204 167.791 289.894 165.675 289.472 162.965L296.241 162.313C296.548 163.643 297.2 164.646 298.197 165.324C299.194 166.001 300.492 166.34 302.09 166.34C303.739 166.34 305.062 166.001 306.059 165.324C307.069 164.646 307.574 163.809 307.574 162.812C307.574 161.968 307.248 161.271 306.596 160.722C305.957 160.172 304.96 159.75 303.605 159.456L298.58 158.401C295.755 157.813 293.665 156.822 292.31 155.429C290.955 154.023 290.284 152.246 290.296 150.098C290.284 148.283 290.776 146.71 291.773 145.381C292.783 144.038 294.183 143.003 295.972 142.274C297.775 141.533 299.852 141.162 302.205 141.162C305.656 141.162 308.373 141.897 310.355 143.367C312.349 144.837 313.583 146.825 314.056 149.331ZM331.76 171.575C328.82 171.575 326.295 170.93 324.186 169.638C322.089 168.347 320.472 166.564 319.334 164.288C318.209 162 317.647 159.366 317.647 156.388C317.647 153.396 318.222 150.756 319.373 148.468C320.523 146.167 322.147 144.377 324.243 143.099C326.353 141.808 328.846 141.162 331.722 141.162C334.113 141.162 336.229 141.603 338.069 142.485C339.923 143.354 341.4 144.588 342.499 146.186C343.599 147.771 344.225 149.625 344.378 151.747H337.743C337.475 150.328 336.836 149.146 335.826 148.2C334.829 147.241 333.493 146.761 331.818 146.761C330.399 146.761 329.153 147.145 328.079 147.912C327.005 148.666 326.167 149.753 325.567 151.172C324.979 152.591 324.684 154.291 324.684 156.273C324.684 158.28 324.979 160.006 325.567 161.45C326.155 162.882 326.979 163.988 328.04 164.768C329.114 165.535 330.373 165.918 331.818 165.918C332.841 165.918 333.755 165.727 334.56 165.343C335.378 164.947 336.062 164.378 336.612 163.636C337.162 162.895 337.539 161.994 337.743 160.933H344.378C344.212 163.016 343.599 164.864 342.537 166.474C341.476 168.072 340.032 169.325 338.204 170.233C336.376 171.128 334.228 171.575 331.76 171.575ZM361.426 171.575C358.55 171.575 356.057 170.942 353.948 169.677C351.838 168.411 350.202 166.641 349.039 164.365C347.888 162.089 347.313 159.43 347.313 156.388C347.313 153.345 347.888 150.68 349.039 148.391C350.202 146.103 351.838 144.326 353.948 143.06C356.057 141.795 358.55 141.162 361.426 141.162C364.303 141.162 366.796 141.795 368.905 143.06C371.015 144.326 372.645 146.103 373.795 148.391C374.958 150.68 375.54 153.345 375.54 156.388C375.54 159.43 374.958 162.089 373.795 164.365C372.645 166.641 371.015 168.411 368.905 169.677C366.796 170.942 364.303 171.575 361.426 171.575ZM361.465 166.014C363.025 166.014 364.328 165.586 365.377 164.729C366.425 163.86 367.205 162.697 367.716 161.239C368.24 159.782 368.502 158.158 368.502 156.369C368.502 154.566 368.24 152.936 367.716 151.479C367.205 150.009 366.425 148.839 365.377 147.969C364.328 147.1 363.025 146.665 361.465 146.665C359.867 146.665 358.537 147.1 357.476 147.969C356.428 148.839 355.642 150.009 355.118 151.479C354.606 152.936 354.35 154.566 354.35 156.369C354.35 158.158 354.606 159.782 355.118 161.239C355.642 162.697 356.428 163.86 357.476 164.729C358.537 165.586 359.867 166.014 361.465 166.014ZM405.24 141.545L394.75 171H387.08L376.591 141.545H383.993L390.762 163.425H391.069L397.857 141.545H405.24ZM420.581 171.575C417.628 171.575 415.078 170.962 412.93 169.734C410.795 168.494 409.152 166.743 408.002 164.48C406.851 162.205 406.276 159.526 406.276 156.445C406.276 153.415 406.851 150.756 408.002 148.468C409.165 146.167 410.789 144.377 412.872 143.099C414.956 141.808 417.404 141.162 420.217 141.162C422.032 141.162 423.745 141.456 425.356 142.044C426.98 142.619 428.411 143.514 429.651 144.729C430.904 145.943 431.889 147.49 432.605 149.369C433.32 151.236 433.678 153.46 433.678 156.043V158.171H409.536V153.492H427.024C427.012 152.163 426.724 150.98 426.161 149.945C425.599 148.896 424.813 148.072 423.803 147.471C422.806 146.87 421.642 146.57 420.313 146.57C418.894 146.57 417.647 146.915 416.573 147.605C415.499 148.283 414.662 149.178 414.061 150.29C413.473 151.389 413.173 152.597 413.16 153.914V157.999C413.16 159.712 413.473 161.182 414.1 162.409C414.726 163.624 415.602 164.557 416.727 165.209C417.852 165.848 419.169 166.168 420.677 166.168C421.687 166.168 422.601 166.027 423.419 165.746C424.237 165.452 424.947 165.023 425.548 164.461C426.149 163.898 426.602 163.202 426.909 162.371L433.391 163.099C432.982 164.812 432.202 166.308 431.051 167.587C429.914 168.852 428.456 169.837 426.679 170.54C424.902 171.23 422.869 171.575 420.581 171.575ZM438.051 171V141.545H444.782V146.455H445.089C445.626 144.754 446.546 143.444 447.85 142.523C449.167 141.59 450.669 141.124 452.357 141.124C452.74 141.124 453.168 141.143 453.641 141.181C454.127 141.207 454.53 141.251 454.849 141.315V147.701C454.555 147.599 454.089 147.509 453.45 147.433C452.823 147.343 452.216 147.298 451.628 147.298C450.362 147.298 449.224 147.573 448.214 148.123C447.217 148.66 446.431 149.408 445.856 150.366C445.281 151.325 444.993 152.431 444.993 153.684V171H438.051Z" fill="#282828"/>
    <path d="M883.182 171H869.874V131.727H883.45C887.349 131.727 890.699 132.513 893.499 134.086C896.311 135.646 898.472 137.889 899.98 140.817C901.489 143.744 902.243 147.247 902.243 151.325C902.243 155.416 901.482 158.932 899.961 161.872C898.452 164.812 896.273 167.069 893.422 168.641C890.584 170.214 887.17 171 883.182 171ZM876.988 164.844H882.837C885.572 164.844 887.854 164.346 889.683 163.349C891.511 162.339 892.885 160.837 893.805 158.842C894.726 156.835 895.186 154.33 895.186 151.325C895.186 148.321 894.726 145.828 893.805 143.847C892.885 141.852 891.523 140.363 889.721 139.379C887.931 138.381 885.707 137.883 883.048 137.883H876.988V164.844ZM920.235 171.575C917.282 171.575 914.732 170.962 912.584 169.734C910.449 168.494 908.806 166.743 907.656 164.48C906.505 162.205 905.93 159.526 905.93 156.445C905.93 153.415 906.505 150.756 907.656 148.468C908.819 146.167 910.443 144.377 912.527 143.099C914.61 141.808 917.059 141.162 919.871 141.162C921.686 141.162 923.4 141.456 925.01 142.044C926.634 142.619 928.066 143.514 929.306 144.729C930.559 145.943 931.543 147.49 932.259 149.369C932.975 151.236 933.333 153.46 933.333 156.043V158.171H909.19V153.492H926.679C926.666 152.163 926.378 150.98 925.816 149.945C925.253 148.896 924.467 148.072 923.457 147.471C922.46 146.87 921.297 146.57 919.967 146.57C918.548 146.57 917.301 146.915 916.228 147.605C915.154 148.283 914.316 149.178 913.716 150.29C913.127 151.389 912.827 152.597 912.814 153.914V157.999C912.814 159.712 913.127 161.182 913.754 162.409C914.38 163.624 915.256 164.557 916.381 165.209C917.506 165.848 918.823 166.168 920.331 166.168C921.341 166.168 922.255 166.027 923.074 165.746C923.892 165.452 924.601 165.023 925.202 164.461C925.803 163.898 926.257 163.202 926.564 162.371L933.045 163.099C932.636 164.812 931.856 166.308 930.706 167.587C929.568 168.852 928.11 169.837 926.333 170.54C924.556 171.23 922.524 171.575 920.235 171.575ZM952.624 141.545V146.915H935.213V141.545H952.624ZM939.566 171V138.765C939.566 136.783 939.975 135.134 940.793 133.817C941.624 132.501 942.736 131.516 944.129 130.864C945.523 130.212 947.07 129.886 948.77 129.886C949.972 129.886 951.039 129.982 951.972 130.174C952.906 130.366 953.596 130.538 954.044 130.692L952.663 136.061C952.369 135.972 951.998 135.882 951.551 135.793C951.103 135.69 950.605 135.639 950.055 135.639C948.764 135.639 947.85 135.952 947.313 136.579C946.789 137.192 946.526 138.075 946.526 139.225V171H939.566ZM956.561 171V141.545H963.503V171H956.561ZM960.051 137.365C958.952 137.365 958.006 137.001 957.213 136.272C956.42 135.531 956.024 134.642 956.024 133.607C956.024 132.558 956.42 131.67 957.213 130.941C958.006 130.2 958.952 129.829 960.051 129.829C961.163 129.829 962.109 130.2 962.889 130.941C963.682 131.67 964.078 132.558 964.078 133.607C964.078 134.642 963.682 135.531 962.889 136.272C962.109 137.001 961.163 137.365 960.051 137.365ZM976.083 153.741V171H969.141V141.545H975.776V146.55H976.121C976.799 144.901 977.879 143.591 979.362 142.619C980.858 141.648 982.705 141.162 984.904 141.162C986.936 141.162 988.707 141.597 990.216 142.466C991.737 143.335 992.913 144.594 993.744 146.244C994.588 147.893 995.003 149.893 994.99 152.246V171H988.049V153.32C988.049 151.351 987.537 149.81 986.515 148.698C985.505 147.586 984.105 147.03 982.315 147.03C981.1 147.03 980.02 147.298 979.074 147.835C978.141 148.359 977.406 149.12 976.869 150.117C976.345 151.114 976.083 152.322 976.083 153.741ZM1013.59 171.575C1010.63 171.575 1008.08 170.962 1005.94 169.734C1003.8 168.494 1002.16 166.743 1001.01 164.48C999.857 162.205 999.282 159.526 999.282 156.445C999.282 153.415 999.857 150.756 1001.01 148.468C1002.17 146.167 1003.79 144.377 1005.88 143.099C1007.96 141.808 1010.41 141.162 1013.22 141.162C1015.04 141.162 1016.75 141.456 1018.36 142.044C1019.99 142.619 1021.42 143.514 1022.66 144.729C1023.91 145.943 1024.89 147.49 1025.61 149.369C1026.33 151.236 1026.68 153.46 1026.68 156.043V158.171H1002.54V153.492H1020.03C1020.02 152.163 1019.73 150.98 1019.17 149.945C1018.6 148.896 1017.82 148.072 1016.81 147.471C1015.81 146.87 1014.65 146.57 1013.32 146.57C1011.9 146.57 1010.65 146.915 1009.58 147.605C1008.51 148.283 1007.67 149.178 1007.07 150.29C1006.48 151.389 1006.18 152.597 1006.17 153.914V157.999C1006.17 159.712 1006.48 161.182 1007.11 162.409C1007.73 163.624 1008.61 164.557 1009.73 165.209C1010.86 165.848 1012.17 166.168 1013.68 166.168C1014.69 166.168 1015.61 166.027 1016.43 165.746C1017.24 165.452 1017.95 165.023 1018.55 164.461C1019.15 163.898 1019.61 163.202 1019.92 162.371L1026.4 163.099C1025.99 164.812 1025.21 166.308 1024.06 167.587C1022.92 168.852 1021.46 169.837 1019.69 170.54C1017.91 171.23 1015.88 171.575 1013.59 171.575Z" fill="#282828"/>
    <path d="M1456.18 171H1442.87V131.727H1456.45C1460.35 131.727 1463.7 132.513 1466.5 134.086C1469.31 135.646 1471.47 137.889 1472.98 140.817C1474.49 143.744 1475.24 147.247 1475.24 151.325C1475.24 155.416 1474.48 158.932 1472.96 161.872C1471.45 164.812 1469.27 167.069 1466.42 168.641C1463.58 170.214 1460.17 171 1456.18 171ZM1449.99 164.844H1455.84C1458.57 164.844 1460.85 164.346 1462.68 163.349C1464.51 162.339 1465.88 160.837 1466.81 158.842C1467.73 156.835 1468.19 154.33 1468.19 151.325C1468.19 148.321 1467.73 145.828 1466.81 143.847C1465.88 141.852 1464.52 140.363 1462.72 139.379C1460.93 138.381 1458.71 137.883 1456.05 137.883H1449.99V164.844ZM1493.24 171.575C1490.28 171.575 1487.73 170.962 1485.58 169.734C1483.45 168.494 1481.81 166.743 1480.66 164.48C1479.51 162.205 1478.93 159.526 1478.93 156.445C1478.93 153.415 1479.51 150.756 1480.66 148.468C1481.82 146.167 1483.44 144.377 1485.53 143.099C1487.61 141.808 1490.06 141.162 1492.87 141.162C1494.69 141.162 1496.4 141.456 1498.01 142.044C1499.63 142.619 1501.07 143.514 1502.31 144.729C1503.56 145.943 1504.54 147.49 1505.26 149.369C1505.97 151.236 1506.33 153.46 1506.33 156.043V158.171H1482.19V153.492H1499.68C1499.67 152.163 1499.38 150.98 1498.82 149.945C1498.25 148.896 1497.47 148.072 1496.46 147.471C1495.46 146.87 1494.3 146.57 1492.97 146.57C1491.55 146.57 1490.3 146.915 1489.23 147.605C1488.15 148.283 1487.32 149.178 1486.72 150.29C1486.13 151.389 1485.83 152.597 1485.81 153.914V157.999C1485.81 159.712 1486.13 161.182 1486.75 162.409C1487.38 163.624 1488.26 164.557 1489.38 165.209C1490.51 165.848 1491.82 166.168 1493.33 166.168C1494.34 166.168 1495.26 166.027 1496.07 165.746C1496.89 165.452 1497.6 165.023 1498.2 164.461C1498.8 163.898 1499.26 163.202 1499.56 162.371L1506.05 163.099C1505.64 164.812 1504.86 166.308 1503.71 167.587C1502.57 168.852 1501.11 169.837 1499.33 170.54C1497.56 171.23 1495.52 171.575 1493.24 171.575ZM1536.17 141.545L1525.68 171H1518.01L1507.52 141.545H1514.92L1521.69 163.425H1522L1528.79 141.545H1536.17ZM1551.51 171.575C1548.56 171.575 1546.01 170.962 1543.86 169.734C1541.73 168.494 1540.08 166.743 1538.93 164.48C1537.78 162.205 1537.21 159.526 1537.21 156.445C1537.21 153.415 1537.78 150.756 1538.93 148.468C1540.1 146.167 1541.72 144.377 1543.8 143.099C1545.89 141.808 1548.34 141.162 1551.15 141.162C1552.96 141.162 1554.68 141.456 1556.29 142.044C1557.91 142.619 1559.34 143.514 1560.58 144.729C1561.84 145.943 1562.82 147.49 1563.54 149.369C1564.25 151.236 1564.61 153.46 1564.61 156.043V158.171H1540.47V153.492H1557.96C1557.94 152.163 1557.66 150.98 1557.09 149.945C1556.53 148.896 1555.74 148.072 1554.73 147.471C1553.74 146.87 1552.57 146.57 1551.24 146.57C1549.83 146.57 1548.58 146.915 1547.5 147.605C1546.43 148.283 1545.59 149.178 1544.99 150.29C1544.4 151.389 1544.1 152.597 1544.09 153.914V157.999C1544.09 159.712 1544.4 161.182 1545.03 162.409C1545.66 163.624 1546.53 164.557 1547.66 165.209C1548.78 165.848 1550.1 166.168 1551.61 166.168C1552.62 166.168 1553.53 166.027 1554.35 165.746C1555.17 165.452 1555.88 165.023 1556.48 164.461C1557.08 163.898 1557.53 163.202 1557.84 162.371L1564.32 163.099C1563.91 164.812 1563.13 166.308 1561.98 167.587C1560.85 168.852 1559.39 169.837 1557.61 170.54C1555.83 171.23 1553.8 171.575 1551.51 171.575ZM1575.92 131.727V171H1568.98V131.727H1575.92ZM1594.41 171.575C1591.53 171.575 1589.04 170.942 1586.93 169.677C1584.82 168.411 1583.19 166.641 1582.02 164.365C1580.87 162.089 1580.3 159.43 1580.3 156.388C1580.3 153.345 1580.87 150.68 1582.02 148.391C1583.19 146.103 1584.82 144.326 1586.93 143.06C1589.04 141.795 1591.53 141.162 1594.41 141.162C1597.29 141.162 1599.78 141.795 1601.89 143.06C1604 144.326 1605.63 146.103 1606.78 148.391C1607.94 150.68 1608.52 153.345 1608.52 156.388C1608.52 159.43 1607.94 162.089 1606.78 164.365C1605.63 166.641 1604 168.411 1601.89 169.677C1599.78 170.942 1597.29 171.575 1594.41 171.575ZM1594.45 166.014C1596.01 166.014 1597.31 165.586 1598.36 164.729C1599.41 163.86 1600.19 162.697 1600.7 161.239C1601.22 159.782 1601.49 158.158 1601.49 156.369C1601.49 154.566 1601.22 152.936 1600.7 151.479C1600.19 150.009 1599.41 148.839 1598.36 147.969C1597.31 147.1 1596.01 146.665 1594.45 146.665C1592.85 146.665 1591.52 147.1 1590.46 147.969C1589.41 148.839 1588.63 150.009 1588.1 151.479C1587.59 152.936 1587.33 154.566 1587.33 156.369C1587.33 158.158 1587.59 159.782 1588.1 161.239C1588.63 162.697 1589.41 163.86 1590.46 164.729C1591.52 165.586 1592.85 166.014 1594.45 166.014ZM1612.92 182.045V141.545H1619.74V146.416H1620.15C1620.5 145.7 1621.01 144.94 1621.66 144.134C1622.31 143.316 1623.19 142.619 1624.31 142.044C1625.42 141.456 1626.84 141.162 1628.56 141.162C1630.84 141.162 1632.89 141.744 1634.72 142.907C1636.56 144.058 1638.02 145.764 1639.09 148.027C1640.18 150.277 1640.72 153.038 1640.72 156.311C1640.72 159.545 1640.19 162.294 1639.13 164.557C1638.07 166.82 1636.62 168.545 1634.8 169.734C1632.97 170.923 1630.9 171.518 1628.58 171.518C1626.9 171.518 1625.5 171.237 1624.38 170.674C1623.27 170.112 1622.38 169.434 1621.7 168.641C1621.03 167.836 1620.52 167.075 1620.15 166.359H1619.86V182.045H1612.92ZM1619.72 156.273C1619.72 158.178 1619.99 159.846 1620.53 161.278C1621.08 162.71 1621.87 163.828 1622.89 164.634C1623.92 165.426 1625.18 165.822 1626.65 165.822C1628.18 165.822 1629.47 165.413 1630.5 164.595C1631.54 163.764 1632.32 162.633 1632.84 161.201C1633.38 159.756 1633.65 158.114 1633.65 156.273C1633.65 154.445 1633.38 152.821 1632.86 151.402C1632.34 149.983 1631.56 148.871 1630.52 148.065C1629.48 147.26 1628.19 146.857 1626.65 146.857C1625.16 146.857 1623.9 147.247 1622.87 148.027C1621.83 148.807 1621.05 149.9 1620.51 151.306C1619.99 152.712 1619.72 154.368 1619.72 156.273Z" fill="#282828"/>
    <path d="M2071.18 171H2057.87V131.727H2071.45C2075.35 131.727 2078.7 132.513 2081.5 134.086C2084.31 135.646 2086.47 137.889 2087.98 140.817C2089.49 143.744 2090.24 147.247 2090.24 151.325C2090.24 155.416 2089.48 158.932 2087.96 161.872C2086.45 164.812 2084.27 167.069 2081.42 168.641C2078.58 170.214 2075.17 171 2071.18 171ZM2064.99 164.844H2070.84C2073.57 164.844 2075.85 164.346 2077.68 163.349C2079.51 162.339 2080.88 160.837 2081.81 158.842C2082.73 156.835 2083.19 154.33 2083.19 151.325C2083.19 148.321 2082.73 145.828 2081.81 143.847C2080.88 141.852 2079.52 140.363 2077.72 139.379C2075.93 138.381 2073.71 137.883 2071.05 137.883H2064.99V164.844ZM2108.24 171.575C2105.28 171.575 2102.73 170.962 2100.58 169.734C2098.45 168.494 2096.81 166.743 2095.66 164.48C2094.51 162.205 2093.93 159.526 2093.93 156.445C2093.93 153.415 2094.51 150.756 2095.66 148.468C2096.82 146.167 2098.44 144.377 2100.53 143.099C2102.61 141.808 2105.06 141.162 2107.87 141.162C2109.69 141.162 2111.4 141.456 2113.01 142.044C2114.63 142.619 2116.07 143.514 2117.31 144.729C2118.56 145.943 2119.54 147.49 2120.26 149.369C2120.97 151.236 2121.33 153.46 2121.33 156.043V158.171H2097.19V153.492H2114.68C2114.67 152.163 2114.38 150.98 2113.82 149.945C2113.25 148.896 2112.47 148.072 2111.46 147.471C2110.46 146.87 2109.3 146.57 2107.97 146.57C2106.55 146.57 2105.3 146.915 2104.23 147.605C2103.15 148.283 2102.32 149.178 2101.72 150.29C2101.13 151.389 2100.83 152.597 2100.81 153.914V157.999C2100.81 159.712 2101.13 161.182 2101.75 162.409C2102.38 163.624 2103.26 164.557 2104.38 165.209C2105.51 165.848 2106.82 166.168 2108.33 166.168C2109.34 166.168 2110.26 166.027 2111.07 165.746C2111.89 165.452 2112.6 165.023 2113.2 164.461C2113.8 163.898 2114.26 163.202 2114.56 162.371L2121.05 163.099C2120.64 164.812 2119.86 166.308 2118.71 167.587C2117.57 168.852 2116.11 169.837 2114.33 170.54C2112.56 171.23 2110.52 171.575 2108.24 171.575ZM2132.65 131.727V171H2125.71V131.727H2132.65ZM2138.29 171V141.545H2145.23V171H2138.29ZM2141.78 137.365C2140.68 137.365 2139.73 137.001 2138.94 136.272C2138.14 135.531 2137.75 134.642 2137.75 133.607C2137.75 132.558 2138.14 131.67 2138.94 130.941C2139.73 130.2 2140.68 129.829 2141.78 129.829C2142.89 129.829 2143.83 130.2 2144.61 130.941C2145.41 131.67 2145.8 132.558 2145.8 133.607C2145.8 134.642 2145.41 135.531 2144.61 136.272C2143.83 137.001 2142.89 137.365 2141.78 137.365ZM2177.18 141.545L2166.69 171H2159.02L2148.53 141.545H2155.93L2162.7 163.425H2163L2169.79 141.545H2177.18ZM2192.52 171.575C2189.56 171.575 2187.01 170.962 2184.87 169.734C2182.73 168.494 2181.09 166.743 2179.94 164.48C2178.79 162.205 2178.21 159.526 2178.21 156.445C2178.21 153.415 2178.79 150.756 2179.94 148.468C2181.1 146.167 2182.72 144.377 2184.81 143.099C2186.89 141.808 2189.34 141.162 2192.15 141.162C2193.97 141.162 2195.68 141.456 2197.29 142.044C2198.92 142.619 2200.35 143.514 2201.59 144.729C2202.84 145.943 2203.82 147.49 2204.54 149.369C2205.26 151.236 2205.61 153.46 2205.61 156.043V158.171H2181.47V153.492H2198.96C2198.95 152.163 2198.66 150.98 2198.1 149.945C2197.53 148.896 2196.75 148.072 2195.74 147.471C2194.74 146.87 2193.58 146.57 2192.25 146.57C2190.83 146.57 2189.58 146.915 2188.51 147.605C2187.44 148.283 2186.6 149.178 2186 150.29C2185.41 151.389 2185.11 152.597 2185.1 153.914V157.999C2185.1 159.712 2185.41 161.182 2186.04 162.409C2186.66 163.624 2187.54 164.557 2188.66 165.209C2189.79 165.848 2191.1 166.168 2192.61 166.168C2193.62 166.168 2194.54 166.027 2195.35 165.746C2196.17 165.452 2196.88 165.023 2197.48 164.461C2198.08 163.898 2198.54 163.202 2198.84 162.371L2205.33 163.099C2204.92 164.812 2204.14 166.308 2202.99 167.587C2201.85 168.852 2200.39 169.837 2198.61 170.54C2196.84 171.23 2194.81 171.575 2192.52 171.575ZM2209.99 171V141.545H2216.72V146.455H2217.02C2217.56 144.754 2218.48 143.444 2219.79 142.523C2221.1 141.59 2222.6 141.124 2224.29 141.124C2224.68 141.124 2225.1 141.143 2225.58 141.181C2226.06 141.207 2226.47 141.251 2226.78 141.315V147.701C2226.49 147.599 2226.02 147.509 2225.39 147.433C2224.76 147.343 2224.15 147.298 2223.56 147.298C2222.3 147.298 2221.16 147.573 2220.15 148.123C2219.15 148.66 2218.37 149.408 2217.79 150.366C2217.22 151.325 2216.93 152.431 2216.93 153.684V171H2209.99Z" fill="#282828"/>
    <path d="M1238.47 599.14C1242.55 602.983 1242.64 609.462 1238.66 613.47L730.382 1125.22C724.127 1131.52 713.432 1127.25 713.316 1118.4L700.116 115.888C700 107.045 710.576 102.338 716.994 108.377L1238.47 599.14Z" fill="#7561FF"/>
    <path d="M1288.87 621.871C1284.81 617.991 1284.76 611.512 1288.76 607.541L1800 100.379C1806.29 94.1376 1816.96 98.5067 1817.03 107.351L1824.39 1109.96C1824.46 1118.8 1813.86 1123.41 1807.47 1117.32L1288.87 621.871Z" fill="#14AE5C"/>
    <path d="M2418.87 621.871C2414.81 617.991 2414.76 611.512 2418.76 607.541L2930 100.379C2936.29 94.1375 2946.96 98.5068 2947.03 107.351L2954.39 1109.96C2954.46 1118.8 2943.86 1123.41 2937.47 1117.32L2418.87 621.871Z" fill="#D9D9D9" fill-opacity="0.45"/>
    <path d="M2368.47 599.14C2372.55 602.983 2372.64 609.462 2368.66 613.47L1860.38 1125.22C1854.13 1131.52 1843.43 1127.25 1843.32 1118.4L1830.12 115.888C1830 107.045 1840.58 102.338 1846.99 108.377L2368.47 599.14Z" fill="#FD933A"/>
    <rect y="559" width="312" height="109" rx="39" fill="#FFCB2F"/>
    <path d="M100.779 609.116H96.2636C96.1348 608.375 95.8973 607.719 95.5512 607.148C95.2051 606.568 94.7745 606.077 94.2593 605.675C93.7442 605.272 93.1566 604.97 92.4965 604.769C91.8445 604.56 91.1402 604.455 90.3836 604.455C89.0394 604.455 87.8481 604.793 86.8097 605.469C85.7714 606.138 84.9584 607.12 84.3708 608.415C83.7832 609.703 83.4894 611.277 83.4894 613.136C83.4894 615.028 83.7832 616.622 84.3708 617.918C84.9665 619.205 85.7794 620.179 86.8097 620.839C87.8481 621.491 89.0354 621.817 90.3715 621.817C91.1121 621.817 91.8043 621.721 92.4482 621.528C93.1002 621.326 93.6838 621.033 94.199 620.646C94.7222 620.26 95.1608 619.785 95.515 619.222C95.8772 618.658 96.1267 618.014 96.2636 617.29L100.779 617.314C100.61 618.489 100.244 619.592 99.6805 620.622C99.1251 621.652 98.3966 622.562 97.4951 623.351C96.5936 624.132 95.5392 624.743 94.3318 625.186C93.1244 625.621 91.7842 625.838 90.3112 625.838C88.1379 625.838 86.198 625.335 84.4916 624.329C82.7851 623.323 81.4409 621.87 80.4589 619.97C79.4769 618.071 78.9859 615.793 78.9859 613.136C78.9859 610.472 79.4809 608.194 80.471 606.303C81.461 604.403 82.8093 602.95 84.5157 601.944C86.2222 600.938 88.154 600.435 90.3112 600.435C91.6876 600.435 92.9674 600.628 94.1507 601.014C95.3339 601.401 96.3883 601.968 97.314 602.717C98.2397 603.457 99.0003 604.367 99.596 605.445C100.2 606.516 100.594 607.739 100.779 609.116ZM108.059 614.634V625.5H103.688V600.773H107.962V610.106H108.18C108.614 609.059 109.286 608.234 110.196 607.631C111.114 607.019 112.281 606.713 113.697 606.713C114.985 606.713 116.108 606.983 117.066 607.522C118.024 608.061 118.764 608.85 119.288 609.888C119.819 610.927 120.084 612.195 120.084 613.692V625.5H115.714V614.368C115.714 613.12 115.392 612.15 114.748 611.458C114.112 610.758 113.218 610.408 112.067 610.408C111.295 610.408 110.602 610.577 109.991 610.915C109.387 611.245 108.912 611.724 108.566 612.352C108.228 612.979 108.059 613.74 108.059 614.634ZM128.876 625.874C127.701 625.874 126.643 625.665 125.701 625.246C124.767 624.82 124.027 624.192 123.479 623.363C122.94 622.534 122.67 621.512 122.67 620.296C122.67 619.25 122.864 618.384 123.25 617.7C123.636 617.016 124.164 616.469 124.832 616.058C125.5 615.648 126.252 615.338 127.089 615.129C127.935 614.911 128.808 614.754 129.709 614.658C130.796 614.545 131.677 614.444 132.354 614.356C133.03 614.259 133.521 614.114 133.827 613.921C134.141 613.72 134.297 613.41 134.297 612.991V612.919C134.297 612.009 134.028 611.305 133.489 610.806C132.949 610.307 132.172 610.058 131.158 610.058C130.088 610.058 129.239 610.291 128.611 610.758C127.991 611.225 127.572 611.776 127.355 612.412L123.274 611.832C123.596 610.705 124.127 609.764 124.868 609.007C125.608 608.242 126.514 607.671 127.584 607.293C128.655 606.906 129.838 606.713 131.134 606.713C132.028 606.713 132.917 606.818 133.802 607.027C134.688 607.236 135.497 607.582 136.229 608.065C136.962 608.54 137.549 609.188 137.992 610.009C138.443 610.83 138.668 611.857 138.668 613.088V625.5H134.467V622.952H134.322C134.056 623.468 133.682 623.951 133.199 624.401C132.724 624.844 132.124 625.202 131.4 625.476C130.683 625.741 129.842 625.874 128.876 625.874ZM130.011 622.663C130.889 622.663 131.649 622.49 132.293 622.143C132.937 621.789 133.432 621.322 133.778 620.743C134.132 620.163 134.31 619.531 134.31 618.847V616.662C134.173 616.775 133.939 616.879 133.609 616.976C133.287 617.072 132.925 617.157 132.523 617.229C132.12 617.302 131.722 617.366 131.327 617.423C130.933 617.479 130.591 617.527 130.301 617.567C129.649 617.656 129.065 617.801 128.55 618.002C128.035 618.203 127.629 618.485 127.331 618.847C127.033 619.201 126.884 619.66 126.884 620.224C126.884 621.029 127.178 621.636 127.766 622.047C128.353 622.457 129.102 622.663 130.011 622.663ZM146.434 600.773V625.5H142.063V600.773H146.434ZM154.299 600.773V625.5H149.928V600.773H154.299ZM166.004 625.862C164.144 625.862 162.539 625.476 161.186 624.703C159.842 623.922 158.808 622.82 158.083 621.395C157.359 619.962 156.997 618.276 156.997 616.336C156.997 614.428 157.359 612.754 158.083 611.313C158.816 609.864 159.838 608.737 161.15 607.933C162.462 607.12 164.004 606.713 165.774 606.713C166.917 606.713 167.996 606.898 169.01 607.268C170.032 607.631 170.934 608.194 171.715 608.959C172.504 609.723 173.123 610.697 173.574 611.881C174.025 613.056 174.25 614.456 174.25 616.082V617.423H159.049V614.477H170.061C170.053 613.639 169.871 612.895 169.517 612.243C169.163 611.583 168.668 611.064 168.032 610.685C167.404 610.307 166.672 610.118 165.835 610.118C164.941 610.118 164.157 610.335 163.48 610.77C162.804 611.196 162.277 611.76 161.899 612.46C161.528 613.152 161.339 613.913 161.331 614.742V617.314C161.331 618.393 161.528 619.318 161.923 620.091C162.317 620.856 162.869 621.443 163.577 621.854C164.285 622.256 165.114 622.457 166.064 622.457C166.7 622.457 167.276 622.369 167.791 622.192C168.306 622.007 168.753 621.737 169.131 621.383C169.509 621.029 169.795 620.59 169.988 620.067L174.069 620.526C173.812 621.604 173.321 622.546 172.596 623.351C171.88 624.148 170.962 624.768 169.843 625.21C168.724 625.645 167.445 625.862 166.004 625.862ZM181.319 614.634V625.5H176.948V606.955H181.125V610.106H181.343C181.769 609.067 182.45 608.242 183.383 607.631C184.325 607.019 185.488 606.713 186.873 606.713C188.152 606.713 189.267 606.987 190.217 607.534C191.175 608.081 191.915 608.874 192.439 609.913C192.97 610.951 193.232 612.211 193.223 613.692V625.5H188.853V614.368C188.853 613.128 188.531 612.158 187.887 611.458C187.251 610.758 186.37 610.408 185.243 610.408C184.478 610.408 183.798 610.577 183.202 610.915C182.615 611.245 182.152 611.724 181.814 612.352C181.484 612.979 181.319 613.74 181.319 614.634ZM204.732 632.841C203.162 632.841 201.814 632.628 200.687 632.201C199.56 631.782 198.655 631.219 197.971 630.511C197.286 629.802 196.812 629.018 196.546 628.156L200.482 627.202C200.659 627.565 200.917 627.923 201.255 628.277C201.593 628.639 202.048 628.937 202.619 629.17C203.199 629.412 203.927 629.533 204.804 629.533C206.044 629.533 207.07 629.231 207.883 628.627C208.696 628.031 209.103 627.049 209.103 625.681V622.168H208.885C208.66 622.618 208.33 623.081 207.895 623.556C207.469 624.031 206.901 624.429 206.193 624.751C205.493 625.073 204.611 625.234 203.549 625.234C202.124 625.234 200.832 624.9 199.673 624.232C198.522 623.556 197.604 622.55 196.92 621.214C196.244 619.87 195.906 618.187 195.906 616.167C195.906 614.13 196.244 612.412 196.92 611.011C197.604 609.603 198.526 608.536 199.685 607.812C200.844 607.079 202.136 606.713 203.561 606.713C204.647 606.713 205.541 606.898 206.241 607.268C206.95 607.631 207.513 608.069 207.932 608.585C208.35 609.092 208.668 609.571 208.885 610.021H209.127V606.955H213.437V625.802C213.437 627.388 213.059 628.7 212.302 629.738C211.546 630.776 210.511 631.553 209.199 632.068C207.887 632.583 206.398 632.841 204.732 632.841ZM204.768 621.805C205.694 621.805 206.483 621.58 207.135 621.129C207.787 620.679 208.282 620.031 208.62 619.185C208.958 618.34 209.127 617.326 209.127 616.143C209.127 614.976 208.958 613.953 208.62 613.076C208.29 612.199 207.799 611.518 207.147 611.036C206.503 610.545 205.71 610.299 204.768 610.299C203.794 610.299 202.981 610.553 202.329 611.06C201.677 611.567 201.186 612.263 200.856 613.148C200.526 614.026 200.361 615.024 200.361 616.143C200.361 617.278 200.526 618.272 200.856 619.125C201.194 619.97 201.689 620.63 202.341 621.105C203.001 621.572 203.81 621.805 204.768 621.805ZM225.127 625.862C223.267 625.862 221.662 625.476 220.309 624.703C218.965 623.922 217.931 622.82 217.206 621.395C216.482 619.962 216.12 618.276 216.12 616.336C216.12 614.428 216.482 612.754 217.206 611.313C217.939 609.864 218.961 608.737 220.273 607.933C221.585 607.12 223.127 606.713 224.897 606.713C226.04 606.713 227.119 606.898 228.133 607.268C229.156 607.631 230.057 608.194 230.838 608.959C231.627 609.723 232.246 610.697 232.697 611.881C233.148 613.056 233.373 614.456 233.373 616.082V617.423H218.172V614.477H229.184C229.176 613.639 228.995 612.895 228.64 612.243C228.286 611.583 227.791 611.064 227.155 610.685C226.527 610.307 225.795 610.118 224.958 610.118C224.064 610.118 223.28 610.335 222.603 610.77C221.927 611.196 221.4 611.76 221.022 612.46C220.651 613.152 220.462 613.913 220.454 614.742V617.314C220.454 618.393 220.651 619.318 221.046 620.091C221.44 620.856 221.992 621.443 222.7 621.854C223.408 622.256 224.237 622.457 225.187 622.457C225.823 622.457 226.399 622.369 226.914 622.192C227.429 622.007 227.876 621.737 228.254 621.383C228.632 621.029 228.918 620.59 229.111 620.067L233.192 620.526C232.935 621.604 232.444 622.546 231.719 623.351C231.003 624.148 230.085 624.768 228.966 625.21C227.848 625.645 226.568 625.862 225.127 625.862Z" fill="#282828"/>
    <rect x="1113" y="559" width="312" height="109" rx="39" fill="#FFCB2F"/>
    <path d="M1204.7 625.5H1196.32V600.773H1204.87C1207.32 600.773 1209.43 601.268 1211.19 602.258C1212.96 603.24 1214.32 604.652 1215.27 606.496C1216.22 608.339 1216.7 610.545 1216.7 613.112C1216.7 615.688 1216.22 617.902 1215.26 619.753C1214.31 621.604 1212.94 623.025 1211.14 624.015C1209.36 625.005 1207.21 625.5 1204.7 625.5ZM1200.8 621.624H1204.48C1206.2 621.624 1207.64 621.31 1208.79 620.683C1209.94 620.047 1210.81 619.101 1211.39 617.845C1211.97 616.581 1212.26 615.004 1212.26 613.112C1212.26 611.221 1211.97 609.651 1211.39 608.403C1210.81 607.148 1209.95 606.21 1208.81 605.59C1207.69 604.962 1206.29 604.648 1204.61 604.648H1200.8V621.624ZM1227.97 625.862C1226.11 625.862 1224.51 625.476 1223.15 624.703C1221.81 623.922 1220.78 622.82 1220.05 621.395C1219.33 619.962 1218.96 618.276 1218.96 616.336C1218.96 614.428 1219.33 612.754 1220.05 611.313C1220.78 609.864 1221.81 608.737 1223.12 607.933C1224.43 607.12 1225.97 606.713 1227.74 606.713C1228.89 606.713 1229.96 606.898 1230.98 607.268C1232 607.631 1232.9 608.194 1233.68 608.959C1234.47 609.723 1235.09 610.697 1235.54 611.881C1235.99 613.056 1236.22 614.456 1236.22 616.082V617.423H1221.02V614.477H1232.03C1232.02 613.639 1231.84 612.895 1231.49 612.243C1231.13 611.583 1230.64 611.064 1230 610.685C1229.37 610.307 1228.64 610.118 1227.8 610.118C1226.91 610.118 1226.12 610.335 1225.45 610.77C1224.77 611.196 1224.24 611.76 1223.87 612.46C1223.5 613.152 1223.31 613.913 1223.3 614.742V617.314C1223.3 618.393 1223.5 619.318 1223.89 620.091C1224.29 620.856 1224.84 621.443 1225.54 621.854C1226.25 622.256 1227.08 622.457 1228.03 622.457C1228.67 622.457 1229.24 622.369 1229.76 622.192C1230.27 622.007 1230.72 621.737 1231.1 621.383C1231.48 621.029 1231.76 620.59 1231.96 620.067L1236.04 620.526C1235.78 621.604 1235.29 622.546 1234.56 623.351C1233.85 624.148 1232.93 624.768 1231.81 625.21C1230.69 625.645 1229.41 625.862 1227.97 625.862ZM1248.31 606.955V610.335H1237.35V606.955H1248.31ZM1240.09 625.5V605.204C1240.09 603.956 1240.34 602.918 1240.86 602.089C1241.38 601.26 1242.08 600.64 1242.96 600.229C1243.84 599.819 1244.81 599.614 1245.88 599.614C1246.64 599.614 1247.31 599.674 1247.9 599.795C1248.49 599.915 1248.92 600.024 1249.2 600.121L1248.33 603.501C1248.15 603.445 1247.91 603.389 1247.63 603.332C1247.35 603.268 1247.04 603.236 1246.69 603.236C1245.88 603.236 1245.3 603.433 1244.96 603.827C1244.63 604.214 1244.47 604.769 1244.47 605.494V625.5H1240.09ZM1250.73 625.5V606.955H1255.1V625.5H1250.73ZM1252.93 604.322C1252.24 604.322 1251.64 604.093 1251.14 603.634C1250.64 603.167 1250.39 602.608 1250.39 601.956C1250.39 601.296 1250.64 600.737 1251.14 600.278C1251.64 599.811 1252.24 599.577 1252.93 599.577C1253.63 599.577 1254.23 599.811 1254.72 600.278C1255.22 600.737 1255.47 601.296 1255.47 601.956C1255.47 602.608 1255.22 603.167 1254.72 603.634C1254.23 604.093 1253.63 604.322 1252.93 604.322ZM1262.97 614.634V625.5H1258.6V606.955H1262.77V610.106H1262.99C1263.42 609.067 1264.1 608.242 1265.03 607.631C1265.97 607.019 1267.14 606.713 1268.52 606.713C1269.8 606.713 1270.92 606.987 1271.87 607.534C1272.82 608.081 1273.56 608.874 1274.09 609.913C1274.62 610.951 1274.88 612.211 1274.87 613.692V625.5H1270.5V614.368C1270.5 613.128 1270.18 612.158 1269.54 611.458C1268.9 610.758 1268.02 610.408 1266.89 610.408C1266.13 610.408 1265.45 610.577 1264.85 610.915C1264.26 611.245 1263.8 611.724 1263.46 612.352C1263.13 612.979 1262.97 613.74 1262.97 614.634ZM1278.32 625.5V606.955H1282.69V625.5H1278.32ZM1280.51 604.322C1279.82 604.322 1279.23 604.093 1278.73 603.634C1278.23 603.167 1277.98 602.608 1277.98 601.956C1277.98 601.296 1278.23 600.737 1278.73 600.278C1279.23 599.811 1279.82 599.577 1280.51 599.577C1281.21 599.577 1281.81 599.811 1282.3 600.278C1282.8 600.737 1283.05 601.296 1283.05 601.956C1283.05 602.608 1282.8 603.167 1282.3 603.634C1281.81 604.093 1281.21 604.322 1280.51 604.322ZM1295.44 606.955V610.335H1284.78V606.955H1295.44ZM1287.41 602.511H1291.78V619.922C1291.78 620.509 1291.87 620.96 1292.05 621.274C1292.23 621.58 1292.48 621.789 1292.77 621.902C1293.07 622.015 1293.4 622.071 1293.76 622.071C1294.04 622.071 1294.29 622.051 1294.51 622.011C1294.75 621.97 1294.92 621.934 1295.04 621.902L1295.78 625.319C1295.55 625.399 1295.21 625.488 1294.78 625.585C1294.35 625.681 1293.83 625.737 1293.21 625.754C1292.11 625.786 1291.13 625.621 1290.25 625.259C1289.37 624.888 1288.68 624.317 1288.16 623.544C1287.65 622.771 1287.4 621.805 1287.41 620.646V602.511ZM1298.1 625.5V606.955H1302.47V625.5H1298.1ZM1300.29 604.322C1299.6 604.322 1299.01 604.093 1298.51 603.634C1298.01 603.167 1297.76 602.608 1297.76 601.956C1297.76 601.296 1298.01 600.737 1298.51 600.278C1299.01 599.811 1299.6 599.577 1300.29 599.577C1301 599.577 1301.59 599.811 1302.08 600.278C1302.58 600.737 1302.83 601.296 1302.83 601.956C1302.83 602.608 1302.58 603.167 1302.08 603.634C1301.59 604.093 1301 604.322 1300.29 604.322ZM1314.05 625.862C1312.24 625.862 1310.67 625.464 1309.34 624.667C1308.02 623.87 1306.98 622.755 1306.25 621.322C1305.53 619.89 1305.17 618.215 1305.17 616.3C1305.17 614.384 1305.53 612.706 1306.25 611.265C1306.98 609.824 1308.02 608.705 1309.34 607.908C1310.67 607.112 1312.24 606.713 1314.05 606.713C1315.86 606.713 1317.43 607.112 1318.76 607.908C1320.09 608.705 1321.12 609.824 1321.84 611.265C1322.57 612.706 1322.94 614.384 1322.94 616.3C1322.94 618.215 1322.57 619.89 1321.84 621.322C1321.12 622.755 1320.09 623.87 1318.76 624.667C1317.43 625.464 1315.86 625.862 1314.05 625.862ZM1314.08 622.361C1315.06 622.361 1315.88 622.091 1316.54 621.552C1317.2 621.004 1317.69 620.272 1318.01 619.354C1318.34 618.437 1318.51 617.415 1318.51 616.288C1318.51 615.153 1318.34 614.126 1318.01 613.209C1317.69 612.283 1317.2 611.547 1316.54 610.999C1315.88 610.452 1315.06 610.178 1314.08 610.178C1313.07 610.178 1312.23 610.452 1311.56 610.999C1310.9 611.547 1310.41 612.283 1310.08 613.209C1309.76 614.126 1309.6 615.153 1309.6 616.288C1309.6 617.415 1309.76 618.437 1310.08 619.354C1310.41 620.272 1310.9 621.004 1311.56 621.552C1312.23 622.091 1313.07 622.361 1314.08 622.361ZM1330.02 614.634V625.5H1325.65V606.955H1329.83V610.106H1330.04C1330.47 609.067 1331.15 608.242 1332.08 607.631C1333.03 607.019 1334.19 606.713 1335.57 606.713C1336.85 606.713 1337.97 606.987 1338.92 607.534C1339.88 608.081 1340.62 608.874 1341.14 609.913C1341.67 610.951 1341.93 612.211 1341.92 613.692V625.5H1337.55V614.368C1337.55 613.128 1337.23 612.158 1336.59 611.458C1335.95 610.758 1335.07 610.408 1333.94 610.408C1333.18 610.408 1332.5 610.577 1331.9 610.915C1331.31 611.245 1330.85 611.724 1330.51 612.352C1330.18 612.979 1330.02 613.74 1330.02 614.634Z" fill="#282828"/>
    <rect x="2228" y="559" width="312" height="109" rx="39" fill="#FFCB2F"/>
    <path d="M2335.63 607.57C2335.51 606.516 2335.04 605.695 2334.2 605.107C2333.37 604.52 2332.29 604.226 2330.97 604.226C2330.03 604.226 2329.23 604.367 2328.56 604.648C2327.89 604.93 2327.38 605.312 2327.03 605.795C2326.68 606.278 2326.49 606.83 2326.49 607.45C2326.49 607.965 2326.6 608.411 2326.84 608.79C2327.08 609.168 2327.4 609.49 2327.81 609.756C2328.22 610.013 2328.68 610.231 2329.18 610.408C2329.68 610.585 2330.18 610.734 2330.69 610.854L2333.01 611.434C2333.94 611.651 2334.84 611.945 2335.7 612.315C2336.57 612.686 2337.34 613.152 2338.03 613.716C2338.72 614.279 2339.27 614.96 2339.67 615.756C2340.07 616.553 2340.27 617.487 2340.27 618.558C2340.27 620.006 2339.9 621.282 2339.16 622.385C2338.42 623.48 2337.35 624.337 2335.95 624.957C2334.56 625.568 2332.87 625.874 2330.89 625.874C2328.97 625.874 2327.3 625.576 2325.88 624.981C2324.47 624.385 2323.37 623.516 2322.57 622.373C2321.79 621.23 2321.36 619.837 2321.29 618.195H2325.7C2325.77 619.057 2326.03 619.773 2326.5 620.344C2326.97 620.916 2327.57 621.343 2328.32 621.624C2329.08 621.906 2329.92 622.047 2330.86 622.047C2331.83 622.047 2332.68 621.902 2333.42 621.612C2334.16 621.314 2334.74 620.904 2335.16 620.381C2335.57 619.849 2335.79 619.23 2335.8 618.521C2335.79 617.877 2335.6 617.346 2335.23 616.928C2334.86 616.501 2334.34 616.147 2333.67 615.865C2333.01 615.575 2332.24 615.318 2331.35 615.092L2328.54 614.368C2326.5 613.845 2324.89 613.052 2323.71 611.989C2322.53 610.919 2321.95 609.498 2321.95 607.727C2321.95 606.27 2322.34 604.995 2323.13 603.9C2323.93 602.805 2325.01 601.956 2326.38 601.352C2327.75 600.741 2329.3 600.435 2331.03 600.435C2332.78 600.435 2334.32 600.741 2335.64 601.352C2336.97 601.956 2338.01 602.797 2338.77 603.876C2339.52 604.946 2339.91 606.178 2339.94 607.57H2335.63ZM2351.16 625.862C2349.35 625.862 2347.78 625.464 2346.46 624.667C2345.13 623.87 2344.1 622.755 2343.36 621.322C2342.64 619.89 2342.28 618.215 2342.28 616.3C2342.28 614.384 2342.64 612.706 2343.36 611.265C2344.1 609.824 2345.13 608.705 2346.46 607.908C2347.78 607.112 2349.35 606.713 2351.16 606.713C2352.98 606.713 2354.55 607.112 2355.87 607.908C2357.2 608.705 2358.23 609.824 2358.95 611.265C2359.68 612.706 2360.05 614.384 2360.05 616.3C2360.05 618.215 2359.68 619.89 2358.95 621.322C2358.23 622.755 2357.2 623.87 2355.87 624.667C2354.55 625.464 2352.98 625.862 2351.16 625.862ZM2351.19 622.361C2352.17 622.361 2352.99 622.091 2353.65 621.552C2354.31 621.004 2354.8 620.272 2355.12 619.354C2355.45 618.437 2355.62 617.415 2355.62 616.288C2355.62 615.153 2355.45 614.126 2355.12 613.209C2354.8 612.283 2354.31 611.547 2353.65 610.999C2352.99 610.452 2352.17 610.178 2351.19 610.178C2350.18 610.178 2349.35 610.452 2348.68 610.999C2348.02 611.547 2347.52 612.283 2347.19 613.209C2346.87 614.126 2346.71 615.153 2346.71 616.288C2346.71 617.415 2346.87 618.437 2347.19 619.354C2347.52 620.272 2348.02 621.004 2348.68 621.552C2349.35 622.091 2350.18 622.361 2351.19 622.361ZM2367.13 600.773V625.5H2362.76V600.773H2367.13ZM2382.45 617.7V606.955H2386.82V625.5H2382.58V622.204H2382.39C2381.97 623.242 2381.28 624.091 2380.32 624.751C2379.37 625.411 2378.2 625.741 2376.81 625.741C2375.59 625.741 2374.52 625.472 2373.58 624.933C2372.66 624.385 2371.93 623.592 2371.41 622.554C2370.89 621.508 2370.63 620.244 2370.63 618.763V606.955H2375V618.087C2375 619.262 2375.32 620.196 2375.96 620.888C2376.61 621.58 2377.45 621.926 2378.5 621.926C2379.14 621.926 2379.77 621.769 2380.37 621.455C2380.97 621.141 2381.47 620.674 2381.85 620.055C2382.25 619.427 2382.45 618.642 2382.45 617.7ZM2399.57 606.955V610.335H2388.91V606.955H2399.57ZM2391.54 602.511H2395.91V619.922C2395.91 620.509 2396 620.96 2396.18 621.274C2396.36 621.58 2396.61 621.789 2396.9 621.902C2397.2 622.015 2397.53 622.071 2397.89 622.071C2398.17 622.071 2398.42 622.051 2398.64 622.011C2398.88 621.97 2399.05 621.934 2399.17 621.902L2399.91 625.319C2399.68 625.399 2399.34 625.488 2398.91 625.585C2398.48 625.681 2397.96 625.737 2397.34 625.754C2396.24 625.786 2395.26 625.621 2394.38 625.259C2393.5 624.888 2392.81 624.317 2392.29 623.544C2391.78 622.771 2391.53 621.805 2391.54 620.646V602.511ZM2402.23 625.5V606.955H2406.6V625.5H2402.23ZM2404.42 604.322C2403.73 604.322 2403.14 604.093 2402.64 603.634C2402.14 603.167 2401.89 602.608 2401.89 601.956C2401.89 601.296 2402.14 600.737 2402.64 600.278C2403.14 599.811 2403.73 599.577 2404.42 599.577C2405.12 599.577 2405.72 599.811 2406.21 600.278C2406.71 600.737 2406.96 601.296 2406.96 601.956C2406.96 602.608 2406.71 603.167 2406.21 603.634C2405.72 604.093 2405.12 604.322 2404.42 604.322ZM2418.18 625.862C2416.37 625.862 2414.8 625.464 2413.47 624.667C2412.14 623.87 2411.11 622.755 2410.38 621.322C2409.66 619.89 2409.3 618.215 2409.3 616.3C2409.3 614.384 2409.66 612.706 2410.38 611.265C2411.11 609.824 2412.14 608.705 2413.47 607.908C2414.8 607.112 2416.37 606.713 2418.18 606.713C2419.99 606.713 2421.56 607.112 2422.89 607.908C2424.22 608.705 2425.25 609.824 2425.97 611.265C2426.7 612.706 2427.07 614.384 2427.07 616.3C2427.07 618.215 2426.7 619.89 2425.97 621.322C2425.25 622.755 2424.22 623.87 2422.89 624.667C2421.56 625.464 2419.99 625.862 2418.18 625.862ZM2418.21 622.361C2419.19 622.361 2420.01 622.091 2420.67 621.552C2421.33 621.004 2421.82 620.272 2422.14 619.354C2422.47 618.437 2422.64 617.415 2422.64 616.288C2422.64 615.153 2422.47 614.126 2422.14 613.209C2421.82 612.283 2421.33 611.547 2420.67 610.999C2420.01 610.452 2419.19 610.178 2418.21 610.178C2417.2 610.178 2416.36 610.452 2415.69 610.999C2415.03 611.547 2414.54 612.283 2414.21 613.209C2413.89 614.126 2413.73 615.153 2413.73 616.288C2413.73 617.415 2413.89 618.437 2414.21 619.354C2414.54 620.272 2415.03 621.004 2415.69 621.552C2416.36 622.091 2417.2 622.361 2418.21 622.361ZM2434.15 614.634V625.5H2429.78V606.955H2433.96V610.106H2434.17C2434.6 609.067 2435.28 608.242 2436.21 607.631C2437.16 607.019 2438.32 606.713 2439.7 606.713C2440.98 606.713 2442.1 606.987 2443.05 607.534C2444.01 608.081 2444.75 608.874 2445.27 609.913C2445.8 610.951 2446.06 612.211 2446.05 613.692V625.5H2441.68V614.368C2441.68 613.128 2441.36 612.158 2440.72 611.458C2440.08 610.758 2439.2 610.408 2438.07 610.408C2437.31 610.408 2436.63 610.577 2436.03 610.915C2435.44 611.245 2434.98 611.724 2434.64 612.352C2434.31 612.979 2434.15 613.74 2434.15 614.634Z" fill="#282828"/>
    <path d="M35.1818 1382H21.8736V1342.73H35.4503C39.3494 1342.73 42.6989 1343.51 45.4986 1345.09C48.3111 1346.65 50.4716 1348.89 51.9801 1351.82C53.4886 1354.74 54.2429 1358.25 54.2429 1362.33C54.2429 1366.42 53.4822 1369.93 51.9609 1372.87C50.4524 1375.81 48.2727 1378.07 45.4219 1379.64C42.5838 1381.21 39.1705 1382 35.1818 1382ZM28.9879 1375.84H34.8366C37.5724 1375.84 39.8544 1375.35 41.6825 1374.35C43.5107 1373.34 44.8849 1371.84 45.8054 1369.84C46.7259 1367.84 47.1861 1365.33 47.1861 1362.33C47.1861 1359.32 46.7259 1356.83 45.8054 1354.85C44.8849 1352.85 43.5234 1351.36 41.7209 1350.38C39.9311 1349.38 37.7067 1348.88 35.0476 1348.88H28.9879V1375.84ZM72.2354 1382.58C69.2823 1382.58 66.7319 1381.96 64.5842 1380.73C62.4492 1379.49 60.8065 1377.74 59.6559 1375.48C58.5053 1373.2 57.93 1370.53 57.93 1367.45C57.93 1364.42 58.5053 1361.76 59.6559 1359.47C60.8192 1357.17 62.4428 1355.38 64.5266 1354.1C66.6104 1352.81 69.0586 1352.16 71.8711 1352.16C73.6864 1352.16 75.3995 1352.46 77.0103 1353.04C78.6339 1353.62 80.0657 1354.51 81.3058 1355.73C82.5586 1356.94 83.543 1358.49 84.2589 1360.37C84.9748 1362.24 85.3327 1364.46 85.3327 1367.04V1369.17H61.19V1364.49H78.6786C78.6658 1363.16 78.3782 1361.98 77.8157 1360.94C77.2532 1359.9 76.467 1359.07 75.457 1358.47C74.4599 1357.87 73.2965 1357.57 71.967 1357.57C70.5479 1357.57 69.3015 1357.91 68.2276 1358.61C67.1538 1359.28 66.3164 1360.18 65.7156 1361.29C65.1275 1362.39 64.8271 1363.6 64.8143 1364.91V1369C64.8143 1370.71 65.1275 1372.18 65.7539 1373.41C66.3803 1374.62 67.256 1375.56 68.381 1376.21C69.506 1376.85 70.8228 1377.17 72.3313 1377.17C73.3413 1377.17 74.2553 1377.03 75.0735 1376.75C75.8917 1376.45 76.6012 1376.02 77.2021 1375.46C77.8029 1374.9 78.2567 1374.2 78.5636 1373.37L85.0451 1374.1C84.636 1375.81 83.8562 1377.31 82.7056 1378.59C81.5678 1379.85 80.1104 1380.84 78.3335 1381.54C76.5565 1382.23 74.5238 1382.58 72.2354 1382.58ZM112.985 1360.33L106.657 1361.02C106.478 1360.38 106.165 1359.78 105.718 1359.22C105.283 1358.66 104.695 1358.2 103.953 1357.86C103.212 1357.51 102.304 1357.34 101.23 1357.34C99.7857 1357.34 98.5712 1357.65 97.5868 1358.28C96.6152 1358.91 96.1358 1359.72 96.1486 1360.71C96.1358 1361.57 96.449 1362.27 97.0882 1362.8C97.7402 1363.34 98.8141 1363.78 100.31 1364.13L105.334 1365.2C108.121 1365.8 110.192 1366.75 111.547 1368.06C112.915 1369.36 113.605 1371.07 113.618 1373.18C113.605 1375.03 113.062 1376.67 111.988 1378.09C110.927 1379.49 109.45 1380.59 107.558 1381.39C105.666 1382.18 103.493 1382.58 101.039 1382.58C97.4334 1382.58 94.5314 1381.82 92.3326 1380.31C90.1337 1378.79 88.8233 1376.68 88.4015 1373.97L95.1706 1373.31C95.4775 1374.64 96.1294 1375.65 97.1266 1376.32C98.1238 1377 99.4213 1377.34 101.019 1377.34C102.669 1377.34 103.992 1377 104.989 1376.32C105.999 1375.65 106.504 1374.81 106.504 1373.81C106.504 1372.97 106.178 1372.27 105.526 1371.72C104.887 1371.17 103.889 1370.75 102.534 1370.46L97.5101 1369.4C94.6848 1368.81 92.5946 1367.82 91.2395 1366.43C89.8844 1365.02 89.2132 1363.25 89.226 1361.1C89.2132 1359.28 89.7054 1357.71 90.7026 1356.38C91.7125 1355.04 93.1124 1354 94.9022 1353.27C96.7047 1352.53 98.7821 1352.16 101.134 1352.16C104.586 1352.16 107.303 1352.9 109.284 1354.37C111.279 1355.84 112.512 1357.83 112.985 1360.33ZM117.842 1382V1352.55H124.784V1382H117.842ZM121.332 1348.37C120.233 1348.37 119.287 1348 118.494 1347.27C117.702 1346.53 117.305 1345.64 117.305 1344.61C117.305 1343.56 117.702 1342.67 118.494 1341.94C119.287 1341.2 120.233 1340.83 121.332 1340.83C122.444 1340.83 123.39 1341.2 124.17 1341.94C124.963 1342.67 125.359 1343.56 125.359 1344.61C125.359 1345.64 124.963 1346.53 124.17 1347.27C123.39 1348 122.444 1348.37 121.332 1348.37ZM143.232 1393.66C140.739 1393.66 138.598 1393.32 136.808 1392.64C135.018 1391.98 133.58 1391.08 132.493 1389.96C131.407 1388.83 130.652 1387.59 130.23 1386.22L136.482 1384.7C136.763 1385.28 137.172 1385.85 137.709 1386.41C138.246 1386.99 138.968 1387.46 139.876 1387.83C140.797 1388.21 141.953 1388.4 143.347 1388.4C145.316 1388.4 146.946 1387.93 148.237 1386.97C149.528 1386.02 150.174 1384.46 150.174 1382.29V1376.71H149.828C149.471 1377.42 148.946 1378.16 148.256 1378.91C147.578 1379.67 146.677 1380.3 145.552 1380.81C144.44 1381.32 143.04 1381.58 141.353 1381.58C139.09 1381.58 137.038 1381.05 135.197 1379.99C133.369 1378.91 131.912 1377.31 130.825 1375.19C129.751 1373.06 129.214 1370.39 129.214 1367.18C129.214 1363.94 129.751 1361.21 130.825 1358.99C131.912 1356.75 133.375 1355.06 135.216 1353.91C137.057 1352.74 139.109 1352.16 141.372 1352.16C143.098 1352.16 144.517 1352.46 145.629 1353.04C146.754 1353.62 147.649 1354.32 148.314 1355.13C148.978 1355.94 149.483 1356.7 149.828 1357.42H150.212V1352.55H157.058V1382.48C157.058 1385 156.457 1387.08 155.255 1388.73C154.054 1390.38 152.411 1391.61 150.327 1392.43C148.243 1393.25 145.878 1393.66 143.232 1393.66ZM143.289 1376.13C144.76 1376.13 146.012 1375.77 147.048 1375.06C148.083 1374.34 148.87 1373.31 149.407 1371.97C149.944 1370.63 150.212 1369.02 150.212 1367.14C150.212 1365.28 149.944 1363.66 149.407 1362.27C148.882 1360.87 148.103 1359.79 147.067 1359.03C146.044 1358.25 144.785 1357.86 143.289 1357.86C141.743 1357.86 140.451 1358.26 139.416 1359.07C138.38 1359.87 137.6 1360.98 137.076 1362.38C136.552 1363.78 136.29 1365.36 136.29 1367.14C136.29 1368.94 136.552 1370.52 137.076 1371.88C137.613 1373.22 138.4 1374.27 139.435 1375.02C140.483 1375.76 141.768 1376.13 143.289 1376.13ZM169.614 1364.74V1382H162.672V1352.55H169.307V1357.55H169.652C170.33 1355.9 171.41 1354.59 172.893 1353.62C174.389 1352.65 176.236 1352.16 178.435 1352.16C180.468 1352.16 182.238 1352.6 183.747 1353.47C185.268 1354.34 186.444 1355.59 187.275 1357.24C188.119 1358.89 188.534 1360.89 188.522 1363.25V1382H181.58V1364.32C181.58 1362.35 181.069 1360.81 180.046 1359.7C179.036 1358.59 177.636 1358.03 175.846 1358.03C174.632 1358.03 173.551 1358.3 172.605 1358.84C171.672 1359.36 170.937 1360.12 170.4 1361.12C169.876 1362.11 169.614 1363.32 169.614 1364.74ZM204.554 1348.69V1342.73H235.888V1348.69H223.749V1382H216.692V1348.69H204.554ZM237.063 1382V1352.55H243.794V1357.45H244.1C244.637 1355.75 245.558 1354.44 246.862 1353.52C248.179 1352.59 249.681 1352.12 251.368 1352.12C251.752 1352.12 252.18 1352.14 252.653 1352.18C253.139 1352.21 253.542 1352.25 253.861 1352.32V1358.7C253.567 1358.6 253.1 1358.51 252.461 1358.43C251.835 1358.34 251.228 1358.3 250.64 1358.3C249.374 1358.3 248.236 1358.57 247.226 1359.12C246.229 1359.66 245.443 1360.41 244.868 1361.37C244.292 1362.33 244.005 1363.43 244.005 1364.68V1382H237.063ZM264.922 1382.59C263.055 1382.59 261.374 1382.26 259.878 1381.6C258.395 1380.92 257.219 1379.92 256.35 1378.61C255.493 1377.29 255.065 1375.67 255.065 1373.74C255.065 1372.07 255.372 1370.7 255.985 1369.61C256.599 1368.53 257.436 1367.66 258.498 1367C259.559 1366.35 260.754 1365.86 262.083 1365.53C263.426 1365.18 264.813 1364.93 266.245 1364.78C267.971 1364.6 269.37 1364.44 270.444 1364.3C271.518 1364.15 272.298 1363.92 272.784 1363.61C273.282 1363.29 273.532 1362.8 273.532 1362.13V1362.02C273.532 1360.57 273.103 1359.46 272.247 1358.66C271.39 1357.87 270.157 1357.47 268.546 1357.47C266.846 1357.47 265.497 1357.84 264.5 1358.59C263.515 1359.33 262.85 1360.2 262.505 1361.21L256.024 1360.29C256.535 1358.5 257.379 1357.01 258.555 1355.81C259.731 1354.59 261.169 1353.68 262.87 1353.08C264.57 1352.47 266.449 1352.16 268.507 1352.16C269.926 1352.16 271.339 1352.33 272.745 1352.66C274.152 1352.99 275.436 1353.54 276.6 1354.31C277.763 1355.06 278.696 1356.09 279.4 1357.4C280.115 1358.7 280.473 1360.33 280.473 1362.29V1382H273.8V1377.95H273.57C273.148 1378.77 272.554 1379.54 271.787 1380.25C271.032 1380.96 270.08 1381.53 268.929 1381.96C267.792 1382.38 266.456 1382.59 264.922 1382.59ZM266.724 1377.49C268.118 1377.49 269.326 1377.22 270.348 1376.67C271.371 1376.11 272.157 1375.37 272.707 1374.44C273.27 1373.52 273.551 1372.52 273.551 1371.43V1367.96C273.333 1368.14 272.963 1368.31 272.439 1368.46C271.927 1368.62 271.352 1368.75 270.713 1368.86C270.074 1368.98 269.441 1369.08 268.814 1369.17C268.188 1369.26 267.645 1369.34 267.184 1369.4C266.149 1369.54 265.222 1369.77 264.404 1370.09C263.586 1370.41 262.94 1370.86 262.467 1371.43C261.994 1372 261.757 1372.73 261.757 1373.62C261.757 1374.9 262.224 1375.86 263.157 1376.52C264.091 1377.17 265.279 1377.49 266.724 1377.49ZM298.801 1382.58C295.861 1382.58 293.336 1381.93 291.227 1380.64C289.13 1379.35 287.513 1377.56 286.375 1375.29C285.25 1373 284.688 1370.37 284.688 1367.39C284.688 1364.4 285.263 1361.76 286.414 1359.47C287.564 1357.17 289.188 1355.38 291.284 1354.1C293.394 1352.81 295.887 1352.16 298.763 1352.16C301.154 1352.16 303.27 1352.6 305.11 1353.49C306.964 1354.35 308.441 1355.59 309.54 1357.19C310.64 1358.77 311.266 1360.62 311.419 1362.75H304.784C304.516 1361.33 303.877 1360.15 302.867 1359.2C301.87 1358.24 300.534 1357.76 298.859 1357.76C297.44 1357.76 296.194 1358.14 295.12 1358.91C294.046 1359.67 293.208 1360.75 292.608 1362.17C292.02 1363.59 291.725 1365.29 291.725 1367.27C291.725 1369.28 292.02 1371.01 292.608 1372.45C293.196 1373.88 294.02 1374.99 295.081 1375.77C296.155 1376.53 297.414 1376.92 298.859 1376.92C299.882 1376.92 300.796 1376.73 301.601 1376.34C302.419 1375.95 303.103 1375.38 303.653 1374.64C304.203 1373.89 304.58 1372.99 304.784 1371.93H311.419C311.253 1374.02 310.64 1375.86 309.578 1377.47C308.517 1379.07 307.073 1380.33 305.245 1381.23C303.417 1382.13 301.269 1382.58 298.801 1382.58ZM321.948 1372.76L321.928 1364.38H323.041L333.626 1352.55H341.737L328.717 1367.04H327.279L321.948 1372.76ZM315.619 1382V1342.73H322.561V1382H315.619ZM334.105 1382L324.517 1368.6L329.196 1363.71L342.409 1382H334.105Z" fill="#282828"/>
    <path d="M2424.18 1382H2410.87V1342.73H2424.45C2428.35 1342.73 2431.7 1343.51 2434.5 1345.09C2437.31 1346.65 2439.47 1348.89 2440.98 1351.82C2442.49 1354.74 2443.24 1358.25 2443.24 1362.33C2443.24 1366.42 2442.48 1369.93 2440.96 1372.87C2439.45 1375.81 2437.27 1378.07 2434.42 1379.64C2431.58 1381.21 2428.17 1382 2424.18 1382ZM2417.99 1375.84H2423.84C2426.57 1375.84 2428.85 1375.35 2430.68 1374.35C2432.51 1373.34 2433.88 1371.84 2434.81 1369.84C2435.73 1367.84 2436.19 1365.33 2436.19 1362.33C2436.19 1359.32 2435.73 1356.83 2434.81 1354.85C2433.88 1352.85 2432.52 1351.36 2430.72 1350.38C2428.93 1349.38 2426.71 1348.88 2424.05 1348.88H2417.99V1375.84ZM2461.24 1382.58C2458.28 1382.58 2455.73 1381.96 2453.58 1380.73C2451.45 1379.49 2449.81 1377.74 2448.66 1375.48C2447.51 1373.2 2446.93 1370.53 2446.93 1367.45C2446.93 1364.42 2447.51 1361.76 2448.66 1359.47C2449.82 1357.17 2451.44 1355.38 2453.53 1354.1C2455.61 1352.81 2458.06 1352.16 2460.87 1352.16C2462.69 1352.16 2464.4 1352.46 2466.01 1353.04C2467.63 1353.62 2469.07 1354.51 2470.31 1355.73C2471.56 1356.94 2472.54 1358.49 2473.26 1360.37C2473.97 1362.24 2474.33 1364.46 2474.33 1367.04V1369.17H2450.19V1364.49H2467.68C2467.67 1363.16 2467.38 1361.98 2466.82 1360.94C2466.25 1359.9 2465.47 1359.07 2464.46 1358.47C2463.46 1357.87 2462.3 1357.57 2460.97 1357.57C2459.55 1357.57 2458.3 1357.91 2457.23 1358.61C2456.15 1359.28 2455.32 1360.18 2454.72 1361.29C2454.13 1362.39 2453.83 1363.6 2453.81 1364.91V1369C2453.81 1370.71 2454.13 1372.18 2454.75 1373.41C2455.38 1374.62 2456.26 1375.56 2457.38 1376.21C2458.51 1376.85 2459.82 1377.17 2461.33 1377.17C2462.34 1377.17 2463.26 1377.03 2464.07 1376.75C2464.89 1376.45 2465.6 1376.02 2466.2 1375.46C2466.8 1374.9 2467.26 1374.2 2467.56 1373.37L2474.05 1374.1C2473.64 1375.81 2472.86 1377.31 2471.71 1378.59C2470.57 1379.85 2469.11 1380.84 2467.33 1381.54C2465.56 1382.23 2463.52 1382.58 2461.24 1382.58ZM2504.17 1352.55L2493.68 1382H2486.01L2475.52 1352.55H2482.92L2489.69 1374.43H2490L2496.79 1352.55H2504.17ZM2519.51 1382.58C2516.56 1382.58 2514.01 1381.96 2511.86 1380.73C2509.73 1379.49 2508.08 1377.74 2506.93 1375.48C2505.78 1373.2 2505.21 1370.53 2505.21 1367.45C2505.21 1364.42 2505.78 1361.76 2506.93 1359.47C2508.1 1357.17 2509.72 1355.38 2511.8 1354.1C2513.89 1352.81 2516.34 1352.16 2519.15 1352.16C2520.96 1352.16 2522.68 1352.46 2524.29 1353.04C2525.91 1353.62 2527.34 1354.51 2528.58 1355.73C2529.84 1356.94 2530.82 1358.49 2531.54 1360.37C2532.25 1362.24 2532.61 1364.46 2532.61 1367.04V1369.17H2508.47V1364.49H2525.96C2525.94 1363.16 2525.66 1361.98 2525.09 1360.94C2524.53 1359.9 2523.74 1359.07 2522.73 1358.47C2521.74 1357.87 2520.57 1357.57 2519.24 1357.57C2517.83 1357.57 2516.58 1357.91 2515.5 1358.61C2514.43 1359.28 2513.59 1360.18 2512.99 1361.29C2512.4 1362.39 2512.1 1363.6 2512.09 1364.91V1369C2512.09 1370.71 2512.4 1372.18 2513.03 1373.41C2513.66 1374.62 2514.53 1375.56 2515.66 1376.21C2516.78 1376.85 2518.1 1377.17 2519.61 1377.17C2520.62 1377.17 2521.53 1377.03 2522.35 1376.75C2523.17 1376.45 2523.88 1376.02 2524.48 1375.46C2525.08 1374.9 2525.53 1374.2 2525.84 1373.37L2532.32 1374.1C2531.91 1375.81 2531.13 1377.31 2529.98 1378.59C2528.85 1379.85 2527.39 1380.84 2525.61 1381.54C2523.83 1382.23 2521.8 1382.58 2519.51 1382.58ZM2543.92 1342.73V1382H2536.98V1342.73H2543.92ZM2562.41 1382.58C2559.53 1382.58 2557.04 1381.94 2554.93 1380.68C2552.82 1379.41 2551.19 1377.64 2550.02 1375.37C2548.87 1373.09 2548.3 1370.43 2548.3 1367.39C2548.3 1364.35 2548.87 1361.68 2550.02 1359.39C2551.19 1357.1 2552.82 1355.33 2554.93 1354.06C2557.04 1352.79 2559.53 1352.16 2562.41 1352.16C2565.29 1352.16 2567.78 1352.79 2569.89 1354.06C2572 1355.33 2573.63 1357.1 2574.78 1359.39C2575.94 1361.68 2576.52 1364.35 2576.52 1367.39C2576.52 1370.43 2575.94 1373.09 2574.78 1375.37C2573.63 1377.64 2572 1379.41 2569.89 1380.68C2567.78 1381.94 2565.29 1382.58 2562.41 1382.58ZM2562.45 1377.01C2564.01 1377.01 2565.31 1376.59 2566.36 1375.73C2567.41 1374.86 2568.19 1373.7 2568.7 1372.24C2569.22 1370.78 2569.49 1369.16 2569.49 1367.37C2569.49 1365.57 2569.22 1363.94 2568.7 1362.48C2568.19 1361.01 2567.41 1359.84 2566.36 1358.97C2565.31 1358.1 2564.01 1357.67 2562.45 1357.67C2560.85 1357.67 2559.52 1358.1 2558.46 1358.97C2557.41 1359.84 2556.63 1361.01 2556.1 1362.48C2555.59 1363.94 2555.33 1365.57 2555.33 1367.37C2555.33 1369.16 2555.59 1370.78 2556.1 1372.24C2556.63 1373.7 2557.41 1374.86 2558.46 1375.73C2559.52 1376.59 2560.85 1377.01 2562.45 1377.01ZM2580.92 1393.05V1352.55H2587.74V1357.42H2588.15C2588.5 1356.7 2589.01 1355.94 2589.66 1355.13C2590.31 1354.32 2591.19 1353.62 2592.31 1353.04C2593.42 1352.46 2594.84 1352.16 2596.56 1352.16C2598.84 1352.16 2600.89 1352.74 2602.72 1353.91C2604.56 1355.06 2606.02 1356.76 2607.09 1359.03C2608.18 1361.28 2608.72 1364.04 2608.72 1367.31C2608.72 1370.55 2608.19 1373.29 2607.13 1375.56C2606.07 1377.82 2604.62 1379.55 2602.8 1380.73C2600.97 1381.92 2598.9 1382.52 2596.58 1382.52C2594.9 1382.52 2593.5 1382.24 2592.38 1381.67C2591.27 1381.11 2590.38 1380.43 2589.7 1379.64C2589.03 1378.84 2588.52 1378.08 2588.15 1377.36H2587.86V1393.05H2580.92ZM2587.72 1367.27C2587.72 1369.18 2587.99 1370.85 2588.53 1372.28C2589.08 1373.71 2589.87 1374.83 2590.89 1375.63C2591.92 1376.43 2593.18 1376.82 2594.65 1376.82C2596.18 1376.82 2597.47 1376.41 2598.5 1375.6C2599.54 1374.76 2600.32 1373.63 2600.84 1372.2C2601.38 1370.76 2601.65 1369.11 2601.65 1367.27C2601.65 1365.44 2601.38 1363.82 2600.86 1362.4C2600.34 1360.98 2599.56 1359.87 2598.52 1359.07C2597.48 1358.26 2596.19 1357.86 2594.65 1357.86C2593.16 1357.86 2591.9 1358.25 2590.87 1359.03C2589.83 1359.81 2589.05 1360.9 2588.51 1362.31C2587.99 1363.71 2587.72 1365.37 2587.72 1367.27ZM2613.17 1382V1352.55H2619.8V1357.55H2620.15C2620.76 1355.86 2621.78 1354.55 2623.2 1353.6C2624.61 1352.64 2626.31 1352.16 2628.28 1352.16C2630.27 1352.16 2631.95 1352.65 2633.32 1353.62C2634.7 1354.58 2635.67 1355.89 2636.24 1357.55H2636.54C2637.19 1355.91 2638.29 1354.61 2639.84 1353.64C2641.4 1352.65 2643.25 1352.16 2645.38 1352.16C2648.09 1352.16 2650.3 1353.02 2652.02 1354.73C2653.73 1356.44 2654.59 1358.94 2654.59 1362.23V1382H2647.63V1363.3C2647.63 1361.48 2647.14 1360.14 2646.17 1359.3C2645.2 1358.44 2644.01 1358.01 2642.6 1358.01C2640.93 1358.01 2639.62 1358.53 2638.67 1359.58C2637.74 1360.62 2637.27 1361.97 2637.27 1363.63V1382H2630.46V1363.02C2630.46 1361.49 2630 1360.28 2629.08 1359.37C2628.17 1358.46 2626.99 1358.01 2625.52 1358.01C2624.52 1358.01 2623.61 1358.27 2622.79 1358.78C2621.97 1359.28 2621.32 1359.99 2620.84 1360.91C2620.35 1361.81 2620.11 1362.87 2620.11 1364.09V1382H2613.17ZM2673.17 1382.58C2670.22 1382.58 2667.67 1381.96 2665.52 1380.73C2663.38 1379.49 2661.74 1377.74 2660.59 1375.48C2659.44 1373.2 2658.86 1370.53 2658.86 1367.45C2658.86 1364.42 2659.44 1361.76 2660.59 1359.47C2661.75 1357.17 2663.38 1355.38 2665.46 1354.1C2667.54 1352.81 2669.99 1352.16 2672.8 1352.16C2674.62 1352.16 2676.33 1352.46 2677.94 1353.04C2679.57 1353.62 2681 1354.51 2682.24 1355.73C2683.49 1356.94 2684.48 1358.49 2685.19 1360.37C2685.91 1362.24 2686.27 1364.46 2686.27 1367.04V1369.17H2662.12V1364.49H2679.61C2679.6 1363.16 2679.31 1361.98 2678.75 1360.94C2678.19 1359.9 2677.4 1359.07 2676.39 1358.47C2675.39 1357.87 2674.23 1357.57 2672.9 1357.57C2671.48 1357.57 2670.24 1357.91 2669.16 1358.61C2668.09 1359.28 2667.25 1360.18 2666.65 1361.29C2666.06 1362.39 2665.76 1363.6 2665.75 1364.91V1369C2665.75 1370.71 2666.06 1372.18 2666.69 1373.41C2667.31 1374.62 2668.19 1375.56 2669.31 1376.21C2670.44 1376.85 2671.76 1377.17 2673.26 1377.17C2674.27 1377.17 2675.19 1377.03 2676.01 1376.75C2676.83 1376.45 2677.53 1376.02 2678.14 1375.46C2678.74 1374.9 2679.19 1374.2 2679.5 1373.37L2685.98 1374.1C2685.57 1375.81 2684.79 1377.31 2683.64 1378.59C2682.5 1379.85 2681.04 1380.84 2679.27 1381.54C2677.49 1382.23 2675.46 1382.58 2673.17 1382.58ZM2697.58 1364.74V1382H2690.64V1352.55H2697.27V1357.55H2697.62C2698.3 1355.9 2699.38 1354.59 2700.86 1353.62C2702.36 1352.65 2704.2 1352.16 2706.4 1352.16C2708.43 1352.16 2710.21 1352.6 2711.71 1353.47C2713.23 1354.34 2714.41 1355.59 2715.24 1357.24C2716.09 1358.89 2716.5 1360.89 2716.49 1363.25V1382H2709.55V1364.32C2709.55 1362.35 2709.04 1360.81 2708.01 1359.7C2707 1358.59 2705.6 1358.03 2703.81 1358.03C2702.6 1358.03 2701.52 1358.3 2700.57 1358.84C2699.64 1359.36 2698.9 1360.12 2698.37 1361.12C2697.84 1362.11 2697.58 1363.32 2697.58 1364.74ZM2736.75 1352.55V1357.91H2719.82V1352.55H2736.75ZM2724 1345.49H2730.94V1373.14C2730.94 1374.07 2731.08 1374.79 2731.36 1375.29C2731.66 1375.77 2732.04 1376.11 2732.52 1376.29C2732.99 1376.46 2733.51 1376.55 2734.09 1376.55C2734.52 1376.55 2734.92 1376.52 2735.28 1376.46C2735.65 1376.39 2735.93 1376.34 2736.12 1376.29L2737.29 1381.71C2736.92 1381.84 2736.39 1381.98 2735.7 1382.13C2735.02 1382.29 2734.19 1382.38 2733.21 1382.4C2731.47 1382.45 2729.9 1382.19 2728.51 1381.62C2727.11 1381.03 2726.01 1380.12 2725.19 1378.89C2724.38 1377.67 2723.99 1376.13 2724 1374.29V1345.49ZM2751.53 1348.69V1342.73H2782.87V1348.69H2770.73V1382H2763.67V1348.69H2751.53ZM2784.04 1382V1352.55H2790.77V1357.45H2791.08C2791.62 1355.75 2792.54 1354.44 2793.84 1353.52C2795.16 1352.59 2796.66 1352.12 2798.35 1352.12C2798.73 1352.12 2799.16 1352.14 2799.63 1352.18C2800.12 1352.21 2800.52 1352.25 2800.84 1352.32V1358.7C2800.55 1358.6 2800.08 1358.51 2799.44 1358.43C2798.82 1358.34 2798.21 1358.3 2797.62 1358.3C2796.35 1358.3 2795.22 1358.57 2794.21 1359.12C2793.21 1359.66 2792.42 1360.41 2791.85 1361.37C2791.27 1362.33 2790.99 1363.43 2790.99 1364.68V1382H2784.04ZM2811.9 1382.59C2810.04 1382.59 2808.35 1382.26 2806.86 1381.6C2805.38 1380.92 2804.2 1379.92 2803.33 1378.61C2802.47 1377.29 2802.05 1375.67 2802.05 1373.74C2802.05 1372.07 2802.35 1370.7 2802.97 1369.61C2803.58 1368.53 2804.42 1367.66 2805.48 1367C2806.54 1366.35 2807.73 1365.86 2809.06 1365.53C2810.41 1365.18 2811.79 1364.93 2813.23 1364.78C2814.95 1364.6 2816.35 1364.44 2817.42 1364.3C2818.5 1364.15 2819.28 1363.92 2819.76 1363.61C2820.26 1363.29 2820.51 1362.8 2820.51 1362.13V1362.02C2820.51 1360.57 2820.08 1359.46 2819.23 1358.66C2818.37 1357.87 2817.14 1357.47 2815.53 1357.47C2813.83 1357.47 2812.48 1357.84 2811.48 1358.59C2810.5 1359.33 2809.83 1360.2 2809.49 1361.21L2803 1360.29C2803.52 1358.5 2804.36 1357.01 2805.54 1355.81C2806.71 1354.59 2808.15 1353.68 2809.85 1353.08C2811.55 1352.47 2813.43 1352.16 2815.49 1352.16C2816.91 1352.16 2818.32 1352.33 2819.73 1352.66C2821.13 1352.99 2822.42 1353.54 2823.58 1354.31C2824.74 1355.06 2825.68 1356.09 2826.38 1357.4C2827.1 1358.7 2827.45 1360.33 2827.45 1362.29V1382H2820.78V1377.95H2820.55C2820.13 1378.77 2819.53 1379.54 2818.77 1380.25C2818.01 1380.96 2817.06 1381.53 2815.91 1381.96C2814.77 1382.38 2813.44 1382.59 2811.9 1382.59ZM2813.7 1377.49C2815.1 1377.49 2816.31 1377.22 2817.33 1376.67C2818.35 1376.11 2819.14 1375.37 2819.69 1374.44C2820.25 1373.52 2820.53 1372.52 2820.53 1371.43V1367.96C2820.31 1368.14 2819.94 1368.31 2819.42 1368.46C2818.91 1368.62 2818.33 1368.75 2817.69 1368.86C2817.05 1368.98 2816.42 1369.08 2815.79 1369.17C2815.17 1369.26 2814.63 1369.34 2814.16 1369.4C2813.13 1369.54 2812.2 1369.77 2811.38 1370.09C2810.57 1370.41 2809.92 1370.86 2809.45 1371.43C2808.97 1372 2808.74 1372.73 2808.74 1373.62C2808.74 1374.9 2809.2 1375.86 2810.14 1376.52C2811.07 1377.17 2812.26 1377.49 2813.7 1377.49ZM2845.78 1382.58C2842.84 1382.58 2840.32 1381.93 2838.21 1380.64C2836.11 1379.35 2834.49 1377.56 2833.36 1375.29C2832.23 1373 2831.67 1370.37 2831.67 1367.39C2831.67 1364.4 2832.24 1361.76 2833.39 1359.47C2834.54 1357.17 2836.17 1355.38 2838.26 1354.1C2840.37 1352.81 2842.87 1352.16 2845.74 1352.16C2848.13 1352.16 2850.25 1352.6 2852.09 1353.49C2853.94 1354.35 2855.42 1355.59 2856.52 1357.19C2857.62 1358.77 2858.25 1360.62 2858.4 1362.75H2851.76C2851.5 1361.33 2850.86 1360.15 2849.85 1359.2C2848.85 1358.24 2847.51 1357.76 2845.84 1357.76C2844.42 1357.76 2843.17 1358.14 2842.1 1358.91C2841.03 1359.67 2840.19 1360.75 2839.59 1362.17C2839 1363.59 2838.71 1365.29 2838.71 1367.27C2838.71 1369.28 2839 1371.01 2839.59 1372.45C2840.18 1373.88 2841 1374.99 2842.06 1375.77C2843.14 1376.53 2844.39 1376.92 2845.84 1376.92C2846.86 1376.92 2847.78 1376.73 2848.58 1376.34C2849.4 1375.95 2850.08 1375.38 2850.63 1374.64C2851.18 1373.89 2851.56 1372.99 2851.76 1371.93H2858.4C2858.23 1374.02 2857.62 1375.86 2856.56 1377.47C2855.5 1379.07 2854.05 1380.33 2852.23 1381.23C2850.4 1382.13 2848.25 1382.58 2845.78 1382.58ZM2868.93 1372.76L2868.91 1364.38H2870.02L2880.61 1352.55H2888.72L2875.7 1367.04H2874.26L2868.93 1372.76ZM2862.6 1382V1342.73H2869.54V1382H2862.6ZM2881.09 1382L2871.5 1368.6L2876.18 1363.71L2889.39 1382H2881.09Z" fill="#282828"/>
    <line x1="0.000856163" y1="1300.5" x2="2336" y2="1304.5" stroke="black"/>
    <line x1="2407" y1="1300.5" x2="2985" y2="1300.5" stroke="black"/>
</svg>
