<?xml version="1.0" encoding="UTF-8"?><svg xmlns="http://www.w3.org/2000/svg" viewBox="0 0 1366 634.14"><g id="a"><path d="M293.05,434.85v136.29s-4.27,0-4.27,0l-.45-136.3c1.49-2.12,3.24-2.14,4.73,0Z" fill="#f6c5d6"/><path d="M1123.37,434.85v136.29s-3.48,0-3.48,0l-.46-136.3c1.31.03,2.63-.02,3.94,0Z" fill="#f6c5d6"/><path d="M499.45,434.85v136.29s-3.48,0-3.48,0l-.46-136.3c1.31.04,2.63-.02,3.94,0Z" fill="#f6c5d6"/><path d="M696.39,434.85v136.29s-3.48,0-3.48,0l-.46-136.3c1.31.05,2.63-.03,3.94,0Z" fill="#f6c5d6"/><path d="M23.63,434.85v136.29s-4.27,0-4.27,0l-.45-136.3c1.57.06,3.15-.03,4.73,0Z" fill="#f5c5d6"/></g><g id="b"><polygon points="639.48 240.76 397.26 -.7 397.26 482.22 639.48 240.76" fill="#f6c5d6"/><polygon points="145.17 240.76 387.38 -.7 387.38 482.22 145.17 240.76" fill="#f6c5d6"/><polygon points="1147.46 240.76 905.24 -.7 905.24 482.22 1147.46 240.76" fill="#f6c5d6"/><polygon points="653.15 240.76 895.37 -.7 895.37 482.22 653.15 240.76" fill="#f6c5d6"/></g><g id="c"><rect x="267.62" y="390.25" width="178.1" height="47.28" rx="10.86" ry="10.86" fill="#fff"/><path d="M10.86,390.25h215.1c5.99,0,10.86,4.86,10.86,10.86v25.57c0,5.99-4.86,10.86-10.86,10.86H10.86c-5.99,0-10.86-4.86-10.86-10.86v-25.57c0-5.99,4.86-10.86,10.86-10.86Z" fill="#fff"/><rect x="475.44" y="390.25" width="167.36" height="47.28" rx="10.86" ry="10.86" fill="#fff"/><path d="M922.63,390.25h136.54c5.99,0,10.86,4.86,10.86,10.86v25.57c0,5.99-4.86,10.86-10.86,10.86h-136.54c-5.99,0-10.86-4.86-10.86-10.86v-25.57c0-5.99,4.86-10.86,10.86-10.86Z" fill="#fff"/><rect x="675.87" y="390.25" width="206.7" height="47.28" rx="10.86" ry="10.86" fill="#fff"/><rect x="1095.84" y="390.25" width="238.56" height="47.28" rx="10.86" ry="10.86" fill="#fff"/><rect x="1095.84" y="387.42" width="235.85" height="47.28" rx="10.86" ry="10.86" fill="#fff"/><rect y="387.42" width="234.14" height="47.28" rx="10.86" ry="10.86" fill="#fff"/><rect x="267.62" y="387.42" width="174.83" height="47.28" rx="10.86" ry="10.86" fill="#fff"/><rect x="475.44" y="387.42" width="164.03" height="47.28" rx="10.86" ry="10.86" fill="#fff"/><rect x="675.87" y="387.42" width="203.68" height="47.28" rx="10.86" ry="10.86" fill="#fff"/><rect x="911.77" y="387.42" width="154.82" height="47.28" rx="10.86" ry="10.86" fill="#fff"/><rect x="267.62" y="390.25" width="178.1" height="47.28" rx="10.86" ry="10.86" fill="#43423d"/><path d="M10.86,390.25h215.1c5.99,0,10.86,4.86,10.86,10.86v25.57c0,5.99-4.86,10.86-10.86,10.86H10.86c-5.99,0-10.86-4.86-10.86-10.86v-25.57c0-5.99,4.86-10.86,10.86-10.86Z" fill="#43423d"/><rect x="475.44" y="390.25" width="167.36" height="47.28" rx="10.86" ry="10.86" fill="#43423d"/><path d="M922.63,390.25h136.54c5.99,0,10.86,4.86,10.86,10.86v25.57c0,5.99-4.86,10.86-10.86,10.86h-136.54c-5.99,0-10.86-4.86-10.86-10.86v-25.57c0-5.99,4.86-10.86,10.86-10.86Z" fill="#43423d"/><rect x="675.87" y="390.25" width="206.7" height="47.28" rx="10.86" ry="10.86" fill="#43423d"/><rect x="1095.84" y="390.25" width="238.56" height="47.28" rx="10.86" ry="10.86" fill="#43423d"/><rect x="1095.84" y="387.42" width="235.85" height="47.28" rx="10.86" ry="10.86" fill="#dc98ae"/><rect y="387.42" width="234.14" height="47.28" rx="10.86" ry="10.86" fill="#fff"/><rect x="267.62" y="387.42" width="174.83" height="47.28" rx="10.86" ry="10.86" fill="#fff"/><rect x="475.44" y="387.42" width="164.03" height="47.28" rx="10.86" ry="10.86" fill="#fff"/><rect x="675.87" y="387.42" width="203.68" height="47.28" rx="10.86" ry="10.86" fill="#fff"/><rect x="911.77" y="387.42" width="154.82" height="47.28" rx="10.86" ry="10.86" fill="#fff"/></g><g id="d"><rect x="1116.67" y="399.29" width="244.31" height="46.79" fill="none"/><path d="M1134.56,412.34c0,.59-.15,1.23-.44,1.92-.29.69-.75,1.37-1.38,2.03-.63.67-1.43,1.2-2.4,1.62-.97.41-2.11.62-3.4.62-.98,0-1.87-.09-2.68-.28-.8-.19-1.53-.48-2.19-.87-.66-.39-1.26-.91-1.81-1.55-.49-.58-.91-1.24-1.26-1.96-.35-.72-.61-1.5-.78-2.32-.17-.82-.26-1.69-.26-2.62,0-1.5.22-2.84.65-4.02.44-1.19,1.06-2.2,1.87-3.04.81-.84,1.76-1.48,2.86-1.92,1.09-.44,2.26-.66,3.49-.66,1.51,0,2.85.3,4.02.9,1.18.6,2.08,1.34,2.7,2.23.63.88.94,1.72.94,2.51,0,.43-.15.81-.46,1.14s-.67.5-1.1.5c-.48,0-.84-.11-1.08-.34s-.51-.62-.81-1.18c-.49-.92-1.07-1.61-1.73-2.07-.67-.46-1.48-.69-2.46-.69-1.55,0-2.78.59-3.7,1.76-.92,1.18-1.38,2.85-1.38,5.01,0,1.45.2,2.65.61,3.61.41.96.98,1.68,1.73,2.15.75.47,1.62.71,2.62.71,1.08,0,2-.27,2.75-.81.75-.54,1.31-1.33,1.69-2.37.16-.49.36-.89.6-1.2.24-.31.62-.46,1.14-.46.45,0,.83.16,1.16.47.32.31.48.7.48,1.17Z" fill="#3e372a"/><path d="M1137.71,416.43v-15.03c0-.69.15-1.22.46-1.57.31-.36.73-.53,1.25-.53s.95.18,1.27.53c.32.35.48.88.48,1.58v15.03c0,.7-.16,1.23-.49,1.58-.33.35-.75.53-1.26.53s-.92-.18-1.24-.55c-.32-.36-.48-.88-.48-1.56Z" fill="#3e372a"/><path d="M1157.73,411.49c0,1.03-.16,1.98-.48,2.86-.32.87-.79,1.62-1.4,2.25-.61.63-1.34,1.11-2.18,1.44-.85.33-1.8.5-2.86.5s-1.99-.17-2.83-.51c-.84-.34-1.56-.82-2.18-1.45-.61-.63-1.08-1.38-1.4-2.23-.32-.86-.48-1.81-.48-2.85s.16-2.01.48-2.88c.32-.87.78-1.62,1.38-2.23.6-.62,1.33-1.09,2.18-1.43.86-.33,1.8-.5,2.83-.5s2,.17,2.86.51c.86.34,1.59.82,2.2,1.45.61.63,1.07,1.37,1.39,2.23s.48,1.82.48,2.86ZM1154.25,411.49c0-1.41-.31-2.51-.93-3.3s-1.46-1.18-2.51-1.18c-.68,0-1.27.18-1.79.53-.52.35-.91.87-1.19,1.56s-.42,1.49-.42,2.4.14,1.7.41,2.37c.27.68.67,1.2,1.18,1.55.51.36,1.12.54,1.81.54,1.05,0,1.89-.4,2.51-1.19.62-.79.93-1.88.93-3.28Z" fill="#3e372a"/><path d="M1171.62,414c0,.96-.23,1.78-.7,2.46-.46.68-1.15,1.2-2.06,1.55-.91.35-2.02.53-3.32.53s-2.31-.19-3.2-.57-1.54-.86-1.97-1.43c-.42-.57-.63-1.14-.63-1.72,0-.38.14-.71.41-.98s.61-.41,1.03-.41c.36,0,.64.09.84.27.2.18.38.43.56.75.36.62.78,1.08,1.28,1.38s1.17.46,2.02.46c.69,0,1.26-.15,1.71-.46.44-.31.67-.66.67-1.06,0-.61-.23-1.05-.69-1.33-.46-.28-1.22-.55-2.28-.8-1.19-.3-2.16-.61-2.91-.93-.75-.33-1.35-.75-1.8-1.29-.45-.53-.67-1.19-.67-1.97,0-.69.21-1.35.62-1.97.42-.62,1.03-1.11,1.83-1.48.81-.37,1.78-.55,2.93-.55.9,0,1.7.09,2.42.28.71.19,1.31.44,1.79.75.48.31.84.66,1.09,1.04.25.38.37.75.37,1.12,0,.4-.13.72-.4.98s-.65.38-1.14.38c-.36,0-.66-.1-.91-.3-.25-.2-.54-.51-.86-.91-.26-.34-.57-.61-.93-.81s-.84-.3-1.45-.3-1.15.13-1.56.4c-.41.27-.62.6-.62,1,0,.36.15.66.46.89.3.23.72.43,1.23.58.52.15,1.23.34,2.13.56,1.08.26,1.95.58,2.63.94.68.36,1.2.79,1.55,1.29.35.5.53,1.06.53,1.7Z" fill="#3e372a"/><path d="M1176.3,402.83c-.48,0-.89-.15-1.24-.44-.34-.3-.51-.72-.51-1.26,0-.49.18-.9.53-1.21.35-.32.76-.48,1.22-.48s.85.14,1.19.43c.35.29.52.71.52,1.26s-.17.95-.51,1.25c-.34.3-.74.45-1.21.45ZM1178.02,406.41v10.02c0,.69-.17,1.22-.5,1.57s-.75.53-1.26.53-.92-.18-1.24-.55c-.32-.36-.48-.88-.48-1.56v-9.92c0-.69.16-1.2.48-1.55.32-.35.73-.52,1.24-.52s.93.17,1.26.52c.33.35.5.83.5,1.45Z" fill="#3e372a"/><path d="M1184.75,406.36v.42c.61-.8,1.28-1.39,2-1.77.72-.38,1.55-.56,2.49-.56s1.73.2,2.45.6c.72.4,1.26.96,1.61,1.69.23.42.38.88.44,1.37.07.49.1,1.12.1,1.88v6.45c0,.69-.16,1.22-.48,1.57s-.73.53-1.24.53-.93-.18-1.26-.55c-.32-.36-.48-.88-.48-1.56v-5.78c0-1.14-.16-2.02-.48-2.62-.32-.6-.95-.91-1.9-.91-.62,0-1.18.18-1.69.55s-.88.87-1.12,1.52c-.17.52-.25,1.48-.25,2.89v4.34c0,.7-.16,1.23-.49,1.58-.33.35-.75.53-1.26.53s-.91-.18-1.23-.55c-.32-.36-.48-.88-.48-1.56v-10.02c0-.66.14-1.15.43-1.48.29-.33.68-.49,1.18-.49.3,0,.58.07.83.22.25.14.44.36.59.65.15.29.22.64.22,1.05Z" fill="#3e372a"/><path d="M1210.05,406.98v10.07c0,1.15-.12,2.14-.37,2.97-.25.83-.64,1.51-1.18,2.06s-1.25.94-2.13,1.21c-.88.26-1.97.39-3.27.39-1.19,0-2.26-.17-3.2-.5-.94-.33-1.66-.77-2.17-1.29-.51-.53-.76-1.07-.76-1.63,0-.42.14-.77.43-1.04.29-.27.63-.4,1.04-.4.51,0,.95.22,1.33.67.19.23.38.46.58.69.2.23.42.43.66.6s.53.29.87.37c.34.08.73.12,1.17.12.9,0,1.59-.12,2.09-.38.5-.25.84-.6,1.04-1.05.2-.45.32-.93.35-1.44.03-.51.06-1.33.08-2.47-.53.74-1.15,1.31-1.85,1.7-.7.39-1.53.58-2.5.58-1.16,0-2.17-.3-3.04-.89-.87-.59-1.53-1.42-2-2.49-.46-1.07-.7-2.3-.7-3.69,0-1.04.14-1.98.43-2.82.28-.84.69-1.54,1.21-2.12.53-.58,1.13-1.01,1.82-1.3s1.44-.44,2.26-.44c.98,0,1.83.19,2.55.56.72.38,1.39.97,2.01,1.77v-.47c0-.6.15-1.07.44-1.4.3-.33.68-.5,1.14-.5.67,0,1.11.22,1.33.65.22.44.33,1.06.33,1.89ZM1200,411.37c0,1.4.31,2.47.92,3.19.61.72,1.41,1.08,2.38,1.08.58,0,1.12-.15,1.63-.46.51-.31.93-.77,1.25-1.4.32-.62.48-1.38.48-2.27,0-1.41-.31-2.51-.93-3.3s-1.44-1.18-2.46-1.18-1.78.38-2.38,1.13c-.6.75-.9,1.82-.9,3.21Z" fill="#3e372a"/><path d="M1234.43,412.63c0,1.12-.29,2.14-.87,3.03-.58.9-1.43,1.6-2.55,2.11s-2.44.76-3.97.76c-1.84,0-3.35-.35-4.54-1.04-.85-.5-1.53-1.17-2.06-2-.53-.83-.79-1.64-.79-2.43,0-.46.16-.85.48-1.17.32-.33.72-.49,1.21-.49.4,0,.73.13,1.01.38.27.25.51.63.7,1.13.24.59.49,1.09.77,1.49.27.4.66.73,1.16.98.5.26,1.16.39,1.97.39,1.12,0,2.03-.26,2.72-.78s1.05-1.17,1.05-1.95c0-.62-.19-1.12-.56-1.5-.38-.38-.86-.68-1.46-.88s-1.39-.42-2.39-.65c-1.34-.31-2.46-.68-3.36-1.1s-1.62-.99-2.15-1.71c-.53-.72-.79-1.62-.79-2.7s.28-1.93.84-2.73c.56-.8,1.37-1.41,2.42-1.83,1.06-.43,2.3-.64,3.73-.64,1.14,0,2.13.14,2.96.42.83.28,1.53.66,2.08,1.13.55.47.95.96,1.21,1.48.25.52.38,1.02.38,1.51,0,.45-.16.85-.48,1.21-.32.36-.71.54-1.19.54-.43,0-.76-.11-.98-.32-.22-.22-.47-.57-.73-1.06-.34-.7-.74-1.25-1.22-1.64-.47-.39-1.24-.59-2.29-.59-.97,0-1.76.21-2.35.64-.6.43-.9.94-.9,1.54,0,.37.1.69.3.96.2.27.48.5.84.7.36.19.72.35,1.08.46.36.11.96.27,1.8.48,1.05.25,2,.52,2.85.81.85.3,1.57.66,2.17,1.08.6.42,1.06.96,1.4,1.61.33.65.5,1.44.5,2.38Z" fill="#3e372a"/><path d="M1247.07,412.34h-6.78c0,.79.17,1.48.48,2.08.31.6.72,1.05,1.23,1.36.51.3,1.08.46,1.69.46.42,0,.79-.05,1.14-.15.34-.1.67-.25,1-.46.32-.21.62-.43.89-.67.27-.24.62-.56,1.05-.96.18-.15.43-.23.76-.23.36,0,.64.1.86.29.22.19.33.47.33.83,0,.31-.12.68-.37,1.1-.25.42-.62.82-1.11,1.21-.5.39-1.12.71-1.87.96s-1.61.38-2.58.38c-2.23,0-3.96-.63-5.19-1.9-1.24-1.27-1.85-2.99-1.85-5.17,0-1.02.15-1.97.46-2.85s.75-1.63,1.33-2.25c.58-.63,1.3-1.11,2.16-1.44.86-.33,1.8-.5,2.84-.5,1.35,0,2.52.29,3.49.86.97.57,1.69,1.31,2.18,2.22.48.91.72,1.83.72,2.77,0,.87-.25,1.44-.75,1.69-.5.26-1.2.39-2.11.39ZM1240.29,410.37h6.28c-.08-1.19-.4-2.07-.96-2.66-.55-.59-1.28-.88-2.19-.88s-1.57.3-2.13.89c-.55.6-.89,1.48-1.01,2.65Z" fill="#3e372a"/><path d="M1264,414c0,.96-.23,1.78-.7,2.46-.46.68-1.15,1.2-2.06,1.55-.91.35-2.02.53-3.32.53s-2.31-.19-3.2-.57-1.54-.86-1.97-1.43c-.42-.57-.63-1.14-.63-1.72,0-.38.14-.71.41-.98s.61-.41,1.03-.41c.36,0,.64.09.84.27.2.18.38.43.56.75.36.62.78,1.08,1.28,1.38s1.17.46,2.02.46c.69,0,1.26-.15,1.71-.46.44-.31.67-.66.67-1.06,0-.61-.23-1.05-.69-1.33-.46-.28-1.22-.55-2.28-.8-1.19-.3-2.16-.61-2.91-.93-.75-.33-1.35-.75-1.8-1.29-.45-.53-.67-1.19-.67-1.97,0-.69.21-1.35.62-1.97.42-.62,1.03-1.11,1.83-1.48.81-.37,1.78-.55,2.93-.55.9,0,1.7.09,2.42.28.71.19,1.31.44,1.79.75.48.31.84.66,1.09,1.04.25.38.37.75.37,1.12,0,.4-.13.72-.4.98s-.65.38-1.14.38c-.36,0-.66-.1-.91-.3-.25-.2-.54-.51-.86-.91-.26-.34-.57-.61-.93-.81s-.84-.3-1.45-.3-1.15.13-1.56.4c-.41.27-.62.6-.62,1,0,.36.15.66.46.89.3.23.72.43,1.23.58.52.15,1.23.34,2.13.56,1.08.26,1.95.58,2.63.94.68.36,1.2.79,1.55,1.29.35.5.53,1.06.53,1.7Z" fill="#3e372a"/><path d="M1278.09,414c0,.96-.23,1.78-.7,2.46-.46.68-1.15,1.2-2.06,1.55-.91.35-2.02.53-3.32.53s-2.31-.19-3.2-.57-1.54-.86-1.97-1.43c-.42-.57-.63-1.14-.63-1.72,0-.38.14-.71.41-.98s.61-.41,1.03-.41c.36,0,.64.09.84.27.2.18.38.43.56.75.36.62.78,1.08,1.28,1.38s1.17.46,2.02.46c.69,0,1.26-.15,1.71-.46.44-.31.67-.66.67-1.06,0-.61-.23-1.05-.69-1.33-.46-.28-1.22-.55-2.28-.8-1.19-.3-2.16-.61-2.91-.93-.75-.33-1.35-.75-1.8-1.29-.45-.53-.67-1.19-.67-1.97,0-.69.21-1.35.62-1.97.42-.62,1.03-1.11,1.83-1.48.81-.37,1.78-.55,2.93-.55.9,0,1.7.09,2.42.28.71.19,1.31.44,1.79.75.48.31.84.66,1.09,1.04.25.38.37.75.37,1.12,0,.4-.13.72-.4.98s-.65.38-1.14.38c-.36,0-.66-.1-.91-.3-.25-.2-.54-.51-.86-.91-.26-.34-.57-.61-.93-.81s-.84-.3-1.45-.3-1.15.13-1.56.4c-.41.27-.62.6-.62,1,0,.36.15.66.46.89.3.23.72.43,1.23.58.52.15,1.23.34,2.13.56,1.08.26,1.95.58,2.63.94.68.36,1.2.79,1.55,1.29.35.5.53,1.06.53,1.7Z" fill="#3e372a"/><path d="M1282.78,402.83c-.48,0-.89-.15-1.24-.44-.34-.3-.51-.72-.51-1.26,0-.49.18-.9.53-1.21.35-.32.76-.48,1.22-.48s.85.14,1.19.43c.35.29.52.71.52,1.26s-.17.95-.51,1.25c-.34.3-.74.45-1.21.45ZM1284.49,406.41v10.02c0,.69-.17,1.22-.5,1.57s-.75.53-1.26.53-.92-.18-1.24-.55c-.32-.36-.48-.88-.48-1.56v-9.92c0-.69.16-1.2.48-1.55.32-.35.73-.52,1.24-.52s.93.17,1.26.52c.33.35.5.83.5,1.45Z" fill="#3e372a"/><path d="M1301.05,411.49c0,1.03-.16,1.98-.48,2.86-.32.87-.79,1.62-1.4,2.25-.61.63-1.34,1.11-2.18,1.44-.85.33-1.8.5-2.86.5s-1.99-.17-2.83-.51c-.84-.34-1.56-.82-2.18-1.45-.61-.63-1.08-1.38-1.4-2.23-.32-.86-.48-1.81-.48-2.85s.16-2.01.48-2.88c.32-.87.78-1.62,1.38-2.23.6-.62,1.33-1.09,2.18-1.43.86-.33,1.8-.5,2.83-.5s2,.17,2.86.51c.86.34,1.59.82,2.2,1.45.61.63,1.07,1.37,1.39,2.23s.48,1.82.48,2.86ZM1297.57,411.49c0-1.41-.31-2.51-.93-3.3s-1.46-1.18-2.51-1.18c-.68,0-1.27.18-1.79.53-.52.35-.91.87-1.19,1.56s-.42,1.49-.42,2.4.14,1.7.41,2.37c.27.68.67,1.2,1.18,1.55.51.36,1.12.54,1.81.54,1.05,0,1.89-.4,2.51-1.19.62-.79.93-1.88.93-3.28Z" fill="#3e372a"/><path d="M1306.92,406.36v.42c.61-.8,1.28-1.39,2-1.77.72-.38,1.55-.56,2.49-.56s1.73.2,2.45.6c.72.4,1.26.96,1.61,1.69.23.42.38.88.44,1.37.07.49.1,1.12.1,1.88v6.45c0,.69-.16,1.22-.48,1.57s-.73.53-1.24.53-.93-.18-1.26-.55c-.32-.36-.48-.88-.48-1.56v-5.78c0-1.14-.16-2.02-.48-2.62-.32-.6-.95-.91-1.9-.91-.62,0-1.18.18-1.69.55s-.88.87-1.12,1.52c-.17.52-.25,1.48-.25,2.89v4.34c0,.7-.16,1.23-.49,1.58-.33.35-.75.53-1.26.53s-.91-.18-1.23-.55c-.32-.36-.48-.88-.48-1.56v-10.02c0-.66.14-1.15.43-1.48.29-.33.68-.49,1.18-.49.3,0,.58.07.83.22.25.14.44.36.59.65.15.29.22.64.22,1.05Z" fill="#3e372a"/><rect x="29.91" y="398.58" width="195.29" height="46.79" fill="none"/><path d="M37.01,409.55h-1.32v5.98c0,.79-.17,1.37-.52,1.74-.35.37-.8.56-1.36.56-.6,0-1.07-.19-1.4-.58-.33-.39-.5-.96-.5-1.71v-14.32c0-.81.18-1.4.55-1.76.36-.36.95-.55,1.76-.55h6.13c.85,0,1.57.04,2.17.11.6.07,1.14.22,1.62.44.58.25,1.1.6,1.55,1.05s.79.99,1.02,1.59c.23.6.35,1.25.35,1.92,0,1.39-.39,2.5-1.17,3.33-.78.83-1.97,1.42-3.56,1.76.67.36,1.31.88,1.92,1.57.61.69,1.15,1.43,1.63,2.22.48.78.85,1.49,1.12,2.12.27.63.4,1.06.4,1.3s-.08.49-.23.73-.37.43-.64.57-.58.21-.94.21c-.42,0-.78-.1-1.07-.3-.29-.2-.54-.45-.74-.76s-.49-.75-.84-1.35l-1.51-2.51c-.54-.92-1.03-1.62-1.45-2.11s-.86-.81-1.3-.99-.99-.27-1.66-.27ZM39.17,401.73h-3.48v5.12h3.38c.91,0,1.67-.08,2.29-.23.62-.16,1.09-.42,1.42-.8.33-.38.49-.9.49-1.56,0-.52-.13-.97-.39-1.36s-.63-.69-1.09-.88c-.44-.19-1.31-.28-2.6-.28Z" fill="#3e372a"/><path d="M59.43,411.63h-6.78c0,.79.17,1.48.48,2.08.31.6.72,1.05,1.23,1.36s1.08.46,1.69.46c.41,0,.79-.05,1.14-.15.34-.1.67-.25,1-.46.32-.21.62-.43.89-.67.27-.24.62-.56,1.05-.96.18-.15.43-.23.76-.23.36,0,.64.1.86.29.22.2.33.47.33.83,0,.31-.12.68-.37,1.1s-.62.82-1.11,1.21c-.5.38-1.12.7-1.87.96s-1.61.38-2.58.38c-2.23,0-3.96-.63-5.19-1.9s-1.85-2.99-1.85-5.17c0-1.02.15-1.97.46-2.85s.75-1.63,1.33-2.25c.58-.63,1.3-1.11,2.16-1.44.85-.33,1.8-.5,2.84-.5,1.35,0,2.52.29,3.48.86s1.69,1.31,2.18,2.21c.48.91.72,1.83.72,2.77,0,.87-.25,1.44-.75,1.7-.5.26-1.2.39-2.11.39ZM52.65,409.66h6.28c-.08-1.18-.4-2.07-.96-2.66-.55-.59-1.28-.88-2.19-.88s-1.57.3-2.13.9-.89,1.48-1.01,2.65Z" fill="#3e372a"/><path d="M76.37,413.29c0,.96-.23,1.78-.7,2.46-.47.68-1.15,1.2-2.06,1.55-.91.35-2.02.53-3.32.53s-2.31-.19-3.2-.57-1.54-.86-1.97-1.43-.63-1.14-.63-1.72c0-.38.14-.71.41-.98.27-.27.61-.41,1.03-.41.36,0,.64.09.84.27s.38.43.56.75c.36.62.78,1.08,1.28,1.38s1.17.46,2.02.46c.69,0,1.26-.15,1.71-.46.44-.31.67-.66.67-1.06,0-.61-.23-1.05-.69-1.33s-1.22-.55-2.28-.8c-1.19-.3-2.16-.61-2.91-.93-.75-.33-1.35-.76-1.8-1.29s-.67-1.19-.67-1.97c0-.69.21-1.35.62-1.97.41-.62,1.03-1.11,1.83-1.48s1.78-.55,2.93-.55c.9,0,1.7.09,2.42.28.72.19,1.31.44,1.79.75.48.31.84.66,1.09,1.04s.37.75.37,1.12c0,.4-.13.72-.4.98s-.65.38-1.14.38c-.36,0-.66-.1-.91-.3s-.54-.51-.86-.91c-.26-.34-.57-.61-.93-.81s-.84-.3-1.45-.3-1.15.13-1.56.4-.62.6-.62,1c0,.36.15.66.46.9.3.23.72.42,1.23.58s1.23.34,2.13.56c1.07.26,1.95.58,2.63.94.68.36,1.2.79,1.55,1.29s.53,1.06.53,1.69Z" fill="#3e372a"/><path d="M82.5,405.67v.42c.65-.8,1.33-1.39,2.03-1.77.7-.38,1.5-.57,2.39-.57,1.07,0,2.05.28,2.95.83.9.55,1.61,1.35,2.13,2.41.52,1.06.78,2.31.78,3.76,0,1.07-.15,2.05-.45,2.94-.3.89-.71,1.64-1.24,2.25-.52.6-1.14,1.07-1.86,1.4-.72.33-1.48.49-2.3.49-.99,0-1.82-.2-2.49-.6-.67-.4-1.31-.98-1.92-1.75v5.21c0,1.52-.55,2.29-1.66,2.29-.65,0-1.08-.2-1.29-.59s-.32-.97-.32-1.72v-14.96c0-.66.14-1.15.43-1.48.29-.33.68-.49,1.18-.49s.89.17,1.2.5c.31.33.46.81.46,1.44ZM89.29,410.71c0-.91-.14-1.7-.42-2.35-.28-.66-.67-1.16-1.16-1.51-.5-.35-1.04-.53-1.64-.53-.96,0-1.76.38-2.42,1.13-.66.75-.98,1.86-.98,3.33,0,1.38.33,2.45.98,3.22.65.77,1.46,1.15,2.42,1.15.58,0,1.11-.17,1.6-.5.49-.33.88-.84,1.18-1.5.3-.67.44-1.48.44-2.42Z" fill="#3e372a"/><path d="M108.52,410.78c0,1.03-.16,1.99-.48,2.86-.32.87-.79,1.62-1.4,2.25-.61.63-1.34,1.11-2.18,1.44-.85.33-1.8.5-2.86.5s-1.99-.17-2.83-.51c-.84-.34-1.56-.82-2.18-1.45-.61-.63-1.08-1.38-1.4-2.23-.32-.86-.48-1.81-.48-2.85s.16-2.01.48-2.88c.32-.87.78-1.62,1.38-2.23.6-.62,1.33-1.09,2.18-1.43.85-.33,1.8-.5,2.83-.5s2,.17,2.86.51c.85.34,1.59.82,2.2,1.45.61.63,1.07,1.37,1.39,2.23s.48,1.82.48,2.86ZM105.04,410.78c0-1.41-.31-2.51-.93-3.3s-1.46-1.18-2.51-1.18c-.68,0-1.27.18-1.79.53-.52.35-.91.87-1.19,1.55s-.42,1.49-.42,2.4.14,1.7.41,2.37c.27.68.67,1.2,1.18,1.56.51.36,1.12.54,1.81.54,1.05,0,1.89-.4,2.51-1.19.62-.79.93-1.89.93-3.28Z" fill="#3e372a"/><path d="M114.4,405.65v.42c.61-.8,1.28-1.39,2-1.77.72-.38,1.56-.57,2.49-.57s1.73.2,2.45.6c.72.4,1.26.96,1.61,1.69.23.42.38.88.44,1.37.07.49.1,1.12.1,1.88v6.45c0,.69-.16,1.22-.48,1.57s-.73.53-1.24.53-.94-.18-1.26-.55c-.32-.36-.48-.88-.48-1.56v-5.78c0-1.14-.16-2.02-.48-2.62-.32-.61-.95-.91-1.9-.91-.62,0-1.18.18-1.69.55s-.88.87-1.12,1.52c-.17.52-.25,1.48-.25,2.89v4.34c0,.7-.16,1.23-.49,1.58-.33.35-.75.53-1.26.53s-.91-.18-1.23-.55c-.32-.36-.48-.88-.48-1.56v-10.02c0-.66.14-1.15.43-1.48.29-.33.68-.49,1.18-.49.3,0,.58.07.83.22.25.14.44.36.59.65.15.29.22.64.22,1.05Z" fill="#3e372a"/><path d="M138.12,413.29c0,.96-.23,1.78-.7,2.46-.47.68-1.15,1.2-2.06,1.55-.91.35-2.02.53-3.32.53s-2.31-.19-3.2-.57-1.54-.86-1.97-1.43-.63-1.14-.63-1.72c0-.38.14-.71.41-.98.27-.27.61-.41,1.03-.41.36,0,.64.09.84.27s.38.43.56.75c.36.62.78,1.08,1.28,1.38s1.17.46,2.02.46c.69,0,1.26-.15,1.71-.46.44-.31.67-.66.67-1.06,0-.61-.23-1.05-.69-1.33s-1.22-.55-2.28-.8c-1.19-.3-2.16-.61-2.91-.93-.75-.33-1.35-.76-1.8-1.29s-.67-1.19-.67-1.97c0-.69.21-1.35.62-1.97.41-.62,1.03-1.11,1.83-1.48s1.78-.55,2.93-.55c.9,0,1.7.09,2.42.28.72.19,1.31.44,1.79.75.48.31.84.66,1.09,1.04s.37.75.37,1.12c0,.4-.13.72-.4.98s-.65.38-1.14.38c-.36,0-.66-.1-.91-.3s-.54-.51-.86-.91c-.26-.34-.57-.61-.93-.81s-.84-.3-1.45-.3-1.15.13-1.56.4-.62.6-.62,1c0,.36.15.66.46.9.3.23.72.42,1.23.58s1.23.34,2.13.56c1.07.26,1.95.58,2.63.94.68.36,1.2.79,1.55,1.29s.53,1.06.53,1.69Z" fill="#3e372a"/><path d="M142.8,402.12c-.48,0-.9-.15-1.24-.44-.34-.3-.51-.71-.51-1.26,0-.49.18-.89.53-1.21s.76-.48,1.23-.48.85.14,1.19.43c.35.29.52.71.52,1.26s-.17.95-.51,1.25c-.34.3-.74.45-1.21.45ZM144.51,405.7v10.02c0,.69-.17,1.22-.5,1.57s-.75.53-1.26.53-.92-.18-1.24-.55c-.32-.36-.48-.88-.48-1.56v-9.92c0-.69.16-1.2.48-1.55.32-.35.73-.52,1.24-.52s.93.17,1.26.52c.33.35.5.83.5,1.45Z" fill="#3e372a"/><path d="M151.29,400.56v5.29c.65-.68,1.32-1.2,1.99-1.55.68-.36,1.52-.54,2.51-.54,1.15,0,2.16.27,3.03.82s1.54,1.34,2.02,2.37c.48,1.04.72,2.27.72,3.69,0,1.05-.13,2.01-.4,2.89s-.65,1.64-1.16,2.28c-.51.64-1.12,1.14-1.85,1.49-.72.35-1.52.53-2.39.53-.53,0-1.03-.06-1.5-.19s-.87-.29-1.2-.5c-.33-.21-.61-.42-.84-.64-.23-.22-.54-.55-.92-.99v.34c0,.65-.16,1.14-.47,1.48-.31.33-.71.5-1.19.5s-.88-.17-1.17-.5c-.29-.33-.44-.83-.44-1.48v-15.13c0-.7.14-1.23.43-1.59.28-.36.68-.54,1.19-.54.53,0,.94.17,1.23.51s.43.83.43,1.47ZM151.46,410.85c0,1.38.32,2.44.95,3.18.63.74,1.46,1.11,2.48,1.11.87,0,1.62-.38,2.25-1.14.63-.76.95-1.84.95-3.26,0-.91-.13-1.7-.39-2.36s-.63-1.17-1.12-1.53c-.48-.36-1.05-.54-1.69-.54s-1.25.18-1.76.54c-.52.36-.92.88-1.22,1.56-.3.68-.44,1.49-.44,2.43Z" fill="#3e372a"/><path d="M166.1,402.12c-.48,0-.9-.15-1.24-.44-.34-.3-.51-.71-.51-1.26,0-.49.18-.89.53-1.21s.76-.48,1.23-.48.85.14,1.19.43c.35.29.52.71.52,1.26s-.17.95-.51,1.25c-.34.3-.74.45-1.21.45ZM167.81,405.7v10.02c0,.69-.17,1.22-.5,1.57s-.75.53-1.26.53-.92-.18-1.24-.55c-.32-.36-.48-.88-.48-1.56v-9.92c0-.69.16-1.2.48-1.55.32-.35.73-.52,1.24-.52s.93.17,1.26.52c.33.35.5.83.5,1.45Z" fill="#3e372a"/><path d="M171.39,415.72v-15.03c0-.69.15-1.22.46-1.57s.73-.53,1.25-.53.95.18,1.27.53c.32.35.48.88.48,1.58v15.03c0,.7-.16,1.23-.49,1.58-.33.35-.75.53-1.26.53s-.92-.18-1.24-.55c-.32-.36-.48-.88-.48-1.56Z" fill="#3e372a"/><path d="M180.19,402.12c-.48,0-.9-.15-1.24-.44-.34-.3-.51-.71-.51-1.26,0-.49.18-.89.53-1.21s.76-.48,1.23-.48.85.14,1.19.43c.35.29.52.71.52,1.26s-.17.95-.51,1.25c-.34.3-.74.45-1.21.45ZM181.9,405.7v10.02c0,.69-.17,1.22-.5,1.57s-.75.53-1.26.53-.92-.18-1.24-.55c-.32-.36-.48-.88-.48-1.56v-9.92c0-.69.16-1.2.48-1.55.32-.35.73-.52,1.24-.52s.93.17,1.26.52c.33.35.5.83.5,1.45Z" fill="#3e372a"/><path d="M185.67,404.04h.38v-2.08c0-.56.01-1,.04-1.31s.11-.59.25-.82c.14-.24.33-.43.58-.58.25-.15.54-.22.85-.22.44,0,.84.17,1.19.5.24.22.39.49.45.81s.1.77.1,1.35v2.36h1.27c.49,0,.87.12,1.12.35.26.23.39.53.39.89,0,.47-.18.79-.55.98-.37.19-.9.28-1.58.28h-.65v6.37c0,.54.02.96.06,1.25s.14.53.3.71c.17.18.43.27.81.27.2,0,.48-.04.83-.11.35-.07.62-.11.81-.11.28,0,.53.11.76.34.22.22.34.5.34.83,0,.56-.3.99-.91,1.28-.61.3-1.49.44-2.63.44-1.08,0-1.9-.18-2.46-.55-.56-.36-.92-.87-1.1-1.51-.17-.64-.26-1.5-.26-2.58v-6.65h-.46c-.5,0-.88-.12-1.14-.36-.26-.24-.39-.54-.39-.9s.14-.66.41-.89c.27-.23.67-.35,1.2-.35Z" fill="#3e372a"/><path d="M197.88,418.26l.32-.77-4.27-10.74c-.26-.62-.39-1.07-.39-1.35,0-.3.08-.57.23-.83s.36-.46.63-.61.54-.23.83-.23c.5,0,.88.16,1.13.48s.48.77.67,1.36l2.93,8.53,2.78-7.93c.22-.64.42-1.15.6-1.51.18-.36.37-.61.56-.74s.48-.19.84-.19c.26,0,.51.07.76.21s.43.33.56.56c.13.24.2.49.2.75-.03.16-.09.39-.17.69-.08.3-.17.6-.28.9l-4.52,11.83c-.39,1.04-.77,1.86-1.14,2.45-.37.59-.87,1.05-1.48,1.37s-1.44.48-2.48.48-1.78-.11-2.29-.33c-.51-.22-.76-.62-.76-1.21,0-.4.12-.7.36-.92s.6-.32,1.07-.32c.19,0,.37.03.55.08.22.05.41.08.57.08.4,0,.71-.06.94-.18.23-.12.43-.32.62-.62s.39-.72.63-1.29Z" fill="#3e372a"/><rect x="299.31" y="400.56" width="195.29" height="46.79" fill="none"/><path d="M303.67,400.87h4.91c1.28,0,2.37.12,3.29.36.91.24,1.74.68,2.49,1.33,1.94,1.66,2.91,4.18,2.91,7.57,0,1.12-.1,2.14-.29,3.06-.19.92-.5,1.75-.9,2.5-.41.74-.93,1.4-1.56,1.99-.5.45-1.05.81-1.64,1.08-.59.27-1.23.46-1.91.57-.68.11-1.45.17-2.3.17h-4.91c-.69,0-1.2-.1-1.55-.31-.35-.21-.57-.5-.68-.88-.11-.38-.16-.87-.16-1.47v-13.65c0-.81.18-1.4.55-1.76.36-.36.95-.55,1.76-.55ZM305.13,403.86v12.63h2.86c.63,0,1.12-.02,1.47-.05.36-.03.72-.12,1.1-.25.38-.13.71-.33.99-.57,1.26-1.07,1.89-2.9,1.89-5.51,0-1.84-.28-3.21-.83-4.13s-1.24-1.5-2.05-1.75c-.81-.25-1.79-.38-2.95-.38h-2.49Z" fill="#3e372a"/><path d="M322.1,404.1c-.48,0-.9-.15-1.24-.44-.34-.3-.51-.71-.51-1.26,0-.49.18-.89.53-1.21s.76-.48,1.23-.48.85.14,1.19.43c.35.29.52.71.52,1.26s-.17.95-.51,1.25c-.34.3-.74.45-1.21.45ZM323.81,407.68v10.02c0,.69-.17,1.22-.5,1.57s-.75.53-1.26.53-.92-.18-1.24-.55c-.32-.36-.48-.88-.48-1.56v-9.92c0-.69.16-1.2.48-1.55.32-.35.73-.52,1.24-.52s.93.17,1.26.52c.33.35.5.83.5,1.45Z" fill="#3e372a"/><path d="M329.84,407.87l2.81,7.87,3.02-8.21c.24-.66.47-1.13.7-1.4.23-.28.58-.41,1.04-.41.44,0,.81.15,1.12.44.31.3.46.64.46,1.03,0,.15-.03.33-.08.53s-.12.39-.19.57-.15.38-.25.61l-3.33,8.25c-.09.24-.21.54-.36.9-.15.36-.31.67-.5.93-.18.26-.41.46-.67.6-.27.14-.59.22-.97.22-.49,0-.88-.11-1.17-.34-.29-.22-.51-.47-.65-.74s-.37-.79-.7-1.58l-3.3-8.16c-.08-.2-.15-.41-.23-.61s-.15-.41-.2-.62c-.06-.21-.08-.39-.08-.55,0-.24.07-.47.22-.7.14-.23.34-.42.6-.57.25-.15.53-.22.83-.22.58,0,.97.17,1.19.5s.46.88.72,1.66Z" fill="#3e372a"/><path d="M350.81,413.61h-6.78c0,.79.17,1.48.48,2.08.31.6.72,1.05,1.23,1.36s1.08.46,1.69.46c.41,0,.79-.05,1.14-.15.34-.1.67-.25,1-.46.32-.21.62-.43.89-.67.27-.24.62-.56,1.05-.96.18-.15.43-.23.76-.23.36,0,.64.1.86.29.22.2.33.47.33.83,0,.31-.12.68-.37,1.1s-.62.82-1.11,1.21c-.5.38-1.12.7-1.87.96s-1.61.38-2.58.38c-2.23,0-3.96-.63-5.19-1.9s-1.85-2.99-1.85-5.17c0-1.02.15-1.97.46-2.85s.75-1.63,1.33-2.25c.58-.63,1.3-1.11,2.16-1.44.85-.33,1.8-.5,2.84-.5,1.35,0,2.52.29,3.48.86s1.69,1.31,2.18,2.21c.48.91.72,1.83.72,2.77,0,.87-.25,1.44-.75,1.7-.5.26-1.2.39-2.11.39ZM344.03,411.64h6.28c-.08-1.18-.4-2.07-.96-2.66-.55-.59-1.28-.88-2.19-.88s-1.57.3-2.13.9-.89,1.48-1.01,2.65Z" fill="#3e372a"/><path d="M360.03,414.8v2.89c0,.7-.17,1.23-.5,1.58-.33.35-.75.53-1.26.53s-.91-.18-1.23-.53-.48-.88-.48-1.57v-9.65c0-1.56.56-2.34,1.69-2.34.58,0,.99.18,1.24.55.25.36.39.9.42,1.61.41-.71.84-1.25,1.28-1.61.44-.36,1.02-.55,1.75-.55s1.43.18,2.12.55c.69.36,1.03.85,1.03,1.45,0,.42-.15.77-.44,1.05-.29.27-.61.41-.95.41-.13,0-.43-.08-.92-.23-.49-.16-.92-.24-1.29-.24-.51,0-.92.13-1.24.4s-.57.66-.75,1.19c-.18.53-.3,1.15-.37,1.87s-.1,1.61-.1,2.65Z" fill="#3e372a"/><path d="M378.49,415.27c0,.96-.23,1.78-.7,2.46-.47.68-1.15,1.2-2.06,1.55-.91.35-2.02.53-3.32.53s-2.31-.19-3.2-.57-1.54-.86-1.97-1.43-.63-1.14-.63-1.72c0-.38.14-.71.41-.98.27-.27.61-.41,1.03-.41.36,0,.64.09.84.27s.38.43.56.75c.36.62.78,1.08,1.28,1.38s1.17.46,2.02.46c.69,0,1.26-.15,1.71-.46.44-.31.67-.66.67-1.06,0-.61-.23-1.05-.69-1.33s-1.22-.55-2.28-.8c-1.19-.3-2.16-.61-2.91-.93-.75-.33-1.35-.76-1.8-1.29s-.67-1.19-.67-1.97c0-.69.21-1.35.62-1.97.41-.62,1.03-1.11,1.83-1.48s1.78-.55,2.93-.55c.9,0,1.7.09,2.42.28.72.19,1.31.44,1.79.75.48.31.84.66,1.09,1.04s.37.75.37,1.12c0,.4-.13.72-.4.98s-.65.38-1.14.38c-.36,0-.66-.1-.91-.3s-.54-.51-.86-.91c-.26-.34-.57-.61-.93-.81s-.84-.3-1.45-.3-1.15.13-1.56.4-.62.6-.62,1c0,.36.15.66.46.9.3.23.72.42,1.23.58s1.23.34,2.13.56c1.07.26,1.95.58,2.63.94.68.36,1.2.79,1.55,1.29s.53,1.06.53,1.69Z" fill="#3e372a"/><path d="M383.17,404.1c-.48,0-.9-.15-1.24-.44-.34-.3-.51-.71-.51-1.26,0-.49.18-.89.53-1.21s.76-.48,1.23-.48.85.14,1.19.43c.35.29.52.71.52,1.26s-.17.95-.51,1.25c-.34.3-.74.45-1.21.45ZM384.89,407.68v10.02c0,.69-.17,1.22-.5,1.57s-.75.53-1.26.53-.92-.18-1.24-.55c-.32-.36-.48-.88-.48-1.56v-9.92c0-.69.16-1.2.48-1.55.32-.35.73-.52,1.24-.52s.93.17,1.26.52c.33.35.5.83.5,1.45Z" fill="#3e372a"/><path d="M388.66,406.02h.38v-2.08c0-.56.01-1,.04-1.31s.11-.59.25-.82c.14-.24.33-.43.58-.58.25-.15.54-.22.85-.22.44,0,.84.17,1.19.5.24.22.39.49.45.81s.1.77.1,1.35v2.36h1.27c.49,0,.87.12,1.12.35.26.23.39.53.39.89,0,.47-.18.79-.55.98-.37.19-.9.28-1.58.28h-.65v6.37c0,.54.02.96.06,1.25s.14.53.3.71c.17.18.43.27.81.27.2,0,.48-.04.83-.11.35-.07.62-.11.81-.11.28,0,.53.11.76.34.22.22.34.5.34.83,0,.56-.3.99-.91,1.28-.61.3-1.49.44-2.63.44-1.08,0-1.9-.18-2.46-.55-.56-.36-.92-.87-1.1-1.51-.17-.64-.26-1.5-.26-2.58v-6.65h-.46c-.5,0-.88-.12-1.14-.36-.26-.24-.39-.54-.39-.9s.14-.66.41-.89c.27-.23.67-.35,1.2-.35Z" fill="#3e372a"/><path d="M400.87,420.23l.32-.77-4.27-10.74c-.26-.62-.39-1.07-.39-1.35,0-.3.08-.57.23-.83s.36-.46.63-.61.54-.23.83-.23c.5,0,.88.16,1.13.48s.48.77.67,1.36l2.93,8.53,2.78-7.93c.22-.64.42-1.15.6-1.51.18-.36.37-.61.56-.74s.48-.19.84-.19c.26,0,.51.07.76.21s.43.33.56.56c.13.24.2.49.2.75-.03.16-.09.39-.17.69-.08.3-.17.6-.28.9l-4.52,11.83c-.39,1.04-.77,1.86-1.14,2.45-.37.59-.87,1.05-1.48,1.37s-1.44.48-2.48.48-1.78-.11-2.29-.33c-.51-.22-.76-.62-.76-1.21,0-.4.12-.7.36-.92s.6-.32,1.07-.32c.19,0,.37.03.55.08.22.05.41.08.57.08.4,0,.71-.06.94-.18.23-.12.43-.32.62-.62s.39-.72.63-1.29Z" fill="#3e372a"/><rect x="502.28" y="399.67" width="195.29" height="46.79" fill="none"/><path d="M504.47,416.62v-14.66c0-.76.17-1.33.52-1.71s.8-.57,1.35-.57,1.03.19,1.38.57c.35.38.53.95.53,1.72v14.66c0,.77-.18,1.35-.53,1.73s-.81.57-1.38.57-.99-.19-1.34-.58c-.35-.39-.53-.96-.53-1.72Z" fill="#3e372a"/><path d="M515.36,406.74v.42c.61-.8,1.28-1.39,2-1.77.72-.38,1.56-.57,2.49-.57s1.73.2,2.45.6c.72.4,1.26.96,1.61,1.69.23.42.38.88.44,1.37.07.49.1,1.12.1,1.88v6.45c0,.69-.16,1.22-.48,1.57s-.73.53-1.24.53-.94-.18-1.26-.55c-.32-.36-.48-.88-.48-1.56v-5.78c0-1.14-.16-2.02-.48-2.62-.32-.61-.95-.91-1.9-.91-.62,0-1.18.18-1.69.55s-.88.87-1.12,1.52c-.17.52-.25,1.48-.25,2.89v4.34c0,.7-.16,1.23-.49,1.58-.33.35-.75.53-1.26.53s-.91-.18-1.23-.55c-.32-.36-.48-.88-.48-1.56v-10.02c0-.66.14-1.15.43-1.48.29-.33.68-.49,1.18-.49.3,0,.58.07.83.22.25.14.44.36.59.65.15.29.22.64.22,1.05Z" fill="#3e372a"/><path d="M540.34,414.62c0,.43-.13.89-.39,1.38-.26.49-.65.96-1.18,1.4s-1.2.8-2,1.07c-.8.27-1.71.41-2.72.41-2.14,0-3.81-.62-5.01-1.87-1.2-1.25-1.8-2.92-1.8-5.02,0-1.42.27-2.68.83-3.77s1.35-1.94,2.39-2.53,2.29-.9,3.73-.9c.9,0,1.72.13,2.47.39.75.26,1.38.6,1.9,1.02.52.42.92.86,1.19,1.33s.41.91.41,1.31-.15.77-.46,1.05c-.31.29-.68.43-1.12.43-.29,0-.53-.07-.72-.22-.19-.15-.4-.39-.64-.72-.42-.64-.87-1.12-1.33-1.45-.46-.32-1.05-.48-1.76-.48-1.02,0-1.85.4-2.48,1.2s-.94,1.89-.94,3.28c0,.65.08,1.25.24,1.8s.39,1.01.7,1.4c.3.38.67.68,1.1.88.43.2.91.3,1.42.3.69,0,1.29-.16,1.78-.48.5-.32.93-.81,1.31-1.47.21-.39.44-.69.69-.91.25-.22.55-.33.9-.33.42,0,.77.16,1.05.48.28.32.42.67.42,1.03Z" fill="#3e372a"/><path d="M542.72,416.81v-15.03c0-.69.15-1.22.46-1.57s.73-.53,1.25-.53.95.18,1.27.53c.32.35.48.88.48,1.58v15.03c0,.7-.16,1.23-.49,1.58-.33.35-.75.53-1.26.53s-.92-.18-1.24-.55c-.32-.36-.48-.88-.48-1.56Z" fill="#3e372a"/><path d="M558.76,416.96v-.44c-.41.53-.85.96-1.31,1.32s-.96.62-1.5.79c-.54.17-1.16.26-1.85.26-.84,0-1.59-.17-2.25-.52-.66-.35-1.18-.83-1.54-1.43-.43-.74-.65-1.79-.65-3.17v-6.87c0-.69.16-1.21.47-1.55s.73-.51,1.24-.51.95.17,1.27.52c.32.35.48.86.48,1.55v5.55c0,.8.07,1.48.2,2.03s.38.97.73,1.28c.35.31.83.46,1.43.46s1.13-.17,1.65-.52c.52-.35.89-.8,1.13-1.36.19-.49.29-1.57.29-3.22v-4.21c0-.69.16-1.2.48-1.55.32-.35.74-.52,1.26-.52s.93.17,1.24.51.47.86.47,1.55v10.04c0,.66-.15,1.16-.45,1.49s-.69.5-1.16.5-.87-.17-1.17-.51-.46-.82-.46-1.44Z" fill="#3e372a"/><path d="M576.63,414.38c0,.96-.23,1.78-.7,2.46-.47.68-1.15,1.2-2.06,1.55-.91.35-2.02.53-3.32.53s-2.31-.19-3.2-.57-1.54-.86-1.97-1.43-.63-1.14-.63-1.72c0-.38.14-.71.41-.98.27-.27.61-.41,1.03-.41.36,0,.64.09.84.27s.38.43.56.75c.36.62.78,1.08,1.28,1.38s1.17.46,2.02.46c.69,0,1.26-.15,1.71-.46.44-.31.67-.66.67-1.06,0-.61-.23-1.05-.69-1.33s-1.22-.55-2.28-.8c-1.19-.3-2.16-.61-2.91-.93-.75-.33-1.35-.76-1.8-1.29s-.67-1.19-.67-1.97c0-.69.21-1.35.62-1.97.41-.62,1.03-1.11,1.83-1.48s1.78-.55,2.93-.55c.9,0,1.7.09,2.42.28.72.19,1.31.44,1.79.75.48.31.84.66,1.09,1.04s.37.75.37,1.12c0,.4-.13.72-.4.98s-.65.38-1.14.38c-.36,0-.66-.1-.91-.3s-.54-.51-.86-.91c-.26-.34-.57-.61-.93-.81s-.84-.3-1.45-.3-1.15.13-1.56.4-.62.6-.62,1c0,.36.15.66.46.9.3.23.72.42,1.23.58s1.23.34,2.13.56c1.07.26,1.95.58,2.63.94.68.36,1.2.79,1.55,1.29s.53,1.06.53,1.69Z" fill="#3e372a"/><path d="M581.31,403.21c-.48,0-.9-.15-1.24-.44-.34-.3-.51-.71-.51-1.26,0-.49.18-.89.53-1.21s.76-.48,1.23-.48.85.14,1.19.43c.35.29.52.71.52,1.26s-.17.95-.51,1.25c-.34.3-.74.45-1.21.45ZM583.02,406.79v10.02c0,.69-.17,1.22-.5,1.57s-.75.53-1.26.53-.92-.18-1.24-.55c-.32-.36-.48-.88-.48-1.56v-9.92c0-.69.16-1.2.48-1.55.32-.35.73-.52,1.24-.52s.93.17,1.26.52c.33.35.5.83.5,1.45Z" fill="#3e372a"/><path d="M599.58,411.87c0,1.03-.16,1.99-.48,2.86-.32.87-.79,1.62-1.4,2.25-.61.63-1.34,1.11-2.18,1.44-.85.33-1.8.5-2.86.5s-1.99-.17-2.83-.51c-.84-.34-1.56-.82-2.18-1.45-.61-.63-1.08-1.38-1.4-2.23-.32-.86-.48-1.81-.48-2.85s.16-2.01.48-2.88c.32-.87.78-1.62,1.38-2.23.6-.62,1.33-1.09,2.18-1.43.85-.33,1.8-.5,2.83-.5s2,.17,2.86.51c.85.34,1.59.82,2.2,1.45.61.63,1.07,1.37,1.39,2.23s.48,1.82.48,2.86ZM596.1,411.87c0-1.41-.31-2.51-.93-3.3s-1.46-1.18-2.51-1.18c-.68,0-1.27.18-1.79.53-.52.35-.91.87-1.19,1.55s-.42,1.49-.42,2.4.14,1.7.41,2.37c.27.68.67,1.2,1.18,1.56.51.36,1.12.54,1.81.54,1.05,0,1.89-.4,2.51-1.19.62-.79.93-1.89.93-3.28Z" fill="#3e372a"/><path d="M605.46,406.74v.42c.61-.8,1.28-1.39,2-1.77.72-.38,1.56-.57,2.49-.57s1.73.2,2.45.6c.72.4,1.26.96,1.61,1.69.23.42.38.88.44,1.37.07.49.1,1.12.1,1.88v6.45c0,.69-.16,1.22-.48,1.57s-.73.53-1.24.53-.94-.18-1.26-.55c-.32-.36-.48-.88-.48-1.56v-5.78c0-1.14-.16-2.02-.48-2.62-.32-.61-.95-.91-1.9-.91-.62,0-1.18.18-1.69.55s-.88.87-1.12,1.52c-.17.52-.25,1.48-.25,2.89v4.34c0,.7-.16,1.23-.49,1.58-.33.35-.75.53-1.26.53s-.91-.18-1.23-.55c-.32-.36-.48-.88-.48-1.56v-10.02c0-.66.14-1.15.43-1.48.29-.33.68-.49,1.18-.49.3,0,.58.07.83.22.25.14.44.36.59.65.15.29.22.64.22,1.05Z" fill="#3e372a"/><rect x="694.78" y="398.8" width="195.29" height="46.79" fill="none"/><path d="M710.96,412.14c0,1.13-.29,2.14-.87,3.03-.58.9-1.43,1.6-2.55,2.11s-2.44.76-3.97.76c-1.84,0-3.35-.35-4.54-1.04-.85-.5-1.53-1.17-2.06-2-.53-.83-.79-1.64-.79-2.43,0-.46.16-.85.48-1.17.32-.33.72-.49,1.21-.49.4,0,.73.13,1.01.38.27.25.51.63.7,1.13.24.59.49,1.09.77,1.49.27.4.66.73,1.16.98.5.26,1.16.39,1.97.39,1.12,0,2.03-.26,2.72-.78s1.05-1.17,1.05-1.95c0-.62-.19-1.12-.56-1.5-.38-.39-.86-.68-1.46-.88s-1.39-.42-2.39-.65c-1.34-.31-2.46-.68-3.36-1.1s-1.62-.99-2.15-1.71c-.53-.72-.79-1.62-.79-2.7s.28-1.93.84-2.73c.56-.79,1.37-1.41,2.42-1.83,1.06-.43,2.3-.64,3.73-.64,1.14,0,2.13.14,2.96.43.83.28,1.53.66,2.08,1.13.55.47.95.96,1.21,1.48.25.52.38,1.02.38,1.51,0,.45-.16.85-.48,1.21-.32.36-.71.54-1.19.54-.43,0-.76-.11-.98-.32-.22-.22-.47-.57-.73-1.06-.34-.7-.74-1.25-1.22-1.64-.47-.39-1.24-.59-2.29-.59-.97,0-1.76.21-2.35.64-.6.43-.9.94-.9,1.54,0,.37.1.69.3.96.2.27.48.5.84.7.36.2.72.35,1.08.46.36.11.96.27,1.8.48,1.05.25,2,.52,2.85.81.85.3,1.57.66,2.17,1.08.6.42,1.06.96,1.4,1.61.33.65.5,1.44.5,2.38Z" fill="#3e372a"/><path d="M722.92,416.09v-.44c-.41.53-.85.96-1.31,1.32s-.96.62-1.5.79c-.54.17-1.16.26-1.85.26-.84,0-1.59-.17-2.25-.52-.67-.35-1.18-.83-1.54-1.43-.43-.74-.65-1.79-.65-3.17v-6.87c0-.69.16-1.21.47-1.55.31-.34.73-.51,1.24-.51s.95.17,1.27.52c.32.35.48.86.48,1.55v5.55c0,.8.07,1.48.2,2.03.14.55.38.97.73,1.28.35.31.83.46,1.43.46s1.13-.17,1.65-.52c.52-.35.89-.8,1.13-1.36.2-.49.29-1.57.29-3.22v-4.21c0-.69.16-1.2.48-1.55.32-.35.74-.52,1.26-.52s.93.17,1.24.51c.31.34.47.86.47,1.55v10.04c0,.66-.15,1.16-.45,1.49-.3.33-.69.5-1.16.5s-.87-.17-1.17-.51c-.31-.34-.46-.82-.46-1.44Z" fill="#3e372a"/><path d="M740.78,413.51c0,.96-.23,1.78-.7,2.46-.46.68-1.15,1.2-2.06,1.55-.91.35-2.02.53-3.32.53s-2.31-.19-3.2-.57-1.54-.86-1.97-1.43c-.42-.57-.63-1.14-.63-1.72,0-.38.14-.71.41-.98.27-.27.61-.41,1.03-.41.36,0,.64.09.84.27.2.18.38.43.56.75.36.62.78,1.08,1.28,1.38s1.17.46,2.02.46c.69,0,1.26-.15,1.71-.46.44-.31.67-.66.67-1.06,0-.61-.23-1.05-.69-1.33-.46-.28-1.22-.55-2.28-.8-1.19-.3-2.16-.61-2.91-.93-.75-.33-1.35-.76-1.8-1.29-.45-.53-.67-1.19-.67-1.97,0-.69.21-1.35.62-1.97.42-.62,1.03-1.11,1.83-1.48.81-.37,1.78-.55,2.93-.55.9,0,1.7.09,2.42.28.71.19,1.31.44,1.79.75.48.31.84.66,1.09,1.04.25.38.37.75.37,1.12,0,.4-.13.72-.4.98s-.65.38-1.14.38c-.36,0-.66-.1-.91-.3-.25-.2-.54-.51-.86-.91-.26-.34-.57-.61-.93-.81s-.84-.3-1.45-.3-1.15.13-1.56.4c-.41.27-.62.6-.62,1,0,.36.15.66.46.9.3.23.72.42,1.23.58.52.15,1.23.34,2.13.56,1.08.26,1.95.58,2.63.94.68.36,1.2.79,1.55,1.29.35.5.53,1.06.53,1.69Z" fill="#3e372a"/><path d="M743.9,404.25h.38v-2.08c0-.56.01-1,.04-1.31.03-.32.11-.59.25-.82.14-.24.33-.43.58-.58.25-.15.54-.22.85-.22.44,0,.84.17,1.19.5.24.22.39.49.45.81s.09.77.09,1.35v2.36h1.27c.49,0,.87.12,1.12.35.26.23.39.53.39.89,0,.47-.18.79-.55.98-.37.19-.9.28-1.58.28h-.65v6.37c0,.54.02.96.06,1.25s.14.53.3.71c.17.18.43.27.81.27.2,0,.48-.04.83-.11.35-.07.62-.11.81-.11.28,0,.53.11.76.34s.34.5.34.83c0,.56-.3.99-.91,1.28-.61.3-1.49.44-2.63.44-1.08,0-1.9-.18-2.46-.55-.56-.36-.92-.87-1.1-1.51-.17-.64-.26-1.5-.26-2.58v-6.65h-.46c-.5,0-.88-.12-1.14-.36-.26-.24-.39-.54-.39-.9s.14-.66.41-.89c.27-.23.67-.35,1.2-.35Z" fill="#3e372a"/><path d="M761.67,416.09c-.84.65-1.65,1.14-2.43,1.47-.78.33-1.66.49-2.63.49-.89,0-1.67-.18-2.34-.53-.67-.35-1.19-.83-1.56-1.43-.36-.6-.55-1.25-.55-1.96,0-.95.3-1.76.9-2.42.6-.67,1.43-1.12,2.48-1.35.22-.05.77-.17,1.64-.34.87-.18,1.62-.34,2.24-.49.62-.15,1.3-.33,2.02-.54-.04-.91-.23-1.58-.55-2.01-.33-.43-1-.64-2.03-.64-.88,0-1.54.12-1.99.37-.44.25-.83.61-1.14,1.1-.32.49-.54.81-.67.97-.13.16-.41.23-.84.23-.39,0-.73-.12-1.01-.37-.28-.25-.43-.57-.43-.96,0-.61.22-1.2.65-1.78.43-.58,1.1-1.05,2.02-1.42.91-.37,2.05-.56,3.42-.56,1.52,0,2.72.18,3.59.54.87.36,1.49.93,1.85,1.71.36.78.54,1.81.54,3.1,0,.81,0,1.5,0,2.07,0,.57-.01,1.2-.02,1.89,0,.65.11,1.33.32,2.04.22.71.32,1.16.32,1.36,0,.36-.17.68-.5.97-.33.29-.71.44-1.14.44-.36,0-.71-.17-1.05-.5-.35-.33-.71-.82-1.1-1.45ZM761.45,411.07c-.51.19-1.25.38-2.21.59-.97.21-1.64.36-2.01.46-.37.1-.73.29-1.07.57-.34.28-.51.68-.51,1.19s.2.97.6,1.34c.4.37.92.55,1.56.55.69,0,1.32-.15,1.9-.45.58-.3,1-.69,1.28-1.16.31-.52.47-1.39.47-2.59v-.5Z" fill="#3e372a"/><path d="M770.12,402.34c-.48,0-.89-.15-1.24-.44-.34-.3-.51-.71-.51-1.26,0-.49.18-.89.53-1.21.35-.32.76-.48,1.22-.48s.85.14,1.19.43c.35.29.52.71.52,1.26s-.17.95-.51,1.25c-.34.3-.74.45-1.21.45ZM771.83,405.92v10.02c0,.69-.17,1.22-.5,1.57s-.75.53-1.26.53-.92-.18-1.24-.55c-.32-.36-.48-.88-.48-1.56v-9.92c0-.69.16-1.2.48-1.55.32-.35.73-.52,1.24-.52s.93.17,1.26.52c.33.35.5.83.5,1.45Z" fill="#3e372a"/><path d="M778.56,405.87v.42c.61-.8,1.28-1.39,2-1.77.72-.38,1.55-.57,2.49-.57s1.73.2,2.45.6c.72.4,1.26.96,1.61,1.69.23.42.38.88.44,1.37.07.49.1,1.12.1,1.88v6.45c0,.69-.16,1.22-.48,1.57s-.73.53-1.24.53-.93-.18-1.26-.55c-.32-.36-.48-.88-.48-1.56v-5.78c0-1.14-.16-2.02-.48-2.62-.32-.61-.95-.91-1.9-.91-.62,0-1.18.18-1.69.55s-.88.87-1.12,1.52c-.17.52-.25,1.48-.25,2.89v4.34c0,.7-.16,1.23-.49,1.58-.33.35-.75.53-1.26.53s-.91-.18-1.23-.55c-.32-.36-.48-.88-.48-1.56v-10.02c0-.66.14-1.15.43-1.48.29-.33.68-.49,1.18-.49.3,0,.58.07.83.22.25.14.44.36.59.65.15.29.22.64.22,1.05Z" fill="#3e372a"/><path d="M799.87,416.09c-.84.65-1.65,1.14-2.43,1.47-.78.33-1.66.49-2.63.49-.89,0-1.67-.18-2.34-.53-.67-.35-1.19-.83-1.56-1.43-.36-.6-.55-1.25-.55-1.96,0-.95.3-1.76.9-2.42.6-.67,1.43-1.12,2.48-1.35.22-.05.77-.17,1.64-.34.87-.18,1.62-.34,2.24-.49.62-.15,1.3-.33,2.02-.54-.04-.91-.23-1.58-.55-2.01-.33-.43-1-.64-2.03-.64-.88,0-1.54.12-1.99.37-.44.25-.83.61-1.14,1.1-.32.49-.54.81-.67.97-.13.16-.41.23-.84.23-.39,0-.73-.12-1.01-.37-.28-.25-.43-.57-.43-.96,0-.61.22-1.2.65-1.78.43-.58,1.1-1.05,2.02-1.42.91-.37,2.05-.56,3.42-.56,1.52,0,2.72.18,3.59.54.87.36,1.49.93,1.85,1.71.36.78.54,1.81.54,3.1,0,.81,0,1.5,0,2.07,0,.57-.01,1.2-.02,1.89,0,.65.11,1.33.32,2.04.22.71.32,1.16.32,1.36,0,.36-.17.68-.5.97-.33.29-.71.44-1.14.44-.36,0-.71-.17-1.05-.5-.35-.33-.71-.82-1.1-1.45ZM799.65,411.07c-.51.19-1.25.38-2.21.59-.97.21-1.64.36-2.01.46-.37.1-.73.29-1.07.57-.34.28-.51.68-.51,1.19s.2.97.6,1.34c.4.37.92.55,1.56.55.69,0,1.32-.15,1.9-.45.58-.3,1-.69,1.28-1.16.31-.52.47-1.39.47-2.59v-.5Z" fill="#3e372a"/><path d="M809.42,400.78v5.29c.65-.68,1.32-1.2,1.99-1.55.68-.36,1.52-.54,2.51-.54,1.15,0,2.16.27,3.03.82.87.55,1.54,1.34,2.02,2.37.48,1.04.72,2.27.72,3.69,0,1.05-.13,2.01-.4,2.89s-.65,1.64-1.16,2.28c-.51.64-1.12,1.14-1.85,1.49-.72.35-1.52.53-2.39.53-.53,0-1.03-.06-1.5-.19s-.87-.29-1.2-.5c-.33-.21-.61-.42-.84-.64-.23-.22-.54-.55-.92-.99v.34c0,.65-.16,1.14-.47,1.48-.31.33-.71.5-1.19.5s-.88-.17-1.17-.5c-.29-.33-.44-.83-.44-1.48v-15.13c0-.7.14-1.23.43-1.59.28-.36.68-.54,1.19-.54.53,0,.94.17,1.23.51.29.34.43.83.43,1.47ZM809.59,411.07c0,1.38.32,2.44.95,3.18.63.74,1.46,1.11,2.48,1.11.87,0,1.62-.38,2.25-1.14.63-.76.95-1.84.95-3.26,0-.91-.13-1.7-.39-2.36-.26-.66-.63-1.17-1.12-1.53-.48-.36-1.04-.54-1.69-.54s-1.25.18-1.76.54c-.52.36-.92.88-1.22,1.56-.3.68-.44,1.49-.44,2.43Z" fill="#3e372a"/><path d="M824.22,402.34c-.48,0-.89-.15-1.24-.44-.34-.3-.51-.71-.51-1.26,0-.49.18-.89.53-1.21.35-.32.76-.48,1.22-.48s.85.14,1.19.43c.35.29.52.71.52,1.26s-.17.95-.51,1.25c-.34.3-.74.45-1.21.45ZM825.94,405.92v10.02c0,.69-.17,1.22-.5,1.57s-.75.53-1.26.53-.92-.18-1.24-.55c-.32-.36-.48-.88-.48-1.56v-9.92c0-.69.16-1.2.48-1.55.32-.35.73-.52,1.24-.52s.93.17,1.26.52c.33.35.5.83.5,1.45Z" fill="#3e372a"/><path d="M829.52,415.93v-15.03c0-.69.15-1.22.46-1.57.31-.36.73-.53,1.25-.53s.95.18,1.27.53c.32.35.48.88.48,1.58v15.03c0,.7-.16,1.23-.49,1.58-.33.35-.75.53-1.26.53s-.92-.18-1.24-.55c-.32-.36-.48-.88-.48-1.56Z" fill="#3e372a"/><path d="M838.32,402.34c-.48,0-.89-.15-1.24-.44-.34-.3-.51-.71-.51-1.26,0-.49.18-.89.53-1.21.35-.32.76-.48,1.22-.48s.85.14,1.19.43c.35.29.52.71.52,1.26s-.17.95-.51,1.25c-.34.3-.74.45-1.21.45ZM840.03,405.92v10.02c0,.69-.17,1.22-.5,1.57s-.75.53-1.26.53-.92-.18-1.24-.55c-.32-.36-.48-.88-.48-1.56v-9.92c0-.69.16-1.2.48-1.55.32-.35.73-.52,1.24-.52s.93.17,1.26.52c.33.35.5.83.5,1.45Z" fill="#3e372a"/><path d="M843.8,404.25h.38v-2.08c0-.56.01-1,.04-1.31.03-.32.11-.59.25-.82.14-.24.33-.43.58-.58.25-.15.54-.22.85-.22.44,0,.84.17,1.19.5.24.22.39.49.45.81s.09.77.09,1.35v2.36h1.27c.49,0,.87.12,1.12.35.26.23.39.53.39.89,0,.47-.18.79-.55.98-.37.19-.9.28-1.58.28h-.65v6.37c0,.54.02.96.06,1.25s.14.53.3.71c.17.18.43.27.81.27.2,0,.48-.04.83-.11.35-.07.62-.11.81-.11.28,0,.53.11.76.34s.34.5.34.83c0,.56-.3.99-.91,1.28-.61.3-1.49.44-2.63.44-1.08,0-1.9-.18-2.46-.55-.56-.36-.92-.87-1.1-1.51-.17-.64-.26-1.5-.26-2.58v-6.65h-.46c-.5,0-.88-.12-1.14-.36-.26-.24-.39-.54-.39-.9s.14-.66.41-.89c.27-.23.67-.35,1.2-.35Z" fill="#3e372a"/><path d="M856.01,418.47l.32-.77-4.27-10.74c-.26-.62-.39-1.07-.39-1.35,0-.3.08-.57.23-.83s.36-.46.63-.61.54-.23.83-.23c.5,0,.88.16,1.13.48s.48.77.67,1.36l2.93,8.53,2.78-7.93c.22-.64.42-1.15.6-1.51.18-.36.37-.61.57-.74.2-.13.48-.19.84-.19.26,0,.51.07.76.21s.43.33.56.56c.13.24.2.49.2.75-.03.16-.09.39-.17.69-.08.3-.17.6-.28.9l-4.52,11.83c-.39,1.04-.77,1.86-1.14,2.45-.37.59-.87,1.05-1.48,1.37-.61.32-1.44.48-2.48.48s-1.78-.11-2.29-.33c-.51-.22-.76-.62-.76-1.21,0-.4.12-.7.36-.92s.6-.32,1.07-.32c.19,0,.37.03.55.08.22.05.41.08.57.08.4,0,.71-.06.94-.18.23-.12.43-.32.62-.62.18-.29.39-.72.63-1.29Z" fill="#3e372a"/><rect x="935.15" y="399.05" width="195.29" height="46.79" fill="none"/><path d="M953.04,412.1c0,.59-.15,1.23-.44,1.92-.29.69-.75,1.37-1.38,2.03-.63.67-1.43,1.2-2.4,1.62-.97.41-2.11.62-3.4.62-.98,0-1.87-.09-2.68-.28-.8-.19-1.53-.48-2.19-.87-.66-.39-1.26-.91-1.81-1.55-.49-.58-.91-1.24-1.26-1.96-.35-.72-.61-1.5-.78-2.32-.17-.82-.26-1.69-.26-2.62,0-1.5.22-2.84.65-4.02.44-1.19,1.06-2.2,1.87-3.04.81-.84,1.76-1.48,2.86-1.92,1.09-.44,2.26-.66,3.49-.66,1.51,0,2.85.3,4.02.9,1.18.6,2.08,1.34,2.7,2.23.63.88.94,1.72.94,2.51,0,.43-.15.81-.46,1.14s-.67.5-1.1.5c-.48,0-.84-.11-1.08-.34s-.51-.62-.81-1.18c-.49-.92-1.07-1.61-1.73-2.07-.67-.46-1.48-.69-2.46-.69-1.55,0-2.78.59-3.7,1.76-.92,1.18-1.38,2.85-1.38,5.01,0,1.45.2,2.65.61,3.61.41.96.98,1.68,1.73,2.15.75.47,1.62.71,2.62.71,1.08,0,2-.27,2.75-.81.75-.54,1.31-1.33,1.69-2.37.16-.49.36-.89.6-1.2.24-.31.62-.46,1.14-.46.45,0,.83.16,1.16.47.32.31.48.7.48,1.17Z" fill="#3e372a"/><path d="M959.58,401.16v5.14c.44-.51.87-.91,1.29-1.21.42-.3.88-.52,1.39-.67.51-.15,1.05-.22,1.64-.22.88,0,1.66.19,2.34.56.68.37,1.22.91,1.61,1.62.25.41.41.88.5,1.39.08.51.13,1.1.13,1.77v6.64c0,.69-.16,1.22-.48,1.57s-.74.53-1.26.53c-1.14,0-1.71-.7-1.71-2.11v-5.85c0-1.11-.17-1.96-.5-2.56s-.96-.89-1.88-.89c-.62,0-1.17.18-1.67.53-.5.35-.87.83-1.11,1.44-.19.52-.28,1.43-.28,2.75v4.58c0,.69-.15,1.21-.46,1.57-.31.36-.74.54-1.29.54-1.14,0-1.71-.7-1.71-2.11v-15.03c0-.7.15-1.23.45-1.58.3-.35.72-.53,1.26-.53s.98.18,1.29.53c.31.36.46.88.46,1.57Z" fill="#3e372a"/><path d="M981.57,412.1h-6.78c0,.79.17,1.48.48,2.08.31.6.72,1.05,1.23,1.36.51.3,1.08.46,1.69.46.42,0,.79-.05,1.14-.15.34-.1.67-.25,1-.46.32-.21.62-.43.89-.67.27-.24.62-.56,1.05-.96.18-.15.43-.23.76-.23.36,0,.64.1.86.29.22.19.33.47.33.83,0,.31-.12.68-.37,1.1-.25.42-.62.82-1.11,1.21-.5.39-1.12.71-1.87.96s-1.61.38-2.58.38c-2.23,0-3.96-.63-5.19-1.9-1.24-1.27-1.85-2.99-1.85-5.17,0-1.02.15-1.97.46-2.85s.75-1.63,1.33-2.25c.58-.63,1.3-1.11,2.16-1.44.86-.33,1.8-.5,2.84-.5,1.35,0,2.52.29,3.49.86.97.57,1.69,1.31,2.18,2.22.48.91.72,1.83.72,2.77,0,.87-.25,1.44-.75,1.69-.5.26-1.2.39-2.11.39ZM974.79,410.13h6.28c-.08-1.19-.4-2.07-.96-2.66-.55-.59-1.28-.88-2.19-.88s-1.57.3-2.13.89c-.55.6-.89,1.48-1.01,2.65Z" fill="#3e372a"/><path d="M999.77,414.01c0,.43-.13.89-.39,1.38-.26.49-.65.96-1.18,1.4-.53.44-1.2.8-2,1.07-.8.27-1.71.41-2.72.41-2.14,0-3.81-.62-5.01-1.87-1.2-1.25-1.8-2.92-1.8-5.02,0-1.42.28-2.68.83-3.77.55-1.09,1.35-1.94,2.39-2.53s2.29-.89,3.73-.89c.9,0,1.72.13,2.47.39.75.26,1.38.6,1.9,1.02.52.41.92.86,1.19,1.33.27.47.41.91.41,1.31s-.15.77-.46,1.05c-.31.29-.68.43-1.12.43-.29,0-.53-.07-.72-.22-.19-.15-.4-.39-.64-.72-.42-.64-.87-1.13-1.33-1.45-.46-.32-1.05-.48-1.76-.48-1.02,0-1.85.4-2.48,1.2-.63.8-.94,1.89-.94,3.28,0,.65.08,1.25.24,1.8.16.55.39,1.01.7,1.4.3.39.67.68,1.1.88.43.2.91.3,1.42.3.69,0,1.29-.16,1.78-.48.5-.32.93-.81,1.31-1.47.21-.39.44-.69.69-.91.25-.22.55-.33.9-.33.42,0,.77.16,1.05.48.28.32.42.66.42,1.03Z" fill="#3e372a"/><path d="M1010.44,416.71l-3.06-5.03-1.88,1.78v2.75c0,.67-.18,1.18-.53,1.54-.35.36-.76.54-1.21.54-.53,0-.95-.18-1.26-.53s-.46-.88-.46-1.57v-14.78c0-.77.15-1.36.44-1.76.3-.4.72-.6,1.27-.6s.96.18,1.27.55c.31.36.47.9.47,1.61v8.4l3.9-4.09c.48-.51.85-.86,1.1-1.04.25-.19.56-.28.93-.28.43,0,.79.14,1.08.41.29.28.43.62.43,1.04,0,.51-.47,1.18-1.41,2.03l-1.84,1.69,3.55,5.59c.26.41.45.73.57.95s.17.42.17.62c0,.55-.15.98-.45,1.3-.3.32-.7.48-1.19.48-.42,0-.75-.11-.98-.34s-.54-.64-.93-1.24Z" fill="#3e372a"/><path d="M1021.26,412.75h-4.01c-.61,0-1.07-.14-1.39-.43-.32-.28-.48-.65-.48-1.1s.15-.83.46-1.11c.31-.28.78-.42,1.4-.42h4.01c.63,0,1.09.14,1.4.42.31.28.46.65.46,1.11s-.15.81-.46,1.1c-.3.28-.77.43-1.41.43Z" fill="#3e372a"/><path d="M1027.12,402.59c-.48,0-.89-.15-1.24-.44-.34-.3-.51-.72-.51-1.26,0-.49.18-.9.53-1.21.35-.32.76-.48,1.22-.48s.85.14,1.19.43c.35.29.52.71.52,1.26s-.17.95-.51,1.25c-.34.3-.74.45-1.21.45ZM1028.83,406.17v10.02c0,.69-.17,1.22-.5,1.57s-.75.53-1.26.53-.92-.18-1.24-.55c-.32-.36-.48-.88-.48-1.56v-9.92c0-.69.16-1.2.48-1.55.32-.35.73-.52,1.24-.52s.93.17,1.26.52c.33.35.5.83.5,1.45Z" fill="#3e372a"/><path d="M1035.56,406.12v.42c.61-.8,1.28-1.39,2-1.77.72-.38,1.55-.56,2.49-.56s1.73.2,2.45.6c.72.4,1.26.96,1.61,1.69.23.42.38.88.44,1.37.07.49.1,1.12.1,1.88v6.45c0,.69-.16,1.22-.48,1.57s-.73.53-1.24.53-.93-.18-1.26-.55c-.32-.36-.48-.88-.48-1.56v-5.78c0-1.14-.16-2.02-.48-2.62-.32-.6-.95-.91-1.9-.91-.62,0-1.18.18-1.69.55s-.88.87-1.12,1.52c-.17.52-.25,1.48-.25,2.89v4.34c0,.7-.16,1.23-.49,1.58-.33.35-.75.53-1.26.53s-.91-.18-1.23-.55c-.32-.36-.48-.88-.48-1.56v-10.02c0-.66.14-1.15.43-1.48.29-.33.68-.49,1.18-.49.3,0,.58.07.83.22.25.14.44.36.59.65.15.29.22.64.22,1.05Z" fill="#3e372a"/><rect x="197.76" y="227.17" width="157.05" height="46.79" fill="none"/><path d="M200.84,255.81v-28.63h9.86c2.23,0,3.93.14,5.1.41,1.64.38,3.04,1.06,4.2,2.05,1.51,1.28,2.64,2.91,3.39,4.89.75,1.99,1.12,4.25,1.12,6.81,0,2.17-.25,4.1-.76,5.78s-1.16,3.07-1.95,4.17c-.79,1.1-1.66,1.97-2.61,2.6-.94.63-2.08,1.11-3.42,1.44-1.33.33-2.87.49-4.6.49h-10.33ZM204.63,252.43h6.11c1.89,0,3.37-.18,4.44-.53s1.93-.85,2.57-1.48c.9-.9,1.6-2.11,2.1-3.62.5-1.52.75-3.36.75-5.52,0-2.99-.49-5.3-1.47-6.9-.98-1.61-2.18-2.69-3.58-3.23-1.02-.39-2.65-.59-4.9-.59h-6.02v21.88Z" fill="#3e372a"/><path d="M229.3,231.22v-4.04h3.52v4.04h-3.52ZM229.3,255.81v-20.74h3.52v20.74h-3.52Z" fill="#3e372a"/><path d="M236.76,249.62l3.48-.55c.2,1.39.74,2.46,1.63,3.2.89.74,2.14,1.11,3.74,1.11s2.81-.33,3.59-.99c.78-.66,1.17-1.43,1.17-2.31,0-.79-.35-1.42-1.04-1.88-.48-.31-1.68-.71-3.59-1.19-2.58-.65-4.37-1.21-5.36-1.69-1-.48-1.75-1.13-2.27-1.97-.51-.84-.77-1.77-.77-2.78,0-.92.21-1.78.63-2.57.42-.79,1-1.44,1.73-1.96.55-.4,1.29-.75,2.24-1.03.94-.28,1.96-.42,3.04-.42,1.63,0,3.06.23,4.29.7s2.14,1.1,2.72,1.9.99,1.87,1.21,3.21l-3.44.47c-.16-1.07-.61-1.9-1.36-2.5-.75-.6-1.81-.9-3.17-.9-1.61,0-2.77.27-3.46.8-.69.53-1.04,1.16-1.04,1.88,0,.46.14.87.43,1.23.29.38.74.69,1.35.94.35.13,1.39.43,3.11.9,2.49.66,4.22,1.21,5.21,1.63.98.42,1.75,1.04,2.31,1.85.56.81.84,1.81.84,3.01s-.34,2.28-1.03,3.31-1.67,1.84-2.96,2.4-2.75.85-4.38.85c-2.7,0-4.75-.56-6.16-1.68-1.41-1.12-2.31-2.78-2.71-4.98Z" fill="#3e372a"/><path d="M271.7,248.21l3.46.45c-.38,2.38-1.34,4.25-2.9,5.6-1.56,1.35-3.47,2.02-5.73,2.02-2.84,0-5.12-.93-6.85-2.78-1.73-1.86-2.59-4.51-2.59-7.98,0-2.24.37-4.2,1.11-5.88s1.87-2.94,3.39-3.78c1.52-.84,3.17-1.26,4.95-1.26,2.25,0,4.09.57,5.53,1.71,1.43,1.14,2.35,2.76,2.75,4.85l-3.42.53c-.33-1.39-.9-2.44-1.73-3.14-.83-.7-1.83-1.05-3-1.05-1.77,0-3.21.63-4.32,1.9-1.11,1.27-1.66,3.28-1.66,6.03s.53,4.81,1.6,6.07c1.07,1.26,2.46,1.89,4.18,1.89,1.38,0,2.53-.42,3.46-1.27.92-.85,1.51-2.15,1.76-3.91Z" fill="#3e372a"/><path d="M276.86,245.44c0-3.84,1.07-6.69,3.2-8.54,1.78-1.54,3.96-2.3,6.52-2.3,2.85,0,5.18.93,6.99,2.8,1.81,1.87,2.71,4.45,2.71,7.74,0,2.67-.4,4.77-1.2,6.3-.8,1.53-1.97,2.72-3.5,3.56-1.53.85-3.2,1.27-5.01,1.27-2.9,0-5.25-.93-7.04-2.79-1.79-1.86-2.69-4.54-2.69-8.05ZM280.47,245.44c0,2.66.58,4.65,1.74,5.97,1.16,1.32,2.62,1.98,4.38,1.98s3.2-.66,4.36-1.99c1.16-1.33,1.74-3.35,1.74-6.07,0-2.56-.58-4.51-1.75-5.83-1.17-1.32-2.61-1.98-4.35-1.98s-3.22.66-4.38,1.97c-1.16,1.32-1.74,3.3-1.74,5.96Z" fill="#3e372a"/><path d="M306.18,255.81l-7.89-20.74h3.71l4.45,12.42c.48,1.34.92,2.73,1.33,4.18.31-1.09.75-2.41,1.31-3.95l4.61-12.66h3.61l-7.85,20.74h-3.28Z" fill="#3e372a"/><path d="M334.61,249.13l3.63.45c-.57,2.12-1.63,3.77-3.18,4.94-1.55,1.17-3.53,1.76-5.94,1.76-3.03,0-5.44-.93-7.22-2.8-1.78-1.87-2.67-4.49-2.67-7.86s.9-6.2,2.7-8.12c1.8-1.93,4.13-2.89,6.99-2.89s5.04.94,6.8,2.83c1.76,1.89,2.64,4.54,2.64,7.97,0,.21,0,.52-.02.94h-15.47c.13,2.28.77,4.02,1.93,5.23,1.16,1.21,2.6,1.82,4.34,1.82,1.29,0,2.39-.34,3.3-1.02.91-.68,1.63-1.76,2.17-3.24ZM323.07,243.45h11.58c-.16-1.74-.6-3.05-1.33-3.93-1.12-1.35-2.57-2.03-4.36-2.03-1.61,0-2.97.54-4.07,1.62-1.1,1.08-1.71,2.53-1.83,4.34Z" fill="#3e372a"/><path d="M342.62,255.81v-20.74h3.16v3.14c.81-1.47,1.55-2.44,2.24-2.91s1.44-.7,2.26-.7c1.18,0,2.39.38,3.61,1.13l-1.21,3.26c-.86-.51-1.72-.76-2.58-.76-.77,0-1.46.23-2.07.69-.61.46-1.05,1.1-1.31,1.92-.39,1.25-.59,2.62-.59,4.1v10.86h-3.52Z" fill="#3e372a"/><rect x="715.28" y="227.17" width="157.05" height="46.79" fill="none"/><path d="M718.37,255.81v-28.63h9.86c2.23,0,3.93.14,5.1.41,1.64.38,3.04,1.06,4.2,2.05,1.51,1.28,2.64,2.91,3.39,4.89.75,1.99,1.12,4.25,1.12,6.81,0,2.17-.25,4.1-.76,5.78s-1.16,3.07-1.95,4.17c-.79,1.1-1.66,1.97-2.61,2.6-.94.63-2.08,1.11-3.42,1.44-1.33.33-2.87.49-4.6.49h-10.33ZM722.15,252.43h6.11c1.89,0,3.37-.18,4.44-.53s1.93-.85,2.57-1.48c.9-.9,1.6-2.11,2.1-3.62.5-1.52.75-3.36.75-5.52,0-2.99-.49-5.3-1.47-6.9-.98-1.61-2.18-2.69-3.58-3.23-1.02-.39-2.65-.59-4.9-.59h-6.02v21.88Z" fill="#3e372a"/><path d="M761,249.13l3.63.45c-.57,2.12-1.63,3.77-3.18,4.94-1.55,1.17-3.53,1.76-5.94,1.76-3.03,0-5.44-.93-7.22-2.8-1.78-1.87-2.67-4.49-2.67-7.86s.9-6.2,2.7-8.12c1.8-1.93,4.13-2.89,6.99-2.89s5.04.94,6.8,2.83c1.76,1.89,2.64,4.54,2.64,7.97,0,.21,0,.52-.02.94h-15.47c.13,2.28.77,4.02,1.93,5.23,1.16,1.21,2.6,1.82,4.34,1.82,1.29,0,2.39-.34,3.3-1.02.91-.68,1.63-1.76,2.17-3.24ZM749.46,243.45h11.58c-.16-1.74-.6-3.05-1.33-3.93-1.12-1.35-2.57-2.03-4.36-2.03-1.62,0-2.97.54-4.07,1.62-1.1,1.08-1.71,2.53-1.83,4.34Z" fill="#3e372a"/><path d="M774.81,255.81l-7.89-20.74h3.71l4.45,12.42c.48,1.34.92,2.73,1.33,4.18.31-1.09.75-2.41,1.31-3.95l4.61-12.66h3.61l-7.85,20.74h-3.28Z" fill="#3e372a"/><path d="M803.25,249.13l3.63.45c-.57,2.12-1.63,3.77-3.18,4.94-1.55,1.17-3.53,1.76-5.94,1.76-3.03,0-5.44-.93-7.22-2.8-1.78-1.87-2.67-4.49-2.67-7.86s.9-6.2,2.7-8.12c1.8-1.93,4.13-2.89,6.99-2.89s5.04.94,6.8,2.83c1.76,1.89,2.64,4.54,2.64,7.97,0,.21,0,.52-.02.94h-15.47c.13,2.28.77,4.02,1.93,5.23,1.16,1.21,2.6,1.82,4.34,1.82,1.29,0,2.39-.34,3.3-1.02.91-.68,1.63-1.76,2.17-3.24ZM791.71,243.45h11.58c-.16-1.74-.6-3.05-1.33-3.93-1.12-1.35-2.57-2.03-4.36-2.03-1.62,0-2.97.54-4.07,1.62-1.1,1.08-1.71,2.53-1.83,4.34Z" fill="#3e372a"/><path d="M811.22,255.81v-28.63h3.52v28.63h-3.52Z" fill="#3e372a"/><path d="M818.87,245.44c0-3.84,1.07-6.69,3.2-8.54,1.78-1.54,3.96-2.3,6.52-2.3,2.85,0,5.18.93,6.99,2.8,1.81,1.87,2.71,4.45,2.71,7.74,0,2.67-.4,4.77-1.2,6.3-.8,1.53-1.97,2.72-3.5,3.56-1.53.85-3.2,1.27-5.01,1.27-2.9,0-5.25-.93-7.04-2.79-1.79-1.86-2.69-4.54-2.69-8.05ZM822.49,245.44c0,2.66.58,4.65,1.74,5.97,1.16,1.32,2.62,1.98,4.38,1.98s3.2-.66,4.36-1.99c1.16-1.33,1.74-3.35,1.74-6.07,0-2.56-.58-4.51-1.75-5.83-1.17-1.32-2.61-1.98-4.35-1.98s-3.22.66-4.38,1.97c-1.16,1.32-1.74,3.3-1.74,5.96Z" fill="#3e372a"/><path d="M842.43,263.76v-28.69h3.2v2.7c.75-1.05,1.61-1.85,2.56-2.37.95-.53,2.1-.79,3.46-.79,1.77,0,3.33.46,4.69,1.37,1.35.91,2.38,2.2,3.07,3.86.69,1.66,1.04,3.48,1.04,5.46,0,2.12-.38,4.03-1.14,5.73s-1.87,3-3.32,3.91c-1.45.9-2.98,1.36-4.58,1.36-1.17,0-2.22-.25-3.15-.74-.93-.49-1.7-1.12-2.29-1.88v10.1h-3.52ZM845.61,245.56c0,2.67.54,4.64,1.62,5.92,1.08,1.28,2.39,1.91,3.93,1.91s2.9-.66,4.01-1.98c1.11-1.32,1.67-3.37,1.67-6.14s-.54-4.62-1.63-5.94c-1.09-1.31-2.39-1.97-3.9-1.97s-2.82.7-3.97,2.1c-1.15,1.4-1.73,3.43-1.73,6.1Z" fill="#3e372a"/><rect x="942.13" y="227.17" width="157.05" height="46.79" fill="none"/><path d="M945.22,255.81v-28.63h9.86c2.23,0,3.93.14,5.1.41,1.64.38,3.04,1.06,4.2,2.05,1.51,1.28,2.64,2.91,3.39,4.89.75,1.99,1.12,4.25,1.12,6.81,0,2.17-.25,4.1-.76,5.78s-1.16,3.07-1.95,4.17c-.79,1.1-1.66,1.97-2.61,2.6-.94.63-2.08,1.11-3.42,1.44-1.33.33-2.87.49-4.6.49h-10.33ZM949.01,252.43h6.11c1.89,0,3.37-.18,4.44-.53s1.93-.85,2.57-1.48c.9-.9,1.6-2.11,2.1-3.62.5-1.52.75-3.36.75-5.52,0-2.99-.49-5.3-1.47-6.9-.98-1.61-2.18-2.69-3.58-3.23-1.02-.39-2.65-.59-4.9-.59h-6.02v21.88Z" fill="#3e372a"/><path d="M987.85,249.13l3.63.45c-.57,2.12-1.63,3.77-3.18,4.94s-3.53,1.76-5.94,1.76c-3.03,0-5.44-.93-7.22-2.8-1.78-1.87-2.67-4.49-2.67-7.86s.9-6.2,2.7-8.12c1.8-1.93,4.13-2.89,6.99-2.89s5.04.94,6.8,2.83c1.76,1.89,2.64,4.54,2.64,7.97,0,.21,0,.52-.02.94h-15.47c.13,2.28.77,4.02,1.93,5.23s2.6,1.82,4.34,1.82c1.29,0,2.39-.34,3.3-1.02.91-.68,1.63-1.76,2.17-3.24ZM976.31,243.45h11.58c-.16-1.74-.6-3.05-1.33-3.93-1.12-1.35-2.57-2.03-4.36-2.03-1.61,0-2.97.54-4.07,1.62-1.1,1.08-1.71,2.53-1.83,4.34Z" fill="#3e372a"/><path d="M995.82,255.81v-28.63h3.52v28.63h-3.52Z" fill="#3e372a"/><path d="M1004.81,231.22v-4.04h3.52v4.04h-3.52ZM1004.81,255.81v-20.74h3.52v20.74h-3.52Z" fill="#3e372a"/><path d="M1019.44,255.81l-7.89-20.74h3.71l4.45,12.42c.48,1.34.92,2.73,1.33,4.18.31-1.09.75-2.41,1.31-3.95l4.61-12.66h3.61l-7.85,20.74h-3.28Z" fill="#3e372a"/><path d="M1047.87,249.13l3.63.45c-.57,2.12-1.63,3.77-3.18,4.94s-3.53,1.76-5.94,1.76c-3.03,0-5.44-.93-7.22-2.8-1.78-1.87-2.67-4.49-2.67-7.86s.9-6.2,2.7-8.12c1.8-1.93,4.13-2.89,6.99-2.89s5.04.94,6.8,2.83c1.76,1.89,2.64,4.54,2.64,7.97,0,.21,0,.52-.02.94h-15.47c.13,2.28.77,4.02,1.93,5.23s2.6,1.82,4.34,1.82c1.29,0,2.39-.34,3.3-1.02.91-.68,1.63-1.76,2.17-3.24ZM1036.33,243.45h11.58c-.16-1.74-.6-3.05-1.33-3.93-1.12-1.35-2.57-2.03-4.36-2.03-1.61,0-2.97.54-4.07,1.62-1.1,1.08-1.71,2.53-1.83,4.34Z" fill="#3e372a"/><path d="M1055.88,255.81v-20.74h3.16v3.14c.81-1.47,1.55-2.44,2.24-2.91s1.44-.7,2.26-.7c1.18,0,2.39.38,3.61,1.13l-1.21,3.26c-.86-.51-1.72-.76-2.58-.76-.77,0-1.46.23-2.07.69-.61.46-1.05,1.1-1.31,1.92-.39,1.25-.59,2.62-.59,4.1v10.86h-3.52Z" fill="#3e372a"/><rect x="449.3" y="227.17" width="133.88" height="46.79" fill="none"/><path d="M452.39,255.81v-28.63h9.86c2.23,0,3.93.14,5.1.41,1.64.38,3.04,1.06,4.2,2.05,1.51,1.28,2.64,2.91,3.39,4.89.75,1.99,1.12,4.25,1.12,6.81,0,2.17-.25,4.1-.76,5.78s-1.16,3.07-1.95,4.17c-.79,1.1-1.66,1.97-2.61,2.6-.94.63-2.08,1.11-3.42,1.44-1.33.33-2.87.49-4.6.49h-10.33ZM456.17,252.43h6.11c1.89,0,3.37-.18,4.44-.53s1.93-.85,2.57-1.48c.9-.9,1.6-2.11,2.1-3.62.5-1.52.75-3.36.75-5.52,0-2.99-.49-5.3-1.47-6.9-.98-1.61-2.18-2.69-3.58-3.23-1.02-.39-2.65-.59-4.9-.59h-6.02v21.88Z" fill="#3e372a"/><path d="M495.02,249.13l3.63.45c-.57,2.12-1.63,3.77-3.18,4.94-1.55,1.17-3.53,1.76-5.94,1.76-3.03,0-5.44-.93-7.22-2.8-1.78-1.87-2.67-4.49-2.67-7.86s.9-6.2,2.7-8.12c1.8-1.93,4.13-2.89,6.99-2.89s5.04.94,6.8,2.83c1.76,1.89,2.64,4.54,2.64,7.97,0,.21,0,.52-.02.94h-15.47c.13,2.28.77,4.02,1.93,5.23,1.16,1.21,2.6,1.82,4.34,1.82,1.29,0,2.39-.34,3.3-1.02.91-.68,1.63-1.76,2.17-3.24ZM483.48,243.45h11.58c-.16-1.74-.6-3.05-1.33-3.93-1.12-1.35-2.57-2.03-4.36-2.03-1.61,0-2.97.54-4.07,1.62-1.1,1.08-1.71,2.53-1.83,4.34Z" fill="#3e372a"/><path d="M503.91,255.81v-18.01h-3.11v-2.73h3.11v-2.21c0-1.39.12-2.43.37-3.11.34-.91.93-1.65,1.79-2.22.85-.57,2.05-.85,3.58-.85.99,0,2.08.12,3.28.35l-.53,3.07c-.73-.13-1.42-.2-2.07-.2-1.07,0-1.82.23-2.27.68-.44.46-.66,1.31-.66,2.56v1.91h4.04v2.73h-4.04v18.01h-3.5Z" fill="#3e372a"/><path d="M514.2,231.22v-4.04h3.52v4.04h-3.52ZM514.2,255.81v-20.74h3.52v20.74h-3.52Z" fill="#3e372a"/><path d="M523.07,255.81v-20.74h3.16v2.95c1.52-2.28,3.72-3.42,6.6-3.42,1.25,0,2.4.22,3.45.67,1.05.45,1.83,1.04,2.35,1.77.52.73.89,1.6,1.09,2.6.13.65.2,1.79.2,3.42v12.75h-3.52v-12.62c0-1.43-.14-2.5-.41-3.21-.27-.71-.76-1.28-1.46-1.7-.7-.42-1.51-.63-2.45-.63-1.5,0-2.79.48-3.88,1.43-1.09.95-1.63,2.75-1.63,5.41v11.33h-3.52Z" fill="#3e372a"/><path d="M559.51,249.13l3.63.45c-.57,2.12-1.63,3.77-3.18,4.94-1.55,1.17-3.53,1.76-5.94,1.76-3.03,0-5.44-.93-7.22-2.8-1.78-1.87-2.67-4.49-2.67-7.86s.9-6.2,2.7-8.12c1.8-1.93,4.13-2.89,6.99-2.89s5.04.94,6.8,2.83c1.76,1.89,2.64,4.54,2.64,7.97,0,.21,0,.52-.02.94h-15.47c.13,2.28.77,4.02,1.93,5.23,1.16,1.21,2.6,1.82,4.34,1.82,1.29,0,2.39-.34,3.3-1.02.91-.68,1.63-1.76,2.17-3.24ZM547.97,243.45h11.58c-.16-1.74-.6-3.05-1.33-3.93-1.12-1.35-2.57-2.03-4.36-2.03-1.61,0-2.97.54-4.07,1.62-1.1,1.08-1.71,2.53-1.83,4.34Z" fill="#3e372a"/><rect x="1110.91" y="591.8" width="259.08" height="46.79" fill="none"/><path d="M1113.92,619.01v-27.2h19.67v3.21h-16.07v8.33h15.05v3.19h-15.05v9.26h16.7v3.21h-20.3Z" fill="#3e372a"/><path d="M1138.76,619.01v-19.71h3.01v2.8c1.45-2.16,3.54-3.25,6.27-3.25,1.19,0,2.28.21,3.28.64,1,.43,1.74.99,2.24,1.68.5.69.84,1.52,1.04,2.47.12.62.19,1.7.19,3.25v12.12h-3.34v-11.99c0-1.36-.13-2.38-.39-3.05s-.72-1.21-1.38-1.61c-.66-.4-1.44-.6-2.33-.6-1.42,0-2.65.45-3.68,1.35-1.03.9-1.55,2.62-1.55,5.14v10.76h-3.34Z" fill="#3e372a"/><path d="M1172.68,619.01v-2.49c-1.25,1.96-3.09,2.93-5.51,2.93-1.57,0-3.01-.43-4.33-1.3-1.32-.87-2.34-2.07-3.06-3.63s-1.09-3.34-1.09-5.35.33-3.75.98-5.35,1.64-2.83,2.95-3.68,2.78-1.28,4.4-1.28c1.19,0,2.25.25,3.17.75s1.68,1.15,2.26,1.96v-9.76h3.32v27.2h-3.1ZM1162.12,609.18c0,2.52.53,4.41,1.6,5.66,1.06,1.25,2.32,1.87,3.77,1.87s2.7-.6,3.72-1.79,1.53-3.02,1.53-5.46c0-2.7-.52-4.68-1.56-5.94s-2.32-1.89-3.84-1.89-2.72.61-3.72,1.82c-1,1.21-1.49,3.12-1.49,5.73Z" fill="#3e372a"/><path d="M1190.34,609.16c0-3.65,1.01-6.35,3.04-8.11,1.69-1.46,3.76-2.19,6.2-2.19,2.71,0,4.92.89,6.64,2.66s2.58,4.23,2.58,7.36c0,2.54-.38,4.53-1.14,5.98s-1.87,2.58-3.32,3.39c-1.45.8-3.04,1.21-4.76,1.21-2.76,0-4.99-.88-6.69-2.65-1.7-1.77-2.55-4.32-2.55-7.64ZM1193.77,609.16c0,2.52.55,4.41,1.65,5.67s2.49,1.88,4.16,1.88,3.04-.63,4.14-1.89,1.65-3.18,1.65-5.77c0-2.44-.55-4.28-1.66-5.54-1.11-1.26-2.48-1.88-4.13-1.88s-3.06.62-4.16,1.87c-1.1,1.25-1.65,3.14-1.65,5.66Z" fill="#3e372a"/><path d="M1213.52,619.01v-17.11h-2.95v-2.6h2.95v-2.1c0-1.32.12-2.31.35-2.95.32-.87.89-1.57,1.7-2.11.81-.54,1.94-.81,3.4-.81.94,0,1.98.11,3.12.33l-.5,2.91c-.69-.12-1.35-.19-1.97-.19-1.01,0-1.73.22-2.15.65-.42.43-.63,1.24-.63,2.43v1.82h3.84v2.6h-3.84v17.11h-3.32Z" fill="#3e372a"/><path d="M1232.42,611.29l3.25-.45c.09,2.08.48,3.5,1.17,4.27.69.77,1.65,1.15,2.88,1.15.9,0,1.68-.21,2.34-.62s1.11-.98,1.35-1.69.37-1.85.37-3.41v-18.74h3.6v18.54c0,2.28-.28,4.04-.83,5.29-.55,1.25-1.42,2.2-2.62,2.86-1.19.66-2.59.98-4.2.98-2.39,0-4.21-.69-5.48-2.06-1.27-1.37-1.88-3.41-1.83-6.12Z" fill="#3e372a"/><path d="M1265.69,616.58c-1.24,1.05-2.43,1.79-3.57,2.23-1.14.43-2.37.65-3.68.65-2.17,0-3.83-.53-4.99-1.59s-1.74-2.41-1.74-4.05c0-.96.22-1.85.66-2.64.44-.8,1.01-1.44,1.73-1.92.71-.48,1.51-.85,2.4-1.09.66-.17,1.65-.34,2.97-.5,2.7-.32,4.68-.71,5.96-1.15.01-.46.02-.75.02-.87,0-1.36-.32-2.32-.95-2.88-.85-.75-2.12-1.13-3.8-1.13-1.57,0-2.73.28-3.48.83-.75.55-1.3,1.52-1.66,2.92l-3.27-.45c.3-1.4.79-2.53,1.47-3.39s1.66-1.52,2.95-1.99,2.78-.7,4.47-.7,3.05.2,4.1.59c1.05.4,1.82.89,2.32,1.49s.84,1.36,1.04,2.27c.11.57.17,1.6.17,3.08v4.45c0,3.11.07,5.07.21,5.89.14.82.42,1.61.84,2.37h-3.49c-.35-.69-.57-1.5-.67-2.43ZM1265.41,609.12c-1.21.5-3.03.92-5.46,1.26-1.37.2-2.34.42-2.91.67-.57.25-1.01.61-1.32,1.09s-.46,1-.46,1.59c0,.89.34,1.63,1.01,2.23.67.59,1.66.89,2.96.89s2.43-.28,3.43-.84,1.74-1.33,2.21-2.31c.36-.75.54-1.87.54-3.34v-1.22Z" fill="#3e372a"/><path d="M1273.97,619.01v-19.71h3.01v2.8c1.45-2.16,3.54-3.25,6.27-3.25,1.19,0,2.28.21,3.28.64,1,.43,1.74.99,2.24,1.68.5.69.84,1.52,1.04,2.47.12.62.19,1.7.19,3.25v12.12h-3.34v-11.99c0-1.36-.13-2.38-.39-3.05s-.72-1.21-1.38-1.61c-.66-.4-1.44-.6-2.33-.6-1.42,0-2.65.45-3.68,1.35-1.03.9-1.55,2.62-1.55,5.14v10.76h-3.34Z" fill="#3e372a"/><path d="M1308.02,619.01v-2.89c-1.53,2.23-3.62,3.34-6.25,3.34-1.16,0-2.25-.22-3.26-.67-1.01-.45-1.76-1-2.25-1.68-.49-.67-.83-1.5-1.03-2.48-.14-.66-.2-1.69-.2-3.12v-12.21h3.34v10.93c0,1.74.07,2.92.2,3.53.21.88.66,1.57,1.34,2.07s1.52.75,2.52.75,1.94-.26,2.82-.77,1.5-1.21,1.87-2.1c.36-.88.55-2.17.55-3.85v-10.56h3.34v19.71h-2.99Z" fill="#3e372a"/><path d="M1329.09,616.58c-1.24,1.05-2.43,1.79-3.57,2.23-1.14.43-2.37.65-3.68.65-2.17,0-3.83-.53-4.99-1.59s-1.74-2.41-1.74-4.05c0-.96.22-1.85.66-2.64.44-.8,1.01-1.44,1.73-1.92.71-.48,1.51-.85,2.4-1.09.66-.17,1.65-.34,2.97-.5,2.7-.32,4.68-.71,5.96-1.15.01-.46.02-.75.02-.87,0-1.36-.32-2.32-.95-2.88-.85-.75-2.12-1.13-3.8-1.13-1.57,0-2.73.28-3.48.83-.75.55-1.3,1.52-1.66,2.92l-3.27-.45c.3-1.4.79-2.53,1.47-3.39s1.66-1.52,2.95-1.99,2.78-.7,4.47-.7,3.05.2,4.1.59c1.05.4,1.82.89,2.32,1.49s.84,1.36,1.04,2.27c.11.57.17,1.6.17,3.08v4.45c0,3.11.07,5.07.21,5.89.14.82.42,1.61.84,2.37h-3.49c-.35-.69-.57-1.5-.67-2.43ZM1328.82,609.12c-1.21.5-3.03.92-5.46,1.26-1.37.2-2.34.42-2.91.67-.57.25-1.01.61-1.32,1.09s-.46,1-.46,1.59c0,.89.34,1.63,1.01,2.23.67.59,1.66.89,2.96.89s2.43-.28,3.43-.84,1.74-1.33,2.21-2.31c.36-.75.54-1.87.54-3.34v-1.22Z" fill="#3e372a"/><path d="M1337.33,619.01v-19.71h3.01v2.99c.77-1.4,1.48-2.32,2.12-2.76s1.36-.67,2.14-.67c1.13,0,2.27.36,3.43,1.08l-1.15,3.1c-.82-.48-1.63-.72-2.45-.72-.73,0-1.39.22-1.97.66s-1,1.05-1.24,1.83c-.37,1.19-.56,2.49-.56,3.9v10.32h-3.34Z" fill="#3e372a"/><path d="M1349.88,626.6l-.37-3.14c.73.2,1.37.3,1.91.3.74,0,1.34-.12,1.78-.37s.81-.59,1.09-1.04c.21-.33.55-1.16,1.02-2.49.06-.19.16-.46.3-.82l-7.48-19.74h3.6l4.1,11.41c.53,1.45,1.01,2.97,1.43,4.56.38-1.53.84-3.03,1.37-4.49l4.21-11.49h3.34l-7.5,20.04c-.8,2.17-1.43,3.66-1.87,4.47-.59,1.1-1.28,1.91-2.04,2.42-.77.51-1.68.77-2.75.77-.64,0-1.36-.14-2.15-.41Z" fill="#3e372a"/><rect x="9.97" y="592.12" width="195.29" height="46.79" fill="none"/><path d="M24.13,619.32h-3.34v-21.28c-.8.77-1.86,1.53-3.16,2.3-1.31.77-2.48,1.34-3.52,1.73v-3.23c1.87-.88,3.5-1.94,4.9-3.19,1.4-1.25,2.39-2.46,2.97-3.64h2.15v27.31Z" fill="#3e372a"/><path d="M50.01,598.78l-3.32.26c-.3-1.31-.72-2.26-1.26-2.86-.9-.95-2.02-1.43-3.34-1.43-1.06,0-2,.3-2.8.89-1.05.77-1.88,1.89-2.49,3.36-.61,1.47-.92,3.57-.95,6.29.8-1.22,1.79-2.13,2.95-2.73,1.16-.59,2.38-.89,3.66-.89,2.23,0,4.12.82,5.69,2.46,1.56,1.64,2.35,3.76,2.35,6.35,0,1.71-.37,3.29-1.1,4.76-.74,1.47-1.75,2.59-3.03,3.37-1.29.78-2.75,1.17-4.38,1.17-2.78,0-5.05-1.02-6.81-3.07-1.76-2.05-2.63-5.42-2.63-10.12,0-5.26.97-9.08,2.91-11.47,1.69-2.08,3.98-3.12,6.85-3.12,2.14,0,3.89.6,5.26,1.8,1.37,1.2,2.19,2.86,2.46,4.97ZM36.37,610.51c0,1.15.24,2.25.73,3.3.49,1.05,1.17,1.85,2.05,2.4.88.55,1.8.83,2.76.83,1.41,0,2.62-.57,3.64-1.71,1.01-1.14,1.52-2.68,1.52-4.64s-.5-3.36-1.5-4.44-2.26-1.62-3.79-1.62-2.79.54-3.84,1.62c-1.05,1.08-1.58,2.5-1.58,4.26Z" fill="#3e372a"/><path d="M55.69,619.32v-3.8h3.8v3.8h-3.8Z" fill="#3e372a"/><path d="M76.95,619.32h-3.34v-21.28c-.8.77-1.86,1.53-3.16,2.3-1.31.77-2.48,1.34-3.52,1.73v-3.23c1.87-.88,3.5-1.94,4.9-3.19,1.4-1.25,2.39-2.46,2.97-3.64h2.15v27.31Z" fill="#3e372a"/><path d="M85.51,605.91c0-3.22.33-5.8.99-7.77.66-1.96,1.65-3.47,2.95-4.54,1.3-1.06,2.95-1.6,4.93-1.6,1.46,0,2.74.29,3.84.88,1.1.59,2.01,1.43,2.73,2.54.72,1.11,1.28,2.46,1.69,4.04.41,1.59.61,3.73.61,6.43,0,3.19-.33,5.77-.98,7.73-.66,1.96-1.64,3.48-2.94,4.54-1.31,1.07-2.95,1.61-4.94,1.61-2.62,0-4.68-.94-6.18-2.82-1.79-2.26-2.69-5.95-2.69-11.06ZM88.94,605.91c0,4.47.52,7.44,1.57,8.92,1.04,1.48,2.33,2.22,3.87,2.22s2.82-.74,3.87-2.23c1.04-1.48,1.57-4.45,1.57-8.91s-.52-7.45-1.57-8.92c-1.05-1.47-2.35-2.21-3.91-2.21s-2.76.65-3.67,1.95c-1.15,1.66-1.73,4.72-1.73,9.18Z" fill="#3e372a"/><rect x="280.57" y="591.44" width="195.29" height="46.79" fill="none"/><path d="M282.16,611.46l3.34-.45c.38,1.89,1.04,3.26,1.96,4.09.92.83,2.04,1.25,3.37,1.25,1.57,0,2.9-.54,3.98-1.63,1.08-1.09,1.62-2.44,1.62-4.04s-.5-2.8-1.5-3.79c-1-1-2.28-1.49-3.82-1.49-.63,0-1.42.12-2.36.37l.37-2.93c.22.02.4.04.54.04,1.42,0,2.7-.37,3.84-1.11,1.14-.74,1.71-1.89,1.71-3.43,0-1.22-.41-2.24-1.24-3.04-.83-.8-1.9-1.21-3.21-1.21s-2.38.41-3.25,1.22c-.87.82-1.42,2.04-1.67,3.67l-3.34-.59c.41-2.24,1.34-3.97,2.78-5.21,1.45-1.23,3.25-1.85,5.4-1.85,1.48,0,2.85.32,4.1.96,1.25.64,2.2,1.51,2.87,2.61.66,1.1.99,2.27.99,3.51s-.32,2.25-.95,3.21-1.56,1.73-2.8,2.3c1.61.37,2.86,1.14,3.75,2.31s1.34,2.63,1.34,4.39c0,2.38-.87,4.39-2.6,6.04-1.73,1.65-3.92,2.48-6.57,2.48-2.39,0-4.37-.71-5.95-2.13s-2.48-3.27-2.7-5.53Z" fill="#3e372a"/><path d="M303.28,605.23c0-3.22.33-5.8.99-7.77.66-1.96,1.65-3.47,2.95-4.54,1.3-1.06,2.95-1.6,4.93-1.6,1.46,0,2.74.29,3.84.88,1.1.59,2.01,1.44,2.73,2.54.72,1.11,1.28,2.46,1.69,4.04.41,1.59.61,3.73.61,6.43,0,3.19-.33,5.77-.98,7.73-.66,1.96-1.64,3.48-2.94,4.55-1.31,1.07-2.95,1.61-4.94,1.61-2.62,0-4.68-.94-6.18-2.82-1.79-2.26-2.69-5.95-2.69-11.06ZM306.71,605.23c0,4.47.52,7.44,1.57,8.92,1.04,1.48,2.33,2.22,3.87,2.22s2.82-.74,3.87-2.23c1.04-1.48,1.57-4.45,1.57-8.91s-.52-7.45-1.57-8.92c-1.05-1.47-2.35-2.21-3.91-2.21s-2.76.65-3.67,1.95c-1.15,1.66-1.73,4.72-1.73,9.18Z" fill="#3e372a"/><path d="M326.29,618.65v-3.8h3.8v3.8h-3.8Z" fill="#3e372a"/><path d="M347.55,618.65h-3.34v-21.28c-.8.77-1.86,1.53-3.16,2.3-1.31.77-2.48,1.34-3.52,1.73v-3.23c1.87-.88,3.5-1.94,4.9-3.19,1.4-1.25,2.39-2.46,2.97-3.64h2.15v27.31Z" fill="#3e372a"/><path d="M356.1,605.23c0-3.22.33-5.8.99-7.77.66-1.96,1.65-3.47,2.95-4.54,1.3-1.06,2.95-1.6,4.93-1.6,1.46,0,2.74.29,3.84.88,1.1.59,2.01,1.44,2.73,2.54.72,1.11,1.28,2.46,1.69,4.04.41,1.59.61,3.73.61,6.43,0,3.19-.33,5.77-.98,7.73-.66,1.96-1.64,3.48-2.94,4.55-1.31,1.07-2.95,1.61-4.94,1.61-2.62,0-4.68-.94-6.18-2.82-1.79-2.26-2.69-5.95-2.69-11.06ZM359.54,605.23c0,4.47.52,7.44,1.57,8.92,1.04,1.48,2.33,2.22,3.87,2.22s2.82-.74,3.87-2.23c1.04-1.48,1.57-4.45,1.57-8.91s-.52-7.45-1.57-8.92c-1.05-1.47-2.35-2.21-3.91-2.21s-2.76.65-3.67,1.95c-1.15,1.66-1.73,4.72-1.73,9.18Z" fill="#3e372a"/><rect x="487.33" y="591.44" width="195.29" height="46.79" fill="none"/><path d="M501.49,618.65h-3.34v-21.28c-.8.77-1.86,1.53-3.16,2.3-1.31.77-2.48,1.34-3.52,1.73v-3.23c1.87-.88,3.5-1.94,4.9-3.19,1.4-1.25,2.39-2.46,2.97-3.64h2.15v27.31Z" fill="#3e372a"/><path d="M510.06,611.46l3.34-.45c.38,1.89,1.04,3.26,1.96,4.09.92.83,2.04,1.25,3.37,1.25,1.57,0,2.9-.54,3.98-1.63,1.08-1.09,1.62-2.44,1.62-4.04s-.5-2.8-1.5-3.79c-1-1-2.28-1.49-3.82-1.49-.63,0-1.42.12-2.36.37l.37-2.93c.22.02.4.04.54.04,1.42,0,2.7-.37,3.84-1.11,1.14-.74,1.71-1.89,1.71-3.43,0-1.22-.41-2.24-1.24-3.04-.83-.8-1.9-1.21-3.21-1.21s-2.38.41-3.25,1.22c-.87.82-1.42,2.04-1.67,3.67l-3.34-.59c.41-2.24,1.34-3.97,2.78-5.21,1.45-1.23,3.25-1.85,5.4-1.85,1.48,0,2.85.32,4.1.96,1.25.64,2.2,1.51,2.87,2.61.66,1.1.99,2.27.99,3.51s-.32,2.25-.95,3.21-1.56,1.73-2.8,2.3c1.61.37,2.86,1.14,3.75,2.31s1.34,2.63,1.34,4.39c0,2.38-.87,4.39-2.6,6.04-1.73,1.65-3.92,2.48-6.57,2.48-2.39,0-4.37-.71-5.95-2.13s-2.48-3.27-2.7-5.53Z" fill="#3e372a"/><path d="M533.05,618.65v-3.8h3.8v3.8h-3.8Z" fill="#3e372a"/><path d="M554.31,618.65h-3.34v-21.28c-.8.77-1.86,1.53-3.16,2.3-1.31.77-2.48,1.34-3.52,1.73v-3.23c1.87-.88,3.5-1.94,4.9-3.19,1.4-1.25,2.39-2.46,2.97-3.64h2.15v27.31Z" fill="#3e372a"/><path d="M572.62,618.65h-3.34v-21.28c-.8.77-1.86,1.53-3.16,2.3-1.31.77-2.48,1.34-3.52,1.73v-3.23c1.87-.88,3.5-1.94,4.9-3.19,1.4-1.25,2.39-2.46,2.97-3.64h2.15v27.31Z" fill="#3e372a"/><rect x="683.65" y="591.15" width="195.29" height="46.79" fill="none"/><path d="M702.78,615.15v3.21h-17.98c-.02-.8.11-1.58.39-2.32.46-1.22,1.19-2.43,2.2-3.62,1.01-1.19,2.46-2.56,4.37-4.12,2.96-2.42,4.95-4.34,5.99-5.76,1.04-1.42,1.56-2.75,1.56-4.02s-.47-2.44-1.42-3.35-2.18-1.36-3.7-1.36c-1.61,0-2.89.48-3.86,1.45s-1.45,2.3-1.47,4.01l-3.43-.35c.24-2.56,1.12-4.51,2.65-5.85,1.53-1.34,3.59-2.01,6.18-2.01s4.68.72,6.2,2.17,2.28,3.24,2.28,5.38c0,1.09-.22,2.16-.67,3.21s-1.18,2.16-2.22,3.32c-1.03,1.16-2.75,2.76-5.15,4.79-2,1.68-3.29,2.82-3.86,3.42-.57.6-1.04,1.2-1.41,1.81h13.34Z" fill="#3e372a"/><path d="M706.58,594.72v-3.21h17.61v2.6c-1.73,1.84-3.45,4.29-5.15,7.35-1.7,3.06-3.02,6.2-3.94,9.43-.67,2.28-1.09,4.77-1.28,7.48h-3.43c.04-2.14.46-4.73,1.26-7.76s1.96-5.95,3.46-8.77c1.5-2.81,3.1-5.19,4.8-7.12h-13.32Z" fill="#3e372a"/><path d="M729.37,618.36v-3.8h3.8v3.8h-3.8Z" fill="#3e372a"/><path d="M750.63,618.36h-3.34v-21.28c-.8.77-1.86,1.53-3.16,2.3-1.31.77-2.48,1.34-3.52,1.73v-3.23c1.87-.88,3.5-1.94,4.9-3.19s2.39-2.46,2.97-3.64h2.15v27.31Z" fill="#3e372a"/><path d="M768.94,618.36h-3.34v-21.28c-.8.77-1.86,1.53-3.16,2.3-1.31.77-2.48,1.34-3.52,1.73v-3.23c1.87-.88,3.5-1.94,4.9-3.19s2.39-2.46,2.97-3.64h2.15v27.31Z" fill="#3e372a"/><rect x="922.62" y="591.8" width="195.29" height="46.79" fill="none"/><path d="M936.78,619.01h-3.34v-21.28c-.8.77-1.86,1.53-3.16,2.3s-2.48,1.34-3.52,1.73v-3.23c1.87-.88,3.5-1.94,4.9-3.19,1.4-1.25,2.39-2.46,2.97-3.64h2.15v27.31Z" fill="#3e372a"/><path d="M955.09,619.01h-3.34v-21.28c-.8.77-1.86,1.53-3.16,2.3s-2.48,1.34-3.52,1.73v-3.23c1.87-.88,3.5-1.94,4.9-3.19,1.4-1.25,2.39-2.46,2.97-3.64h2.15v27.31Z" fill="#3e372a"/><path d="M965.52,619.01v-3.8h3.8v3.8h-3.8Z" fill="#3e372a"/><path d="M986.78,619.01h-3.34v-21.28c-.8.77-1.86,1.53-3.16,2.3s-2.48,1.34-3.52,1.73v-3.23c1.87-.88,3.5-1.94,4.9-3.19,1.4-1.25,2.39-2.46,2.97-3.64h2.15v27.31Z" fill="#3e372a"/><path d="M1012.89,615.8v3.21h-17.98c-.03-.8.1-1.58.39-2.32.46-1.22,1.19-2.43,2.2-3.62s2.46-2.56,4.37-4.12c2.96-2.42,4.95-4.34,5.99-5.76,1.04-1.42,1.56-2.75,1.56-4.02s-.47-2.44-1.42-3.35-2.18-1.36-3.7-1.36c-1.61,0-2.89.48-3.86,1.45s-1.45,2.3-1.47,4.01l-3.43-.35c.23-2.56,1.12-4.51,2.65-5.85,1.53-1.34,3.59-2.01,6.18-2.01s4.68.72,6.2,2.17,2.28,3.24,2.28,5.38c0,1.09-.22,2.16-.67,3.21s-1.18,2.16-2.22,3.32-2.75,2.76-5.15,4.79c-2,1.68-3.29,2.82-3.86,3.42-.57.6-1.04,1.2-1.41,1.81h13.34Z" fill="#3e372a"/></g></svg>