<svg width="406" height="210" viewBox="0 0 406 210" fill="none" xmlns="http://www.w3.org/2000/svg">
    <rect width="405.333" height="210" transform="translate(0.333252)" fill="#909AF9"/>
    <path d="M202.916 153.216C176.431 153.216 154.884 131.605 154.884 105.069H168.149C168.149 111.963 170.188 118.702 174.009 124.434C177.829 130.166 183.26 134.634 189.613 137.272C195.967 139.911 202.958 140.601 209.703 139.256C216.448 137.911 222.644 134.591 227.506 129.716C232.369 124.842 235.681 118.631 237.023 111.869C238.364 105.108 237.676 98.0992 235.044 91.73C232.412 85.3608 227.955 79.9169 222.237 76.0868C216.519 72.2568 209.797 70.2125 202.92 70.2125V56.9321C229.405 56.9321 250.952 78.5432 250.952 105.083C250.952 131.623 229.401 153.216 202.916 153.216Z" fill="#95ECFF"/>
    <path d="M203.031 139.974C193.788 139.974 184.924 136.293 178.388 129.741C171.852 123.189 168.18 114.303 168.18 105.037C168.18 95.7715 171.852 86.8852 178.388 80.3333C184.924 73.7814 193.788 70.1006 203.031 70.1006V83.3984C197.306 83.3984 191.816 85.6782 187.768 89.7362C183.72 93.7943 181.445 99.2983 181.445 105.037C181.445 110.776 183.72 116.28 187.768 120.338C191.816 124.396 197.306 126.676 203.031 126.676V139.974Z" fill="#5869FF" fill-opacity="0.47"/>
    <path d="M202.555 166.075V152.787C228.814 152.787 250.191 131.371 250.191 105.034C250.191 78.6962 228.828 57.2803 202.555 57.2803C176.282 57.2803 154.918 78.6962 154.918 105.034H141.667C141.667 71.3798 168.983 44 202.555 44C236.126 44 263.442 71.3798 263.442 105.034C263.442 138.688 236.126 166.075 202.555 166.075Z" fill="#5869FF" fill-opacity="0.47"/>
</svg>
